<svg xmlns="http://www.w3.org/2000/svg" xmlns:svg="http://www.w3.org/2000/svg" id="svg1130" width="1061.8" height="615.449" version="1.1" viewBox="0 0 1061.8 615.449" xml:space="preserve"><metadata id="metadata1136"/><g id="g1138" transform="matrix(1.3333333,0,0,-1.3333333,-4.2997476,654.76871)"><g id="g1140" transform="scale(0.1)"><g id="g1142"><path d="M 2230.8,577.557 C 2231.43,786.986 1402.19,918.166 736.458,812.767 71.3398,707.077 69.8508,442.728 733.772,338.291 1398.31,234.146 2229.04,366.893 2230.8,577.506" style="fill:#e0e0e0;fill-opacity:1;fill-rule:evenodd;stroke:none" id="path1144"/><path d="M 2230.8,577.557 C 2231.43,786.986 1402.19,918.166 736.458,812.767 71.3398,707.077 69.8508,442.728 733.772,338.291 1398.31,234.146 2229.04,366.893 2230.8,577.506" style="fill:none;stroke:#000;stroke-width:7.5;stroke-linecap:butt;stroke-linejoin:round;stroke-miterlimit:10;stroke-dasharray:none;stroke-opacity:1" id="path1146"/><g id="g1148" transform="scale(10)"><text transform="matrix(1,0,0,-1,105,59.76)" style="font-variant:normal;font-weight:700;font-size:15.75px;font-family:Helvetica;-inkscape-font-specification:Helvetica-Bold;writing-mode:lr-tb;fill:#000;fill-opacity:1;fill-rule:nonzero;stroke:none" id="text1152"><tspan id="tspan1150" x="0 10.505 14.884 23.641 35.894" y="0">View</tspan></text><text transform="matrix(0.909091,0,0,-1,57.84,43.2)" style="font-variant:normal;font-weight:400;font-size:13.75px;font-family:Helvetica;-inkscape-font-specification:Helvetica;writing-mode:lr-tb;fill:#000;fill-opacity:1;fill-rule:nonzero;stroke:none" id="text1156"><tspan id="tspan1154" x="0 4.579 11.454 19.099 26.744 33.619 41.264 48.909 52.731 60.376 68.021 71.074 74.896 77.949 85.594 89.416 97.061 101.64 105.463 113.108 119.983 127.627 132.206" y="0">(conceptual interface)</tspan></text></g><path d="M 252,1762.8 750,885.6" style="fill:none;stroke:#000;stroke-width:7.5;stroke-linecap:round;stroke-linejoin:round;stroke-miterlimit:10;stroke-dasharray:none;stroke-opacity:1" id="path1158"/><path d="m 787.2,820.8 -81.6,69.6 63.6,36 18,-105.6" style="fill:#000;fill-opacity:1;fill-rule:evenodd;stroke:none" id="path1160"/><path d="m 787.2,820.8 -81.6,69.6 63.6,36 18,-105.6" style="fill:none;stroke:#000;stroke-width:7.5;stroke-linecap:round;stroke-linejoin:round;stroke-miterlimit:10;stroke-dasharray:none;stroke-opacity:1" id="path1162"/><path d="m 463.2,1550.4 249.6,-438 -136.8,-78 -249.6,438 136.8,78" style="fill:#fff;fill-opacity:1;fill-rule:evenodd;stroke:none" id="path1164"/><g id="g1166" transform="scale(10)"><text transform="matrix(0.430792,-0.75477862,-0.90245125,-0.51507716,39.6651,145.92)" style="font-variant:normal;font-weight:400;font-size:13.23271656px;font-family:'Times New Roman';-inkscape-font-specification:Times-Roman;writing-mode:lr-tb;fill:#000;fill-opacity:1;fill-rule:nonzero;stroke:none" id="text1170"><tspan id="tspan1168" x="0 7.463" y="0">&lt;</tspan></text><text transform="matrix(0.45325717,-0.79413577,-0.8913798,-0.5087581,45.3051,135.84)" style="font-variant:normal;font-weight:700;font-size:13.3970747px;font-family:'Times New Roman';-inkscape-font-specification:Times-Bold;writing-mode:lr-tb;fill:#000;fill-opacity:1;fill-rule:nonzero;stroke:none" id="text1174"><tspan id="tspan1172" x="0 3.724 8.936 12.285 18.984" y="0">is a</tspan></text><text transform="matrix(0.430792,-0.75477862,-0.90245125,-0.51507716,56.690231,115.82307)" style="font-variant:normal;font-weight:400;font-size:13.23271656px;font-family:'Times New Roman';-inkscape-font-specification:Times-Roman;writing-mode:lr-tb;fill:#000;fill-opacity:1;fill-rule:nonzero;stroke:none" id="text1178"><tspan id="tspan1176" x="0 7.463" y="0">&gt;</tspan></text></g><path d="m 35.9998,2734.8 3.6001,-193.2 4.8,-79.2 3.6001,-60 4.7998,-49.2 4.8001,-43.2 3.6001,-38.4 4.7998,-34.8 4.8,-31.2 3.6001,-28.8 4.8001,-27.6 4.7998,-25.2 3.6001,-22.8 4.8,-22.8 L 96,2058 l 4.8,-19.2 4.8,-19.2 3.6,-16.8 4.8,-16.8 4.8,-15.6 3.6,-15.6 4.8,-14.4 4.8,-13.2 3.6,-13.2 4.8,-12 3.6,-10.8 4.8,-10.8 4.8,-10.8 3.6,-9.6 4.8,-9.6 4.8,-8.4 3.6,-8.4 4.8,-7.2 4.8,-7.2 3.6,-7.2 4.8,-6 3.6,-6 4.8,-4.8 4.8,-4.8 3.6,-4.8 4.8,-3.6 4.8,-3.6 3.6,-3.6 4.8,-2.4 4.8,-2.4 3.6,-2.4 4.8,-1.2 3.6,-1.2 4.8,-1.2 H 258 l 4.8,1.2 3.6,1.2 4.8,1.2 4.8,2.4 3.6,2.4 4.8,2.4 3.6,3.6 4.8,3.6 4.8,3.6 3.6,4.8 4.8,4.8 4.8,4.8 3.6,6 4.8,6 4.8,7.2 3.6,7.2 4.8,7.2 3.6,8.4 4.8,8.4 4.8,9.6 3.6,9.6 4.8,10.8 4.8,10.8 3.6,10.8 4.8,12 4.8,13.2 3.6,13.2 4.8,14.4 3.6,15.6 4.8,15.6 4.8,16.8 3.6,16.8 4.8,19.2 4.8,19.2 3.6,20.4 4.8,22.8 4.8,22.8 3.6,25.2 4.8,27.6 3.6,28.8 4.8,31.2 4.8,34.8 3.6,38.4 4.8,43.2 4.8,49.2 3.6,60 4.8,79.2 4.8,193.2 v 0 l -3.6,193.2 -4.8,79.2 -3.6,60 -4.8,49.2 -4.8,43.2 -3.6,38.4 -4.8,34.8 -4.8,31.2 -3.6,28.8 -4.8,27.6 -4.8,25.2 -3.6,22.8 -4.8,22.8 -3.6,20.4 -4.8,19.2 -4.8,19.2 -3.6,16.8 -4.8,16.8 -4.8,15.6 -3.6,15.6 -4.8,14.4 -4.8,13.2 -3.6,13.2 -4.8,12 -3.6,10.8 -4.8,10.8 -4.8,10.8 -3.6,9.6 -4.8,9.6 -4.8,8.4 -3.6,8.4 -4.8,7.2 -4.8,7.2 -3.6,7.2 -4.8,6 -3.6,6 -4.8,4.8 -4.8,4.8 -3.6,4.8 -4.8,3.6 -4.8,3.6 -3.6,3.6 -4.8,2.4 -4.8,2.4 -3.6,2.4 -4.8,1.2 -3.6,1.2 -4.8,1.2 H 246 l -4.8,-1.2 -3.6,-1.2 -4.8,-1.2 -4.8,-2.4 -3.6,-2.4 -4.8,-2.4 -3.6,-3.6 -4.8,-3.6 -4.8,-3.6 -3.6,-4.8 -4.8,-4.8 -4.8,-4.8 -3.6,-6 -4.8,-6 -4.8,-7.2 -3.6,-7.2 -4.8,-7.2 -3.6,-8.4 -4.8,-8.4 -4.8,-9.6 -3.6,-9.6 -4.8,-10.8 -4.8,-10.8 -3.6,-10.8 -4.8,-12 -4.8,-13.2 -3.6,-13.2 -4.8,-14.4 -3.6,-15.6 -4.8,-15.6 -4.8,-16.8 -3.6,-16.8 -4.8,-19.2 -4.8,-19.2 -3.6001,-20.4 -4.8001,-22.8 -4.8,-22.8 -3.5999,-25.2 -4.8,-27.6 L 71.9998,3264 67.2,3232.8 62.3999,3198 58.7998,3159.6 54,3116.4 l -4.8,-49.2 -3.6001,-60 -4.8001,-79.2 -4.8,-193.2" style="fill:#fff;fill-opacity:1;fill-rule:evenodd;stroke:none" id="path1180"/><path d="m 35.9998,2734.8 3.6001,-193.2 4.8,-79.2 3.6001,-60 4.7998,-49.2 4.8001,-43.2 3.6001,-38.4 4.7998,-34.8 4.8,-31.2 3.6001,-28.8 4.8001,-27.6 4.7998,-25.2 3.6001,-22.8 4.8,-22.8 L 96,2058 l 4.8,-19.2 4.8,-19.2 3.6,-16.8 4.8,-16.8 4.8,-15.6 3.6,-15.6 4.8,-14.4 4.8,-13.2 3.6,-13.2 4.8,-12 3.6,-10.8 4.8,-10.8 4.8,-10.8 3.6,-9.6 4.8,-9.6 4.8,-8.4 3.6,-8.4 4.8,-7.2 4.8,-7.2 3.6,-7.2 4.8,-6 3.6,-6 4.8,-4.8 4.8,-4.8 3.6,-4.8 4.8,-3.6 4.8,-3.6 3.6,-3.6 4.8,-2.4 4.8,-2.4 3.6,-2.4 4.8,-1.2 3.6,-1.2 4.8,-1.2 H 258 l 4.8,1.2 3.6,1.2 4.8,1.2 4.8,2.4 3.6,2.4 4.8,2.4 3.6,3.6 4.8,3.6 4.8,3.6 3.6,4.8 4.8,4.8 4.8,4.8 3.6,6 4.8,6 4.8,7.2 3.6,7.2 4.8,7.2 3.6,8.4 4.8,8.4 4.8,9.6 3.6,9.6 4.8,10.8 4.8,10.8 3.6,10.8 4.8,12 4.8,13.2 3.6,13.2 4.8,14.4 3.6,15.6 4.8,15.6 4.8,16.8 3.6,16.8 4.8,19.2 4.8,19.2 3.6,20.4 4.8,22.8 4.8,22.8 3.6,25.2 4.8,27.6 3.6,28.8 4.8,31.2 4.8,34.8 3.6,38.4 4.8,43.2 4.8,49.2 3.6,60 4.8,79.2 4.8,193.2 v 0 l -3.6,193.2 -4.8,79.2 -3.6,60 -4.8,49.2 -4.8,43.2 -3.6,38.4 -4.8,34.8 -4.8,31.2 -3.6,28.8 -4.8,27.6 -4.8,25.2 -3.6,22.8 -4.8,22.8 -3.6,20.4 -4.8,19.2 -4.8,19.2 -3.6,16.8 -4.8,16.8 -4.8,15.6 -3.6,15.6 -4.8,14.4 -4.8,13.2 -3.6,13.2 -4.8,12 -3.6,10.8 -4.8,10.8 -4.8,10.8 -3.6,9.6 -4.8,9.6 -4.8,8.4 -3.6,8.4 -4.8,7.2 -4.8,7.2 -3.6,7.2 -4.8,6 -3.6,6 -4.8,4.8 -4.8,4.8 -3.6,4.8 -4.8,3.6 -4.8,3.6 -3.6,3.6 -4.8,2.4 -4.8,2.4 -3.6,2.4 -4.8,1.2 -3.6,1.2 -4.8,1.2 H 246 l -4.8,-1.2 -3.6,-1.2 -4.8,-1.2 -4.8,-2.4 -3.6,-2.4 -4.8,-2.4 -3.6,-3.6 -4.8,-3.6 -4.8,-3.6 -3.6,-4.8 -4.8,-4.8 -4.8,-4.8 -3.6,-6 -4.8,-6 -4.8,-7.2 -3.6,-7.2 -4.8,-7.2 -3.6,-8.4 -4.8,-8.4 -4.8,-9.6 -3.6,-9.6 -4.8,-10.8 -4.8,-10.8 -3.6,-10.8 -4.8,-12 -4.8,-13.2 -3.6,-13.2 -4.8,-14.4 -3.6,-15.6 -4.8,-15.6 -4.8,-16.8 -3.6,-16.8 -4.8,-19.2 -4.8,-19.2 -3.6001,-20.4 -4.8001,-22.8 -4.8,-22.8 -3.5999,-25.2 -4.8,-27.6 L 71.9998,3264 67.2,3232.8 62.3999,3198 58.7998,3159.6 54,3116.4 l -4.8,-49.2 -3.6001,-60 -4.8001,-79.2 -4.8,-193.2" style="fill:none;stroke:#000;stroke-width:7.5;stroke-linecap:round;stroke-linejoin:round;stroke-miterlimit:10;stroke-dasharray:none;stroke-opacity:1" id="path1182"/><g id="g1184" transform="scale(10)"><text transform="matrix(2.509092e-4,0.83636188,0.99999997,-2.9999999e-4,28.229,227.04)" style="font-variant:normal;font-weight:700;font-size:15.75000095px;font-family:Helvetica;-inkscape-font-specification:Helvetica-Bold;writing-mode:lr-tb;fill:#000;fill-opacity:1;fill-rule:nonzero;stroke:none" id="text1188"><tspan id="tspan1186" x="0 4.378 13.135 26.255 35.012 40.257 46.384 50.762 59.519 70.024 74.403 83.16 95.413" y="0">IJMatrixView</tspan></text></g><path d="m 576,2733.6 3.6,-193.2 4.8,-79.2 3.6,-60 4.8,-49.2 4.8,-43.2 3.6,-38.4 4.8,-34.8 4.8,-31.2 3.6,-28.8 4.8,-27.6 4.8,-25.2 3.6,-22.8 4.8,-22.8 3.6,-20.4 4.8,-19.2 4.8,-19.2 3.6,-16.8 4.8,-16.8 4.8,-15.6 3.6,-15.6 4.8,-14.4 4.8,-13.2 3.6,-13.2 4.8,-12 3.6,-10.8 4.8,-10.8 4.8,-10.8 3.6,-9.6 4.8,-9.6 4.8,-8.4 3.6,-8.4 4.8,-7.2 4.8,-7.2 3.6,-7.2 4.8,-6 3.6,-6 4.8,-4.8 4.8,-4.8 3.6,-4.8 4.8,-3.6 4.8,-3.6 3.6,-3.6 4.8,-2.4 4.8,-2.4 3.6,-2.4 4.8,-1.2 3.6,-1.2 4.8,-1.2 H 798 l 4.8,1.2 3.6,1.2 4.8,1.2 4.8,2.4 3.6,2.4 4.8,2.4 3.6,3.6 4.8,3.6 4.8,3.6 3.6,4.8 4.8,4.8 4.8,4.8 3.6,6 4.8,6 4.8,7.2 3.6,7.2 4.8,7.2 3.6,8.4 4.8,8.4 4.8,9.6 3.6,9.6 4.8,10.8 4.8,10.8 3.6,10.8 4.8,12 4.8,13.2 3.6,13.2 4.8,14.4 3.6,15.6 4.8,15.6 4.8,16.8 3.6,16.8 4.8,19.2 4.8,19.2 3.6,20.4 4.8,22.8 4.8,22.8 3.6,25.2 4.8,27.6 3.6,28.8 4.8,31.2 4.8,34.8 3.6,38.4 4.8,43.2 4.8,49.2 3.6,60 4.8,79.2 4.8,193.2 v 0 l -3.6,193.2 -4.8,79.2 -3.6,60 -4.8,49.2 -4.8,43.2 -3.6,38.4 -4.8,34.8 -4.8,31.2 -3.6,28.8 -4.8,27.6 -4.8,25.2 -3.6,22.8 -4.8,22.8 -3.6,20.4 -4.8,19.2 -4.8,19.2 -3.6,16.8 -4.8,16.8 -4.8,15.6 -3.6,15.6 -4.8,14.4 -4.8,13.2 -3.6,13.2 -4.8,12 -3.6,10.8 -4.8,10.8 -4.8,10.8 -3.6,9.6 -4.8,9.6 -4.8,8.4 -3.6,8.4 -4.8,7.2 -4.8,7.2 -3.6,7.2 -4.8,6 -3.6,6 -4.8,4.8 -4.8,4.8 -3.6,4.8 -4.8,3.6 -4.8,3.6 -3.6,3.6 -4.8,2.4 -4.8,2.4 -3.6,2.4 -4.8,1.2 -3.6,1.2 -4.8,1.2 H 786 l -4.8,-1.2 -3.6,-1.2 -4.8,-1.2 -4.8,-2.4 -3.6,-2.4 -4.8,-2.4 -3.6,-3.6 -4.8,-3.6 -4.8,-3.6 -3.6,-4.8 -4.8,-4.8 -4.8,-4.8 -3.6,-6 -4.8,-6 -4.8,-7.2 -3.6,-7.2 -4.8,-7.2 -3.6,-8.4 -4.8,-8.4 -4.8,-9.6 -3.6,-9.6 -4.8,-10.8 -4.8,-10.8 -3.6,-10.8 -4.8,-12 -4.8,-13.2 -3.6,-13.2 -4.8,-14.4 -3.6,-15.6 -4.8,-15.6 -4.8,-16.8 -3.6,-16.8 -4.8,-19.2 -4.8,-19.2 -3.6,-20.4 -4.8,-22.8 -4.8,-22.8 -3.6,-25.2 -4.8,-27.6 -3.6,-28.8 -4.8,-31.2 -4.8,-34.8 -3.6,-38.4 -4.8,-43.2 -4.8,-49.2 -3.6,-60 -4.8,-79.2 -4.8,-193.2" style="fill:#fff;fill-opacity:1;fill-rule:evenodd;stroke:none" id="path1190"/><path d="m 576,2733.6 3.6,-193.2 4.8,-79.2 3.6,-60 4.8,-49.2 4.8,-43.2 3.6,-38.4 4.8,-34.8 4.8,-31.2 3.6,-28.8 4.8,-27.6 4.8,-25.2 3.6,-22.8 4.8,-22.8 3.6,-20.4 4.8,-19.2 4.8,-19.2 3.6,-16.8 4.8,-16.8 4.8,-15.6 3.6,-15.6 4.8,-14.4 4.8,-13.2 3.6,-13.2 4.8,-12 3.6,-10.8 4.8,-10.8 4.8,-10.8 3.6,-9.6 4.8,-9.6 4.8,-8.4 3.6,-8.4 4.8,-7.2 4.8,-7.2 3.6,-7.2 4.8,-6 3.6,-6 4.8,-4.8 4.8,-4.8 3.6,-4.8 4.8,-3.6 4.8,-3.6 3.6,-3.6 4.8,-2.4 4.8,-2.4 3.6,-2.4 4.8,-1.2 3.6,-1.2 4.8,-1.2 H 798 l 4.8,1.2 3.6,1.2 4.8,1.2 4.8,2.4 3.6,2.4 4.8,2.4 3.6,3.6 4.8,3.6 4.8,3.6 3.6,4.8 4.8,4.8 4.8,4.8 3.6,6 4.8,6 4.8,7.2 3.6,7.2 4.8,7.2 3.6,8.4 4.8,8.4 4.8,9.6 3.6,9.6 4.8,10.8 4.8,10.8 3.6,10.8 4.8,12 4.8,13.2 3.6,13.2 4.8,14.4 3.6,15.6 4.8,15.6 4.8,16.8 3.6,16.8 4.8,19.2 4.8,19.2 3.6,20.4 4.8,22.8 4.8,22.8 3.6,25.2 4.8,27.6 3.6,28.8 4.8,31.2 4.8,34.8 3.6,38.4 4.8,43.2 4.8,49.2 3.6,60 4.8,79.2 4.8,193.2 v 0 l -3.6,193.2 -4.8,79.2 -3.6,60 -4.8,49.2 -4.8,43.2 -3.6,38.4 -4.8,34.8 -4.8,31.2 -3.6,28.8 -4.8,27.6 -4.8,25.2 -3.6,22.8 -4.8,22.8 -3.6,20.4 -4.8,19.2 -4.8,19.2 -3.6,16.8 -4.8,16.8 -4.8,15.6 -3.6,15.6 -4.8,14.4 -4.8,13.2 -3.6,13.2 -4.8,12 -3.6,10.8 -4.8,10.8 -4.8,10.8 -3.6,9.6 -4.8,9.6 -4.8,8.4 -3.6,8.4 -4.8,7.2 -4.8,7.2 -3.6,7.2 -4.8,6 -3.6,6 -4.8,4.8 -4.8,4.8 -3.6,4.8 -4.8,3.6 -4.8,3.6 -3.6,3.6 -4.8,2.4 -4.8,2.4 -3.6,2.4 -4.8,1.2 -3.6,1.2 -4.8,1.2 H 786 l -4.8,-1.2 -3.6,-1.2 -4.8,-1.2 -4.8,-2.4 -3.6,-2.4 -4.8,-2.4 -3.6,-3.6 -4.8,-3.6 -4.8,-3.6 -3.6,-4.8 -4.8,-4.8 -4.8,-4.8 -3.6,-6 -4.8,-6 -4.8,-7.2 -3.6,-7.2 -4.8,-7.2 -3.6,-8.4 -4.8,-8.4 -4.8,-9.6 -3.6,-9.6 -4.8,-10.8 -4.8,-10.8 -3.6,-10.8 -4.8,-12 -4.8,-13.2 -3.6,-13.2 -4.8,-14.4 -3.6,-15.6 -4.8,-15.6 -4.8,-16.8 -3.6,-16.8 -4.8,-19.2 -4.8,-19.2 -3.6,-20.4 -4.8,-22.8 -4.8,-22.8 -3.6,-25.2 -4.8,-27.6 -3.6,-28.8 -4.8,-31.2 -4.8,-34.8 -3.6,-38.4 -4.8,-43.2 -4.8,-49.2 -3.6,-60 -4.8,-79.2 -4.8,-193.2" style="fill:none;stroke:#000;stroke-width:7.5;stroke-linecap:round;stroke-linejoin:round;stroke-miterlimit:10;stroke-dasharray:none;stroke-opacity:1" id="path1192"/><g id="g1194" transform="scale(10)"><text transform="matrix(2.509092e-4,0.83636188,0.99999997,-2.9999999e-4,82.229,224.76)" style="font-variant:normal;font-weight:700;font-size:15.75000095px;font-family:Helvetica;-inkscape-font-specification:Helvetica-Bold;writing-mode:lr-tb;fill:#000;fill-opacity:1;fill-rule:nonzero;stroke:none" id="text1198"><tspan id="tspan1196" x="0 4.378 13.135 23.641 32.398 41.155 46.399 56.023 62.149 72.655 77.033 85.79 98.044" y="0">IJVectorView</tspan></text></g><path d="m 1474.8,2738.4 3.6,-193.2 4.8,-79.2 3.6,-60 4.8,-49.2 4.8,-43.2 3.6,-38.4 4.8,-34.8 4.8,-31.2 3.6,-28.8 4.8,-27.6 4.8,-25.2 3.6,-22.8 4.8,-22.8 3.6,-20.4 4.8,-19.2 4.8,-19.2 3.6,-16.8 4.8,-16.8 4.8,-15.6 3.6,-15.6 4.8,-14.4 4.8,-13.2 3.6,-13.2 4.8,-12 3.6,-10.8 4.8,-10.8 4.8,-10.8 3.6,-9.6 4.8,-9.6 4.8,-8.4 3.6,-8.4 4.8,-7.2 4.8,-7.2 3.6,-7.2 4.8,-6 3.6,-6 4.8,-4.8 4.8,-4.8 3.6,-4.8 4.8,-3.6 4.8,-3.6 3.6,-3.6 4.8,-2.4 4.8,-2.4 3.6,-2.4 4.8,-1.2 3.6,-1.2 4.8,-1.2 h 13.2 l 4.8,1.2 3.6,1.2 4.8,1.2 4.8,2.4 3.6,2.4 4.8,2.4 3.6,3.6 4.8,3.6 4.8,3.6 3.6,4.8 4.8,4.8 4.8,4.8 3.6,6 4.8,6 4.8,7.2 3.6,7.2 4.8,7.2 3.6,8.4 4.8,8.4 4.8,9.6 3.6,9.6 4.8,10.8 4.8,10.8 3.6,10.8 4.8,12 4.8,13.2 3.6,13.2 4.8,14.4 3.6,15.6 4.8,15.6 4.8,16.8 3.6,16.8 4.8,19.2 4.8,19.2 3.6,20.4 4.8,22.8 4.8,22.8 3.6,25.2 4.8,27.6 3.6,28.8 4.8,31.2 4.8,34.8 3.6,38.4 4.8,43.2 4.8,49.2 3.6,60 4.8,79.2 4.8,193.2 v 0 l -3.6,193.2 -4.8,79.2 -3.6,60 -4.8,49.2 -4.8,43.2 -3.6,38.4 -4.8,34.8 -4.8,31.2 -3.6,28.8 -4.8,27.6 -4.8,25.2 -3.6,22.8 -4.8,22.8 -3.6,20.4 -4.8,19.2 -4.8,19.2 -3.6,16.8 -4.8,16.8 -4.8,15.6 -3.6,15.6 -4.8,14.4 -4.8,13.2 -3.6,13.2 -4.8,12 -3.6,10.8 -4.8,10.8 -4.8,10.8 -3.6,9.6 -4.8,9.6 -4.8,8.4 -3.6,8.4 -4.8,7.2 -4.8,7.2 -3.6,7.2 -4.8,6 -3.6,6 -4.8,4.8 -4.8,4.8 -3.6,4.8 -4.8,3.6 -4.8,3.6 -3.6,3.6 -4.8,2.4 -4.8,2.4 -3.6,2.4 -4.8,1.2 -3.6,1.2 -4.8,1.2 h -13.2 l -4.8,-1.2 -3.6,-1.2 -4.8,-1.2 -4.8,-2.4 -3.6,-2.4 -4.8,-2.4 -3.6,-3.6 -4.8,-3.6 -4.8,-3.6 -3.6,-4.8 -4.8,-4.8 -4.8,-4.8 -3.6,-6 -4.8,-6 -4.8,-7.2 -3.6,-7.2 -4.8,-7.2 -3.6,-8.4 -4.8,-8.4 -4.8,-9.6 -3.6,-9.6 -4.8,-10.8 -4.8,-10.8 -3.6,-10.8 -4.8,-12 -4.8,-13.2 -3.6,-13.2 -4.8,-14.4 -3.6,-15.6 -4.8,-15.6 -4.8,-16.8 -3.6,-16.8 -4.8,-19.2 -4.8,-19.2 -3.6,-20.4 -4.8,-22.8 -4.8,-22.8 -3.6,-25.2 -4.8,-27.6 -3.6,-28.8 -4.8,-31.2 -4.8,-34.8 -3.6,-38.4 -4.8,-43.2 -4.8,-49.2 -3.6,-60 -4.8,-79.2 -4.8,-193.2" style="fill:#fff;fill-opacity:1;fill-rule:evenodd;stroke:none" id="path1200"/><path d="m 1474.8,2738.4 3.6,-193.2 4.8,-79.2 3.6,-60 4.8,-49.2 4.8,-43.2 3.6,-38.4 4.8,-34.8 4.8,-31.2 3.6,-28.8 4.8,-27.6 4.8,-25.2 3.6,-22.8 4.8,-22.8 3.6,-20.4 4.8,-19.2 4.8,-19.2 3.6,-16.8 4.8,-16.8 4.8,-15.6 3.6,-15.6 4.8,-14.4 4.8,-13.2 3.6,-13.2 4.8,-12 3.6,-10.8 4.8,-10.8 4.8,-10.8 3.6,-9.6 4.8,-9.6 4.8,-8.4 3.6,-8.4 4.8,-7.2 4.8,-7.2 3.6,-7.2 4.8,-6 3.6,-6 4.8,-4.8 4.8,-4.8 3.6,-4.8 4.8,-3.6 4.8,-3.6 3.6,-3.6 4.8,-2.4 4.8,-2.4 3.6,-2.4 4.8,-1.2 3.6,-1.2 4.8,-1.2 h 13.2 l 4.8,1.2 3.6,1.2 4.8,1.2 4.8,2.4 3.6,2.4 4.8,2.4 3.6,3.6 4.8,3.6 4.8,3.6 3.6,4.8 4.8,4.8 4.8,4.8 3.6,6 4.8,6 4.8,7.2 3.6,7.2 4.8,7.2 3.6,8.4 4.8,8.4 4.8,9.6 3.6,9.6 4.8,10.8 4.8,10.8 3.6,10.8 4.8,12 4.8,13.2 3.6,13.2 4.8,14.4 3.6,15.6 4.8,15.6 4.8,16.8 3.6,16.8 4.8,19.2 4.8,19.2 3.6,20.4 4.8,22.8 4.8,22.8 3.6,25.2 4.8,27.6 3.6,28.8 4.8,31.2 4.8,34.8 3.6,38.4 4.8,43.2 4.8,49.2 3.6,60 4.8,79.2 4.8,193.2 v 0 l -3.6,193.2 -4.8,79.2 -3.6,60 -4.8,49.2 -4.8,43.2 -3.6,38.4 -4.8,34.8 -4.8,31.2 -3.6,28.8 -4.8,27.6 -4.8,25.2 -3.6,22.8 -4.8,22.8 -3.6,20.4 -4.8,19.2 -4.8,19.2 -3.6,16.8 -4.8,16.8 -4.8,15.6 -3.6,15.6 -4.8,14.4 -4.8,13.2 -3.6,13.2 -4.8,12 -3.6,10.8 -4.8,10.8 -4.8,10.8 -3.6,9.6 -4.8,9.6 -4.8,8.4 -3.6,8.4 -4.8,7.2 -4.8,7.2 -3.6,7.2 -4.8,6 -3.6,6 -4.8,4.8 -4.8,4.8 -3.6,4.8 -4.8,3.6 -4.8,3.6 -3.6,3.6 -4.8,2.4 -4.8,2.4 -3.6,2.4 -4.8,1.2 -3.6,1.2 -4.8,1.2 h -13.2 l -4.8,-1.2 -3.6,-1.2 -4.8,-1.2 -4.8,-2.4 -3.6,-2.4 -4.8,-2.4 -3.6,-3.6 -4.8,-3.6 -4.8,-3.6 -3.6,-4.8 -4.8,-4.8 -4.8,-4.8 -3.6,-6 -4.8,-6 -4.8,-7.2 -3.6,-7.2 -4.8,-7.2 -3.6,-8.4 -4.8,-8.4 -4.8,-9.6 -3.6,-9.6 -4.8,-10.8 -4.8,-10.8 -3.6,-10.8 -4.8,-12 -4.8,-13.2 -3.6,-13.2 -4.8,-14.4 -3.6,-15.6 -4.8,-15.6 -4.8,-16.8 -3.6,-16.8 -4.8,-19.2 -4.8,-19.2 -3.6,-20.4 -4.8,-22.8 -4.8,-22.8 -3.6,-25.2 -4.8,-27.6 -3.6,-28.8 -4.8,-31.2 -4.8,-34.8 -3.6,-38.4 -4.8,-43.2 -4.8,-49.2 -3.6,-60 -4.8,-79.2 -4.8,-193.2" style="fill:none;stroke:#000;stroke-width:7.5;stroke-linecap:round;stroke-linejoin:round;stroke-miterlimit:10;stroke-dasharray:none;stroke-opacity:1" id="path1202"/><g id="g1204" transform="scale(10)"><text transform="matrix(2.509092e-4,0.83636188,0.99999997,-2.9999999e-4,172.109,211.2)" style="font-variant:normal;font-weight:700;font-size:15.75000095px;font-family:Helvetica;-inkscape-font-specification:Helvetica-Bold;writing-mode:lr-tb;fill:#000;fill-opacity:1;fill-rule:nonzero;stroke:none" id="text1208"><tspan id="tspan1206" x="0 10.505 15.75 21.877 31.5 40.257 45.502 58.621 67.378 72.623 78.75 83.128 91.885 102.391 106.769 115.526 127.78" y="0">StructMatrixView</tspan></text></g><path d="m 2018.4,2733.6 3.6,-193.2 4.8,-79.2 3.6,-60 4.8,-49.2 4.8,-43.2 3.6,-38.4 4.8,-34.8 4.8,-31.2 3.6,-28.8 4.8,-27.6 4.8,-25.2 3.6,-22.8 4.8,-22.8 3.6,-20.4 4.8,-19.2 4.8,-19.2 3.6,-16.8 4.8,-16.8 4.8,-15.6 3.6,-15.6 4.8,-14.4 4.8,-13.2 3.6,-13.2 4.8,-12 3.6,-10.8 4.8,-10.8 4.8,-10.8 3.6,-9.6 4.8,-9.6 4.8,-8.4 3.6,-8.4 4.8,-7.2 4.8,-7.2 3.6,-7.2 4.8,-6 3.6,-6 4.8,-4.8 4.8,-4.8 3.6,-4.8 4.8,-3.6 4.8,-3.6 3.6,-3.6 4.8,-2.4 4.8,-2.4 3.6,-2.4 4.8,-1.2 3.6,-1.2 4.8,-1.2 h 13.2 l 4.8,1.2 3.6,1.2 4.8,1.2 4.8,2.4 3.6,2.4 4.8,2.4 3.6,3.6 4.8,3.6 4.8,3.6 3.6,4.8 4.8,4.8 4.8,4.8 3.6,6 4.8,6 4.8,7.2 3.6,7.2 4.8,7.2 3.6,8.4 4.8,8.4 4.8,9.6 3.6,9.6 4.8,10.8 4.8,10.8 3.6,10.8 4.8,12 4.8,13.2 3.6,13.2 4.8,14.4 3.6,15.6 4.8,15.6 4.8,16.8 3.6,16.8 4.8,19.2 4.8,19.2 3.6,20.4 4.8,22.8 4.8,22.8 3.6,25.2 4.8,27.6 3.6,28.8 4.8,31.2 4.8,34.8 3.6,38.4 4.8,43.2 4.8,49.2 3.6,60 4.8,79.2 4.8,193.2 v 0 l -3.6,193.2 -4.8,79.2 -3.6,60 -4.8,49.2 -4.8,43.2 -3.6,38.4 -4.8,34.8 -4.8,31.2 -3.6,28.8 -4.8,27.6 -4.8,25.2 -3.6,22.8 -4.8,22.8 -3.6,20.4 -4.8,19.2 -4.8,19.2 -3.6,16.8 -4.8,16.8 -4.8,15.6 -3.6,15.6 -4.8,14.4 -4.8,13.2 -3.6,13.2 -4.8,12 -3.6,10.8 -4.8,10.8 -4.8,10.8 -3.6,9.6 -4.8,9.6 -4.8,8.4 -3.6,8.4 -4.8,7.2 -4.8,7.2 -3.6,7.2 -4.8,6 -3.6,6 -4.8,4.8 -4.8,4.8 -3.6,4.8 -4.8,3.6 -4.8,3.6 -3.6,3.6 -4.8,2.4 -4.8,2.4 -3.6,2.4 -4.8,1.2 -3.6,1.2 -4.8,1.2 h -13.2 l -4.8,-1.2 -3.6,-1.2 -4.8,-1.2 -4.8,-2.4 -3.6,-2.4 -4.8,-2.4 -3.6,-3.6 -4.8,-3.6 -4.8,-3.6 -3.6,-4.8 -4.8,-4.8 -4.8,-4.8 -3.6,-6 -4.8,-6 -4.8,-7.2 -3.6,-7.2 -4.8,-7.2 -3.6,-8.4 -4.8,-8.4 -4.8,-9.6 -3.6,-9.6 -4.8,-10.8 -4.8,-10.8 -3.6,-10.8 -4.8,-12 -4.8,-13.2 -3.6,-13.2 -4.8,-14.4 -3.6,-15.6 -4.8,-15.6 -4.8,-16.8 -3.6,-16.8 -4.8,-19.2 -4.8,-19.2 -3.6,-20.4 -4.8,-22.8 -4.8,-22.8 -3.6,-25.2 -4.8,-27.6 -3.6,-28.8 -4.8,-31.2 -4.8,-34.8 -3.6,-38.4 -4.8,-43.2 -4.8,-49.2 -3.6,-60 -4.8,-79.2 -4.8,-193.2" style="fill:#fff;fill-opacity:1;fill-rule:evenodd;stroke:none" id="path1210"/><path d="m 2018.4,2733.6 3.6,-193.2 4.8,-79.2 3.6,-60 4.8,-49.2 4.8,-43.2 3.6,-38.4 4.8,-34.8 4.8,-31.2 3.6,-28.8 4.8,-27.6 4.8,-25.2 3.6,-22.8 4.8,-22.8 3.6,-20.4 4.8,-19.2 4.8,-19.2 3.6,-16.8 4.8,-16.8 4.8,-15.6 3.6,-15.6 4.8,-14.4 4.8,-13.2 3.6,-13.2 4.8,-12 3.6,-10.8 4.8,-10.8 4.8,-10.8 3.6,-9.6 4.8,-9.6 4.8,-8.4 3.6,-8.4 4.8,-7.2 4.8,-7.2 3.6,-7.2 4.8,-6 3.6,-6 4.8,-4.8 4.8,-4.8 3.6,-4.8 4.8,-3.6 4.8,-3.6 3.6,-3.6 4.8,-2.4 4.8,-2.4 3.6,-2.4 4.8,-1.2 3.6,-1.2 4.8,-1.2 h 13.2 l 4.8,1.2 3.6,1.2 4.8,1.2 4.8,2.4 3.6,2.4 4.8,2.4 3.6,3.6 4.8,3.6 4.8,3.6 3.6,4.8 4.8,4.8 4.8,4.8 3.6,6 4.8,6 4.8,7.2 3.6,7.2 4.8,7.2 3.6,8.4 4.8,8.4 4.8,9.6 3.6,9.6 4.8,10.8 4.8,10.8 3.6,10.8 4.8,12 4.8,13.2 3.6,13.2 4.8,14.4 3.6,15.6 4.8,15.6 4.8,16.8 3.6,16.8 4.8,19.2 4.8,19.2 3.6,20.4 4.8,22.8 4.8,22.8 3.6,25.2 4.8,27.6 3.6,28.8 4.8,31.2 4.8,34.8 3.6,38.4 4.8,43.2 4.8,49.2 3.6,60 4.8,79.2 4.8,193.2 v 0 l -3.6,193.2 -4.8,79.2 -3.6,60 -4.8,49.2 -4.8,43.2 -3.6,38.4 -4.8,34.8 -4.8,31.2 -3.6,28.8 -4.8,27.6 -4.8,25.2 -3.6,22.8 -4.8,22.8 -3.6,20.4 -4.8,19.2 -4.8,19.2 -3.6,16.8 -4.8,16.8 -4.8,15.6 -3.6,15.6 -4.8,14.4 -4.8,13.2 -3.6,13.2 -4.8,12 -3.6,10.8 -4.8,10.8 -4.8,10.8 -3.6,9.6 -4.8,9.6 -4.8,8.4 -3.6,8.4 -4.8,7.2 -4.8,7.2 -3.6,7.2 -4.8,6 -3.6,6 -4.8,4.8 -4.8,4.8 -3.6,4.8 -4.8,3.6 -4.8,3.6 -3.6,3.6 -4.8,2.4 -4.8,2.4 -3.6,2.4 -4.8,1.2 -3.6,1.2 -4.8,1.2 h -13.2 l -4.8,-1.2 -3.6,-1.2 -4.8,-1.2 -4.8,-2.4 -3.6,-2.4 -4.8,-2.4 -3.6,-3.6 -4.8,-3.6 -4.8,-3.6 -3.6,-4.8 -4.8,-4.8 -4.8,-4.8 -3.6,-6 -4.8,-6 -4.8,-7.2 -3.6,-7.2 -4.8,-7.2 -3.6,-8.4 -4.8,-8.4 -4.8,-9.6 -3.6,-9.6 -4.8,-10.8 -4.8,-10.8 -3.6,-10.8 -4.8,-12 -4.8,-13.2 -3.6,-13.2 -4.8,-14.4 -3.6,-15.6 -4.8,-15.6 -4.8,-16.8 -3.6,-16.8 -4.8,-19.2 -4.8,-19.2 -3.6,-20.4 -4.8,-22.8 -4.8,-22.8 -3.6,-25.2 -4.8,-27.6 -3.6,-28.8 -4.8,-31.2 -4.8,-34.8 -3.6,-38.4 -4.8,-43.2 -4.8,-49.2 -3.6,-60 -4.8,-79.2 -4.8,-193.2" style="fill:none;stroke:#000;stroke-width:7.5;stroke-linecap:round;stroke-linejoin:round;stroke-miterlimit:10;stroke-dasharray:none;stroke-opacity:1" id="path1212"/><g id="g1214" transform="scale(10)"><text transform="matrix(2.509092e-4,0.83636188,0.99999997,-2.9999999e-4,226.469,208.56)" style="font-variant:normal;font-weight:700;font-size:15.75000095px;font-family:Helvetica;-inkscape-font-specification:Helvetica-Bold;writing-mode:lr-tb;fill:#000;fill-opacity:1;fill-rule:nonzero;stroke:none" id="text1218"><tspan id="tspan1216" x="0 10.505 15.75 21.877 31.5 40.257 45.502 56.007 64.764 73.521 78.766 88.389 94.516 105.021 109.399 118.156 130.41" y="0">StructVectorView</tspan></text><text transform="matrix(1,0,0,-0.98749827,114.12,272.88)" style="font-variant:normal;font-weight:700;font-size:20.00003433px;font-family:Helvetica;-inkscape-font-specification:Helvetica-Bold;writing-mode:lr-tb;fill:#000;fill-opacity:1;fill-rule:nonzero;stroke:none" id="text1222"><tspan id="tspan1220" x="0 20" y="0">…</tspan></text></g><path d="M 792,1761.6 V 892.8" style="fill:none;stroke:#000;stroke-width:7.5;stroke-linecap:round;stroke-linejoin:round;stroke-miterlimit:10;stroke-dasharray:none;stroke-opacity:1" id="path1224"/><path d="m 792,820.8 -36,100.8 h 70.8 L 792,820.8" style="fill:#000;fill-opacity:1;fill-rule:evenodd;stroke:none" id="path1226"/><path d="m 792,820.8 -36,100.8 h 70.8 L 792,820.8" style="fill:none;stroke:#000;stroke-width:7.5;stroke-linecap:round;stroke-linejoin:round;stroke-miterlimit:10;stroke-dasharray:none;stroke-opacity:1" id="path1228"/><path d="m 712.8,1039.2 h 158.4 v 504 H 712.8 Z" style="fill:#fff;fill-opacity:1;fill-rule:evenodd;stroke:none" id="path1230"/><g id="g1232" transform="scale(10)"><text transform="matrix(2.5090908e-4,-0.83636361,-0.99999997,-2.9999999e-4,77.2994,150.72)" style="font-variant:normal;font-weight:400;font-size:13.75px;font-family:'Times New Roman';-inkscape-font-specification:Times-Roman;writing-mode:lr-tb;fill:#000;fill-opacity:1;fill-rule:nonzero;stroke:none" id="text1236"><tspan id="tspan1234" x="0 7.755" y="0">&lt;</tspan></text><text transform="matrix(2.6727272e-4,-0.89090906,-0.99999996,-2.9999999e-4,77.2994,139.2)" style="font-variant:normal;font-weight:700;font-size:13.75000095px;font-family:'Times New Roman';-inkscape-font-specification:Times-Bold;writing-mode:lr-tb;fill:#000;fill-opacity:1;fill-rule:nonzero;stroke:none" id="text1240"><tspan id="tspan1238" x="0 3.822 9.171 12.609 19.484" y="0">is a</tspan></text><text transform="matrix(2.5090908e-4,-0.83636361,-0.99999997,-2.9999999e-4,77.300263,116.165)" style="font-variant:normal;font-weight:400;font-size:13.75px;font-family:'Times New Roman';-inkscape-font-specification:Times-Roman;writing-mode:lr-tb;fill:#000;fill-opacity:1;fill-rule:nonzero;stroke:none" id="text1244"><tspan id="tspan1242" x="0 7.755" y="0">&gt;</tspan></text></g><path d="M 1684.8,1766.4 V 892.8" style="fill:none;stroke:#000;stroke-width:7.5;stroke-linecap:round;stroke-linejoin:round;stroke-miterlimit:10;stroke-dasharray:none;stroke-opacity:1" id="path1246"/><path d="m 1684.8,820.8 -36,100.8 h 70.8 l -34.8,-100.8" style="fill:#000;fill-opacity:1;fill-rule:evenodd;stroke:none" id="path1248"/><path d="m 1684.8,820.8 -36,100.8 h 70.8 l -34.8,-100.8" style="fill:none;stroke:#000;stroke-width:7.5;stroke-linecap:round;stroke-linejoin:round;stroke-miterlimit:10;stroke-dasharray:none;stroke-opacity:1" id="path1250"/><path d="M 1605.6,1041.6 H 1764 v 504 h -158.4 z" style="fill:#fff;fill-opacity:1;fill-rule:evenodd;stroke:none" id="path1252"/><g id="g1254" transform="scale(10)"><text transform="matrix(2.5090908e-4,-0.83636361,-0.99999997,-2.9999999e-4,166.579,150.96)" style="font-variant:normal;font-weight:400;font-size:13.75px;font-family:'Times New Roman';-inkscape-font-specification:Times-Roman;writing-mode:lr-tb;fill:#000;fill-opacity:1;fill-rule:nonzero;stroke:none" id="text1258"><tspan id="tspan1256" x="0 7.755" y="0">&lt;</tspan></text><text transform="matrix(2.6727272e-4,-0.89090906,-0.99999996,-2.9999999e-4,166.579,139.44)" style="font-variant:normal;font-weight:700;font-size:13.75000095px;font-family:'Times New Roman';-inkscape-font-specification:Times-Bold;writing-mode:lr-tb;fill:#000;fill-opacity:1;fill-rule:nonzero;stroke:none" id="text1262"><tspan id="tspan1260" x="0 3.822 9.171 12.609 19.484" y="0">is a</tspan></text><text transform="matrix(2.5090908e-4,-0.83636361,-0.99999997,-2.9999999e-4,166.57986,116.405)" style="font-variant:normal;font-weight:400;font-size:13.75px;font-family:'Times New Roman';-inkscape-font-specification:Times-Roman;writing-mode:lr-tb;fill:#000;fill-opacity:1;fill-rule:nonzero;stroke:none" id="text1266"><tspan id="tspan1264" x="0 7.755" y="0">&gt;</tspan></text></g><path d="m 1717.2,885.6 517.2,876" style="fill:none;stroke:#000;stroke-width:7.5;stroke-linecap:round;stroke-linejoin:round;stroke-miterlimit:10;stroke-dasharray:none;stroke-opacity:1" id="path1268"/><path d="m 1678.8,820.8 20.4,105.6 61.2,-37.2 -81.6,-68.4" style="fill:#000;fill-opacity:1;fill-rule:evenodd;stroke:none" id="path1270"/><path d="m 1678.8,820.8 20.4,105.6 61.2,-37.2 -81.6,-68.4" style="fill:none;stroke:#000;stroke-width:7.5;stroke-linecap:round;stroke-linejoin:round;stroke-miterlimit:10;stroke-dasharray:none;stroke-opacity:1" id="path1272"/><path d="M 1759.2,1114.8 2016,1548 2152.8,1467.6 1896,1034.4 1759.2,1114.8" style="fill:#fff;fill-opacity:1;fill-rule:evenodd;stroke:none" id="path1274"/><g id="g1276" transform="scale(10)"><text transform="matrix(0.44352484,0.74960198,0.89626208,-0.53030121,186.198,108.36)" style="font-variant:normal;font-weight:400;font-size:13.20287418px;font-family:'Times New Roman';-inkscape-font-specification:Times-Roman;writing-mode:lr-tb;fill:#000;fill-opacity:1;fill-rule:nonzero;stroke:none" id="text1280"><tspan id="tspan1278" x="0 7.446" y="0">&lt;</tspan></text><text transform="matrix(0.46631306,0.78811817,0.88461976,-0.52341268,192.078,118.2)" style="font-variant:normal;font-weight:700;font-size:13.3766346px;font-family:'Times New Roman';-inkscape-font-specification:Times-Bold;writing-mode:lr-tb;fill:#000;fill-opacity:1;fill-rule:nonzero;stroke:none" id="text1284"><tspan id="tspan1282" x="0 3.719 8.922 12.266 18.955" y="0">is a</tspan></text><text transform="matrix(0.44352484,0.74960198,0.89626208,-0.53030121,203.86195,138.07422)" style="font-variant:normal;font-weight:400;font-size:13.20287418px;font-family:'Times New Roman';-inkscape-font-specification:Times-Roman;writing-mode:lr-tb;fill:#000;fill-opacity:1;fill-rule:nonzero;stroke:none" id="text1288"><tspan id="tspan1286" x="0 7.446" y="0">&gt;</tspan></text></g><path d="m 784.8,4356 h 1440 v 547.2 h -1440 z" style="fill:#fff;fill-opacity:1;fill-rule:evenodd;stroke:none" id="path1290"/><path d="m 784.8,4356 h 1440 v 547.2 h -1440 z" style="fill:none;stroke:#000;stroke-width:15;stroke-linecap:round;stroke-linejoin:round;stroke-miterlimit:10;stroke-dasharray:none;stroke-opacity:1" id="path1292"/><path d="m 784.8,4747.2 202.8,156" style="fill:none;stroke:#000;stroke-width:15;stroke-linecap:round;stroke-linejoin:round;stroke-miterlimit:10;stroke-dasharray:none;stroke-opacity:1" id="path1294"/><g id="g1296" transform="scale(10)"><text transform="matrix(0.836364,0,0,-1,92.88,465.12)" style="font-variant:normal;font-weight:700;font-size:15.75px;font-family:Helvetica;-inkscape-font-specification:Helvetica-Bold;writing-mode:lr-tb;fill:#000;fill-opacity:1;fill-rule:nonzero;stroke:none" id="text1300"><tspan id="tspan1298" x="0 4.378 13.135 23.641 32.398 38.524 49.896 60.401 71.773 84.892 93.649 98.894 105.021 109.399 118.156" y="0">IJParCSRMatrix</tspan></text><text transform="matrix(0.909091,0,0,-1,130.32,448.56)" style="font-variant:normal;font-weight:400;font-size:13.75px;font-family:Helvetica;-inkscape-font-specification:Helvetica;writing-mode:lr-tb;fill:#000;fill-opacity:1;fill-rule:nonzero;stroke:none" id="text1304"><tspan id="tspan1302" x="0 4.579 11.454 14.506 22.151 29.026 35.901 40.48" y="0">(class)</tspan></text></g><path d="m 5108.4,3453.95 c 0.61,209.44 -822.66,340.62 -1483.57,235.22 -660.31,-105.69 -661.76,-370.03 -2.63,-474.47 659.75,-104.16 1484.48,28.58 1486.2,239.2" style="fill:#e0e0e0;fill-opacity:1;fill-rule:evenodd;stroke:none" id="path1306"/><path d="m 5108.4,3453.95 c 0.61,209.44 -822.66,340.62 -1483.57,235.22 -660.31,-105.69 -661.76,-370.03 -2.63,-474.47 659.75,-104.16 1484.48,28.58 1486.2,239.2" style="fill:none;stroke:#000;stroke-width:7.5;stroke-linecap:round;stroke-linejoin:round;stroke-miterlimit:10;stroke-dasharray:none;stroke-opacity:1" id="path1308"/><g id="g1310" transform="scale(10)"><text transform="matrix(0.909091,0,0,-1,379.44,347.4)" style="font-variant:normal;font-weight:700;font-size:15.75px;font-family:Helvetica;-inkscape-font-specification:Helvetica-Bold;writing-mode:lr-tb;fill:#000;fill-opacity:1;fill-rule:nonzero;stroke:none" id="text1314"><tspan id="tspan1312" x="0 12.254 21.877 30.634 36.76 45.517 50.762 60.385 66.512" y="0">Operator</tspan></text><text transform="matrix(0.909091,0,0,-1,381.24,330.84)" style="font-variant:normal;font-weight:400;font-size:13.75px;font-family:Helvetica;-inkscape-font-specification:Helvetica;writing-mode:lr-tb;fill:#000;fill-opacity:1;fill-rule:nonzero;stroke:none" id="text1318"><tspan id="tspan1316" x="0 4.579 7.631 15.276 19.099 26.744 31.323 35.145 42.79 49.665 57.31 61.889" y="0">(interface)</tspan></text></g><path d="m 5112,2016.34 c 0.63,207.59 -822.62,337.62 -1483.55,233.15 -660.31,-104.76 -661.8,-366.8 -2.67,-470.32 659.73,-103.23 1484.47,28.36 1486.22,237.12" style="fill:#fff;fill-opacity:1;fill-rule:evenodd;stroke:none" id="path1320"/><path d="m 5112,2016.34 c 0.63,207.59 -822.62,337.62 -1483.55,233.15 -660.31,-104.76 -661.8,-366.8 -2.67,-470.32 659.73,-103.23 1484.47,28.36 1486.22,237.12" style="fill:none;stroke:#000;stroke-width:7.5;stroke-linecap:round;stroke-linejoin:round;stroke-miterlimit:10;stroke-dasharray:none;stroke-opacity:1" id="path1322"/><g id="g1324" transform="scale(10)"><text transform="matrix(0.909091,0,0,-1,389.04,195.6)" style="font-variant:normal;font-weight:700;font-size:15.75px;font-family:Helvetica;-inkscape-font-specification:Helvetica-Bold;writing-mode:lr-tb;fill:#000;fill-opacity:1;fill-rule:nonzero;stroke:none" id="text1328"><tspan id="tspan1326" x="0 10.505 20.128 24.507 33.264 42.021 48.148" y="0">Solver</tspan></text></g><path d="m 5108.4,575.148 c 0.61,209.437 -822.66,340.618 -1483.57,235.219 -660.31,-105.69 -661.76,-370.029 -2.63,-474.472 659.75,-104.15 1484.48,28.59 1486.2,239.203" style="fill:#fff;fill-opacity:1;fill-rule:evenodd;stroke:none" id="path1330"/><path d="m 5108.4,575.148 c 0.61,209.437 -822.66,340.618 -1483.57,235.219 -660.31,-105.69 -661.76,-370.029 -2.63,-474.472 659.75,-104.15 1484.48,28.59 1486.2,239.203" style="fill:none;stroke:#000;stroke-width:7.5;stroke-linecap:round;stroke-linejoin:round;stroke-miterlimit:10;stroke-dasharray:none;stroke-opacity:1" id="path1332"/><g id="g1334" transform="scale(10)"><text transform="matrix(0.909091,0,0,-1,357.12,51.6)" style="font-variant:normal;font-weight:700;font-size:15.75px;font-family:Helvetica;-inkscape-font-specification:Helvetica-Bold;writing-mode:lr-tb;fill:#000;fill-opacity:1;fill-rule:nonzero;stroke:none" id="text1338"><tspan id="tspan1336" x="0 10.505 16.632 25.389 34.146 43.769 53.392 63.016 73.521 83.144 87.522 96.28 105.036 111.163" y="0">PrecondSolver</tspan></text></g><path d="M 4116,3106.8 V 2287.2" style="fill:none;stroke:#000;stroke-width:7.5;stroke-linecap:round;stroke-linejoin:round;stroke-miterlimit:10;stroke-dasharray:none;stroke-opacity:1" id="path1340"/><path d="m 4116,3178.8 36,-100.8 h -70.8 l 34.8,100.8" style="fill:#000;fill-opacity:1;fill-rule:evenodd;stroke:none" id="path1342"/><path d="m 4116,3178.8 36,-100.8 h -70.8 l 34.8,100.8" style="fill:none;stroke:#000;stroke-width:7.5;stroke-linecap:round;stroke-linejoin:round;stroke-miterlimit:10;stroke-dasharray:none;stroke-opacity:1" id="path1344"/><path d="m 4036.8,2445.6 h 158.4 v 576 h -158.4 z" style="fill:#fff;fill-opacity:1;fill-rule:evenodd;stroke:none" id="path1346"/><g id="g1348" transform="scale(10)"><text transform="matrix(2.5090908e-4,-0.83636361,-0.99999997,-2.9999999e-4,409.699,298.56)" style="font-variant:normal;font-weight:400;font-size:13.75px;font-family:'Times New Roman';-inkscape-font-specification:Times-Roman;writing-mode:lr-tb;fill:#000;fill-opacity:1;fill-rule:nonzero;stroke:none" id="text1352"><tspan id="tspan1350" x="0 7.755" y="0">&lt;</tspan></text><text transform="matrix(2.6727272e-4,-0.89090906,-0.99999996,-2.9999999e-4,409.699,287.04)" style="font-variant:normal;font-weight:700;font-size:13.75000095px;font-family:'Times New Roman';-inkscape-font-specification:Times-Bold;writing-mode:lr-tb;fill:#000;fill-opacity:1;fill-rule:nonzero;stroke:none" id="text1356"><tspan id="tspan1354" x="0 3.822 9.171 12.609 19.484 27.129" y="0">is an</tspan></text><text transform="matrix(2.5090908e-4,-0.83636361,-0.99999997,-2.9999999e-4,409.69986,256.805)" style="font-variant:normal;font-weight:400;font-size:13.75px;font-family:'Times New Roman';-inkscape-font-specification:Times-Roman;writing-mode:lr-tb;fill:#000;fill-opacity:1;fill-rule:nonzero;stroke:none" id="text1360"><tspan id="tspan1358" x="0 7.755" y="0">&gt;</tspan></text></g><path d="M 4122,1671.6 V 847.2" style="fill:none;stroke:#000;stroke-width:7.5;stroke-linecap:round;stroke-linejoin:round;stroke-miterlimit:10;stroke-dasharray:none;stroke-opacity:1" id="path1362"/><path d="m 4122,1743.6 36,-100.8 h -70.8 l 34.8,100.8" style="fill:#000;fill-opacity:1;fill-rule:evenodd;stroke:none" id="path1364"/><path d="m 4122,1743.6 36,-100.8 h -70.8 l 34.8,100.8" style="fill:none;stroke:#000;stroke-width:7.5;stroke-linecap:round;stroke-linejoin:round;stroke-miterlimit:10;stroke-dasharray:none;stroke-opacity:1" id="path1366"/><path d="m 4042.8,1044 h 158.4 v 504 h -158.4 z" style="fill:#fff;fill-opacity:1;fill-rule:evenodd;stroke:none" id="path1368"/><g id="g1370" transform="scale(10)"><text transform="matrix(2.5090908e-4,-0.83636361,-0.99999997,-2.9999999e-4,410.299,151.2)" style="font-variant:normal;font-weight:400;font-size:13.75px;font-family:'Times New Roman';-inkscape-font-specification:Times-Roman;writing-mode:lr-tb;fill:#000;fill-opacity:1;fill-rule:nonzero;stroke:none" id="text1374"><tspan id="tspan1372" x="0 7.755" y="0">&lt;</tspan></text><text transform="matrix(2.6727272e-4,-0.89090906,-0.99999996,-2.9999999e-4,410.299,139.68)" style="font-variant:normal;font-weight:700;font-size:13.75000095px;font-family:'Times New Roman';-inkscape-font-specification:Times-Bold;writing-mode:lr-tb;fill:#000;fill-opacity:1;fill-rule:nonzero;stroke:none" id="text1378"><tspan id="tspan1376" x="0 3.822 9.171 12.609 19.484" y="0">is a</tspan></text><text transform="matrix(2.5090908e-4,-0.83636361,-0.99999997,-2.9999999e-4,410.29986,116.645)" style="font-variant:normal;font-weight:400;font-size:13.75px;font-family:'Times New Roman';-inkscape-font-specification:Times-Roman;writing-mode:lr-tb;fill:#000;fill-opacity:1;fill-rule:nonzero;stroke:none" id="text1382"><tspan id="tspan1380" x="0 7.755" y="0">&gt;</tspan></text></g><path d="m 7992,3449.14 c 0.65,206.67 -822.61,336.12 -1483.53,232.11 -660.33,-104.3 -661.83,-365.18 -2.71,-468.23 659.73,-102.78 1484.48,28.23 1486.24,236.07" style="fill:#e0e0e0;fill-opacity:1;fill-rule:evenodd;stroke:none" id="path1384"/><path d="m 7992,3449.14 c 0.65,206.67 -822.61,336.12 -1483.53,232.11 -660.33,-104.3 -661.83,-365.18 -2.71,-468.23 659.73,-102.78 1484.48,28.23 1486.24,236.07" style="fill:none;stroke:#000;stroke-width:7.5;stroke-linecap:round;stroke-linejoin:round;stroke-miterlimit:10;stroke-dasharray:none;stroke-opacity:1" id="path1386"/><g id="g1388" transform="scale(10)"><text transform="matrix(1,0,0,-0.98333251,676.8,347.28)" style="font-variant:normal;font-weight:700;font-size:15.0000124px;font-family:Helvetica;-inkscape-font-specification:Helvetica-Bold;writing-mode:lr-tb;fill:#000;fill-opacity:1;fill-rule:nonzero;stroke:none" id="text1392"><tspan id="tspan1390" x="0 10.005 18.345 26.685 31.68 40.845 46.68" y="0">Vector</tspan></text><text transform="matrix(0.941177,0,0,-1,671.04,331.44)" style="font-variant:normal;font-weight:400;font-size:12.75px;font-family:Helvetica;-inkscape-font-specification:Helvetica;writing-mode:lr-tb;fill:#000;fill-opacity:1;fill-rule:nonzero;stroke:none" id="text1396"><tspan id="tspan1394" x="0 4.246 7.076 14.165 17.71 24.799 29.044 32.589 39.678 46.053 53.142 57.388" y="0">(interface)</tspan></text></g><path d="M 318,3740.4 1504.8,4356" style="fill:none;stroke:#000;stroke-width:7.5;stroke-linecap:round;stroke-linejoin:round;stroke-miterlimit:10;stroke-dasharray:none;stroke-opacity:1" id="path1398"/><path d="m 252,3706.8 73.2,78 33.6,-63.6 -106.8,-14.4" style="fill:#000;fill-opacity:1;fill-rule:evenodd;stroke:none" id="path1400"/><path d="m 252,3706.8 73.2,78 33.6,-63.6 -106.8,-14.4" style="fill:none;stroke:#000;stroke-width:7.5;stroke-linecap:round;stroke-linejoin:round;stroke-miterlimit:10;stroke-dasharray:none;stroke-opacity:1" id="path1402"/><path d="m 618,3985.2 447.6,231.6 73.2,-140.4 -447.6,-231.6 -73.2,140.4" style="fill:#fff;fill-opacity:1;fill-rule:evenodd;stroke:none" id="path1404"/><g id="g1406" transform="scale(10)"><text transform="matrix(0.76788381,0.3962989,0.4738361,-0.91812155,69.5705,389.28)" style="font-variant:normal;font-weight:400;font-size:13.30782413px;font-family:'Times New Roman';-inkscape-font-specification:Times-Roman;writing-mode:lr-tb;fill:#000;fill-opacity:1;fill-rule:nonzero;stroke:none" id="text1410"><tspan id="tspan1408" x="0 7.506" y="0">&lt;</tspan></text><text transform="matrix(0.80944623,0.41774963,0.46890259,-0.90856219,79.7705,394.56)" style="font-variant:normal;font-weight:700;font-size:13.44784164px;font-family:'Times New Roman';-inkscape-font-specification:Times-Bold;writing-mode:lr-tb;fill:#000;fill-opacity:1;fill-rule:nonzero;stroke:none" id="text1414"><tspan id="tspan1412" x="0 3.739 8.97 12.332 19.056" y="0">is a</tspan></text><text transform="matrix(0.76788381,0.3962989,0.4738361,-0.91812155,100.20521,405.23846)" style="font-variant:normal;font-weight:400;font-size:13.30782413px;font-family:'Times New Roman';-inkscape-font-specification:Times-Roman;writing-mode:lr-tb;fill:#000;fill-opacity:1;fill-rule:nonzero;stroke:none" id="text1418"><tspan id="tspan1416" x="0 7.506" y="0">&gt;</tspan></text></g><path d="M 1504.8,4356 4045.2,3742.8" style="fill:none;stroke:#000;stroke-width:7.5;stroke-linecap:round;stroke-linejoin:round;stroke-miterlimit:10;stroke-dasharray:none;stroke-opacity:1" id="path1420"/><path d="m 4118.4,3726 -106.8,-10.8 16.8,69.6 90,-58.8" style="fill:#000;fill-opacity:1;fill-rule:evenodd;stroke:none" id="path1422"/><path d="m 4118.4,3726 -106.8,-10.8 16.8,69.6 90,-58.8" style="fill:none;stroke:#000;stroke-width:7.5;stroke-linecap:round;stroke-linejoin:round;stroke-miterlimit:10;stroke-dasharray:none;stroke-opacity:1" id="path1424"/><path d="m 2550,4185.6 560.4,-134.4 -37.2,-153.6 -560.4,134.4 37.2,153.6" style="fill:#fff;fill-opacity:1;fill-rule:evenodd;stroke:none" id="path1426"/><g id="g1428" transform="scale(10)"><text transform="matrix(0.82001782,-0.19674019,-0.23523288,-0.98045566,256.172,405.84)" style="font-variant:normal;font-weight:400;font-size:13.63702679px;font-family:'Times New Roman';-inkscape-font-specification:Times-Roman;writing-mode:lr-tb;fill:#000;fill-opacity:1;fill-rule:nonzero;stroke:none" id="text1432"><tspan id="tspan1430" x="0 7.691" y="0">&lt;</tspan></text><text transform="matrix(0.87122866,-0.20902725,-0.23462208,-0.97790982,267.452,403.2)" style="font-variant:normal;font-weight:700;font-size:13.67252827px;font-family:'Times New Roman';-inkscape-font-specification:Times-Bold;writing-mode:lr-tb;fill:#000;fill-opacity:1;fill-rule:nonzero;stroke:none" id="text1436"><tspan id="tspan1434" x="0 3.801 9.12 12.538 19.374 26.976" y="0">is an</tspan></text><text transform="matrix(0.82001782,-0.19674019,-0.23523288,-0.98045566,296.76763,396.04927)" style="font-variant:normal;font-weight:400;font-size:13.63702679px;font-family:'Times New Roman';-inkscape-font-specification:Times-Roman;writing-mode:lr-tb;fill:#000;fill-opacity:1;fill-rule:nonzero;stroke:none" id="text1440"><tspan id="tspan1438" x="0 7.691" y="0">&gt;</tspan></text></g><path d="m 2397.6,4356 h 1440 v 547.2 h -1440 z" style="fill:#fff;fill-opacity:1;fill-rule:evenodd;stroke:none" id="path1442"/><path d="m 2397.6,4356 h 1440 v 547.2 h -1440 z" style="fill:none;stroke:#000;stroke-width:15;stroke-linecap:round;stroke-linejoin:round;stroke-miterlimit:10;stroke-dasharray:none;stroke-opacity:1" id="path1444"/><path d="m 2397.6,4747.2 202.8,156" style="fill:none;stroke:#000;stroke-width:15;stroke-linecap:round;stroke-linejoin:round;stroke-miterlimit:10;stroke-dasharray:none;stroke-opacity:1" id="path1446"/><g id="g1448" transform="scale(10)"><text transform="matrix(0.836364,0,0,-1,268.92,465.12)" style="font-variant:normal;font-weight:700;font-size:15.75px;font-family:Helvetica;-inkscape-font-specification:Helvetica-Bold;writing-mode:lr-tb;fill:#000;fill-opacity:1;fill-rule:nonzero;stroke:none" id="text1452"><tspan id="tspan1450" x="0 4.378 13.135 23.641 32.398 38.524 49.03 57.787 66.544 71.788 81.412 87.538" y="0">IJParVector</tspan></text><text transform="matrix(0.909091,0,0,-1,291.6,448.56)" style="font-variant:normal;font-weight:400;font-size:13.75px;font-family:Helvetica;-inkscape-font-specification:Helvetica;writing-mode:lr-tb;fill:#000;fill-opacity:1;fill-rule:nonzero;stroke:none" id="text1456"><tspan id="tspan1454" x="0 4.579 11.454 14.506 22.151 29.026 35.901 40.48" y="0">(class)</tspan></text></g><path d="m 3117.6,4356 3810,-626.4" style="fill:none;stroke:#000;stroke-width:7.5;stroke-linecap:round;stroke-linejoin:round;stroke-miterlimit:10;stroke-dasharray:none;stroke-opacity:1" id="path1458"/><path d="m 7002,3717.6 -105.6,-18 12,69.6 93.6,-51.6" style="fill:#000;fill-opacity:1;fill-rule:evenodd;stroke:none" id="path1460"/><path d="m 7002,3717.6 -105.6,-18 12,69.6 93.6,-51.6" style="fill:none;stroke:#000;stroke-width:7.5;stroke-linecap:round;stroke-linejoin:round;stroke-miterlimit:10;stroke-dasharray:none;stroke-opacity:1" id="path1462"/><path d="m 4822.8,4155.6 498,-81.6 -25.2,-156 -498,81.6 25.2,156" style="fill:#fff;fill-opacity:1;fill-rule:evenodd;stroke:none" id="path1464"/><g id="g1466" transform="scale(10)"><text transform="matrix(0.8286295,-0.13568352,-0.16223072,-0.99075223,484.359,402.96)" style="font-variant:normal;font-weight:400;font-size:13.69656277px;font-family:'Times New Roman';-inkscape-font-specification:Times-Roman;writing-mode:lr-tb;fill:#000;fill-opacity:1;fill-rule:nonzero;stroke:none" id="text1470"><tspan id="tspan1468" x="0 7.725" y="0">&lt;</tspan></text><text transform="matrix(0.88157771,-0.14435405,-0.16202995,-0.9895261,495.639,401.04)" style="font-variant:normal;font-weight:700;font-size:13.71353436px;font-family:'Times New Roman';-inkscape-font-specification:Times-Bold;writing-mode:lr-tb;fill:#000;fill-opacity:1;fill-rule:nonzero;stroke:none" id="text1474"><tspan id="tspan1472" x="0 3.812 9.147 12.575 19.432" y="0">is a</tspan></text><text transform="matrix(0.8286295,-0.13568352,-0.16223072,-0.99075223,518.39631,397.33541)" style="font-variant:normal;font-weight:400;font-size:13.69656277px;font-family:'Times New Roman';-inkscape-font-specification:Times-Roman;writing-mode:lr-tb;fill:#000;fill-opacity:1;fill-rule:nonzero;stroke:none" id="text1478"><tspan id="tspan1476" x="0 7.725" y="0">&gt;</tspan></text></g><path d="M 864,3724.8 3117.6,4356" style="fill:none;stroke:#000;stroke-width:7.5;stroke-linecap:round;stroke-linejoin:round;stroke-miterlimit:10;stroke-dasharray:none;stroke-opacity:1" id="path1480"/><path d="m 792,3705.6 87.6,61.2 19.2,-68.4 -106.8,7.2" style="fill:#000;fill-opacity:1;fill-rule:evenodd;stroke:none" id="path1482"/><path d="m 792,3705.6 87.6,61.2 19.2,-68.4 -106.8,7.2" style="fill:none;stroke:#000;stroke-width:7.5;stroke-linecap:round;stroke-linejoin:round;stroke-miterlimit:10;stroke-dasharray:none;stroke-opacity:1" id="path1484"/><path d="m 1690.8,4039.2 486,135.6 42,-152.4 -486,-135.6 -42,152.4" style="fill:#fff;fill-opacity:1;fill-rule:evenodd;stroke:none" id="path1486"/><g id="g1488" transform="scale(10)"><text transform="matrix(0.8144573,0.22737522,0.27186166,-0.97380722,175.149,393.12)" style="font-variant:normal;font-weight:400;font-size:13.60022736px;font-family:'Times New Roman';-inkscape-font-specification:Times-Roman;writing-mode:lr-tb;fill:#000;fill-opacity:1;fill-rule:nonzero;stroke:none" id="text1492"><tspan id="tspan1490" x="0 7.671" y="0">&lt;</tspan></text><text transform="matrix(0.86456885,0.24136453,0.27092009,-0.97043452,186.309,396.24)" style="font-variant:normal;font-weight:700;font-size:13.64749432px;font-family:'Times New Roman';-inkscape-font-specification:Times-Bold;writing-mode:lr-tb;fill:#000;fill-opacity:1;fill-rule:nonzero;stroke:none" id="text1496"><tspan id="tspan1494" x="0 3.794 9.103 12.515 19.338" y="0">is a</tspan></text><text transform="matrix(0.8144573,0.22737522,0.27186166,-0.97380722,208.51818,402.41308)" style="font-variant:normal;font-weight:400;font-size:13.60022736px;font-family:'Times New Roman';-inkscape-font-specification:Times-Roman;writing-mode:lr-tb;fill:#000;fill-opacity:1;fill-rule:nonzero;stroke:none" id="text1500"><tspan id="tspan1498" x="0 7.671" y="0">&gt;</tspan></text></g><path d="m 5853.6,302.4 h 1440 v 547.2 h -1440 z" style="fill:#fff;fill-opacity:1;fill-rule:evenodd;stroke:none" id="path1502"/><path d="m 5853.6,302.4 h 1440 v 547.2 h -1440 z" style="fill:none;stroke:#000;stroke-width:15;stroke-linecap:round;stroke-linejoin:round;stroke-miterlimit:10;stroke-dasharray:none;stroke-opacity:1" id="path1504"/><path d="m 5853.6,693.6 202.8,156" style="fill:none;stroke:#000;stroke-width:15;stroke-linecap:round;stroke-linejoin:round;stroke-miterlimit:10;stroke-dasharray:none;stroke-opacity:1" id="path1506"/><g id="g1508" transform="scale(10)"><text transform="matrix(0.836364,0,0,-1,640.08,59.76)" style="font-variant:normal;font-weight:700;font-size:15.75px;font-family:Helvetica;-inkscape-font-specification:Helvetica-Bold;writing-mode:lr-tb;fill:#000;fill-opacity:1;fill-rule:nonzero;stroke:none" id="text1512"><tspan id="tspan1510" x="0 10.505 21.877 34.13" y="0">PCG</tspan></text><text transform="matrix(0.909091,0,0,-1,637.2,43.2)" style="font-variant:normal;font-weight:400;font-size:13.75px;font-family:Helvetica;-inkscape-font-specification:Helvetica;writing-mode:lr-tb;fill:#000;fill-opacity:1;fill-rule:nonzero;stroke:none" id="text1516"><tspan id="tspan1514" x="0 4.579 11.454 14.506 22.151 29.026 35.901 40.48" y="0">(class)</tspan></text></g><path d="m 5186.4,2014.8 667.2,8.4" style="fill:none;stroke:#000;stroke-width:7.5;stroke-linecap:round;stroke-linejoin:round;stroke-miterlimit:10;stroke-dasharray:none;stroke-opacity:1" id="path1518"/><path d="m 5112,2014.8 100.8,36 1.2,-70.8 -102,34.8" style="fill:#000;fill-opacity:1;fill-rule:evenodd;stroke:none" id="path1520"/><path d="m 5112,2014.8 100.8,36 1.2,-70.8 -102,34.8" style="fill:none;stroke:#000;stroke-width:7.5;stroke-linecap:round;stroke-linejoin:round;stroke-miterlimit:10;stroke-dasharray:none;stroke-opacity:1" id="path1522"/><path d="m 5229.6,2095.2 504,4.8 2.4,-158.4 -504,-4.8 -2.4,158.4" style="fill:#fff;fill-opacity:1;fill-rule:evenodd;stroke:none" id="path1524"/><g id="g1526" transform="scale(10)"><text transform="matrix(0.836364,0.0087827,0.010501,-1,526.655,197.28)" style="font-variant:normal;font-weight:400;font-size:13.74913025px;font-family:'Times New Roman';-inkscape-font-specification:Times-Roman;writing-mode:lr-tb;fill:#000;fill-opacity:1;fill-rule:nonzero;stroke:none" id="text1530"><tspan id="tspan1528" x="0 7.754" y="0">&lt;</tspan></text><text transform="matrix(0.890909,0.00935548,0.010501,-1,538.175,197.4)" style="font-variant:normal;font-weight:700;font-size:13.74920177px;font-family:'Times New Roman';-inkscape-font-specification:Times-Bold;writing-mode:lr-tb;fill:#000;fill-opacity:1;fill-rule:nonzero;stroke:none" id="text1534"><tspan id="tspan1532" x="0 3.822 9.171 12.608 19.483" y="0">is a</tspan></text><text transform="matrix(0.836364,0.0087827,0.010501,-1,561.20971,197.67019)" style="font-variant:normal;font-weight:400;font-size:13.74913025px;font-family:'Times New Roman';-inkscape-font-specification:Times-Roman;writing-mode:lr-tb;fill:#000;fill-opacity:1;fill-rule:nonzero;stroke:none" id="text1538"><tspan id="tspan1536" x="0 7.754" y="0">&gt;</tspan></text></g><path d="m 5182.8,573.6 670.8,2.4" style="fill:none;stroke:#000;stroke-width:7.5;stroke-linecap:round;stroke-linejoin:round;stroke-miterlimit:10;stroke-dasharray:none;stroke-opacity:1" id="path1540"/><path d="m 5108.4,573.6 100.8,36 v -70.8 l -100.8,34.8" style="fill:#000;fill-opacity:1;fill-rule:evenodd;stroke:none" id="path1542"/><path d="m 5108.4,573.6 100.8,36 v -70.8 l -100.8,34.8" style="fill:none;stroke:#000;stroke-width:7.5;stroke-linecap:round;stroke-linejoin:round;stroke-miterlimit:10;stroke-dasharray:none;stroke-opacity:1" id="path1544"/><path d="m 5228.4,495.6 h 504 V 654 h -504 z" style="fill:#fff;fill-opacity:1;fill-rule:evenodd;stroke:none" id="path1546"/><g id="g1548" transform="scale(10)"><text transform="matrix(0.836364,0.00150545,0.0018,-1,526.436,53.16)" style="font-variant:normal;font-weight:400;font-size:13.75001526px;font-family:'Times New Roman';-inkscape-font-specification:Times-Roman;writing-mode:lr-tb;fill:#000;fill-opacity:1;fill-rule:nonzero;stroke:none" id="text1552"><tspan id="tspan1550" x="0 7.755" y="0">&lt;</tspan></text><text transform="matrix(0.890909,0.00160364,0.0018,-1,537.956,53.16)" style="font-variant:normal;font-weight:700;font-size:13.75001812px;font-family:'Times New Roman';-inkscape-font-specification:Times-Bold;writing-mode:lr-tb;fill:#000;fill-opacity:1;fill-rule:nonzero;stroke:none" id="text1556"><tspan id="tspan1554" x="0 3.822 9.171 12.609 19.484" y="0">is a</tspan></text><text transform="matrix(0.836364,0.00150545,0.0018,-1,560.991,53.165175)" style="font-variant:normal;font-weight:400;font-size:13.75001526px;font-family:'Times New Roman';-inkscape-font-specification:Times-Roman;writing-mode:lr-tb;fill:#000;fill-opacity:1;fill-rule:nonzero;stroke:none" id="text1560"><tspan id="tspan1558" x="0 7.755" y="0">&gt;</tspan></text></g><path d="m 5853.6,1749.6 h 1440 v 547.2 h -1440 z" style="fill:#fff;fill-opacity:1;fill-rule:evenodd;stroke:none" id="path1562"/><path d="m 5853.6,1749.6 h 1440 v 547.2 h -1440 z" style="fill:none;stroke:#000;stroke-width:15;stroke-linecap:round;stroke-linejoin:round;stroke-miterlimit:10;stroke-dasharray:none;stroke-opacity:1" id="path1564"/><path d="m 5853.6,2140.8 202.8,156" style="fill:none;stroke:#000;stroke-width:15;stroke-linecap:round;stroke-linejoin:round;stroke-miterlimit:10;stroke-dasharray:none;stroke-opacity:1" id="path1566"/><g id="g1568" transform="scale(10)"><text transform="matrix(0.836364,0,0,-1,610.56,204.48)" style="font-variant:normal;font-weight:700;font-size:15.75px;font-family:Helvetica;-inkscape-font-specification:Helvetica-Bold;writing-mode:lr-tb;fill:#000;fill-opacity:1;fill-rule:nonzero;stroke:none" id="text1572"><tspan id="tspan1570" x="0 11.371 20.995 30.618 44.62 53.377 59.503 70.875 83.995 96.248" y="0">BoomerAMG</tspan></text><text transform="matrix(0.909091,0,0,-1,637.2,187.92)" style="font-variant:normal;font-weight:400;font-size:13.75px;font-family:Helvetica;-inkscape-font-specification:Helvetica;writing-mode:lr-tb;fill:#000;fill-opacity:1;fill-rule:nonzero;stroke:none" id="text1576"><tspan id="tspan1574" x="0 4.579 11.454 14.506 22.151 29.026 35.901 40.48" y="0">(class)</tspan></text><text transform="matrix(1,0,0,-0.98749827,391.32,458.64)" style="font-variant:normal;font-weight:700;font-size:20.00003433px;font-family:Helvetica;-inkscape-font-specification:Helvetica-Bold;writing-mode:lr-tb;fill:#000;fill-opacity:1;fill-rule:nonzero;stroke:none" id="text1580"><tspan id="tspan1578" x="0 20" y="0">…</tspan></text><text transform="matrix(-8.9999787e-4,-0.99999961,-0.98749494,8.8874634e-4,657.505,167.76)" style="font-variant:normal;font-weight:700;font-size:20.00008202px;font-family:Helvetica;-inkscape-font-specification:Helvetica-Bold;writing-mode:lr-tb;fill:#000;fill-opacity:1;fill-rule:nonzero;stroke:none" id="text1584"><tspan id="tspan1582" x="0 20 144.001 164.001" y="0">……</tspan></text></g></g></g></g></svg>