<svg xmlns="http://www.w3.org/2000/svg" xmlns:svg="http://www.w3.org/2000/svg" id="svg7282" width="289.414" height="288.774" version="1.1" viewBox="0 0 289.414 288.774" xml:space="preserve"><metadata id="metadata7288"/><g id="g7290" transform="matrix(1.3333333,0,0,-1.3333333,-4.732357,293.50761)"><g id="g7292" transform="scale(0.1)"><g id="g7294"><path d="m 40.7998,35.9998 h 2164.8 v 2164.8 h -2164.8 z" style="fill:none;stroke:#000;stroke-width:1;stroke-linecap:butt;stroke-linejoin:round;stroke-miterlimit:10;stroke-dasharray:none;stroke-opacity:1" id="path7296"/><path d="M 35.9998,760.8 H 2193.6" style="fill:none;stroke:#000;stroke-width:1;stroke-linecap:round;stroke-linejoin:round;stroke-miterlimit:10;stroke-dasharray:none;stroke-opacity:1" id="path7298"/><path d="M 40.7998,1480.8 H 2193.6" style="fill:none;stroke:#000;stroke-width:1;stroke-linecap:round;stroke-linejoin:round;stroke-miterlimit:10;stroke-dasharray:none;stroke-opacity:1" id="path7300"/><path d="M 759.6,2200.8 V 44.3999" style="fill:none;stroke:#000;stroke-width:1;stroke-linecap:round;stroke-linejoin:round;stroke-miterlimit:10;stroke-dasharray:none;stroke-opacity:1" id="path7302"/><path d="M 1480.8,2198.4 V 41.9998" style="fill:none;stroke:#000;stroke-width:1;stroke-linecap:round;stroke-linejoin:round;stroke-miterlimit:10;stroke-dasharray:none;stroke-opacity:1" id="path7304"/><g id="g7306" transform="scale(10)"><text transform="matrix(0.833333,0,0,-1,16.08,33.36)" style="font-style:italic;font-variant:normal;font-size:18px;font-family:'Times New Roman';-inkscape-font-specification:Times-Italic;writing-mode:lr-tb;fill:#000;fill-opacity:1;fill-rule:nonzero;stroke:none" id="text7312"><tspan id="tspan7308" x="0 5.994 11.988 20.988 25.488 31.482 40.482 46.476" y="0">(-1,-1)</tspan><tspan id="tspan7310" x="22.464 28.458 37.458 41.958 50.958 56.952" y="-126.36">(0,0)</tspan></text></g><path d="m 1168.8,1124.51 c -0.11,34.18 -36.13,55.42 -64.85,38.31 -28.76,-17.15 -28.71,-59.82 0.1,-76.9 28.9,-17.02 64.8,4.41 64.75,38.58" style="fill:#a0a0a4;fill-opacity:1;fill-rule:evenodd;stroke:none" id="path7314"/><path d="m 1168.8,1124.51 c -0.11,34.18 -36.13,55.42 -64.85,38.31 -28.76,-17.15 -28.71,-59.82 0.1,-76.9 28.9,-17.02 64.8,4.41 64.75,38.58" style="fill:none;stroke:#a0a0a4;stroke-width:1;stroke-linecap:round;stroke-linejoin:round;stroke-miterlimit:10;stroke-dasharray:none;stroke-opacity:1" id="path7316"/><path d="M 696,1545.6 979.2,1262.4" style="fill:none;stroke:#000;stroke-width:15;stroke-linecap:round;stroke-linejoin:round;stroke-miterlimit:10;stroke-dasharray:none;stroke-opacity:1" id="path7318"/><path d="m 998.4,1243.2 -61.2,20.4 38.4,2.4 2.4,38.4 20.4,-61.2" style="fill:#000;fill-opacity:1;fill-rule:evenodd;stroke:none" id="path7320"/><path d="m 998.4,1243.2 -61.2,20.4 38.4,2.4 2.4,38.4 20.4,-61.2" style="fill:none;stroke:#000;stroke-width:7.5;stroke-linecap:round;stroke-linejoin:round;stroke-miterlimit:10;stroke-dasharray:none;stroke-opacity:1" id="path7322"/><path d="m 1230,1136.42 c -0.08,82.21 -88.99,133.52 -160.21,92.46 -71.222,-41.31 -71.091,-143.96 0.12,-185.04 71.29,-40.96 160.02,10.35 160.09,92.56" style="fill:#fff;fill-opacity:1;fill-rule:evenodd;stroke:none" id="path7324"/><g id="g7326" transform="scale(10)"><text transform="matrix(0.861111,0,0,-1,107.76,106.44)" style="font-style:italic;font-variant:normal;font-weight:700;font-size:18px;font-family:'Times New Roman';-inkscape-font-specification:Times-BoldItalic;writing-mode:lr-tb;fill:#a00000;fill-opacity:1;fill-rule:nonzero;stroke:none" id="text7330"><tspan id="tspan7328" x="0 9" y="0">0</tspan></text></g></g></g></g></svg>