<svg xmlns="http://www.w3.org/2000/svg" xmlns:svg="http://www.w3.org/2000/svg" id="svg3120" width="506.309" height="505.965" version="1.1" viewBox="0 0 506.309 505.965" xml:space="preserve"><metadata id="metadata3126"/><defs id="defs3124"><clipPath id="clipPath3478" clipPathUnits="userSpaceOnUse"><path id="path3476" d="M 0,0 H 720 V 540 H 0 Z"/></clipPath><clipPath id="clipPath3490" clipPathUnits="userSpaceOnUse"><path id="path3488" d="M 0,0 H 720 V 540 H 0 Z"/></clipPath><clipPath id="clipPath3502" clipPathUnits="userSpaceOnUse"><path id="path3500" d="M 0,0 H 720 V 540 H 0 Z"/></clipPath><clipPath id="clipPath3518" clipPathUnits="userSpaceOnUse"><path id="path3516" d="M 0,0 H 720 V 540 H 0 Z"/></clipPath></defs><g id="g3128" transform="matrix(1.3333333,0,0,-1.3333333,-261.62,591.59067)"><g id="g3130" transform="translate(360,252)"><path d="M 0,0 H 108" style="fill:none;stroke:#000;stroke-width:2.5;stroke-linecap:butt;stroke-linejoin:round;stroke-miterlimit:10;stroke-dasharray:none;stroke-opacity:1" id="path3132"/></g><g id="g3134" transform="translate(468,252.00011)"><path d="M 0,0 54,93.531" style="fill:none;stroke:#000;stroke-width:2.5;stroke-linecap:butt;stroke-linejoin:round;stroke-miterlimit:10;stroke-dasharray:none;stroke-opacity:1" id="path3136"/></g><g id="g3138" transform="translate(360,252.00011)"><path d="M 0,0 54,93.531" style="fill:none;stroke:#000;stroke-width:2.5;stroke-linecap:butt;stroke-linejoin:round;stroke-miterlimit:10;stroke-dasharray:none;stroke-opacity:1" id="path3140"/></g><g id="g3142" transform="translate(414,345.0201)"><path d="M 0,0 H 108" style="fill:none;stroke:#000;stroke-width:2.5;stroke-linecap:butt;stroke-linejoin:round;stroke-miterlimit:10;stroke-dasharray:none;stroke-opacity:1" id="path3144"/></g><g id="g3146" transform="translate(366,262.18491)"><path d="M 0,0 H 18" style="fill:none;stroke:#000;stroke-width:.75;stroke-linecap:butt;stroke-linejoin:round;stroke-miterlimit:10;stroke-dasharray:none;stroke-opacity:1" id="path3148"/></g><g id="g3150" transform="translate(372,251.9998)"><path d="M 0,0 9,15.588" style="fill:none;stroke:#000;stroke-width:.75;stroke-linecap:butt;stroke-linejoin:round;stroke-miterlimit:10;stroke-dasharray:none;stroke-opacity:1" id="path3152"/></g><g id="g3154" transform="translate(384,252)"><path d="M 0,0 3.6,6.235" style="fill:none;stroke:#000;stroke-width:.75;stroke-linecap:butt;stroke-linejoin:round;stroke-miterlimit:10;stroke-dasharray:none;stroke-opacity:1" id="path3156"/></g><g id="g3158" transform="translate(372,272.3698)"><path d="M 0,0 H 7.2" style="fill:none;stroke:#000;stroke-width:.75;stroke-linecap:butt;stroke-linejoin:round;stroke-miterlimit:10;stroke-dasharray:none;stroke-opacity:1" id="path3160"/></g><g id="g3162" transform="translate(516,334.7849)"><path d="M 0,0 H -18" style="fill:none;stroke:#000;stroke-width:.75;stroke-linecap:butt;stroke-linejoin:round;stroke-miterlimit:10;stroke-dasharray:none;stroke-opacity:1" id="path3164"/></g><g id="g3166" transform="translate(510,344.96989)"><path d="M 0,0 -9,-15.588" style="fill:none;stroke:#000;stroke-width:.75;stroke-linecap:butt;stroke-linejoin:round;stroke-miterlimit:10;stroke-dasharray:none;stroke-opacity:1" id="path3168"/></g><g id="g3170" transform="translate(498,344.9697)"><path d="M 0,0 -3.6,-6.235" style="fill:none;stroke:#000;stroke-width:.75;stroke-linecap:butt;stroke-linejoin:round;stroke-miterlimit:10;stroke-dasharray:none;stroke-opacity:1" id="path3172"/></g><g id="g3174" transform="translate(510,324.60001)"><path d="M 0,0 H -7.2" style="fill:none;stroke:#000;stroke-width:.75;stroke-linecap:butt;stroke-linejoin:round;stroke-miterlimit:10;stroke-dasharray:none;stroke-opacity:1" id="path3176"/></g><g id="g3178" transform="translate(359.6655,251.5211)"><path d="M 0,0 54,93.531" style="fill:none;stroke:#000;stroke-width:2.5;stroke-linecap:butt;stroke-linejoin:round;stroke-miterlimit:10;stroke-dasharray:none;stroke-opacity:1" id="path3180"/></g><g id="g3182" transform="translate(413.66541,345.0519)"><path d="M 0,0 -54,93.531" style="fill:none;stroke:#000;stroke-width:2.5;stroke-linecap:butt;stroke-linejoin:round;stroke-miterlimit:10;stroke-dasharray:none;stroke-opacity:1" id="path3184"/></g><g id="g3186" transform="translate(359.66541,251.5211)"><path d="M 0,0 -54,93.531" style="fill:none;stroke:#000;stroke-width:2.5;stroke-linecap:butt;stroke-linejoin:round;stroke-miterlimit:10;stroke-dasharray:none;stroke-opacity:1" id="path3188"/></g><g id="g3190" transform="translate(306.10761,344.7966)"><path d="M 0,0 54,93.531" style="fill:none;stroke:#000;stroke-width:2.5;stroke-linecap:butt;stroke-linejoin:round;stroke-miterlimit:10;stroke-dasharray:none;stroke-opacity:1" id="path3192"/></g><g id="g3194" transform="translate(353.84509,261.80969)"><path d="M 0,0 9,15.588" style="fill:none;stroke:#000;stroke-width:.75;stroke-linecap:butt;stroke-linejoin:round;stroke-miterlimit:10;stroke-dasharray:none;stroke-opacity:1" id="path3196"/></g><g id="g3198" transform="translate(365.6656,261.9133)"><path d="M 0,0 -9,15.588" style="fill:none;stroke:#000;stroke-width:.75;stroke-linecap:butt;stroke-linejoin:round;stroke-miterlimit:10;stroke-dasharray:none;stroke-opacity:1" id="path3200"/></g><g id="g3202" transform="translate(371.66541,272.3058)"><path d="M 0,0 -3.6,6.235" style="fill:none;stroke:#000;stroke-width:.75;stroke-linecap:butt;stroke-linejoin:round;stroke-miterlimit:10;stroke-dasharray:none;stroke-opacity:1" id="path3204"/></g><g id="g3206" transform="translate(348.0247,272.0983)"><path d="M 0,0 3.6,6.235" style="fill:none;stroke:#000;stroke-width:.75;stroke-linecap:butt;stroke-linejoin:round;stroke-miterlimit:10;stroke-dasharray:none;stroke-opacity:1" id="path3208"/></g><g id="g3210" transform="translate(365.9716,428.0135)"><path d="M 0,0 -9,-15.588" style="fill:none;stroke:#000;stroke-width:.75;stroke-linecap:butt;stroke-linejoin:round;stroke-miterlimit:10;stroke-dasharray:none;stroke-opacity:1" id="path3212"/></g><g id="g3214" transform="translate(354.1512,427.9099)"><path d="M 0,0 9,-15.588" style="fill:none;stroke:#000;stroke-width:.75;stroke-linecap:butt;stroke-linejoin:round;stroke-miterlimit:10;stroke-dasharray:none;stroke-opacity:1" id="path3216"/></g><g id="g3218" transform="translate(348.15131,417.5175)"><path d="M 0,0 3.6,-6.235" style="fill:none;stroke:#000;stroke-width:.75;stroke-linecap:butt;stroke-linejoin:round;stroke-miterlimit:10;stroke-dasharray:none;stroke-opacity:1" id="path3220"/></g><g id="g3222" transform="translate(371.7921,417.7249)"><path d="M 0,0 -3.6,-6.235" style="fill:none;stroke:#000;stroke-width:.75;stroke-linecap:butt;stroke-linejoin:round;stroke-miterlimit:10;stroke-dasharray:none;stroke-opacity:1" id="path3224"/></g><g id="g3226" transform="translate(359.4655,252.0865)"><path d="M 0,0 -54,93.531" style="fill:none;stroke:#000;stroke-width:2.5;stroke-linecap:butt;stroke-linejoin:round;stroke-miterlimit:10;stroke-dasharray:none;stroke-opacity:1" id="path3228"/></g><g id="g3230" transform="translate(305.46539,345.6172)"><path d="M 0,0 H -108" style="fill:none;stroke:#000;stroke-width:2.5;stroke-linecap:butt;stroke-linejoin:round;stroke-miterlimit:10;stroke-dasharray:none;stroke-opacity:1" id="path3232"/></g><g id="g3234" transform="translate(359.46539,252.0865)"><path d="M 0,0 H -108" style="fill:none;stroke:#000;stroke-width:2.5;stroke-linecap:butt;stroke-linejoin:round;stroke-miterlimit:10;stroke-dasharray:none;stroke-opacity:1" id="path3236"/></g><g id="g3238" transform="translate(251.90759,252.3419)"><path d="M 0,0 -54,93.531" style="fill:none;stroke:#000;stroke-width:2.5;stroke-linecap:butt;stroke-linejoin:round;stroke-miterlimit:10;stroke-dasharray:none;stroke-opacity:1" id="path3240"/></g><g id="g3242" transform="translate(347.6451,252.1902)"><path d="M 0,0 -9,15.588" style="fill:none;stroke:#000;stroke-width:.75;stroke-linecap:butt;stroke-linejoin:round;stroke-miterlimit:10;stroke-dasharray:none;stroke-opacity:1" id="path3244"/></g><g id="g3246" transform="translate(353.46561,262.4789)"><path d="M 0,0 H -18" style="fill:none;stroke:#000;stroke-width:.75;stroke-linecap:butt;stroke-linejoin:round;stroke-miterlimit:10;stroke-dasharray:none;stroke-opacity:1" id="path3248"/></g><g id="g3250" transform="translate(347.46539,272.8712)"><path d="M 0,0 H -7.2" style="fill:none;stroke:#000;stroke-width:.75;stroke-linecap:butt;stroke-linejoin:round;stroke-miterlimit:10;stroke-dasharray:none;stroke-opacity:1" id="path3252"/></g><g id="g3254" transform="translate(335.82471,252.2939)"><path d="M 0,0 -3.6,6.235" style="fill:none;stroke:#000;stroke-width:.75;stroke-linecap:butt;stroke-linejoin:round;stroke-miterlimit:10;stroke-dasharray:none;stroke-opacity:1" id="path3256"/></g><g id="g3258" transform="translate(209.7717,345.7941)"><path d="M 0,0 9,-15.588" style="fill:none;stroke:#000;stroke-width:.75;stroke-linecap:butt;stroke-linejoin:round;stroke-miterlimit:10;stroke-dasharray:none;stroke-opacity:1" id="path3260"/></g><g id="g3262" transform="translate(203.9512,335.5054)"><path d="M 0,0 H 18" style="fill:none;stroke:#000;stroke-width:.75;stroke-linecap:butt;stroke-linejoin:round;stroke-miterlimit:10;stroke-dasharray:none;stroke-opacity:1" id="path3264"/></g><g id="g3266" transform="translate(209.95129,325.1132)"><path d="M 0,0 H 7.2" style="fill:none;stroke:#000;stroke-width:.75;stroke-linecap:butt;stroke-linejoin:round;stroke-miterlimit:10;stroke-dasharray:none;stroke-opacity:1" id="path3268"/></g><g id="g3270" transform="translate(221.5921,345.6904)"><path d="M 0,0 3.6,-6.235" style="fill:none;stroke:#000;stroke-width:.75;stroke-linecap:butt;stroke-linejoin:round;stroke-miterlimit:10;stroke-dasharray:none;stroke-opacity:1" id="path3272"/></g><g id="g3274" transform="translate(360,252.0519)"><path d="M 0,0 H 108" style="fill:none;stroke:#000;stroke-width:2.5;stroke-linecap:butt;stroke-linejoin:round;stroke-miterlimit:10;stroke-dasharray:none;stroke-opacity:1" id="path3276"/></g><g id="g3278" transform="translate(468,252.0518)"><path d="M 0,0 54,-93.531" style="fill:none;stroke:#000;stroke-width:2.5;stroke-linecap:butt;stroke-linejoin:round;stroke-miterlimit:10;stroke-dasharray:none;stroke-opacity:1" id="path3280"/></g><g id="g3282" transform="translate(360,252.0518)"><path d="M 0,0 54,-93.531" style="fill:none;stroke:#000;stroke-width:2.5;stroke-linecap:butt;stroke-linejoin:round;stroke-miterlimit:10;stroke-dasharray:none;stroke-opacity:1" id="path3284"/></g><g id="g3286" transform="translate(414,159.03169)"><path d="M 0,0 H 108" style="fill:none;stroke:#000;stroke-width:2.5;stroke-linecap:butt;stroke-linejoin:round;stroke-miterlimit:10;stroke-dasharray:none;stroke-opacity:1" id="path3288"/></g><g id="g3290" transform="translate(366,241.867)"><path d="M 0,0 H 18" style="fill:none;stroke:#000;stroke-width:.75;stroke-linecap:butt;stroke-linejoin:round;stroke-miterlimit:10;stroke-dasharray:none;stroke-opacity:1" id="path3292"/></g><g id="g3294" transform="translate(372,252.052)"><path d="M 0,0 9,-15.588" style="fill:none;stroke:#000;stroke-width:.75;stroke-linecap:butt;stroke-linejoin:round;stroke-miterlimit:10;stroke-dasharray:none;stroke-opacity:1" id="path3296"/></g><g id="g3298" transform="translate(384,252.0519)"><path d="M 0,0 3.6,-6.235" style="fill:none;stroke:#000;stroke-width:.75;stroke-linecap:butt;stroke-linejoin:round;stroke-miterlimit:10;stroke-dasharray:none;stroke-opacity:1" id="path3300"/></g><g id="g3302" transform="translate(372,231.6821)"><path d="M 0,0 H 7.2" style="fill:none;stroke:#000;stroke-width:.75;stroke-linecap:butt;stroke-linejoin:round;stroke-miterlimit:10;stroke-dasharray:none;stroke-opacity:1" id="path3304"/></g><g id="g3306" transform="translate(516,169.267)"><path d="M 0,0 H -18" style="fill:none;stroke:#000;stroke-width:.75;stroke-linecap:butt;stroke-linejoin:round;stroke-miterlimit:10;stroke-dasharray:none;stroke-opacity:1" id="path3308"/></g><g id="g3310" transform="translate(510,159.082)"><path d="M 0,0 -9,15.588" style="fill:none;stroke:#000;stroke-width:.75;stroke-linecap:butt;stroke-linejoin:round;stroke-miterlimit:10;stroke-dasharray:none;stroke-opacity:1" id="path3312"/></g><g id="g3314" transform="translate(498,159.0822)"><path d="M 0,0 -3.6,6.235" style="fill:none;stroke:#000;stroke-width:.75;stroke-linecap:butt;stroke-linejoin:round;stroke-miterlimit:10;stroke-dasharray:none;stroke-opacity:1" id="path3316"/></g><g id="g3318" transform="translate(510,179.4519)"><path d="M 0,0 H -7.2" style="fill:none;stroke:#000;stroke-width:.75;stroke-linecap:butt;stroke-linejoin:round;stroke-miterlimit:10;stroke-dasharray:none;stroke-opacity:1" id="path3320"/></g><g id="g3322" transform="translate(359.6655,252.53081)"><path d="M 0,0 54,-93.531" style="fill:none;stroke:#000;stroke-width:2.5;stroke-linecap:butt;stroke-linejoin:round;stroke-miterlimit:10;stroke-dasharray:none;stroke-opacity:1" id="path3324"/></g><g id="g3326" transform="translate(413.66541,159)"><path d="M 0,0 -54,-93.531" style="fill:none;stroke:#000;stroke-width:2.5;stroke-linecap:butt;stroke-linejoin:round;stroke-miterlimit:10;stroke-dasharray:none;stroke-opacity:1" id="path3328"/></g><g id="g3330" transform="translate(359.66541,252.5307)"><path d="M 0,0 -54,-93.531" style="fill:none;stroke:#000;stroke-width:2.5;stroke-linecap:butt;stroke-linejoin:round;stroke-miterlimit:10;stroke-dasharray:none;stroke-opacity:1" id="path3332"/></g><g id="g3334" transform="translate(306.10761,159.25529)"><path d="M 0,0 54,-93.531" style="fill:none;stroke:#000;stroke-width:2.5;stroke-linecap:butt;stroke-linejoin:round;stroke-miterlimit:10;stroke-dasharray:none;stroke-opacity:1" id="path3336"/></g><g id="g3338" transform="translate(353.84509,242.2422)"><path d="M 0,0 9,-15.588" style="fill:none;stroke:#000;stroke-width:.75;stroke-linecap:butt;stroke-linejoin:round;stroke-miterlimit:10;stroke-dasharray:none;stroke-opacity:1" id="path3340"/></g><g id="g3342" transform="translate(365.6656,242.1385)"><path d="M 0,0 -9,-15.588" style="fill:none;stroke:#000;stroke-width:.75;stroke-linecap:butt;stroke-linejoin:round;stroke-miterlimit:10;stroke-dasharray:none;stroke-opacity:1" id="path3344"/></g><g id="g3346" transform="translate(371.66541,231.74609)"><path d="M 0,0 -3.6,-6.235" style="fill:none;stroke:#000;stroke-width:.75;stroke-linecap:butt;stroke-linejoin:round;stroke-miterlimit:10;stroke-dasharray:none;stroke-opacity:1" id="path3348"/></g><g id="g3350" transform="translate(348.0247,231.9536)"><path d="M 0,0 3.6,-6.235" style="fill:none;stroke:#000;stroke-width:.75;stroke-linecap:butt;stroke-linejoin:round;stroke-miterlimit:10;stroke-dasharray:none;stroke-opacity:1" id="path3352"/></g><g id="g3354" transform="translate(365.9716,76.038406)"><path d="M 0,0 -9,15.588" style="fill:none;stroke:#000;stroke-width:.75;stroke-linecap:butt;stroke-linejoin:round;stroke-miterlimit:10;stroke-dasharray:none;stroke-opacity:1" id="path3356"/></g><g id="g3358" transform="translate(354.1512,76.141998)"><path d="M 0,0 9,15.588" style="fill:none;stroke:#000;stroke-width:.75;stroke-linecap:butt;stroke-linejoin:round;stroke-miterlimit:10;stroke-dasharray:none;stroke-opacity:1" id="path3360"/></g><g id="g3362" transform="translate(348.15131,86.5345)"><path d="M 0,0 3.6,6.235" style="fill:none;stroke:#000;stroke-width:.75;stroke-linecap:butt;stroke-linejoin:round;stroke-miterlimit:10;stroke-dasharray:none;stroke-opacity:1" id="path3364"/></g><g id="g3366" transform="translate(371.7921,86.326996)"><path d="M 0,0 -3.6,6.235" style="fill:none;stroke:#000;stroke-width:.75;stroke-linecap:butt;stroke-linejoin:round;stroke-miterlimit:10;stroke-dasharray:none;stroke-opacity:1" id="path3368"/></g><g id="g3370" transform="translate(359.4655,251.96539)"><path d="M 0,0 -54,-93.531" style="fill:none;stroke:#000;stroke-width:2.5;stroke-linecap:butt;stroke-linejoin:round;stroke-miterlimit:10;stroke-dasharray:none;stroke-opacity:1" id="path3372"/></g><g id="g3374" transform="translate(305.46539,158.4346)"><path d="M 0,0 H -108" style="fill:none;stroke:#000;stroke-width:2.5;stroke-linecap:butt;stroke-linejoin:round;stroke-miterlimit:10;stroke-dasharray:none;stroke-opacity:1" id="path3376"/></g><g id="g3378" transform="translate(359.46539,251.96539)"><path d="M 0,0 H -108" style="fill:none;stroke:#000;stroke-width:2.5;stroke-linecap:butt;stroke-linejoin:round;stroke-miterlimit:10;stroke-dasharray:none;stroke-opacity:1" id="path3380"/></g><g id="g3382" transform="translate(251.90759,251.71001)"><path d="M 0,0 -54,-93.531" style="fill:none;stroke:#000;stroke-width:2.5;stroke-linecap:butt;stroke-linejoin:round;stroke-miterlimit:10;stroke-dasharray:none;stroke-opacity:1" id="path3384"/></g><g id="g3386" transform="translate(347.6451,251.8616)"><path d="M 0,0 -9,-15.588" style="fill:none;stroke:#000;stroke-width:.75;stroke-linecap:butt;stroke-linejoin:round;stroke-miterlimit:10;stroke-dasharray:none;stroke-opacity:1" id="path3388"/></g><g id="g3390" transform="translate(353.46561,241.573)"><path d="M 0,0 H -18" style="fill:none;stroke:#000;stroke-width:.75;stroke-linecap:butt;stroke-linejoin:round;stroke-miterlimit:10;stroke-dasharray:none;stroke-opacity:1" id="path3392"/></g><g id="g3394" transform="translate(347.46539,231.18069)"><path d="M 0,0 H -7.2" style="fill:none;stroke:#000;stroke-width:.75;stroke-linecap:butt;stroke-linejoin:round;stroke-miterlimit:10;stroke-dasharray:none;stroke-opacity:1" id="path3396"/></g><g id="g3398" transform="translate(335.82471,251.7579)"><path d="M 0,0 -3.6,-6.235" style="fill:none;stroke:#000;stroke-width:.75;stroke-linecap:butt;stroke-linejoin:round;stroke-miterlimit:10;stroke-dasharray:none;stroke-opacity:1" id="path3400"/></g><g id="g3402" transform="translate(209.7717,158.2578)"><path d="M 0,0 9,15.588" style="fill:none;stroke:#000;stroke-width:.75;stroke-linecap:butt;stroke-linejoin:round;stroke-miterlimit:10;stroke-dasharray:none;stroke-opacity:1" id="path3404"/></g><g id="g3406" transform="translate(203.9512,168.5464)"><path d="M 0,0 H 18" style="fill:none;stroke:#000;stroke-width:.75;stroke-linecap:butt;stroke-linejoin:round;stroke-miterlimit:10;stroke-dasharray:none;stroke-opacity:1" id="path3408"/></g><g id="g3410" transform="translate(209.95129,178.93871)"><path d="M 0,0 H 7.2" style="fill:none;stroke:#000;stroke-width:.75;stroke-linecap:butt;stroke-linejoin:round;stroke-miterlimit:10;stroke-dasharray:none;stroke-opacity:1" id="path3412"/></g><g id="g3414" transform="translate(221.5921,158.3615)"><path d="M 0,0 3.6,6.235" style="fill:none;stroke:#000;stroke-width:.75;stroke-linecap:butt;stroke-linejoin:round;stroke-miterlimit:10;stroke-dasharray:none;stroke-opacity:1" id="path3416"/></g><text transform="matrix(1,0,0,-1,414.0246,292.68)" style="font-style:italic;font-variant:normal;font-weight:700;font-stretch:normal;font-size:20.04000092px;font-family:'Times New Roman';-inkscape-font-specification:TimesNewRomanPS-BoldItalicMT;writing-mode:lr-tb;fill:#000;fill-opacity:1;fill-rule:nonzero;stroke:none" id="text3430"><tspan id="tspan3418" x="0 10.08 20.16 27.956 33.467 38.156" y="0">part 0</tspan><tspan id="tspan3420" x="-78.236 -68.156 -58.076 -50.28 -44.769 -40.08" y="-42.004">part 1</tspan><tspan id="tspan3422" x="-156.132 -146.052 -135.971 -128.176 -122.665 -117.975" y="0">part 2</tspan><tspan id="tspan3424" x="-156.132 -146.052 -135.971 -128.176 -122.665 -117.975" y="90">part 3</tspan><tspan id="tspan3426" x="-78.236 -68.156 -58.076 -50.28 -44.769 -40.08" y="137.995">part 4</tspan><tspan id="tspan3428" x="-.14 9.94 20.02 27.816 33.327 38.016" y="90">part 5</tspan></text><text transform="matrix(1,0,0,-1,540.7537,339.9398)" style="font-style:italic;font-variant:normal;font-weight:400;font-stretch:normal;font-size:12px;font-family:'Times New Roman';-inkscape-font-specification:TimesNewRomanPS-ItalicMT;writing-mode:lr-tb;fill:#000;fill-opacity:1;fill-rule:nonzero;stroke:none" id="text3434"><tspan id="tspan3432" x="0 3.84 9.84 12.84 18.84" y="0">(9,9)</tspan></text><g id="g3436" transform="translate(396.605,262.5257)"><path d="M 0,0 -25.421,-4.406" style="fill:none;stroke:#000;stroke-width:1;stroke-linecap:butt;stroke-linejoin:round;stroke-miterlimit:10;stroke-dasharray:none;stroke-opacity:1" id="path3438"/></g><g id="g3440" transform="translate(372.6815,255.33521)"><path d="m 0,0 -4.454,2.273 3.429,3.639 z" style="fill:#000;fill-opacity:1;fill-rule:evenodd;stroke:none" id="path3442"/></g><g id="g3444" transform="translate(538.7899,344.4166)"><path d="M 0,0 -25.421,-4.406" style="fill:none;stroke:#000;stroke-width:1;stroke-linecap:butt;stroke-linejoin:round;stroke-miterlimit:10;stroke-dasharray:none;stroke-opacity:1" id="path3446"/></g><g id="g3448" transform="translate(514.86639,337.2261)"><path d="m 0,0 -4.454,2.273 3.429,3.639 z" style="fill:#000;fill-opacity:1;fill-rule:evenodd;stroke:none" id="path3450"/></g><text transform="matrix(1,0,0,-1,398.0142,258.3699)" style="font-style:italic;font-variant:normal;font-weight:400;font-stretch:normal;font-size:12px;font-family:'Times New Roman';-inkscape-font-specification:TimesNewRomanPS-ItalicMT;writing-mode:lr-tb;fill:#000;fill-opacity:1;fill-rule:nonzero;stroke:none" id="text3454"><tspan id="tspan3452" x="0 3.84 9.84 12.84 18.84" y="0">(1,1)</tspan></text><g id="g3456" transform="translate(447.3,383.8828)"><path d="M 0,0 H 48" style="fill:none;stroke:#000;stroke-width:.75;stroke-linecap:butt;stroke-linejoin:round;stroke-miterlimit:10;stroke-dasharray:none;stroke-opacity:1" id="path3458"/></g><g id="g3460" transform="translate(495.3,384.3136)"><path d="M 0,0 24,41.569" style="fill:none;stroke:#000;stroke-width:.75;stroke-linecap:butt;stroke-linejoin:round;stroke-miterlimit:10;stroke-dasharray:none;stroke-opacity:1" id="path3462"/></g><g id="g3464" transform="translate(447.3,384.3136)"><path d="M 0,0 24,41.569" style="fill:none;stroke:#000;stroke-width:.75;stroke-linecap:butt;stroke-linejoin:round;stroke-miterlimit:10;stroke-dasharray:none;stroke-opacity:1" id="path3466"/></g><g id="g3468" transform="translate(471.3,425.8828)"><path d="M 0,0 H 48" style="fill:none;stroke:#000;stroke-width:.75;stroke-linecap:butt;stroke-linejoin:round;stroke-miterlimit:10;stroke-dasharray:none;stroke-opacity:1" id="path3470"/></g><g id="g3472"><g id="g3474" clip-path="url(#clipPath3478)"><g id="g3480" transform="translate(468.8,425.94769)"><path d="M 0,0 C 0,1.455 1.161,2.635 2.594,2.635 4.027,2.635 5.188,1.455 5.188,0 V 0 C 5.188,-1.455 4.027,-2.635 2.594,-2.635 1.161,-2.635 0,-1.455 0,0 Z" style="fill:#000;fill-opacity:1;fill-rule:evenodd;stroke:#000;stroke-width:.75;stroke-linecap:butt;stroke-linejoin:round;stroke-miterlimit:10;stroke-dasharray:none;stroke-opacity:1" id="path3482"/></g></g></g><g id="g3484"><g id="g3486" clip-path="url(#clipPath3490)"><g id="g3492" transform="translate(516.81219,425.94769)"><path d="M 0,0 C 0,1.455 1.161,2.635 2.594,2.635 4.027,2.635 5.188,1.455 5.188,0 V 0 C 5.188,-1.455 4.027,-2.635 2.594,-2.635 1.161,-2.635 0,-1.455 0,0 Z" style="fill:#000;fill-opacity:1;fill-rule:evenodd;stroke:#000;stroke-width:.75;stroke-linecap:butt;stroke-linejoin:round;stroke-miterlimit:10;stroke-dasharray:none;stroke-opacity:1" id="path3494"/></g></g></g><g id="g3496"><g id="g3498" clip-path="url(#clipPath3502)"><g id="g3504" transform="translate(444.3,383.94769)"><path d="M 0,0 C 0,1.455 1.161,2.635 2.594,2.635 4.027,2.635 5.188,1.455 5.188,0 5.188,-1.455 4.027,-2.635 2.594,-2.635 1.161,-2.635 0,-1.455 0,0" style="fill:#000;fill-opacity:1;fill-rule:evenodd;stroke:none" id="path3506"/></g><g id="g3508" transform="translate(444.3,383.94769)"><path d="M 0,0 C 0,1.455 1.161,2.635 2.594,2.635 4.027,2.635 5.188,1.455 5.188,0 5.188,-1.455 4.027,-2.635 2.594,-2.635 1.161,-2.635 0,-1.455 0,0 Z" style="fill:none;stroke:#000;stroke-width:.75;stroke-linecap:butt;stroke-linejoin:round;stroke-miterlimit:10;stroke-dasharray:none;stroke-opacity:1" id="path3510"/></g></g></g><g id="g3512"><g id="g3514" clip-path="url(#clipPath3518)"><g id="g3520" transform="translate(492.31219,383.94769)"><path d="M 0,0 C 0,1.455 1.161,2.635 2.594,2.635 4.027,2.635 5.188,1.455 5.188,0 5.188,-1.455 4.027,-2.635 2.594,-2.635 1.161,-2.635 0,-1.455 0,0" style="fill:#000;fill-opacity:1;fill-rule:evenodd;stroke:none" id="path3522"/></g><g id="g3524" transform="translate(492.31219,383.94769)"><path d="M 0,0 C 0,1.455 1.161,2.635 2.594,2.635 4.027,2.635 5.188,1.455 5.188,0 5.188,-1.455 4.027,-2.635 2.594,-2.635 1.161,-2.635 0,-1.455 0,0 Z" style="fill:none;stroke:#000;stroke-width:.75;stroke-linecap:butt;stroke-linejoin:round;stroke-miterlimit:10;stroke-dasharray:none;stroke-opacity:1" id="path3526"/></g></g></g><text transform="matrix(1,0,0,-1,437.2756,387.0178)" style="font-style:italic;font-variant:normal;font-weight:400;font-stretch:normal;font-size:12px;font-family:'Times New Roman';-inkscape-font-specification:TimesNewRomanPS-ItalicMT;writing-mode:lr-tb;fill:#000;fill-opacity:1;fill-rule:nonzero;stroke:none" id="text3536"><tspan id="tspan3528" x="0" y="0">0</tspan><tspan id="tspan3530" x="48" y=".12">1</tspan><tspan id="tspan3532" x="72.6" y="-41.88">2</tspan><tspan id="tspan3534" x="24.6" y="-42">3</tspan></text><g id="g3538" transform="translate(447,384.3)"><path d="M 0,0 44.7,-49.2" style="fill:none;stroke:#000;stroke-width:.5;stroke-linecap:butt;stroke-linejoin:round;stroke-miterlimit:10;stroke-dasharray:2,1.5;stroke-dashoffset:0;stroke-opacity:1" id="path3540"/></g><g id="g3542" transform="translate(519.3,425.7)"><path d="M 0,0 -9.9,-81" style="fill:none;stroke:#000;stroke-width:.5;stroke-linecap:butt;stroke-linejoin:round;stroke-miterlimit:10;stroke-dasharray:2,1.5;stroke-dashoffset:0;stroke-opacity:1" id="path3544"/></g><g id="g3546" transform="translate(494.7,384.3)"><path d="M 0,0 9,-49.2" style="fill:none;stroke:#000;stroke-width:.5;stroke-linecap:butt;stroke-linejoin:round;stroke-miterlimit:10;stroke-dasharray:2,1.5;stroke-dashoffset:0;stroke-opacity:1" id="path3548"/></g><g id="g3550" transform="translate(485.39999,383.7)"><path d="M 0,0 12.6,-39" style="fill:none;stroke:#000;stroke-width:.5;stroke-linecap:butt;stroke-linejoin:round;stroke-miterlimit:10;stroke-dasharray:2,1.5;stroke-dashoffset:0;stroke-opacity:1" id="path3552"/></g></g></svg>