<svg xmlns="http://www.w3.org/2000/svg" xmlns:svg="http://www.w3.org/2000/svg" id="svg7084" width="185.252" height="136.64" version="1.1" viewBox="0 0 185.252 136.64" xml:space="preserve"><metadata id="metadata7090"/><g id="g7092" transform="matrix(1.3333333,0,0,-1.3333333,-5.33764,141.27997)"><g id="g7094" transform="scale(0.1)"><g id="g7096"><path d="m 710.4,34.7998 h 486 v 1024.8 h -486 z" style="fill:#e0e0e0;fill-opacity:1;fill-rule:evenodd;stroke:none" id="path7098"/><path d="m 280.8,34.7998 h 171.6 v 1024.8 H 280.8 Z" style="fill:#e0e0e0;fill-opacity:1;fill-rule:evenodd;stroke:none" id="path7100"/><g id="g7102" transform="scale(10)"><text transform="matrix(0.857143,0,0,-1,33.36,85.32)" style="font-style:italic;font-variant:normal;font-weight:700;font-size:15.75px;font-family:'Times New Roman';-inkscape-font-specification:Times-BoldItalic;writing-mode:lr-tb;fill:#000;fill-opacity:1;fill-rule:nonzero;stroke:none" id="text7114"><tspan id="tspan7104" x="0 7.875" y="0">0</tspan><tspan id="tspan7106" x="0 7.875" y="18">1</tspan><tspan id="tspan7108" x="0 7.875" y="36">2</tspan><tspan id="tspan7110" x="0 7.875" y="54">3</tspan><tspan id="tspan7112" x="0 7.875" y="72">4</tspan></text><text transform="matrix(0.84127,0,0,-1,75.48,85.08)" style="font-style:italic;font-variant:normal;font-size:15.75px;font-family:'Times New Roman';-inkscape-font-specification:Times-Italic;writing-mode:lr-tb;fill:#000;fill-opacity:1;fill-rule:nonzero;stroke:none" id="text7118"><tspan id="tspan7116" x="0 5.245 9.182 17.057 20.995 24.932 32.807 38.052" y="0">( 0, 0)</tspan></text><text transform="matrix(0.864407,0,0,-1,75.12,68.16)" style="font-style:italic;font-variant:normal;font-size:14.75px;font-family:'Times New Roman';-inkscape-font-specification:Times-Italic;writing-mode:lr-tb;fill:#000;fill-opacity:1;fill-rule:nonzero;stroke:none" id="text7122"><tspan id="tspan7120" x="0 4.912 5.692 10.603 11.661 19.036 22.724 26.411 33.786 38.698" y="0">(-1, 0)</tspan></text><text transform="matrix(0.84127,0,0,-1,75.48,49.08)" style="font-style:italic;font-variant:normal;font-size:15.75px;font-family:'Times New Roman';-inkscape-font-specification:Times-Italic;writing-mode:lr-tb;fill:#000;fill-opacity:1;fill-rule:nonzero;stroke:none" id="text7130"><tspan id="tspan7124" x="0 5.245 9.182 17.057 20.995 24.932 32.807 38.052" y="0">( 1, 0)</tspan><tspan id="tspan7126" x="-.571 4.674 8.612 16.487 20.424 24.106 29.351 31.096 38.971 44.216" y="18">( 0,-1)</tspan><tspan id="tspan7128" x="0 5.245 9.182 17.057 20.995 24.932 32.807 38.052" y="36">( 0, 1)</tspan></text><text transform="matrix(0,0.92063492,1,0,15.2774,6.12)" style="font-style:italic;font-variant:normal;font-size:15.75px;font-family:Helvetica;-inkscape-font-specification:Helvetica-Oblique;writing-mode:lr-tb;fill:#000;fill-opacity:1;fill-rule:nonzero;stroke:none" id="text7134"><tspan id="tspan7132" x="0 7.875 12.253 21.01 29.767 37.642 41.139 44.635 49.014 57.771 66.528 70.906 76.151 79.648 88.405 96.28" y="0">stencil entries</tspan></text><text transform="matrix(-7.365078e-4,-0.92063175,-0.99999973,7.9999978e-4,131.483,76.68)" style="font-style:italic;font-variant:normal;font-size:15.75000381px;font-family:Helvetica;-inkscape-font-specification:Helvetica-Oblique;writing-mode:lr-tb;fill:#000;fill-opacity:1;fill-rule:nonzero;stroke:none" id="text7138"><tspan id="tspan7136" x="0 8.757 13.135 17.514 25.389 34.146 38.524 46.399" y="0">offsets</tspan></text></g><path d="m 650.4,944.4 v -60 l 40.8,30 -40.8,30" style="fill:#000;fill-opacity:1;fill-rule:evenodd;stroke:none" id="path7140"/><path d="m 650.4,944.4 v -60 l 40.8,30 -40.8,30" style="fill:none;stroke:#000;stroke-width:1;stroke-linecap:butt;stroke-linejoin:round;stroke-miterlimit:10;stroke-dasharray:none;stroke-opacity:1" id="path7142"/><path d="m 490.8,884.4 v 60 l -39.6,-30 39.6,-30" style="fill:#000;fill-opacity:1;fill-rule:evenodd;stroke:none" id="path7144"/><path d="m 490.8,884.4 v 60 l -39.6,-30 39.6,-30" style="fill:none;stroke:#000;stroke-width:1;stroke-linecap:butt;stroke-linejoin:round;stroke-miterlimit:10;stroke-dasharray:none;stroke-opacity:1" id="path7146"/><path d="m 481.2,909.6 h 180 v 10.8 h -180 z" style="fill:#000;fill-opacity:1;fill-rule:evenodd;stroke:none" id="path7148"/><path d="m 481.2,909.6 h 180 v 10.8 h -180 z" style="fill:none;stroke:#000;stroke-width:1;stroke-linecap:butt;stroke-linejoin:round;stroke-miterlimit:10;stroke-dasharray:none;stroke-opacity:1" id="path7150"/><path d="m 650.4,764.4 v -60 l 40.8,30 -40.8,30" style="fill:#000;fill-opacity:1;fill-rule:evenodd;stroke:none" id="path7152"/><path d="m 650.4,764.4 v -60 l 40.8,30 -40.8,30" style="fill:none;stroke:#000;stroke-width:1;stroke-linecap:butt;stroke-linejoin:round;stroke-miterlimit:10;stroke-dasharray:none;stroke-opacity:1" id="path7154"/><path d="m 490.8,704.4 v 60 l -39.6,-30 39.6,-30" style="fill:#000;fill-opacity:1;fill-rule:evenodd;stroke:none" id="path7156"/><path d="m 490.8,704.4 v 60 l -39.6,-30 39.6,-30" style="fill:none;stroke:#000;stroke-width:1;stroke-linecap:butt;stroke-linejoin:round;stroke-miterlimit:10;stroke-dasharray:none;stroke-opacity:1" id="path7158"/><path d="m 481.2,729.6 h 180 v 10.8 h -180 z" style="fill:#000;fill-opacity:1;fill-rule:evenodd;stroke:none" id="path7160"/><path d="m 481.2,729.6 h 180 v 10.8 h -180 z" style="fill:none;stroke:#000;stroke-width:1;stroke-linecap:butt;stroke-linejoin:round;stroke-miterlimit:10;stroke-dasharray:none;stroke-opacity:1" id="path7162"/><path d="m 650.4,584.4 v -60 l 40.8,30 -40.8,30" style="fill:#000;fill-opacity:1;fill-rule:evenodd;stroke:none" id="path7164"/><path d="m 650.4,584.4 v -60 l 40.8,30 -40.8,30" style="fill:none;stroke:#000;stroke-width:1;stroke-linecap:butt;stroke-linejoin:round;stroke-miterlimit:10;stroke-dasharray:none;stroke-opacity:1" id="path7166"/><path d="m 490.8,524.4 v 60 l -39.6,-30 39.6,-30" style="fill:#000;fill-opacity:1;fill-rule:evenodd;stroke:none" id="path7168"/><path d="m 490.8,524.4 v 60 l -39.6,-30 39.6,-30" style="fill:none;stroke:#000;stroke-width:1;stroke-linecap:butt;stroke-linejoin:round;stroke-miterlimit:10;stroke-dasharray:none;stroke-opacity:1" id="path7170"/><path d="m 481.2,549.6 h 180 v 10.8 h -180 z" style="fill:#000;fill-opacity:1;fill-rule:evenodd;stroke:none" id="path7172"/><path d="m 481.2,549.6 h 180 v 10.8 h -180 z" style="fill:none;stroke:#000;stroke-width:1;stroke-linecap:butt;stroke-linejoin:round;stroke-miterlimit:10;stroke-dasharray:none;stroke-opacity:1" id="path7174"/><path d="m 650.4,404.4 v -60 l 40.8,30 -40.8,30" style="fill:#000;fill-opacity:1;fill-rule:evenodd;stroke:none" id="path7176"/><path d="m 650.4,404.4 v -60 l 40.8,30 -40.8,30" style="fill:none;stroke:#000;stroke-width:1;stroke-linecap:butt;stroke-linejoin:round;stroke-miterlimit:10;stroke-dasharray:none;stroke-opacity:1" id="path7178"/><path d="m 490.8,344.4 v 60 l -39.6,-30 39.6,-30" style="fill:#000;fill-opacity:1;fill-rule:evenodd;stroke:none" id="path7180"/><path d="m 490.8,344.4 v 60 l -39.6,-30 39.6,-30" style="fill:none;stroke:#000;stroke-width:1;stroke-linecap:butt;stroke-linejoin:round;stroke-miterlimit:10;stroke-dasharray:none;stroke-opacity:1" id="path7182"/><path d="m 481.2,369.6 h 180 v 10.8 h -180 z" style="fill:#000;fill-opacity:1;fill-rule:evenodd;stroke:none" id="path7184"/><path d="m 481.2,369.6 h 180 v 10.8 h -180 z" style="fill:none;stroke:#000;stroke-width:1;stroke-linecap:butt;stroke-linejoin:round;stroke-miterlimit:10;stroke-dasharray:none;stroke-opacity:1" id="path7186"/><path d="m 650.4,224.4 v -60 l 40.8,30 -40.8,30" style="fill:#000;fill-opacity:1;fill-rule:evenodd;stroke:none" id="path7188"/><path d="m 650.4,224.4 v -60 l 40.8,30 -40.8,30" style="fill:none;stroke:#000;stroke-width:1;stroke-linecap:butt;stroke-linejoin:round;stroke-miterlimit:10;stroke-dasharray:none;stroke-opacity:1" id="path7190"/><path d="m 490.8,164.4 v 60 l -39.6,-30 39.6,-30" style="fill:#000;fill-opacity:1;fill-rule:evenodd;stroke:none" id="path7192"/><path d="m 490.8,164.4 v 60 l -39.6,-30 39.6,-30" style="fill:none;stroke:#000;stroke-width:1;stroke-linecap:butt;stroke-linejoin:round;stroke-miterlimit:10;stroke-dasharray:none;stroke-opacity:1" id="path7194"/><path d="m 481.2,189.6 h 180 v 10.8 h -180 z" style="fill:#000;fill-opacity:1;fill-rule:evenodd;stroke:none" id="path7196"/><path d="m 481.2,189.6 h 180 v 10.8 h -180 z" style="fill:none;stroke:#000;stroke-width:1;stroke-linecap:butt;stroke-linejoin:round;stroke-miterlimit:10;stroke-dasharray:none;stroke-opacity:1" id="path7198"/></g></g></g></svg>