<svg xmlns="http://www.w3.org/2000/svg" xmlns:svg="http://www.w3.org/2000/svg" id="svg1582" width="419.424" height="215.904" version="1.1" viewBox="0 0 419.424 215.904" xml:space="preserve"><metadata id="metadata1588"/><defs id="defs1586"><clipPath id="clipPath1658" clipPathUnits="userSpaceOnUse"><path id="path1656" d="M 0,0 H 720 V 540 H 0 Z"/></clipPath><clipPath id="clipPath1674" clipPathUnits="userSpaceOnUse"><path id="path1672" d="M 0,0 H 720 V 540 H 0 Z"/></clipPath><clipPath id="clipPath1690" clipPathUnits="userSpaceOnUse"><path id="path1688" d="M 0,0 H 720 V 540 H 0 Z"/></clipPath><clipPath id="clipPath1706" clipPathUnits="userSpaceOnUse"><path id="path1704" d="M 0,0 H 720 V 540 H 0 Z"/></clipPath><clipPath id="clipPath1722" clipPathUnits="userSpaceOnUse"><path id="path1720" d="M 0,0 H 720 V 540 H 0 Z"/></clipPath><clipPath id="clipPath1742" clipPathUnits="userSpaceOnUse"><path id="path1740" d="M 0,0 H 720 V 540 H 0 Z"/></clipPath><clipPath id="clipPath1762" clipPathUnits="userSpaceOnUse"><path id="path1760" d="M 0,0 H 720 V 540 H 0 Z"/></clipPath><clipPath id="clipPath1782" clipPathUnits="userSpaceOnUse"><path id="path1780" d="M 0,0 H 720 V 540 H 0 Z"/></clipPath><clipPath id="clipPath1794" clipPathUnits="userSpaceOnUse"><path id="path1792" d="M 0,0 H 720 V 540 H 0 Z"/></clipPath><clipPath id="clipPath1806" clipPathUnits="userSpaceOnUse"><path id="path1804" d="M 0,0 H 720 V 540 H 0 Z"/></clipPath><clipPath id="clipPath1818" clipPathUnits="userSpaceOnUse"><path id="path1816" d="M 0,0 H 720 V 540 H 0 Z"/></clipPath><clipPath id="clipPath1830" clipPathUnits="userSpaceOnUse"><path id="path1828" d="M 0,0 H 720 V 540 H 0 Z"/></clipPath><clipPath id="clipPath1842" clipPathUnits="userSpaceOnUse"><path id="path1840" d="M 0,0 H 720 V 540 H 0 Z"/></clipPath><clipPath id="clipPath1854" clipPathUnits="userSpaceOnUse"><path id="path1852" d="M 0,0 H 720 V 540 H 0 Z"/></clipPath><clipPath id="clipPath1866" clipPathUnits="userSpaceOnUse"><path id="path1864" d="M 0,0 H 720 V 540 H 0 Z"/></clipPath><clipPath id="clipPath1878" clipPathUnits="userSpaceOnUse"><path id="path1876" d="M 0,0 H 720 V 540 H 0 Z"/></clipPath><clipPath id="clipPath1890" clipPathUnits="userSpaceOnUse"><path id="path1888" d="M 0,0 H 720 V 540 H 0 Z"/></clipPath><clipPath id="clipPath1902" clipPathUnits="userSpaceOnUse"><path id="path1900" d="M 0,0 H 720 V 540 H 0 Z"/></clipPath><clipPath id="clipPath1914" clipPathUnits="userSpaceOnUse"><path id="path1912" d="M 0,0 H 720 V 540 H 0 Z"/></clipPath><clipPath id="clipPath1970" clipPathUnits="userSpaceOnUse"><path id="path1968" d="M 0,0 H 720 V 540 H 0 Z"/></clipPath><clipPath id="clipPath1986" clipPathUnits="userSpaceOnUse"><path id="path1984" d="M 0,0 H 720 V 540 H 0 Z"/></clipPath><clipPath id="clipPath2002" clipPathUnits="userSpaceOnUse"><path id="path2000" d="M 0,0 H 720 V 540 H 0 Z"/></clipPath><clipPath id="clipPath2018" clipPathUnits="userSpaceOnUse"><path id="path2016" d="M 0,0 H 720 V 540 H 0 Z"/></clipPath></defs><g id="g1590" transform="matrix(1.3333333,0,0,-1.3333333,-218.592,386.496)"><g id="g1592" transform="translate(387.2999,154.2346)"><path d="M 0,0 10.2,106.2" style="fill:none;stroke:#c1c1c1;stroke-width:.5;stroke-linecap:butt;stroke-linejoin:round;stroke-miterlimit:10;stroke-dasharray:2,1.5;stroke-dashoffset:0;stroke-opacity:1" id="path1594"/></g><g id="g1596" transform="translate(459.5999,195.9346)"><path d="M 0,0 -45.6,74.1" style="fill:none;stroke:#c1c1c1;stroke-width:.5;stroke-linecap:butt;stroke-linejoin:round;stroke-miterlimit:10;stroke-dasharray:2,1.5;stroke-dashoffset:0;stroke-opacity:1" id="path1598"/></g><g id="g1600" transform="translate(411.8998,195.9346)"><path d="M 0,0 -9.3,74.1" style="fill:none;stroke:#c1c1c1;stroke-width:.5;stroke-linecap:butt;stroke-linejoin:round;stroke-miterlimit:10;stroke-dasharray:2,1.5;stroke-dashoffset:0;stroke-opacity:1" id="path1602"/></g><g id="g1604" transform="translate(434.4202,155.1933)"><path d="M 0,0 -26.42,105.241" style="fill:none;stroke:#c1c1c1;stroke-width:.5;stroke-linecap:butt;stroke-linejoin:round;stroke-miterlimit:10;stroke-dasharray:2,1.5;stroke-dashoffset:0;stroke-opacity:1" id="path1606"/></g><g id="g1608" transform="translate(249.98669,190.8519)"><path d="M 0,0 54,93.531" style="fill:none;stroke:#c1c1c1;stroke-width:2.5;stroke-linecap:butt;stroke-linejoin:round;stroke-miterlimit:10;stroke-dasharray:none;stroke-opacity:1" id="path1610"/></g><g id="g1612" transform="translate(258.72121,178.7899)"><path d="M 0,0 H 108" style="fill:none;stroke:#c1c1c1;stroke-width:2.5;stroke-linecap:butt;stroke-linejoin:round;stroke-miterlimit:10;stroke-dasharray:none;stroke-opacity:1" id="path1614"/></g><text transform="matrix(1,0,0,-1,222.8768,234.149)" style="font-style:italic;font-variant:normal;font-weight:700;font-stretch:normal;font-size:20.04000092px;font-family:'Times New Roman';-inkscape-font-specification:TimesNewRomanPS-BoldItalicMT;writing-mode:lr-tb;fill:#c1c1c1;fill-opacity:1;fill-rule:nonzero;stroke:none" id="text1626"><tspan id="tspan1616" x="0 10.08 20.16 27.956 33.467 38.156" y="0">part 1</tspan><tspan id="tspan1618" x="-42.004 -31.924 -21.844 -14.048 -8.537 -3.848" y="42.244">part 2</tspan><tspan id="tspan1620" x="-42.725 -32.645 -22.565 -14.769 -9.258 -4.569" y="72.004">part 3</tspan><tspan id="tspan1622" x="0 10.08 20.16 27.956 33.467 38.156" y="96.012">part 4</tspan><tspan id="tspan1624" x="65.992 76.072 86.152 93.948 99.459 104.148" y="78.236">part 5</tspan></text><g id="g1628" transform="translate(312.72121,184.8497)"><path d="M 0,0 V -3.36" style="fill:none;stroke:#c1c1c1;stroke-width:1;stroke-linecap:butt;stroke-linejoin:round;stroke-miterlimit:10;stroke-dasharray:none;stroke-opacity:1" id="path1630"/></g><g id="g1632" transform="translate(314.72121,182.4897)"><path d="M 0,0 -2,-4 -4,0 Z" style="fill:#c1c1c1;fill-opacity:1;fill-rule:evenodd;stroke:none" id="path1634"/></g><g id="g1636" transform="translate(310.72079,183.8499)"><path d="M 0,0 2,4 4,0 Z" style="fill:#c1c1c1;fill-opacity:1;fill-rule:evenodd;stroke:none" id="path1638"/></g><g id="g1640" transform="translate(277.2132,232.04449)"><path d="M 0,0 2.91,-1.68" style="fill:none;stroke:#c1c1c1;stroke-width:1;stroke-linecap:butt;stroke-linejoin:round;stroke-miterlimit:10;stroke-dasharray:none;stroke-opacity:1" id="path1642"/></g><g id="g1644" transform="translate(280.2572,232.5966)"><path d="M 0,0 2.464,-3.732 -2,-3.464 Z" style="fill:#c1c1c1;fill-opacity:1;fill-rule:evenodd;stroke:none" id="path1646"/></g><g id="g1648" transform="translate(277.07941,229.81261)"><path d="M 0,0 -2.464,3.732 2,3.464 Z" style="fill:#c1c1c1;fill-opacity:1;fill-rule:evenodd;stroke:none" id="path1650"/></g><g id="g1652"><g id="g1654" clip-path="url(#clipPath1658)"><g id="g1660" transform="translate(255.9334,187.5995)"><path d="M 0,0 C 0,1.455 1.161,2.635 2.594,2.635 4.027,2.635 5.188,1.455 5.188,0 5.188,-1.455 4.027,-2.635 2.594,-2.635 1.161,-2.635 0,-1.455 0,0" style="fill:#c1c1c1;fill-opacity:1;fill-rule:evenodd;stroke:none" id="path1662"/></g><g id="g1664" transform="translate(255.9334,187.5995)"><path d="M 0,0 C 0,1.455 1.161,2.635 2.594,2.635 4.027,2.635 5.188,1.455 5.188,0 5.188,-1.455 4.027,-2.635 2.594,-2.635 1.161,-2.635 0,-1.455 0,0 Z" style="fill:none;stroke:#c1c1c1;stroke-width:.75;stroke-linecap:butt;stroke-linejoin:round;stroke-miterlimit:10;stroke-dasharray:none;stroke-opacity:1" id="path1666"/></g></g></g><g id="g1668"><g id="g1670" clip-path="url(#clipPath1674)"><g id="g1676" transform="translate(247.2334,173.79939)"><path d="M 0,0 C 0,1.455 1.161,2.635 2.594,2.635 4.027,2.635 5.188,1.455 5.188,0 5.188,-1.455 4.027,-2.635 2.594,-2.635 1.161,-2.635 0,-1.455 0,0" style="fill:#c1c1c1;fill-opacity:1;fill-rule:evenodd;stroke:none" id="path1678"/></g><g id="g1680" transform="translate(247.2334,173.79939)"><path d="M 0,0 C 0,1.455 1.161,2.635 2.594,2.635 4.027,2.635 5.188,1.455 5.188,0 5.188,-1.455 4.027,-2.635 2.594,-2.635 1.161,-2.635 0,-1.455 0,0 Z" style="fill:none;stroke:#c1c1c1;stroke-width:.75;stroke-linecap:butt;stroke-linejoin:round;stroke-miterlimit:10;stroke-dasharray:none;stroke-opacity:1" id="path1682"/></g></g></g><g id="g1684"><g id="g1686" clip-path="url(#clipPath1690)"><g id="g1692" transform="translate(237.9604,178.8994)"><path d="M 0,0 C 0,1.455 1.161,2.635 2.594,2.635 4.027,2.635 5.188,1.455 5.188,0 5.188,-1.455 4.027,-2.635 2.594,-2.635 1.161,-2.635 0,-1.455 0,0" style="fill:#c1c1c1;fill-opacity:1;fill-rule:evenodd;stroke:none" id="path1694"/></g><g id="g1696" transform="translate(237.9604,178.8994)"><path d="M 0,0 C 0,1.455 1.161,2.635 2.594,2.635 4.027,2.635 5.188,1.455 5.188,0 5.188,-1.455 4.027,-2.635 2.594,-2.635 1.161,-2.635 0,-1.455 0,0 Z" style="fill:none;stroke:#c1c1c1;stroke-width:.75;stroke-linecap:butt;stroke-linejoin:round;stroke-miterlimit:10;stroke-dasharray:none;stroke-opacity:1" id="path1698"/></g></g></g><g id="g1700"><g id="g1702" clip-path="url(#clipPath1706)"><g id="g1708" transform="translate(237.9334,187.5995)"><path d="M 0,0 C 0,1.455 1.161,2.635 2.594,2.635 4.027,2.635 5.188,1.455 5.188,0 5.188,-1.455 4.027,-2.635 2.594,-2.635 1.161,-2.635 0,-1.455 0,0" style="fill:#c1c1c1;fill-opacity:1;fill-rule:evenodd;stroke:none" id="path1710"/></g><g id="g1712" transform="translate(237.9334,187.5995)"><path d="M 0,0 C 0,1.455 1.161,2.635 2.594,2.635 4.027,2.635 5.188,1.455 5.188,0 5.188,-1.455 4.027,-2.635 2.594,-2.635 1.161,-2.635 0,-1.455 0,0 Z" style="fill:none;stroke:#c1c1c1;stroke-width:.75;stroke-linecap:butt;stroke-linejoin:round;stroke-miterlimit:10;stroke-dasharray:none;stroke-opacity:1" id="path1714"/></g></g></g><g id="g1716"><g id="g1718" clip-path="url(#clipPath1722)"><g id="g1724" transform="translate(255.8571,182.81841)"><path d="M 0,0 -2.912,-4.368" style="fill:none;stroke:#c1c1c1;stroke-width:1;stroke-linecap:butt;stroke-linejoin:round;stroke-miterlimit:10;stroke-dasharray:none;stroke-opacity:1" id="path1726"/></g><g id="g1728" transform="translate(255.164,178.17349)"><path d="m 0,0 -3.883,-2.219 0.555,4.438 z" style="fill:#c1c1c1;fill-opacity:1;fill-rule:evenodd;stroke:none" id="path1730"/></g><g id="g1732" transform="translate(253.6382,183.0959)"><path d="M 0,0 3.883,2.219 3.328,-2.219 Z" style="fill:#c1c1c1;fill-opacity:1;fill-rule:evenodd;stroke:none" id="path1734"/></g></g></g><g id="g1736"><g id="g1738" clip-path="url(#clipPath1742)"><g id="g1744" transform="translate(252.72121,187.2346)"><path d="M 0,0 H -6.6" style="fill:none;stroke:#c1c1c1;stroke-width:1;stroke-linecap:butt;stroke-linejoin:round;stroke-miterlimit:10;stroke-dasharray:none;stroke-opacity:1" id="path1746"/></g><g id="g1748" transform="translate(247.12131,185.2348)"><path d="M 0,0 -4,2 0,4 Z" style="fill:#c1c1c1;fill-opacity:1;fill-rule:evenodd;stroke:none" id="path1750"/></g><g id="g1752" transform="translate(251.7213,189.2348)"><path d="M 0,0 4,-2 0,-4 Z" style="fill:#c1c1c1;fill-opacity:1;fill-rule:evenodd;stroke:none" id="path1754"/></g></g></g><g id="g1756"><g id="g1758" clip-path="url(#clipPath1762)"><g id="g1764" transform="translate(253.5797,184.5161)"><path d="M 0,0 -8.017,-3.563" style="fill:none;stroke:#c1c1c1;stroke-width:1;stroke-linecap:butt;stroke-linejoin:round;stroke-miterlimit:10;stroke-dasharray:none;stroke-opacity:1" id="path1766"/></g><g id="g1768" transform="translate(247.2887,179.53169)"><path d="m 0,0 -4.468,0.203 2.843,3.452 z" style="fill:#c1c1c1;fill-opacity:1;fill-rule:evenodd;stroke:none" id="path1770"/></g><g id="g1772" transform="translate(251.8537,185.93781)"><path d="M 0,0 4.468,-0.203 1.624,-3.655 Z" style="fill:#c1c1c1;fill-opacity:1;fill-rule:evenodd;stroke:none" id="path1774"/></g></g></g><g id="g1776"><g id="g1778" clip-path="url(#clipPath1782)"><g id="g1784" transform="translate(258.72121,187.2346)"><path d="M 0,0 H 108" style="fill:none;stroke:#c1c1c1;stroke-width:2.5;stroke-linecap:butt;stroke-linejoin:round;stroke-miterlimit:10;stroke-dasharray:none;stroke-opacity:1" id="path1786"/></g></g></g><g id="g1788"><g id="g1790" clip-path="url(#clipPath1794)"><g id="g1796" transform="translate(366.72121,187.2346)"><path d="M 0,0 54,93.531" style="fill:none;stroke:#c1c1c1;stroke-width:2.5;stroke-linecap:butt;stroke-linejoin:round;stroke-miterlimit:10;stroke-dasharray:none;stroke-opacity:1" id="path1798"/></g></g></g><g id="g1800"><g id="g1802" clip-path="url(#clipPath1806)"><g id="g1808" transform="translate(258.72121,187.2346)"><path d="M 0,0 54,93.531" style="fill:none;stroke:#c1c1c1;stroke-width:2.5;stroke-linecap:butt;stroke-linejoin:round;stroke-miterlimit:10;stroke-dasharray:none;stroke-opacity:1" id="path1810"/></g></g></g><g id="g1812"><g id="g1814" clip-path="url(#clipPath1818)"><g id="g1820" transform="translate(312.72121,280.2547)"><path d="M 0,0 H 108" style="fill:none;stroke:#c1c1c1;stroke-width:2.5;stroke-linecap:butt;stroke-linejoin:round;stroke-miterlimit:10;stroke-dasharray:none;stroke-opacity:1" id="path1822"/></g></g></g><g id="g1824"><g id="g1826" clip-path="url(#clipPath1830)"><g id="g1832" transform="translate(264.72121,197.4194)"><path d="M 0,0 H 18" style="fill:none;stroke:#c1c1c1;stroke-width:.75;stroke-linecap:butt;stroke-linejoin:round;stroke-miterlimit:10;stroke-dasharray:none;stroke-opacity:1" id="path1834"/></g></g></g><g id="g1836"><g id="g1838" clip-path="url(#clipPath1842)"><g id="g1844" transform="translate(270.72121,187.23441)"><path d="M 0,0 9,15.588" style="fill:none;stroke:#c1c1c1;stroke-width:.75;stroke-linecap:butt;stroke-linejoin:round;stroke-miterlimit:10;stroke-dasharray:none;stroke-opacity:1" id="path1846"/></g></g></g><g id="g1848"><g id="g1850" clip-path="url(#clipPath1854)"><g id="g1856" transform="translate(282.72121,187.2346)"><path d="M 0,0 3.6,6.235" style="fill:none;stroke:#c1c1c1;stroke-width:.75;stroke-linecap:butt;stroke-linejoin:round;stroke-miterlimit:10;stroke-dasharray:none;stroke-opacity:1" id="path1858"/></g></g></g><g id="g1860"><g id="g1862" clip-path="url(#clipPath1866)"><g id="g1868" transform="translate(270.72121,207.60429)"><path d="M 0,0 H 7.2" style="fill:none;stroke:#c1c1c1;stroke-width:.75;stroke-linecap:butt;stroke-linejoin:round;stroke-miterlimit:10;stroke-dasharray:none;stroke-opacity:1" id="path1870"/></g></g></g><g id="g1872"><g id="g1874" clip-path="url(#clipPath1878)"><g id="g1880" transform="translate(414.72121,270.01939)"><path d="M 0,0 H -18" style="fill:none;stroke:#c1c1c1;stroke-width:.75;stroke-linecap:butt;stroke-linejoin:round;stroke-miterlimit:10;stroke-dasharray:none;stroke-opacity:1" id="path1882"/></g></g></g><g id="g1884"><g id="g1886" clip-path="url(#clipPath1890)"><g id="g1892" transform="translate(408.72121,280.2045)"><path d="M 0,0 -9,-15.588" style="fill:none;stroke:#c1c1c1;stroke-width:.75;stroke-linecap:butt;stroke-linejoin:round;stroke-miterlimit:10;stroke-dasharray:none;stroke-opacity:1" id="path1894"/></g></g></g><g id="g1896"><g id="g1898" clip-path="url(#clipPath1902)"><g id="g1904" transform="translate(396.72121,280.2043)"><path d="M 0,0 -3.6,-6.235" style="fill:none;stroke:#c1c1c1;stroke-width:.75;stroke-linecap:butt;stroke-linejoin:round;stroke-miterlimit:10;stroke-dasharray:none;stroke-opacity:1" id="path1906"/></g></g></g><g id="g1908"><g id="g1910" clip-path="url(#clipPath1914)"><g id="g1916" transform="translate(408.72121,259.83459)"><path d="M 0,0 H -7.2" style="fill:none;stroke:#c1c1c1;stroke-width:.75;stroke-linecap:butt;stroke-linejoin:round;stroke-miterlimit:10;stroke-dasharray:none;stroke-opacity:1" id="path1918"/></g></g></g><text transform="matrix(1,0,0,-1,312.6158,227.9146)" style="font-style:italic;font-variant:normal;font-weight:700;font-stretch:normal;font-size:20.04000092px;font-family:'Times New Roman';-inkscape-font-specification:TimesNewRomanPS-BoldItalicMT;writing-mode:lr-tb;fill:#c1c1c1;fill-opacity:1;fill-rule:nonzero;stroke:none" id="text1922"><tspan id="tspan1920" x="0 10.08 20.16 27.956 33.467 38.156" y="0">part 0</tspan></text><text transform="matrix(1,0,0,-1,439.4749,275.1744)" style="font-style:italic;font-variant:normal;font-weight:400;font-stretch:normal;font-size:12px;font-family:'Times New Roman';-inkscape-font-specification:TimesNewRomanPS-ItalicMT;writing-mode:lr-tb;fill:#c1c1c1;fill-opacity:1;fill-rule:nonzero;stroke:none" id="text1926"><tspan id="tspan1924" x="0 3.84 9.84 12.84 18.84" y="0">(9,9)</tspan></text><g id="g1928" transform="translate(437.51109,279.6512)"><path d="M 0,0 -25.421,-4.406" style="fill:none;stroke:#c1c1c1;stroke-width:1;stroke-linecap:butt;stroke-linejoin:round;stroke-miterlimit:10;stroke-dasharray:none;stroke-opacity:1" id="path1930"/></g><g id="g1932" transform="translate(413.5876,272.46069)"><path d="m 0,0 -4.454,2.273 3.429,3.639 z" style="fill:#c1c1c1;fill-opacity:1;fill-rule:evenodd;stroke:none" id="path1934"/></g><text transform="matrix(1,0,0,-1,296.7354,193.6045)" style="font-style:italic;font-variant:normal;font-weight:400;font-stretch:normal;font-size:12px;font-family:'Times New Roman';-inkscape-font-specification:TimesNewRomanPS-ItalicMT;writing-mode:lr-tb;fill:#c1c1c1;fill-opacity:1;fill-rule:nonzero;stroke:none" id="text1938"><tspan id="tspan1936" x="0 3.84 9.84 12.84 18.84" y="0">(1,1)</tspan></text><g id="g1940" transform="translate(295.3262,197.76019)"><path d="M 0,0 -25.421,-4.406" style="fill:none;stroke:#c1c1c1;stroke-width:1;stroke-linecap:butt;stroke-linejoin:round;stroke-miterlimit:10;stroke-dasharray:none;stroke-opacity:1" id="path1942"/></g><g id="g1944" transform="translate(271.40269,190.56979)"><path d="m 0,0 -4.454,2.273 3.429,3.639 z" style="fill:#c1c1c1;fill-opacity:1;fill-rule:evenodd;stroke:none" id="path1946"/></g><g id="g1948" transform="translate(387.3,154.0192)"><path d="M 0,0 H 48" style="fill:none;stroke:#c1c1c1;stroke-width:.75;stroke-linecap:butt;stroke-linejoin:round;stroke-miterlimit:10;stroke-dasharray:none;stroke-opacity:1" id="path1950"/></g><g id="g1952" transform="translate(435.3,154.45)"><path d="M 0,0 24,41.569" style="fill:none;stroke:#c1c1c1;stroke-width:.75;stroke-linecap:butt;stroke-linejoin:round;stroke-miterlimit:10;stroke-dasharray:none;stroke-opacity:1" id="path1954"/></g><g id="g1956" transform="translate(387.3,154.45)"><path d="M 0,0 24,41.569" style="fill:none;stroke:#c1c1c1;stroke-width:.75;stroke-linecap:butt;stroke-linejoin:round;stroke-miterlimit:10;stroke-dasharray:none;stroke-opacity:1" id="path1958"/></g><g id="g1960" transform="translate(411.3,196.0192)"><path d="M 0,0 H 48" style="fill:none;stroke:#c1c1c1;stroke-width:.75;stroke-linecap:butt;stroke-linejoin:round;stroke-miterlimit:10;stroke-dasharray:none;stroke-opacity:1" id="path1962"/></g><g id="g1964"><g id="g1966" clip-path="url(#clipPath1970)"><g id="g1972" transform="translate(408.8,196.08411)"><path d="M 0,0 C 0,1.455 1.161,2.635 2.594,2.635 4.027,2.635 5.188,1.455 5.188,0 5.188,-1.455 4.027,-2.635 2.594,-2.635 1.161,-2.635 0,-1.455 0,0" style="fill:#c1c1c1;fill-opacity:1;fill-rule:evenodd;stroke:none" id="path1974"/></g><g id="g1976" transform="translate(408.8,196.08411)"><path d="M 0,0 C 0,1.455 1.161,2.635 2.594,2.635 4.027,2.635 5.188,1.455 5.188,0 5.188,-1.455 4.027,-2.635 2.594,-2.635 1.161,-2.635 0,-1.455 0,0 Z" style="fill:none;stroke:#c1c1c1;stroke-width:.75;stroke-linecap:butt;stroke-linejoin:round;stroke-miterlimit:10;stroke-dasharray:none;stroke-opacity:1" id="path1978"/></g></g></g><g id="g1980"><g id="g1982" clip-path="url(#clipPath1986)"><g id="g1988" transform="translate(456.81219,196.08411)"><path d="M 0,0 C 0,1.455 1.161,2.635 2.594,2.635 4.027,2.635 5.188,1.455 5.188,0 5.188,-1.455 4.027,-2.635 2.594,-2.635 1.161,-2.635 0,-1.455 0,0" style="fill:#c1c1c1;fill-opacity:1;fill-rule:evenodd;stroke:none" id="path1990"/></g><g id="g1992" transform="translate(456.81219,196.08411)"><path d="M 0,0 C 0,1.455 1.161,2.635 2.594,2.635 4.027,2.635 5.188,1.455 5.188,0 5.188,-1.455 4.027,-2.635 2.594,-2.635 1.161,-2.635 0,-1.455 0,0 Z" style="fill:none;stroke:#c1c1c1;stroke-width:.75;stroke-linecap:butt;stroke-linejoin:round;stroke-miterlimit:10;stroke-dasharray:none;stroke-opacity:1" id="path1994"/></g></g></g><g id="g1996"><g id="g1998" clip-path="url(#clipPath2002)"><g id="g2004" transform="translate(384.3,154.08411)"><path d="M 0,0 C 0,1.455 1.161,2.635 2.594,2.635 4.027,2.635 5.188,1.455 5.188,0 5.188,-1.455 4.027,-2.635 2.594,-2.635 1.161,-2.635 0,-1.455 0,0" style="fill:#c1c1c1;fill-opacity:1;fill-rule:evenodd;stroke:none" id="path2006"/></g><g id="g2008" transform="translate(384.3,154.08411)"><path d="M 0,0 C 0,1.455 1.161,2.635 2.594,2.635 4.027,2.635 5.188,1.455 5.188,0 5.188,-1.455 4.027,-2.635 2.594,-2.635 1.161,-2.635 0,-1.455 0,0 Z" style="fill:none;stroke:#c1c1c1;stroke-width:.75;stroke-linecap:butt;stroke-linejoin:round;stroke-miterlimit:10;stroke-dasharray:none;stroke-opacity:1" id="path2010"/></g></g></g><g id="g2012"><g id="g2014" clip-path="url(#clipPath2018)"><g id="g2020" transform="translate(432.31219,154.08411)"><path d="M 0,0 C 0,1.455 1.161,2.635 2.594,2.635 4.027,2.635 5.188,1.455 5.188,0 5.188,-1.455 4.027,-2.635 2.594,-2.635 1.161,-2.635 0,-1.455 0,0" style="fill:#c1c1c1;fill-opacity:1;fill-rule:evenodd;stroke:none" id="path2022"/></g><g id="g2024" transform="translate(432.31219,154.08411)"><path d="M 0,0 C 0,1.455 1.161,2.635 2.594,2.635 4.027,2.635 5.188,1.455 5.188,0 5.188,-1.455 4.027,-2.635 2.594,-2.635 1.161,-2.635 0,-1.455 0,0 Z" style="fill:none;stroke:#c1c1c1;stroke-width:.75;stroke-linecap:butt;stroke-linejoin:round;stroke-miterlimit:10;stroke-dasharray:none;stroke-opacity:1" id="path2026"/></g></g></g><text transform="matrix(1,0,0,-1,389.5245,139.8289)" style="font-style:italic;font-variant:normal;font-weight:400;font-stretch:normal;font-size:12px;font-family:'Times New Roman';-inkscape-font-specification:TimesNewRomanPS-ItalicMT;writing-mode:lr-tb;fill:#c1c1c1;fill-opacity:1;fill-rule:nonzero;stroke:none" id="text2036"><tspan id="tspan2028" x="0" y="0">0</tspan><tspan id="tspan2030" x="48" y=".12">1</tspan><tspan id="tspan2032" x="72.6" y="-41.88">2</tspan><tspan id="tspan2034" x="24.6" y="-42">3</tspan></text></g></svg>