<svg xmlns="http://www.w3.org/2000/svg" xmlns:svg="http://www.w3.org/2000/svg" id="svg1620" width="386.667" height="266.667" version="1.1" viewBox="0 0 386.667 266.667" xml:space="preserve"><metadata id="metadata1626"/><g id="g1628" transform="matrix(1.3333333,0,0,-1.3333333,0,266.66667)"><g id="g1630" transform="scale(0.1)"><g id="g1632"><path d="M 516,1682.4 H 696 L 1417.2,240 1054.8,242.4 516,1682.4" style="fill:#e0e0e0;fill-opacity:1;fill-rule:evenodd;stroke:none" id="path1634"/><path d="m 783.6,963.6 h 270" style="fill:none;stroke:silver;stroke-width:5;stroke-linecap:round;stroke-linejoin:round;stroke-miterlimit:10;stroke-dasharray:none;stroke-opacity:1" id="path1636"/><path d="M 648,1323.6 H 873.6" style="fill:none;stroke:silver;stroke-width:5;stroke-linecap:round;stroke-linejoin:round;stroke-miterlimit:10;stroke-dasharray:none;stroke-opacity:1" id="path1638"/><path d="m 916.8,603.6 h 315.6" style="fill:none;stroke:silver;stroke-width:5;stroke-linecap:round;stroke-linejoin:round;stroke-miterlimit:10;stroke-dasharray:none;stroke-opacity:1" id="path1640"/><path d="m 696,1682.4 718.8,-1440" style="fill:none;stroke:silver;stroke-width:20;stroke-linecap:round;stroke-linejoin:round;stroke-miterlimit:10;stroke-dasharray:none;stroke-opacity:1" id="path1642"/><path d="M 696,1682.4 1416,241.2" style="fill:none;stroke:silver;stroke-width:20;stroke-linecap:round;stroke-linejoin:round;stroke-miterlimit:10;stroke-dasharray:none;stroke-opacity:1" id="path1644"/><path d="M 1753.2,48 1416,243.6 2316,1142.4 2493.6,1047.6 1753.2,48" style="fill:#e0e0e0;fill-opacity:1;fill-rule:evenodd;stroke:none" id="path1646"/><path d="M 1948.8,777.6 2181.6,632.4" style="fill:none;stroke:silver;stroke-width:5;stroke-linecap:round;stroke-linejoin:round;stroke-miterlimit:10;stroke-dasharray:none;stroke-opacity:1" id="path1648"/><path d="M 2126.4,956.4 2331.6,835.2" style="fill:none;stroke:silver;stroke-width:5;stroke-linecap:round;stroke-linejoin:round;stroke-miterlimit:10;stroke-dasharray:none;stroke-opacity:1" id="path1650"/><path d="M 1705.2,535.2 1983.6,360" style="fill:none;stroke:silver;stroke-width:5;stroke-linecap:round;stroke-linejoin:round;stroke-miterlimit:10;stroke-dasharray:none;stroke-opacity:1" id="path1652"/><path d="m 1416,242.4 897.6,900" style="fill:none;stroke:silver;stroke-width:20;stroke-linecap:round;stroke-linejoin:round;stroke-miterlimit:10;stroke-dasharray:none;stroke-opacity:1" id="path1654"/><path d="m 1413.6,246 895.2,891.6" style="fill:none;stroke:silver;stroke-width:20;stroke-linecap:round;stroke-linejoin:round;stroke-miterlimit:10;stroke-dasharray:none;stroke-opacity:1" id="path1656"/><g id="g1658" transform="scale(10)"><text transform="matrix(0.871795,0,0,-1,163.32,25.32)" style="font-style:italic;font-variant:normal;font-size:10px;font-family:'Times New Roman';-inkscape-font-specification:Times-Italic;writing-mode:lr-tb;fill:silver;fill-opacity:1;fill-rule:nonzero;stroke:none" id="text1662"><tspan id="tspan1660" x="0 3.33 8.33 10.83 15.83 19.16" y="0">(1,1)</tspan></text></g><g id="g1664" transform="scale(10)"><text transform="matrix(0.871795,0,0,-1,258.6,125.28)" style="font-style:italic;font-variant:normal;font-size:10px;font-family:'Times New Roman';-inkscape-font-specification:Times-Italic;writing-mode:lr-tb;fill:silver;fill-opacity:1;fill-rule:nonzero;stroke:none" id="text1668"><tspan id="tspan1666" x="0 3.33 8.33 10.83 15.83 19.16" y="0">(1,4)</tspan></text></g><g id="g1670" transform="scale(10)"><text transform="matrix(0.871795,0,0,-1,107.52,37.56)" style="font-style:italic;font-variant:normal;font-size:10px;font-family:'Times New Roman';-inkscape-font-specification:Times-Italic;writing-mode:lr-tb;fill:silver;fill-opacity:1;fill-rule:nonzero;stroke:none" id="text1674"><tspan id="tspan1672" x="0 3.33 8.33 10.83 15.83 19.16" y="0">(4,1)</tspan></text></g><g id="g1676" transform="scale(10)"><text transform="matrix(0.871795,0,0,-1,47.16,185.04)" style="font-style:italic;font-variant:normal;font-size:10px;font-family:'Times New Roman';-inkscape-font-specification:Times-Italic;writing-mode:lr-tb;fill:silver;fill-opacity:1;fill-rule:nonzero;stroke:none" id="text1680"><tspan id="tspan1678" x="0 3.33 8.33 10.83 15.83 19.16" y="0">(4,4)</tspan></text></g><path d="M 1350,1776 1953.6,782.4" style="fill:none;stroke:silver;stroke-width:5;stroke-linecap:round;stroke-linejoin:round;stroke-miterlimit:10;stroke-dasharray:none;stroke-opacity:1" id="path1682"/><path d="M 1652.4,1820.4 2133.6,961.2" style="fill:none;stroke:silver;stroke-width:5;stroke-linecap:round;stroke-linejoin:round;stroke-miterlimit:10;stroke-dasharray:none;stroke-opacity:1" id="path1684"/><path d="M 1053.6,1734 1716,547.2" style="fill:none;stroke:silver;stroke-width:5;stroke-linecap:round;stroke-linejoin:round;stroke-miterlimit:10;stroke-dasharray:none;stroke-opacity:1" id="path1686"/><path d="m 874.8,1324.8 1165.2,360" style="fill:none;stroke:silver;stroke-width:5;stroke-linecap:round;stroke-linejoin:round;stroke-miterlimit:10;stroke-dasharray:none;stroke-opacity:1" id="path1688"/><path d="M 1054.8,964.8 2125.2,1512" style="fill:none;stroke:silver;stroke-width:5;stroke-linecap:round;stroke-linejoin:round;stroke-miterlimit:10;stroke-dasharray:none;stroke-opacity:1" id="path1690"/><path d="m 1234.8,604.8 978,727.2" style="fill:none;stroke:silver;stroke-width:5;stroke-linecap:round;stroke-linejoin:round;stroke-miterlimit:10;stroke-dasharray:none;stroke-opacity:1" id="path1692"/><path d="m 696,1682.4 1258.8,180" style="fill:none;stroke:silver;stroke-width:20;stroke-linecap:round;stroke-linejoin:round;stroke-miterlimit:10;stroke-dasharray:none;stroke-opacity:1" id="path1694"/><path d="m 1954.8,1862.4 354,-724.8" style="fill:none;stroke:silver;stroke-width:20;stroke-linecap:round;stroke-linejoin:round;stroke-miterlimit:10;stroke-dasharray:none;stroke-opacity:1" id="path1696"/><g id="g1698" transform="scale(10)"><text transform="matrix(0.871795,0,0,-1,138.12,50.4)" style="font-style:italic;font-variant:normal;font-size:10px;font-family:'Times New Roman';-inkscape-font-specification:Times-Italic;writing-mode:lr-tb;fill:silver;fill-opacity:1;fill-rule:nonzero;stroke:none" id="text1702"><tspan id="tspan1700" x="0 3.33 8.33 10.83 15.83 19.16" y="0">(1,1)</tspan></text></g><g id="g1704" transform="scale(10)"><text transform="matrix(0.871795,0,0,-1,176.52,169.92)" style="font-style:italic;font-variant:normal;font-size:10px;font-family:'Times New Roman';-inkscape-font-specification:Times-Italic;writing-mode:lr-tb;fill:silver;fill-opacity:1;fill-rule:nonzero;stroke:none" id="text1708"><tspan id="tspan1706" x="0 3.33 8.33 10.83 15.83 19.16" y="0">(4,4)</tspan></text></g><path d="m 2494.8,603.6 h 37.2 l 18,-2.4 18,-1.2 18,-2.4 16.8,-2.4 18,-3.6 15.6,-2.4 16.8,-4.8 15.6,-3.6 15.6,-4.8 14.4,-4.8 14.4,-6 14.4,-6 13.2,-6 12,-6 12,-7.2 12,-7.2 10.8,-7.2 10.8,-7.2 9.6,-8.4 8.4,-8.4 8.4,-8.4 7.2,-8.4 6,-8.4 6,-9.6 4.8,-9.6 4.8,-8.4 2.4,-9.6 2.4,-10.8 1.2,-9.6 2.4,-9.6 -2.4,-10.8 -1.2,-9.6 -2.4,-9.6 -2.4,-9.6 -4.8,-9.6 -4.8,-8.4 -6,-9.6 -6,-8.4 -7.2,-9.6 -8.4,-8.4 -8.4,-7.2 -9.6,-8.4 -10.8,-7.2 -10.8,-8.4 -12,-6 -12,-7.2 -12,-6 -13.2,-7.2 -14.4,-4.8 -14.4,-6 -14.4,-4.8 -15.6,-4.8 -15.6,-4.8 -16.8,-3.6 -15.6,-3.6 -18,-2.4 -16.8,-3.6 -18,-1.2 -18,-2.4 -18,-1.2 h -19.2 l -18,-1.2 -19.2,1.2 h -19.2 l -18,1.2 -18,2.4 -18,1.2 -16.8,3.6 -16.8,2.4 -16.8,3.6 -16.8,3.6 -15.6,4.8 -15.6,4.8 -14.4,4.8 -14.4,6 -14.4,4.8 -13.2,7.2 -12,6 -12,7.2 -12,6 -10.8,8.4 -9.6,7.2 -9.6,8.4 -9.6,7.2 -8.4,8.4 -7.2,9.6 -6,8.4 -6,9.6 -4.8,8.4 -3.6,9.6 -3.6,9.6 -2.4,9.6 -1.2,9.6 -1.2,10.8 1.2,9.6 1.2,9.6 2.4,10.8 3.6,9.6 3.6,8.4 4.8,9.6 6,9.6 6,8.4 7.2,8.4 8.4,8.4 9.6,8.4 9.6,8.4 9.6,7.2 10.8,7.2 12,7.2 12,7.2 12,6 13.2,6 14.4,6 14.4,6 14.4,4.8 15.6,4.8 15.6,3.6 16.8,4.8 16.8,2.4 16.8,3.6 16.8,2.4 18,2.4 18,1.2 18,2.4 h 38.4" style="fill:#fff;fill-opacity:1;fill-rule:evenodd;stroke:none" id="path1710"/><g id="g1712" transform="scale(10)"><text transform="matrix(0.873418,0,0,-1,226.44,34.8)" style="font-style:italic;font-variant:normal;font-weight:700;font-size:19.75px;font-family:'Times New Roman';-inkscape-font-specification:Times-BoldItalic;writing-mode:lr-tb;fill:silver;fill-opacity:1;fill-rule:nonzero;stroke:none" id="text1716"><tspan id="tspan1714" x="0 9.875 19.75 27.433 32.923 37.861 47.736" y="0">part 2</tspan></text></g><path d="m 1594.8,1381.2 h 18 l 19.2,-1.2 18,-1.2 18,-1.2 18,-2.4 16.8,-2.4 18,-3.6 15.6,-2.4 16.8,-4.8 15.6,-3.6 15.6,-4.8 14.4,-4.8 14.4,-6 14.4,-6 13.2,-6 12,-6 12,-7.2 12,-7.2 10.8,-7.2 10.8,-7.2 9.6,-8.4 8.4,-8.4 8.4,-8.4 7.2,-8.4 6,-8.4 6,-9.6 4.8,-9.6 4.8,-8.4 2.4,-9.6 2.4,-10.8 1.2,-9.6 2.4,-9.6 -2.4,-10.8 -1.2,-9.6 -2.4,-9.6 -2.4,-9.6 -4.8,-9.6 -4.8,-9.6 -6,-8.4 -6,-8.4 -7.2,-9.6 -8.4,-8.4 -8.4,-7.2 -9.6,-8.4 -10.8,-7.2 -10.8,-8.4 -12,-6 -12,-7.2 -12,-7.2 -13.2,-6 -14.4,-4.8 -14.4,-6 -14.4,-4.8 -15.6,-4.8 -15.6,-4.8 -16.8,-3.6 -15.6,-3.6 -18,-2.4 -16.8,-3.6 -18,-1.2 -18,-2.4 -18,-1.2 -19.2,-1.2 h -37.2 l -19.2,1.2 -18,1.2 -18,2.4 -18,1.2 -16.8,3.6 -16.8,2.4 -15.6,3.6 -16.8,3.6 -15.6,4.8 -15.6,4.8 -14.4,4.8 -14.4,6 -14.4,4.8 -13.2,6 -12,7.2 -12,7.2 -12,6 -10.8,8.4 -9.6,7.2 -9.6,8.4 -9.6,7.2 -8.4,8.4 -7.2,9.6 -6,8.4 -6,8.4 -4.8,9.6 -3.6,9.6 -3.6,9.6 -2.4,9.6 -1.2,9.6 -1.2,10.8 1.2,9.6 1.2,9.6 2.4,10.8 3.6,9.6 3.6,8.4 4.8,9.6 6,9.6 6,8.4 7.2,8.4 8.4,8.4 9.6,8.4 9.6,8.4 9.6,7.2 10.8,7.2 12,7.2 12,7.2 12,6 13.2,6 14.4,6 14.4,6 14.4,4.8 15.6,4.8 15.6,3.6 16.8,4.8 15.6,2.4 16.8,3.6 16.8,2.4 18,2.4 18,1.2 18,1.2 19.2,1.2 h 19.2" style="fill:#fff;fill-opacity:1;fill-rule:evenodd;stroke:none" id="path1718"/><g id="g1720" transform="scale(10)"><text transform="matrix(0.873418,0,0,-1,136.56,112.56)" style="font-style:italic;font-variant:normal;font-weight:700;font-size:19.75px;font-family:'Times New Roman';-inkscape-font-specification:Times-BoldItalic;writing-mode:lr-tb;fill:silver;fill-opacity:1;fill-rule:nonzero;stroke:none" id="text1724"><tspan id="tspan1722" x="0 9.875 19.75 27.433 32.923 37.861 47.736" y="0">part 3</tspan></text></g><path d="m 400.8,1078.8 h 18 l 19.2,-1.2 18,-1.2 18,-1.2 18,-2.4 18,-2.4 16.8,-3.6 16.8,-3.6 15.6,-3.6 15.6,-3.6 15.6,-4.8 14.4,-6 14.4,-4.8 14.4,-6 13.2,-6 13.2,-6 12,-7.2 10.8,-7.2 10.8,-7.2 10.8,-7.2 9.6,-8.4 8.4,-8.4 8.4,-8.4 7.2,-8.4 7.2,-8.4 4.8,-9.6 4.8,-9.6 4.8,-9.6 3.6,-9.6 1.2,-9.6 3.6,-9.6 v -20.4 l -3.6,-9.6 -2.4,-9.6 -2.4,-9.6 -4.8,-9.6 -4.8,-9.6 -6,-8.4 -6,-9.6 -7.2,-8.4 -8.4,-8.4 -8.4,-8.4 -9.6,-7.2 -10.8,-7.2 -10.8,-8.4 -10.8,-7.2 -12,-6 -13.2,-7.2 -13.2,-6 -14.4,-4.8 -14.4,-6 -14.4,-4.8 -15.6,-4.8 -15.6,-4.8 -15.6,-3.6 -16.8,-3.6 -16.8,-2.4 -18,-3.6 -18,-1.2 -18,-2.4 -18,-1.2 -19.2,-1.2 h -37.2 l -18,1.2 -19.2,1.2 -18,2.4 -16.8,1.2 -18,3.6 -16.8,2.4 -16.8,3.6 -16.8,3.6 -15.6,4.8 -14.4,4.8 -15.6,4.8 -14.4,6 -13.2,4.8 -13.2,6 -13.2,7.2 -12,6 -12,7.2 -10.8,8.4 -9.6,7.2 -9.6001,7.2 -9.5999,8.4 -7.2002,8.4 -7.1999,8.4 -7.2,9.6 -6,8.4 -4.8,9.6 -3.6001,9.6 -3.5999,9.6 -2.4001,9.6 v 39.6 l 2.4001,9.6 3.5999,9.6 3.6001,9.6 4.8,9.6 6,9.6 7.2,8.4 7.1999,8.4 7.2002,8.4 9.5999,8.4 9.6001,8.4 9.6,7.2 10.8,7.2 12,7.2 12,7.2 13.2,6 13.2,6 13.2,6 14.4,4.8 15.6,6 14.4,4.8 15.6,3.6 16.8,3.6 16.8,3.6 16.8,3.6 18,2.4 16.8,2.4 18,1.2 19.2,1.2 18,1.2 h 19.2" style="fill:#fff;fill-opacity:1;fill-rule:evenodd;stroke:none" id="path1726"/><g id="g1728" transform="scale(10)"><text transform="matrix(0.873418,0,0,-1,17.04,82.32)" style="font-style:italic;font-variant:normal;font-weight:700;font-size:19.75px;font-family:'Times New Roman';-inkscape-font-specification:Times-BoldItalic;writing-mode:lr-tb;fill:silver;fill-opacity:1;fill-rule:nonzero;stroke:none" id="text1732"><tspan id="tspan1730" x="0 9.875 19.75 27.433 32.923 37.861 47.736" y="0">part 4</tspan></text></g><path d="m 2336.4,1008 222,220.8" style="fill:none;stroke:silver;stroke-width:5;stroke-linecap:round;stroke-linejoin:round;stroke-miterlimit:10;stroke-dasharray:none;stroke-opacity:1" id="path1734"/><path d="m 2320.8,990 54,22.8 -34.8,-2.4 2.4,34.8 -21.6,-55.2" style="fill:silver;fill-opacity:1;fill-rule:evenodd;stroke:none" id="path1736"/><path d="M 565.2,1804.8 679.2,1524" style="fill:none;stroke:silver;stroke-width:5;stroke-linecap:round;stroke-linejoin:round;stroke-miterlimit:10;stroke-dasharray:none;stroke-opacity:1" id="path1738"/><path d="m 688.8,1502.4 v 56.4 l -12,-30 -28.8,14.4 40.8,-40.8" style="fill:silver;fill-opacity:1;fill-rule:evenodd;stroke:none" id="path1740"/><path d="M 516,1682.4 H 696 L 1416,241.2 1054.8,242.4 516,1682.4" style="fill:#ffe0e0;fill-opacity:1;fill-rule:evenodd;stroke:none" id="path1742"/><path d="M 516,1682.4 H 696 L 1416,241.2 1054.8,242.4 516,1682.4" style="fill:none;stroke:#a00000;stroke-width:7.5;stroke-linecap:round;stroke-linejoin:round;stroke-miterlimit:10;stroke-dasharray:none;stroke-opacity:1" id="path1744"/><path d="m 783.6,963.6 h 270" style="fill:none;stroke:#a00000;stroke-width:5;stroke-linecap:round;stroke-linejoin:round;stroke-miterlimit:10;stroke-dasharray:none;stroke-opacity:1" id="path1746"/><path d="M 648,1323.6 H 873.6" style="fill:none;stroke:#a00000;stroke-width:5;stroke-linecap:round;stroke-linejoin:round;stroke-miterlimit:10;stroke-dasharray:none;stroke-opacity:1" id="path1748"/><path d="m 916.8,603.6 h 315.6" style="fill:none;stroke:#a00000;stroke-width:5;stroke-linecap:round;stroke-linejoin:round;stroke-miterlimit:10;stroke-dasharray:none;stroke-opacity:1" id="path1750"/><path d="m 696,1682.4 718.8,-1440" style="fill:none;stroke:#009;stroke-width:20;stroke-linecap:round;stroke-linejoin:round;stroke-miterlimit:10;stroke-dasharray:none;stroke-opacity:1" id="path1752"/><path d="M 1753.2,49.2 1416,243.6 2316,1142.4 2492.4,1047.6 1753.2,49.2" style="fill:#ddd;fill-opacity:1;fill-rule:evenodd;stroke:none" id="path1754"/><path d="M 1753.2,49.2 1416,243.6 2316,1142.4 2492.4,1047.6 1753.2,49.2" style="fill:none;stroke:#000;stroke-width:7.5;stroke-linecap:round;stroke-linejoin:round;stroke-miterlimit:10;stroke-dasharray:none;stroke-opacity:1" id="path1756"/><path d="M 1948.8,777.6 2181.6,632.4" style="fill:none;stroke:#000;stroke-width:5;stroke-linecap:round;stroke-linejoin:round;stroke-miterlimit:10;stroke-dasharray:none;stroke-opacity:1" id="path1758"/><path d="M 2126.4,956.4 2331.6,835.2" style="fill:none;stroke:#000;stroke-width:5;stroke-linecap:round;stroke-linejoin:round;stroke-miterlimit:10;stroke-dasharray:none;stroke-opacity:1" id="path1760"/><path d="M 1705.2,535.2 1983.6,360" style="fill:none;stroke:#000;stroke-width:5;stroke-linecap:round;stroke-linejoin:round;stroke-miterlimit:10;stroke-dasharray:none;stroke-opacity:1" id="path1762"/><path d="m 1416,242.4 897.6,900" style="fill:none;stroke:#000;stroke-width:20;stroke-linecap:round;stroke-linejoin:round;stroke-miterlimit:10;stroke-dasharray:none;stroke-opacity:1" id="path1764"/><g id="g1766" transform="scale(10)"><text transform="matrix(0.871795,0,0,-1,163.32,25.32)" style="font-style:italic;font-variant:normal;font-size:10px;font-family:'Times New Roman';-inkscape-font-specification:Times-Italic;writing-mode:lr-tb;fill:#000;fill-opacity:1;fill-rule:nonzero;stroke:none" id="text1772"><tspan id="tspan1768" x="0 3.33 8.33 10.83 15.83 19.16" y="0">(1,1)</tspan><tspan id="tspan1770" x="109.292 112.622 117.622 120.122 125.122 128.452" y="-99.96">(1,4)</tspan></text></g><g id="g1774" transform="scale(10)"><text transform="matrix(0.871795,0,0,-1,107.52,37.56)" style="font-style:italic;font-variant:normal;font-size:10px;font-family:'Times New Roman';-inkscape-font-specification:Times-Italic;writing-mode:lr-tb;fill:#a00000;fill-opacity:1;fill-rule:nonzero;stroke:none" id="text1778"><tspan id="tspan1776" x="0 3.33 8.33 10.83 15.83 19.16" y="0">(4,1)</tspan></text></g><g id="g1780" transform="scale(10)"><text transform="matrix(0.871795,0,0,-1,47.16,185.04)" style="font-style:italic;font-variant:normal;font-size:10px;font-family:'Times New Roman';-inkscape-font-specification:Times-Italic;writing-mode:lr-tb;fill:#a00000;fill-opacity:1;fill-rule:nonzero;stroke:none" id="text1784"><tspan id="tspan1782" x="0 3.33 8.33 10.83 15.83 19.16" y="0">(4,4)</tspan></text></g><path d="M 696,1682.4 1416,241.2" style="fill:none;stroke:#000;stroke-width:20;stroke-linecap:round;stroke-linejoin:round;stroke-miterlimit:10;stroke-dasharray:none;stroke-opacity:1" id="path1786"/><path d="m 1413.6,246 895.2,891.6" style="fill:none;stroke:#000;stroke-width:20;stroke-linecap:round;stroke-linejoin:round;stroke-miterlimit:10;stroke-dasharray:none;stroke-opacity:1" id="path1788"/><path d="M 1350,1776 1953.6,782.4" style="fill:none;stroke:#000;stroke-width:5;stroke-linecap:round;stroke-linejoin:round;stroke-miterlimit:10;stroke-dasharray:none;stroke-opacity:1" id="path1790"/><path d="M 1652.4,1820.4 2133.6,961.2" style="fill:none;stroke:#000;stroke-width:5;stroke-linecap:round;stroke-linejoin:round;stroke-miterlimit:10;stroke-dasharray:none;stroke-opacity:1" id="path1792"/><path d="M 1053.6,1734 1716,547.2" style="fill:none;stroke:#000;stroke-width:5;stroke-linecap:round;stroke-linejoin:round;stroke-miterlimit:10;stroke-dasharray:none;stroke-opacity:1" id="path1794"/><path d="m 874.8,1324.8 1165.2,360" style="fill:none;stroke:#000;stroke-width:5;stroke-linecap:round;stroke-linejoin:round;stroke-miterlimit:10;stroke-dasharray:none;stroke-opacity:1" id="path1796"/><path d="M 1054.8,964.8 2125.2,1512" style="fill:none;stroke:#000;stroke-width:5;stroke-linecap:round;stroke-linejoin:round;stroke-miterlimit:10;stroke-dasharray:none;stroke-opacity:1" id="path1798"/><path d="m 1234.8,604.8 978,727.2" style="fill:none;stroke:#000;stroke-width:5;stroke-linecap:round;stroke-linejoin:round;stroke-miterlimit:10;stroke-dasharray:none;stroke-opacity:1" id="path1800"/><path d="m 696,1682.4 1258.8,180" style="fill:none;stroke:#000;stroke-width:20;stroke-linecap:round;stroke-linejoin:round;stroke-miterlimit:10;stroke-dasharray:none;stroke-opacity:1" id="path1802"/><path d="m 1954.8,1862.4 354,-724.8" style="fill:none;stroke:#000;stroke-width:20;stroke-linecap:round;stroke-linejoin:round;stroke-miterlimit:10;stroke-dasharray:none;stroke-opacity:1" id="path1804"/><g id="g1806" transform="scale(10)"><text transform="matrix(0.871795,0,0,-1,138.12,50.4)" style="font-style:italic;font-variant:normal;font-size:10px;font-family:'Times New Roman';-inkscape-font-specification:Times-Italic;writing-mode:lr-tb;fill:#000;fill-opacity:1;fill-rule:nonzero;stroke:none" id="text1812"><tspan id="tspan1808" x="0 3.33 8.33 10.83 15.83 19.16" y="0">(1,1)</tspan><tspan id="tspan1810" x="44.047 47.377 52.377 54.877 59.877 63.207" y="-119.52">(4,4)</tspan></text></g><path d="m 2494.8,603.6 h 37.2 l 18,-2.4 18,-1.2 18,-2.4 16.8,-2.4 18,-3.6 15.6,-2.4 16.8,-4.8 15.6,-3.6 15.6,-4.8 14.4,-4.8 14.4,-6 14.4,-6 13.2,-6 12,-6 12,-7.2 12,-7.2 10.8,-7.2 10.8,-7.2 9.6,-8.4 8.4,-8.4 8.4,-8.4 7.2,-8.4 6,-8.4 6,-9.6 4.8,-9.6 4.8,-8.4 2.4,-9.6 2.4,-10.8 1.2,-9.6 2.4,-9.6 -2.4,-10.8 -1.2,-9.6 -2.4,-9.6 -2.4,-9.6 -4.8,-9.6 -4.8,-8.4 -6,-9.6 -6,-8.4 -7.2,-9.6 -8.4,-8.4 -8.4,-7.2 -9.6,-8.4 -10.8,-7.2 -10.8,-8.4 -12,-6 -12,-7.2 -12,-6 -13.2,-7.2 -14.4,-4.8 -14.4,-6 -14.4,-4.8 -15.6,-4.8 -15.6,-4.8 -16.8,-3.6 -15.6,-3.6 -18,-2.4 -16.8,-3.6 -18,-1.2 -18,-2.4 -18,-1.2 h -19.2 l -18,-1.2 -19.2,1.2 h -19.2 l -18,1.2 -18,2.4 -18,1.2 -16.8,3.6 -16.8,2.4 -16.8,3.6 -16.8,3.6 -15.6,4.8 -15.6,4.8 -14.4,4.8 -14.4,6 -14.4,4.8 -13.2,7.2 -12,6 -12,7.2 -12,6 -10.8,8.4 -9.6,7.2 -9.6,8.4 -9.6,7.2 -8.4,8.4 -7.2,9.6 -6,8.4 -6,9.6 -4.8,8.4 -3.6,9.6 -3.6,9.6 -2.4,9.6 -1.2,9.6 -1.2,10.8 1.2,9.6 1.2,9.6 2.4,10.8 3.6,9.6 3.6,8.4 4.8,9.6 6,9.6 6,8.4 7.2,8.4 8.4,8.4 9.6,8.4 9.6,8.4 9.6,7.2 10.8,7.2 12,7.2 12,7.2 12,6 13.2,6 14.4,6 14.4,6 14.4,4.8 15.6,4.8 15.6,3.6 16.8,4.8 16.8,2.4 16.8,3.6 16.8,2.4 18,2.4 18,1.2 18,2.4 h 38.4" style="fill:#fff;fill-opacity:1;fill-rule:evenodd;stroke:none" id="path1814"/><g id="g1816" transform="scale(10)"><text transform="matrix(0.873418,0,0,-1,226.44,34.8)" style="font-style:italic;font-variant:normal;font-weight:700;font-size:19.75px;font-family:'Times New Roman';-inkscape-font-specification:Times-BoldItalic;writing-mode:lr-tb;fill:#000;fill-opacity:1;fill-rule:nonzero;stroke:none" id="text1820"><tspan id="tspan1818" x="0 9.875 19.75 27.433 32.923 37.861 47.736" y="0">part 2</tspan></text></g><path d="m 1594.8,1381.2 h 18 l 19.2,-1.2 18,-1.2 18,-1.2 18,-2.4 16.8,-2.4 18,-3.6 15.6,-2.4 16.8,-4.8 15.6,-3.6 15.6,-4.8 14.4,-4.8 14.4,-6 14.4,-6 13.2,-6 12,-6 12,-7.2 12,-7.2 10.8,-7.2 10.8,-7.2 9.6,-8.4 8.4,-8.4 8.4,-8.4 7.2,-8.4 6,-8.4 6,-9.6 4.8,-9.6 4.8,-8.4 2.4,-9.6 2.4,-10.8 1.2,-9.6 2.4,-9.6 -2.4,-10.8 -1.2,-9.6 -2.4,-9.6 -2.4,-9.6 -4.8,-9.6 -4.8,-9.6 -6,-8.4 -6,-8.4 -7.2,-9.6 -8.4,-8.4 -8.4,-7.2 -9.6,-8.4 -10.8,-7.2 -10.8,-8.4 -12,-6 -12,-7.2 -12,-7.2 -13.2,-6 -14.4,-4.8 -14.4,-6 -14.4,-4.8 -15.6,-4.8 -15.6,-4.8 -16.8,-3.6 -15.6,-3.6 -18,-2.4 -16.8,-3.6 -18,-1.2 -18,-2.4 -18,-1.2 -19.2,-1.2 h -37.2 l -19.2,1.2 -18,1.2 -18,2.4 -18,1.2 -16.8,3.6 -16.8,2.4 -15.6,3.6 -16.8,3.6 -15.6,4.8 -15.6,4.8 -14.4,4.8 -14.4,6 -14.4,4.8 -13.2,6 -12,7.2 -12,7.2 -12,6 -10.8,8.4 -9.6,7.2 -9.6,8.4 -9.6,7.2 -8.4,8.4 -7.2,9.6 -6,8.4 -6,8.4 -4.8,9.6 -3.6,9.6 -3.6,9.6 -2.4,9.6 -1.2,9.6 -1.2,10.8 1.2,9.6 1.2,9.6 2.4,10.8 3.6,9.6 3.6,8.4 4.8,9.6 6,9.6 6,8.4 7.2,8.4 8.4,8.4 9.6,8.4 9.6,8.4 9.6,7.2 10.8,7.2 12,7.2 12,7.2 12,6 13.2,6 14.4,6 14.4,6 14.4,4.8 15.6,4.8 15.6,3.6 16.8,4.8 15.6,2.4 16.8,3.6 16.8,2.4 18,2.4 18,1.2 18,1.2 19.2,1.2 h 19.2" style="fill:#fff;fill-opacity:1;fill-rule:evenodd;stroke:none" id="path1822"/><g id="g1824" transform="scale(10)"><text transform="matrix(0.873418,0,0,-1,136.56,112.56)" style="font-style:italic;font-variant:normal;font-weight:700;font-size:19.75px;font-family:'Times New Roman';-inkscape-font-specification:Times-BoldItalic;writing-mode:lr-tb;fill:#000;fill-opacity:1;fill-rule:nonzero;stroke:none" id="text1828"><tspan id="tspan1826" x="0 9.875 19.75 27.433 32.923 37.861 47.736" y="0">part 3</tspan></text></g><path d="m 400.8,1078.8 h 18 l 19.2,-1.2 18,-1.2 18,-1.2 18,-2.4 18,-2.4 16.8,-3.6 16.8,-3.6 15.6,-3.6 15.6,-3.6 15.6,-4.8 14.4,-6 14.4,-4.8 14.4,-6 13.2,-6 13.2,-6 12,-7.2 10.8,-7.2 10.8,-7.2 10.8,-7.2 9.6,-8.4 8.4,-8.4 8.4,-8.4 7.2,-8.4 7.2,-8.4 4.8,-9.6 4.8,-9.6 4.8,-9.6 3.6,-9.6 1.2,-9.6 3.6,-9.6 v -20.4 l -3.6,-9.6 -2.4,-9.6 -2.4,-9.6 -4.8,-9.6 -4.8,-9.6 -6,-8.4 -6,-9.6 -7.2,-8.4 -8.4,-8.4 -8.4,-8.4 -9.6,-7.2 -10.8,-7.2 -10.8,-8.4 -10.8,-7.2 -12,-6 -13.2,-7.2 -13.2,-6 -14.4,-4.8 -14.4,-6 -14.4,-4.8 -15.6,-4.8 -15.6,-4.8 -15.6,-3.6 -16.8,-3.6 -16.8,-2.4 -18,-3.6 -18,-1.2 -18,-2.4 -18,-1.2 -19.2,-1.2 h -37.2 l -18,1.2 -19.2,1.2 -18,2.4 -16.8,1.2 -18,3.6 -16.8,2.4 -16.8,3.6 -16.8,3.6 -15.6,4.8 -14.4,4.8 -15.6,4.8 -14.4,6 -13.2,4.8 -13.2,6 -13.2,7.2 -12,6 -12,7.2 -10.8,8.4 -9.6,7.2 -9.6001,7.2 -9.5999,8.4 -7.2002,8.4 -7.1999,8.4 -7.2,9.6 -6,8.4 -4.8,9.6 -3.6001,9.6 -3.5999,9.6 -2.4001,9.6 v 39.6 l 2.4001,9.6 3.5999,9.6 3.6001,9.6 4.8,9.6 6,9.6 7.2,8.4 7.1999,8.4 7.2002,8.4 9.5999,8.4 9.6001,8.4 9.6,7.2 10.8,7.2 12,7.2 12,7.2 13.2,6 13.2,6 13.2,6 14.4,4.8 15.6,6 14.4,4.8 15.6,3.6 16.8,3.6 16.8,3.6 16.8,3.6 18,2.4 16.8,2.4 18,1.2 19.2,1.2 18,1.2 h 19.2" style="fill:#fff;fill-opacity:1;fill-rule:evenodd;stroke:none" id="path1830"/><g id="g1832" transform="scale(10)"><text transform="matrix(0.873418,0,0,-1,17.04,82.32)" style="font-style:italic;font-variant:normal;font-weight:700;font-size:19.75px;font-family:'Times New Roman';-inkscape-font-specification:Times-BoldItalic;writing-mode:lr-tb;fill:#a00000;fill-opacity:1;fill-rule:nonzero;stroke:none" id="text1836"><tspan id="tspan1834" x="0 9.875 19.75 27.433 32.923 37.861 47.736" y="0">part 4</tspan></text></g><path d="m 2336.4,1008 222,220.8" style="fill:none;stroke:#000;stroke-width:5;stroke-linecap:round;stroke-linejoin:round;stroke-miterlimit:10;stroke-dasharray:none;stroke-opacity:1" id="path1838"/><path d="m 2320.8,990 54,22.8 -34.8,-2.4 2.4,34.8 -21.6,-55.2" style="fill:#000;fill-opacity:1;fill-rule:evenodd;stroke:none" id="path1840"/><path d="M 565.2,1804.8 679.2,1524" style="fill:none;stroke:#a00000;stroke-width:5;stroke-linecap:round;stroke-linejoin:round;stroke-miterlimit:10;stroke-dasharray:none;stroke-opacity:1" id="path1842"/><path d="m 688.8,1502.4 v 56.4 l -12,-30 -28.8,14.4 40.8,-40.8" style="fill:#a00000;fill-opacity:1;fill-rule:evenodd;stroke:none" id="path1844"/><path d="m 1282.8,1644 h 6 l 4.8,-2.4 4.8,-2.4 4.8,-3.6 3.6,-4.8 2.4,-4.8 3.6,-6 v -12 l -3.6,-6 -2.4,-4.8 -3.6,-4.8 -4.8,-3.6 -4.8,-2.4 -4.8,-1.2 -3.6,-2.4 h -6 l -2.4,2.4 -6,1.2 -4.8,2.4 -4.8,3.6 -3.6,4.8 -2.4,4.8 -1.2,6 -1.2,2.4 v 7.2 l 1.2,2.4 1.2,6 2.4,4.8 3.6,4.8 4.8,3.6 4.8,2.4 6,2.4 h 6" style="fill:#000;fill-opacity:1;fill-rule:evenodd;stroke:none" id="path1846"/><path d="m 1282.8,1644 h 6 l 4.8,-2.4 4.8,-2.4 4.8,-3.6 3.6,-4.8 2.4,-4.8 2.4,-6 v -12 l -2.4,-6 -2.4,-4.8 -3.6,-4.8 -4.8,-3.6 -4.8,-2.4 -4.8,-1.2 -3.6,-1.2 h -6 l -2.4,1.2 -6,1.2 -4.8,2.4 -4.8,3.6 -3.6,4.8 -2.4,4.8 -1.2,6 -1.2,2.4 v 7.2 l 1.2,2.4 1.2,6 2.4,4.8 3.6,4.8 4.8,3.6 4.8,2.4 6,2.4 z" style="fill:none;stroke:#000;stroke-width:5;stroke-linecap:round;stroke-linejoin:round;stroke-miterlimit:10;stroke-dasharray:none;stroke-opacity:1" id="path1848"/><path d="m 1282.8,1644 h 6 l 4.8,-2.4 4.8,-2.4 4.8,-3.6 3.6,-4.8 2.4,-4.8 2.4,-6 v -12 l -2.4,-6 -2.4,-4.8 -3.6,-4.8 -4.8,-3.6 -4.8,-2.4 -4.8,-1.2 -3.6,-1.2 h -6 l -2.4,1.2 -6,1.2 -4.8,2.4 -4.8,3.6 -3.6,4.8 -2.4,4.8 -1.2,6 -1.2,2.4 v 7.2 l 1.2,2.4 1.2,6 2.4,4.8 3.6,4.8 4.8,3.6 4.8,2.4 6,2.4 z" style="fill:none;stroke:#000;stroke-width:5;stroke-linecap:round;stroke-linejoin:round;stroke-miterlimit:10;stroke-dasharray:none;stroke-opacity:1" id="path1850"/><path d="m 1401.6,1615.2 69.6,34.8 -69.6,34.8 v -69.6" style="fill:#000;fill-opacity:1;fill-rule:evenodd;stroke:none" id="path1852"/><path d="m 1114.8,1539.6 69.6,34.8 -69.6,34.8 v -69.6" style="fill:#000;fill-opacity:1;fill-rule:evenodd;stroke:none" id="path1854"/><path d="m 1363.2,1518 -33.6,-69.6 h 69.6 l -36,69.6" style="fill:#000;fill-opacity:1;fill-rule:evenodd;stroke:none" id="path1856"/><path d="m 1233.6,1797.6 -34.8,-69.6 h 69.6 l -34.8,69.6" style="fill:#000;fill-opacity:1;fill-rule:evenodd;stroke:none" id="path1858"/></g></g></g></svg>