<svg xmlns="http://www.w3.org/2000/svg" xmlns:svg="http://www.w3.org/2000/svg" id="svg1434" width="386.667" height="266.667" version="1.1" viewBox="0 0 386.667 266.667" xml:space="preserve"><metadata id="metadata1440"/><g id="g1442" transform="matrix(1.3333333,0,0,-1.3333333,0,266.66667)"><g id="g1444" transform="scale(0.1)"><g id="g1446"><path d="m 696,1682.4 718.8,-1440" style="fill:none;stroke:silver;stroke-width:20;stroke-linecap:round;stroke-linejoin:round;stroke-miterlimit:10;stroke-dasharray:none;stroke-opacity:1" id="path1448"/><path d="M 696,1682.4 1416,241.2" style="fill:none;stroke:silver;stroke-width:20;stroke-linecap:round;stroke-linejoin:round;stroke-miterlimit:10;stroke-dasharray:none;stroke-opacity:1" id="path1450"/><path d="M 1753.2,48 1416,243.6 2316,1142.4 2493.6,1047.6 1753.2,48" style="fill:#e0e0e0;fill-opacity:1;fill-rule:evenodd;stroke:none" id="path1452"/><path d="M 1948.8,777.6 2181.6,632.4" style="fill:none;stroke:silver;stroke-width:5;stroke-linecap:round;stroke-linejoin:round;stroke-miterlimit:10;stroke-dasharray:none;stroke-opacity:1" id="path1454"/><path d="M 2126.4,956.4 2331.6,835.2" style="fill:none;stroke:silver;stroke-width:5;stroke-linecap:round;stroke-linejoin:round;stroke-miterlimit:10;stroke-dasharray:none;stroke-opacity:1" id="path1456"/><path d="M 1705.2,535.2 1983.6,360" style="fill:none;stroke:silver;stroke-width:5;stroke-linecap:round;stroke-linejoin:round;stroke-miterlimit:10;stroke-dasharray:none;stroke-opacity:1" id="path1458"/><path d="m 1416,242.4 897.6,900" style="fill:none;stroke:silver;stroke-width:20;stroke-linecap:round;stroke-linejoin:round;stroke-miterlimit:10;stroke-dasharray:none;stroke-opacity:1" id="path1460"/><path d="m 1413.6,246 895.2,891.6" style="fill:none;stroke:silver;stroke-width:20;stroke-linecap:round;stroke-linejoin:round;stroke-miterlimit:10;stroke-dasharray:none;stroke-opacity:1" id="path1462"/><g id="g1464" transform="scale(10)"><text transform="matrix(0.871795,0,0,-1,163.32,25.32)" style="font-style:italic;font-variant:normal;font-size:10px;font-family:'Times New Roman';-inkscape-font-specification:Times-Italic;writing-mode:lr-tb;fill:silver;fill-opacity:1;fill-rule:nonzero;stroke:none" id="text1468"><tspan id="tspan1466" x="0 3.33 8.33 10.83 15.83 19.16" y="0">(1,1)</tspan></text></g><g id="g1470" transform="scale(10)"><text transform="matrix(0.871795,0,0,-1,258.6,125.28)" style="font-style:italic;font-variant:normal;font-size:10px;font-family:'Times New Roman';-inkscape-font-specification:Times-Italic;writing-mode:lr-tb;fill:silver;fill-opacity:1;fill-rule:nonzero;stroke:none" id="text1474"><tspan id="tspan1472" x="0 3.33 8.33 10.83 15.83 19.16" y="0">(1,4)</tspan></text></g><path d="M 1350,1776 1953.6,782.4" style="fill:none;stroke:silver;stroke-width:5;stroke-linecap:round;stroke-linejoin:round;stroke-miterlimit:10;stroke-dasharray:none;stroke-opacity:1" id="path1476"/><path d="M 1652.4,1820.4 2133.6,961.2" style="fill:none;stroke:silver;stroke-width:5;stroke-linecap:round;stroke-linejoin:round;stroke-miterlimit:10;stroke-dasharray:none;stroke-opacity:1" id="path1478"/><path d="M 1053.6,1734 1716,547.2" style="fill:none;stroke:silver;stroke-width:5;stroke-linecap:round;stroke-linejoin:round;stroke-miterlimit:10;stroke-dasharray:none;stroke-opacity:1" id="path1480"/><path d="m 874.8,1324.8 1165.2,360" style="fill:none;stroke:silver;stroke-width:5;stroke-linecap:round;stroke-linejoin:round;stroke-miterlimit:10;stroke-dasharray:none;stroke-opacity:1" id="path1482"/><path d="M 1054.8,964.8 2125.2,1512" style="fill:none;stroke:silver;stroke-width:5;stroke-linecap:round;stroke-linejoin:round;stroke-miterlimit:10;stroke-dasharray:none;stroke-opacity:1" id="path1484"/><path d="m 1234.8,604.8 978,727.2" style="fill:none;stroke:silver;stroke-width:5;stroke-linecap:round;stroke-linejoin:round;stroke-miterlimit:10;stroke-dasharray:none;stroke-opacity:1" id="path1486"/><path d="m 696,1682.4 1258.8,180" style="fill:none;stroke:silver;stroke-width:20;stroke-linecap:round;stroke-linejoin:round;stroke-miterlimit:10;stroke-dasharray:none;stroke-opacity:1" id="path1488"/><path d="m 1954.8,1862.4 354,-724.8" style="fill:none;stroke:silver;stroke-width:20;stroke-linecap:round;stroke-linejoin:round;stroke-miterlimit:10;stroke-dasharray:none;stroke-opacity:1" id="path1490"/><g id="g1492" transform="scale(10)"><text transform="matrix(0.871795,0,0,-1,138.12,50.4)" style="font-style:italic;font-variant:normal;font-size:10px;font-family:'Times New Roman';-inkscape-font-specification:Times-Italic;writing-mode:lr-tb;fill:silver;fill-opacity:1;fill-rule:nonzero;stroke:none" id="text1496"><tspan id="tspan1494" x="0 3.33 8.33 10.83 15.83 19.16" y="0">(1,1)</tspan></text></g><g id="g1498" transform="scale(10)"><text transform="matrix(0.871795,0,0,-1,176.52,169.92)" style="font-style:italic;font-variant:normal;font-size:10px;font-family:'Times New Roman';-inkscape-font-specification:Times-Italic;writing-mode:lr-tb;fill:silver;fill-opacity:1;fill-rule:nonzero;stroke:none" id="text1502"><tspan id="tspan1500" x="0 3.33 8.33 10.83 15.83 19.16" y="0">(4,4)</tspan></text></g><path d="m 2494.8,603.6 h 37.2 l 18,-2.4 18,-1.2 18,-2.4 16.8,-2.4 18,-3.6 15.6,-2.4 16.8,-4.8 15.6,-3.6 15.6,-4.8 14.4,-4.8 14.4,-6 14.4,-6 13.2,-6 12,-6 12,-7.2 12,-7.2 10.8,-7.2 10.8,-7.2 9.6,-8.4 8.4,-8.4 8.4,-8.4 7.2,-8.4 6,-8.4 6,-9.6 4.8,-9.6 4.8,-8.4 2.4,-9.6 2.4,-10.8 1.2,-9.6 2.4,-9.6 -2.4,-10.8 -1.2,-9.6 -2.4,-9.6 -2.4,-9.6 -4.8,-9.6 -4.8,-8.4 -6,-9.6 -6,-8.4 -7.2,-9.6 -8.4,-8.4 -8.4,-7.2 -9.6,-8.4 -10.8,-7.2 -10.8,-8.4 -12,-6 -12,-7.2 -12,-6 -13.2,-7.2 -14.4,-4.8 -14.4,-6 -14.4,-4.8 -15.6,-4.8 -15.6,-4.8 -16.8,-3.6 -15.6,-3.6 -18,-2.4 -16.8,-3.6 -18,-1.2 -18,-2.4 -18,-1.2 h -19.2 l -18,-1.2 -19.2,1.2 h -19.2 l -18,1.2 -18,2.4 -18,1.2 -16.8,3.6 -16.8,2.4 -16.8,3.6 -16.8,3.6 -15.6,4.8 -15.6,4.8 -14.4,4.8 -14.4,6 -14.4,4.8 -13.2,7.2 -12,6 -12,7.2 -12,6 -10.8,8.4 -9.6,7.2 -9.6,8.4 -9.6,7.2 -8.4,8.4 -7.2,9.6 -6,8.4 -6,9.6 -4.8,8.4 -3.6,9.6 -3.6,9.6 -2.4,9.6 -1.2,9.6 -1.2,10.8 1.2,9.6 1.2,9.6 2.4,10.8 3.6,9.6 3.6,8.4 4.8,9.6 6,9.6 6,8.4 7.2,8.4 8.4,8.4 9.6,8.4 9.6,8.4 9.6,7.2 10.8,7.2 12,7.2 12,7.2 12,6 13.2,6 14.4,6 14.4,6 14.4,4.8 15.6,4.8 15.6,3.6 16.8,4.8 16.8,2.4 16.8,3.6 16.8,2.4 18,2.4 18,1.2 18,2.4 h 38.4" style="fill:#fff;fill-opacity:1;fill-rule:evenodd;stroke:none" id="path1504"/><g id="g1506" transform="scale(10)"><text transform="matrix(0.873418,0,0,-1,226.44,34.8)" style="font-style:italic;font-variant:normal;font-weight:700;font-size:19.75px;font-family:'Times New Roman';-inkscape-font-specification:Times-BoldItalic;writing-mode:lr-tb;fill:silver;fill-opacity:1;fill-rule:nonzero;stroke:none" id="text1510"><tspan id="tspan1508" x="0 9.875 19.75 27.433 32.923 37.861 47.736" y="0">part 2</tspan></text></g><path d="m 1594.8,1381.2 h 18 l 19.2,-1.2 18,-1.2 18,-1.2 18,-2.4 16.8,-2.4 18,-3.6 15.6,-2.4 16.8,-4.8 15.6,-3.6 15.6,-4.8 14.4,-4.8 14.4,-6 14.4,-6 13.2,-6 12,-6 12,-7.2 12,-7.2 10.8,-7.2 10.8,-7.2 9.6,-8.4 8.4,-8.4 8.4,-8.4 7.2,-8.4 6,-8.4 6,-9.6 4.8,-9.6 4.8,-8.4 2.4,-9.6 2.4,-10.8 1.2,-9.6 2.4,-9.6 -2.4,-10.8 -1.2,-9.6 -2.4,-9.6 -2.4,-9.6 -4.8,-9.6 -4.8,-9.6 -6,-8.4 -6,-8.4 -7.2,-9.6 -8.4,-8.4 -8.4,-7.2 -9.6,-8.4 -10.8,-7.2 -10.8,-8.4 -12,-6 -12,-7.2 -12,-7.2 -13.2,-6 -14.4,-4.8 -14.4,-6 -14.4,-4.8 -15.6,-4.8 -15.6,-4.8 -16.8,-3.6 -15.6,-3.6 -18,-2.4 -16.8,-3.6 -18,-1.2 -18,-2.4 -18,-1.2 -19.2,-1.2 h -37.2 l -19.2,1.2 -18,1.2 -18,2.4 -18,1.2 -16.8,3.6 -16.8,2.4 -15.6,3.6 -16.8,3.6 -15.6,4.8 -15.6,4.8 -14.4,4.8 -14.4,6 -14.4,4.8 -13.2,6 -12,7.2 -12,7.2 -12,6 -10.8,8.4 -9.6,7.2 -9.6,8.4 -9.6,7.2 -8.4,8.4 -7.2,9.6 -6,8.4 -6,8.4 -4.8,9.6 -3.6,9.6 -3.6,9.6 -2.4,9.6 -1.2,9.6 -1.2,10.8 1.2,9.6 1.2,9.6 2.4,10.8 3.6,9.6 3.6,8.4 4.8,9.6 6,9.6 6,8.4 7.2,8.4 8.4,8.4 9.6,8.4 9.6,8.4 9.6,7.2 10.8,7.2 12,7.2 12,7.2 12,6 13.2,6 14.4,6 14.4,6 14.4,4.8 15.6,4.8 15.6,3.6 16.8,4.8 15.6,2.4 16.8,3.6 16.8,2.4 18,2.4 18,1.2 18,1.2 19.2,1.2 h 19.2" style="fill:#fff;fill-opacity:1;fill-rule:evenodd;stroke:none" id="path1512"/><g id="g1514" transform="scale(10)"><text transform="matrix(0.873418,0,0,-1,136.56,112.56)" style="font-style:italic;font-variant:normal;font-weight:700;font-size:19.75px;font-family:'Times New Roman';-inkscape-font-specification:Times-BoldItalic;writing-mode:lr-tb;fill:silver;fill-opacity:1;fill-rule:nonzero;stroke:none" id="text1518"><tspan id="tspan1516" x="0 9.875 19.75 27.433 32.923 37.861 47.736" y="0">part 3</tspan></text></g><path d="m 2336.4,1008 222,220.8" style="fill:none;stroke:#a00000;stroke-width:5;stroke-linecap:round;stroke-linejoin:round;stroke-miterlimit:10;stroke-dasharray:none;stroke-opacity:1" id="path1520"/><path d="m 2320.8,990 54,22.8 -34.8,-2.4 2.4,34.8 -21.6,-55.2" style="fill:#a00000;fill-opacity:1;fill-rule:evenodd;stroke:none" id="path1522"/><path d="m 696,1682.4 718.8,-1440" style="fill:none;stroke:silver;stroke-width:20;stroke-linecap:round;stroke-linejoin:round;stroke-miterlimit:10;stroke-dasharray:none;stroke-opacity:1" id="path1524"/><path d="M 1753.2,49.2 1416,243.6 2316,1142.4 2492.4,1047.6 1753.2,49.2" style="fill:#ffe0e0;fill-opacity:1;fill-rule:evenodd;stroke:none" id="path1526"/><path d="M 1753.2,49.2 1416,243.6 2316,1142.4 2492.4,1047.6 1753.2,49.2" style="fill:none;stroke:#a00000;stroke-width:7.5;stroke-linecap:round;stroke-linejoin:round;stroke-miterlimit:10;stroke-dasharray:none;stroke-opacity:1" id="path1528"/><path d="M 1948.8,777.6 2181.6,632.4" style="fill:none;stroke:#a00000;stroke-width:5;stroke-linecap:round;stroke-linejoin:round;stroke-miterlimit:10;stroke-dasharray:none;stroke-opacity:1" id="path1530"/><path d="M 2126.4,956.4 2331.6,835.2" style="fill:none;stroke:#a00000;stroke-width:5;stroke-linecap:round;stroke-linejoin:round;stroke-miterlimit:10;stroke-dasharray:none;stroke-opacity:1" id="path1532"/><path d="M 1705.2,535.2 1983.6,360" style="fill:none;stroke:#a00000;stroke-width:5;stroke-linecap:round;stroke-linejoin:round;stroke-miterlimit:10;stroke-dasharray:none;stroke-opacity:1" id="path1534"/><path d="m 1416,242.4 897.6,900" style="fill:none;stroke:#009;stroke-width:20;stroke-linecap:round;stroke-linejoin:round;stroke-miterlimit:10;stroke-dasharray:none;stroke-opacity:1" id="path1536"/><g id="g1538" transform="scale(10)"><text transform="matrix(0.871795,0,0,-1,163.32,25.32)" style="font-style:italic;font-variant:normal;font-size:10px;font-family:'Times New Roman';-inkscape-font-specification:Times-Italic;writing-mode:lr-tb;fill:#a00000;fill-opacity:1;fill-rule:nonzero;stroke:none" id="text1542"><tspan id="tspan1540" x="0 3.33 8.33 10.83 15.83 19.16" y="0">(1,1)</tspan></text></g><g id="g1544" transform="scale(10)"><text transform="matrix(0.871795,0,0,-1,258.6,125.28)" style="font-style:italic;font-variant:normal;font-size:10px;font-family:'Times New Roman';-inkscape-font-specification:Times-Italic;writing-mode:lr-tb;fill:#a00000;fill-opacity:1;fill-rule:nonzero;stroke:none" id="text1548"><tspan id="tspan1546" x="0 3.33 8.33 10.83 15.83 19.16" y="0">(1,4)</tspan></text></g><path d="M 696,1682.4 1416,241.2" style="fill:none;stroke:#000;stroke-width:20;stroke-linecap:round;stroke-linejoin:round;stroke-miterlimit:10;stroke-dasharray:none;stroke-opacity:1" id="path1550"/><path d="m 1413.6,246 895.2,891.6" style="fill:none;stroke:#000;stroke-width:20;stroke-linecap:round;stroke-linejoin:round;stroke-miterlimit:10;stroke-dasharray:none;stroke-opacity:1" id="path1552"/><path d="M 1350,1776 1953.6,782.4" style="fill:none;stroke:#000;stroke-width:5;stroke-linecap:round;stroke-linejoin:round;stroke-miterlimit:10;stroke-dasharray:none;stroke-opacity:1" id="path1554"/><path d="M 1652.4,1820.4 2133.6,961.2" style="fill:none;stroke:#000;stroke-width:5;stroke-linecap:round;stroke-linejoin:round;stroke-miterlimit:10;stroke-dasharray:none;stroke-opacity:1" id="path1556"/><path d="M 1053.6,1734 1716,547.2" style="fill:none;stroke:#000;stroke-width:5;stroke-linecap:round;stroke-linejoin:round;stroke-miterlimit:10;stroke-dasharray:none;stroke-opacity:1" id="path1558"/><path d="m 874.8,1324.8 1165.2,360" style="fill:none;stroke:#000;stroke-width:5;stroke-linecap:round;stroke-linejoin:round;stroke-miterlimit:10;stroke-dasharray:none;stroke-opacity:1" id="path1560"/><path d="M 1054.8,964.8 2125.2,1512" style="fill:none;stroke:#000;stroke-width:5;stroke-linecap:round;stroke-linejoin:round;stroke-miterlimit:10;stroke-dasharray:none;stroke-opacity:1" id="path1562"/><path d="m 1234.8,604.8 978,727.2" style="fill:none;stroke:#000;stroke-width:5;stroke-linecap:round;stroke-linejoin:round;stroke-miterlimit:10;stroke-dasharray:none;stroke-opacity:1" id="path1564"/><path d="m 696,1682.4 1258.8,180" style="fill:none;stroke:#000;stroke-width:20;stroke-linecap:round;stroke-linejoin:round;stroke-miterlimit:10;stroke-dasharray:none;stroke-opacity:1" id="path1566"/><path d="m 1954.8,1862.4 354,-724.8" style="fill:none;stroke:#000;stroke-width:20;stroke-linecap:round;stroke-linejoin:round;stroke-miterlimit:10;stroke-dasharray:none;stroke-opacity:1" id="path1568"/><g id="g1570" transform="scale(10)"><text transform="matrix(0.871795,0,0,-1,138.12,50.4)" style="font-style:italic;font-variant:normal;font-size:10px;font-family:'Times New Roman';-inkscape-font-specification:Times-Italic;writing-mode:lr-tb;fill:#000;fill-opacity:1;fill-rule:nonzero;stroke:none" id="text1576"><tspan id="tspan1572" x="0 3.33 8.33 10.83 15.83 19.16" y="0">(1,1)</tspan><tspan id="tspan1574" x="44.047 47.377 52.377 54.877 59.877 63.207" y="-119.52">(4,4)</tspan></text></g><path d="m 2494.8,603.6 h 37.2 l 18,-2.4 18,-1.2 18,-2.4 16.8,-2.4 18,-3.6 15.6,-2.4 16.8,-4.8 15.6,-3.6 15.6,-4.8 14.4,-4.8 14.4,-6 14.4,-6 13.2,-6 12,-6 12,-7.2 12,-7.2 10.8,-7.2 10.8,-7.2 9.6,-8.4 8.4,-8.4 8.4,-8.4 7.2,-8.4 6,-8.4 6,-9.6 4.8,-9.6 4.8,-8.4 2.4,-9.6 2.4,-10.8 1.2,-9.6 2.4,-9.6 -2.4,-10.8 -1.2,-9.6 -2.4,-9.6 -2.4,-9.6 -4.8,-9.6 -4.8,-8.4 -6,-9.6 -6,-8.4 -7.2,-9.6 -8.4,-8.4 -8.4,-7.2 -9.6,-8.4 -10.8,-7.2 -10.8,-8.4 -12,-6 -12,-7.2 -12,-6 -13.2,-7.2 -14.4,-4.8 -14.4,-6 -14.4,-4.8 -15.6,-4.8 -15.6,-4.8 -16.8,-3.6 -15.6,-3.6 -18,-2.4 -16.8,-3.6 -18,-1.2 -18,-2.4 -18,-1.2 h -19.2 l -18,-1.2 -19.2,1.2 h -19.2 l -18,1.2 -18,2.4 -18,1.2 -16.8,3.6 -16.8,2.4 -16.8,3.6 -16.8,3.6 -15.6,4.8 -15.6,4.8 -14.4,4.8 -14.4,6 -14.4,4.8 -13.2,7.2 -12,6 -12,7.2 -12,6 -10.8,8.4 -9.6,7.2 -9.6,8.4 -9.6,7.2 -8.4,8.4 -7.2,9.6 -6,8.4 -6,9.6 -4.8,8.4 -3.6,9.6 -3.6,9.6 -2.4,9.6 -1.2,9.6 -1.2,10.8 1.2,9.6 1.2,9.6 2.4,10.8 3.6,9.6 3.6,8.4 4.8,9.6 6,9.6 6,8.4 7.2,8.4 8.4,8.4 9.6,8.4 9.6,8.4 9.6,7.2 10.8,7.2 12,7.2 12,7.2 12,6 13.2,6 14.4,6 14.4,6 14.4,4.8 15.6,4.8 15.6,3.6 16.8,4.8 16.8,2.4 16.8,3.6 16.8,2.4 18,2.4 18,1.2 18,2.4 h 38.4" style="fill:#fff;fill-opacity:1;fill-rule:evenodd;stroke:none" id="path1578"/><g id="g1580" transform="scale(10)"><text transform="matrix(0.873418,0,0,-1,226.44,34.8)" style="font-style:italic;font-variant:normal;font-weight:700;font-size:19.75px;font-family:'Times New Roman';-inkscape-font-specification:Times-BoldItalic;writing-mode:lr-tb;fill:#a00000;fill-opacity:1;fill-rule:nonzero;stroke:none" id="text1584"><tspan id="tspan1582" x="0 9.875 19.75 27.433 32.923 37.861 47.736" y="0">part 2</tspan></text></g><path d="m 1594.8,1381.2 h 18 l 19.2,-1.2 18,-1.2 18,-1.2 18,-2.4 16.8,-2.4 18,-3.6 15.6,-2.4 16.8,-4.8 15.6,-3.6 15.6,-4.8 14.4,-4.8 14.4,-6 14.4,-6 13.2,-6 12,-6 12,-7.2 12,-7.2 10.8,-7.2 10.8,-7.2 9.6,-8.4 8.4,-8.4 8.4,-8.4 7.2,-8.4 6,-8.4 6,-9.6 4.8,-9.6 4.8,-8.4 2.4,-9.6 2.4,-10.8 1.2,-9.6 2.4,-9.6 -2.4,-10.8 -1.2,-9.6 -2.4,-9.6 -2.4,-9.6 -4.8,-9.6 -4.8,-9.6 -6,-8.4 -6,-8.4 -7.2,-9.6 -8.4,-8.4 -8.4,-7.2 -9.6,-8.4 -10.8,-7.2 -10.8,-8.4 -12,-6 -12,-7.2 -12,-7.2 -13.2,-6 -14.4,-4.8 -14.4,-6 -14.4,-4.8 -15.6,-4.8 -15.6,-4.8 -16.8,-3.6 -15.6,-3.6 -18,-2.4 -16.8,-3.6 -18,-1.2 -18,-2.4 -18,-1.2 -19.2,-1.2 h -37.2 l -19.2,1.2 -18,1.2 -18,2.4 -18,1.2 -16.8,3.6 -16.8,2.4 -15.6,3.6 -16.8,3.6 -15.6,4.8 -15.6,4.8 -14.4,4.8 -14.4,6 -14.4,4.8 -13.2,6 -12,7.2 -12,7.2 -12,6 -10.8,8.4 -9.6,7.2 -9.6,8.4 -9.6,7.2 -8.4,8.4 -7.2,9.6 -6,8.4 -6,8.4 -4.8,9.6 -3.6,9.6 -3.6,9.6 -2.4,9.6 -1.2,9.6 -1.2,10.8 1.2,9.6 1.2,9.6 2.4,10.8 3.6,9.6 3.6,8.4 4.8,9.6 6,9.6 6,8.4 7.2,8.4 8.4,8.4 9.6,8.4 9.6,8.4 9.6,7.2 10.8,7.2 12,7.2 12,7.2 12,6 13.2,6 14.4,6 14.4,6 14.4,4.8 15.6,4.8 15.6,3.6 16.8,4.8 15.6,2.4 16.8,3.6 16.8,2.4 18,2.4 18,1.2 18,1.2 19.2,1.2 h 19.2" style="fill:#fff;fill-opacity:1;fill-rule:evenodd;stroke:none" id="path1586"/><g id="g1588" transform="scale(10)"><text transform="matrix(0.873418,0,0,-1,136.56,112.56)" style="font-style:italic;font-variant:normal;font-weight:700;font-size:19.75px;font-family:'Times New Roman';-inkscape-font-specification:Times-BoldItalic;writing-mode:lr-tb;fill:#000;fill-opacity:1;fill-rule:nonzero;stroke:none" id="text1592"><tspan id="tspan1590" x="0 9.875 19.75 27.433 32.923 37.861 47.736" y="0">part 3</tspan></text></g><path d="m 2336.4,1008 222,220.8" style="fill:none;stroke:#a00000;stroke-width:5;stroke-linecap:round;stroke-linejoin:round;stroke-miterlimit:10;stroke-dasharray:none;stroke-opacity:1" id="path1594"/><path d="m 2320.8,990 54,22.8 -34.8,-2.4 2.4,34.8 -21.6,-55.2" style="fill:#a00000;fill-opacity:1;fill-rule:evenodd;stroke:none" id="path1596"/><path d="m 1282.8,1644 h 6 l 4.8,-2.4 4.8,-2.4 4.8,-3.6 3.6,-4.8 2.4,-4.8 3.6,-6 v -12 l -3.6,-6 -2.4,-4.8 -3.6,-4.8 -4.8,-3.6 -4.8,-2.4 -4.8,-1.2 -3.6,-2.4 h -6 l -2.4,2.4 -6,1.2 -4.8,2.4 -4.8,3.6 -3.6,4.8 -2.4,4.8 -1.2,6 -1.2,2.4 v 7.2 l 1.2,2.4 1.2,6 2.4,4.8 3.6,4.8 4.8,3.6 4.8,2.4 6,2.4 h 6" style="fill:#000;fill-opacity:1;fill-rule:evenodd;stroke:none" id="path1598"/><path d="m 1282.8,1644 h 6 l 4.8,-2.4 4.8,-2.4 4.8,-3.6 3.6,-4.8 2.4,-4.8 2.4,-6 v -12 l -2.4,-6 -2.4,-4.8 -3.6,-4.8 -4.8,-3.6 -4.8,-2.4 -4.8,-1.2 -3.6,-1.2 h -6 l -2.4,1.2 -6,1.2 -4.8,2.4 -4.8,3.6 -3.6,4.8 -2.4,4.8 -1.2,6 -1.2,2.4 v 7.2 l 1.2,2.4 1.2,6 2.4,4.8 3.6,4.8 4.8,3.6 4.8,2.4 6,2.4 z" style="fill:none;stroke:#000;stroke-width:5;stroke-linecap:round;stroke-linejoin:round;stroke-miterlimit:10;stroke-dasharray:none;stroke-opacity:1" id="path1600"/><path d="m 1282.8,1644 h 6 l 4.8,-2.4 4.8,-2.4 4.8,-3.6 3.6,-4.8 2.4,-4.8 2.4,-6 v -12 l -2.4,-6 -2.4,-4.8 -3.6,-4.8 -4.8,-3.6 -4.8,-2.4 -4.8,-1.2 -3.6,-1.2 h -6 l -2.4,1.2 -6,1.2 -4.8,2.4 -4.8,3.6 -3.6,4.8 -2.4,4.8 -1.2,6 -1.2,2.4 v 7.2 l 1.2,2.4 1.2,6 2.4,4.8 3.6,4.8 4.8,3.6 4.8,2.4 6,2.4 z" style="fill:none;stroke:#000;stroke-width:5;stroke-linecap:round;stroke-linejoin:round;stroke-miterlimit:10;stroke-dasharray:none;stroke-opacity:1" id="path1602"/><path d="m 1401.6,1615.2 69.6,34.8 -69.6,34.8 v -69.6" style="fill:#000;fill-opacity:1;fill-rule:evenodd;stroke:none" id="path1604"/><path d="m 1114.8,1539.6 69.6,34.8 -69.6,34.8 v -69.6" style="fill:#000;fill-opacity:1;fill-rule:evenodd;stroke:none" id="path1606"/><path d="m 1363.2,1518 -33.6,-69.6 h 69.6 l -36,69.6" style="fill:#000;fill-opacity:1;fill-rule:evenodd;stroke:none" id="path1608"/><path d="m 1233.6,1797.6 -34.8,-69.6 h 69.6 l -34.8,69.6" style="fill:#000;fill-opacity:1;fill-rule:evenodd;stroke:none" id="path1610"/></g></g></g></svg>