<svg xmlns="http://www.w3.org/2000/svg" xmlns:svg="http://www.w3.org/2000/svg" id="svg2620" width="413.76" height="230.08" version="1.1" viewBox="0 0 413.76 230.08" xml:space="preserve"><metadata id="metadata2626"/><g id="g2628" transform="matrix(1.3333333,0,0,-1.3333333,-13.76,245.27999)"><g id="g2630" transform="scale(0.1)"><g id="g2632"><path d="M 450,1112.4 1119.6,784.8" style="fill:none;stroke:#000;stroke-width:1;stroke-linecap:round;stroke-linejoin:round;stroke-miterlimit:10;stroke-dasharray:10,20;stroke-dashoffset:0;stroke-opacity:1" id="path2634"/><path d="M 118.8,1112.4 968.4,777.6" style="fill:none;stroke:#000;stroke-width:1;stroke-linecap:round;stroke-linejoin:round;stroke-miterlimit:10;stroke-dasharray:10,20;stroke-dashoffset:0;stroke-opacity:1" id="path2636"/><path d="m 442.8,792 684,-180" style="fill:none;stroke:#000;stroke-width:1;stroke-linecap:round;stroke-linejoin:round;stroke-miterlimit:10;stroke-dasharray:10,20;stroke-dashoffset:0;stroke-opacity:1" id="path2638"/><path d="M 118.8,784.8 957.6,615.6" style="fill:none;stroke:#000;stroke-width:1;stroke-linecap:round;stroke-linejoin:round;stroke-miterlimit:10;stroke-dasharray:10,20;stroke-dashoffset:0;stroke-opacity:1" id="path2640"/><path d="M 784.8,613.2 H 1452" style="fill:none;stroke:#000;stroke-width:5;stroke-linecap:round;stroke-linejoin:round;stroke-miterlimit:10;stroke-dasharray:none;stroke-opacity:1" id="path2642"/><path d="M 784.8,781.2 H 1452" style="fill:none;stroke:#000;stroke-width:5;stroke-linecap:round;stroke-linejoin:round;stroke-miterlimit:10;stroke-dasharray:none;stroke-opacity:1" id="path2644"/><path d="M 784.8,446.4 H 1452" style="fill:none;stroke:#000;stroke-width:5;stroke-linecap:round;stroke-linejoin:round;stroke-miterlimit:10;stroke-dasharray:none;stroke-opacity:1" id="path2646"/><path d="m 952.8,946.8 v -666" style="fill:none;stroke:#000;stroke-width:5;stroke-linecap:round;stroke-linejoin:round;stroke-miterlimit:10;stroke-dasharray:none;stroke-opacity:1" id="path2648"/><path d="m 1118.4,946.8 v -666" style="fill:none;stroke:#000;stroke-width:5;stroke-linecap:round;stroke-linejoin:round;stroke-miterlimit:10;stroke-dasharray:none;stroke-opacity:1" id="path2650"/><path d="m 1286.4,946.8 v -666" style="fill:none;stroke:#000;stroke-width:5;stroke-linecap:round;stroke-linejoin:round;stroke-miterlimit:10;stroke-dasharray:none;stroke-opacity:1" id="path2652"/><path d="m 786,946.8 v -666" style="fill:none;stroke:#000;stroke-width:20;stroke-linecap:round;stroke-linejoin:round;stroke-miterlimit:10;stroke-dasharray:none;stroke-opacity:1" id="path2654"/><path d="m 1453.2,946.8 v -666" style="fill:none;stroke:#000;stroke-width:20;stroke-linecap:round;stroke-linejoin:round;stroke-miterlimit:10;stroke-dasharray:none;stroke-opacity:1" id="path2656"/><path d="M 784.8,945.6 H 1452" style="fill:none;stroke:#000;stroke-width:20;stroke-linecap:round;stroke-linejoin:round;stroke-miterlimit:10;stroke-dasharray:none;stroke-opacity:1" id="path2658"/><path d="m 784.8,279.6 h 668.4" style="fill:none;stroke:#000;stroke-width:20;stroke-linecap:round;stroke-linejoin:round;stroke-miterlimit:10;stroke-dasharray:none;stroke-opacity:1" id="path2660"/><path d="m 1453.2,613.2 666,-164.4" style="fill:none;stroke:#000;stroke-width:5;stroke-linecap:round;stroke-linejoin:round;stroke-miterlimit:10;stroke-dasharray:none;stroke-opacity:1" id="path2662"/><path d="m 1453.2,781.2 666,-249.6" style="fill:none;stroke:#000;stroke-width:5;stroke-linecap:round;stroke-linejoin:round;stroke-miterlimit:10;stroke-dasharray:none;stroke-opacity:1" id="path2664"/><path d="m 1453.2,446.4 666,-81.6" style="fill:none;stroke:#000;stroke-width:5;stroke-linecap:round;stroke-linejoin:round;stroke-miterlimit:10;stroke-dasharray:none;stroke-opacity:1" id="path2666"/><path d="M 1617.6,865.2 V 280.8" style="fill:none;stroke:#000;stroke-width:5;stroke-linecap:round;stroke-linejoin:round;stroke-miterlimit:10;stroke-dasharray:none;stroke-opacity:1" id="path2668"/><path d="M 1784.4,782.4 V 280.8" style="fill:none;stroke:#000;stroke-width:5;stroke-linecap:round;stroke-linejoin:round;stroke-miterlimit:10;stroke-dasharray:none;stroke-opacity:1" id="path2670"/><path d="M 1951.2,698.4 V 280.8" style="fill:none;stroke:#000;stroke-width:5;stroke-linecap:round;stroke-linejoin:round;stroke-miterlimit:10;stroke-dasharray:none;stroke-opacity:1" id="path2672"/><path d="m 1453.2,945.6 v -666" style="fill:none;stroke:#000;stroke-width:20;stroke-linecap:round;stroke-linejoin:round;stroke-miterlimit:10;stroke-dasharray:none;stroke-opacity:1" id="path2674"/><path d="M 2119.2,614.4 V 279.6" style="fill:none;stroke:#000;stroke-width:20;stroke-linecap:round;stroke-linejoin:round;stroke-miterlimit:10;stroke-dasharray:none;stroke-opacity:1" id="path2676"/><path d="m 1453.2,945.6 666,-331.2" style="fill:none;stroke:#000;stroke-width:20;stroke-linecap:round;stroke-linejoin:round;stroke-miterlimit:10;stroke-dasharray:none;stroke-opacity:1" id="path2678"/><path d="m 1453.2,279.6 h 666" style="fill:none;stroke:#000;stroke-width:20;stroke-linecap:round;stroke-linejoin:round;stroke-miterlimit:10;stroke-dasharray:none;stroke-opacity:1" id="path2680"/><path d="m 784.8,1280.4 h 500.4" style="fill:none;stroke:#000;stroke-width:5;stroke-linecap:round;stroke-linejoin:round;stroke-miterlimit:10;stroke-dasharray:none;stroke-opacity:1" id="path2682"/><path d="m 784.8,1447.2 h 416.4" style="fill:none;stroke:#000;stroke-width:5;stroke-linecap:round;stroke-linejoin:round;stroke-miterlimit:10;stroke-dasharray:none;stroke-opacity:1" id="path2684"/><path d="M 784.8,1113.6 H 1368" style="fill:none;stroke:#000;stroke-width:5;stroke-linecap:round;stroke-linejoin:round;stroke-miterlimit:10;stroke-dasharray:none;stroke-opacity:1" id="path2686"/><path d="m 868.8,1612.8 82.8,-666" style="fill:none;stroke:#000;stroke-width:5;stroke-linecap:round;stroke-linejoin:round;stroke-miterlimit:10;stroke-dasharray:none;stroke-opacity:1" id="path2688"/><path d="M 952.8,1612.8 1118.4,945.6" style="fill:none;stroke:#000;stroke-width:5;stroke-linecap:round;stroke-linejoin:round;stroke-miterlimit:10;stroke-dasharray:none;stroke-opacity:1" id="path2690"/><path d="M 1035.6,1612.8 1285.2,945.6" style="fill:none;stroke:#000;stroke-width:5;stroke-linecap:round;stroke-linejoin:round;stroke-miterlimit:10;stroke-dasharray:none;stroke-opacity:1" id="path2692"/><path d="M 786,1612.8 V 945.6" style="fill:none;stroke:#000;stroke-width:20;stroke-linecap:round;stroke-linejoin:round;stroke-miterlimit:10;stroke-dasharray:none;stroke-opacity:1" id="path2694"/><path d="M 1118.4,1612.8 1452,946.8" style="fill:none;stroke:#000;stroke-width:20;stroke-linecap:round;stroke-linejoin:round;stroke-miterlimit:10;stroke-dasharray:none;stroke-opacity:1" id="path2696"/><path d="m 784.8,1612.8 h 333.6" style="fill:none;stroke:#000;stroke-width:20;stroke-linecap:round;stroke-linejoin:round;stroke-miterlimit:10;stroke-dasharray:none;stroke-opacity:1" id="path2698"/><path d="m 784.8,945.6 h 668.4" style="fill:none;stroke:#000;stroke-width:20;stroke-linecap:round;stroke-linejoin:round;stroke-miterlimit:10;stroke-dasharray:none;stroke-opacity:1" id="path2700"/><path d="m 1453.2,946.8 415.2,416.4" style="fill:none;stroke:#000;stroke-width:20;stroke-linecap:round;stroke-linejoin:round;stroke-miterlimit:10;stroke-dasharray:none;stroke-opacity:1" id="path2702"/><path d="m 1700.4,1195.2 462,-276" style="fill:none;stroke:#000;stroke-width:5;stroke-linecap:round;stroke-linejoin:round;stroke-miterlimit:10;stroke-dasharray:none;stroke-opacity:1" id="path2704"/><path d="m 1785.6,1279.2 387.6,-219.6" style="fill:none;stroke:#000;stroke-width:5;stroke-linecap:round;stroke-linejoin:round;stroke-miterlimit:10;stroke-dasharray:none;stroke-opacity:1" id="path2706"/><path d="M 1575.6,1089.6 2142,780" style="fill:none;stroke:#000;stroke-width:5;stroke-linecap:round;stroke-linejoin:round;stroke-miterlimit:10;stroke-dasharray:none;stroke-opacity:1" id="path2708"/><path d="M 1618.8,864 1956,1320" style="fill:none;stroke:#000;stroke-width:5;stroke-linecap:round;stroke-linejoin:round;stroke-miterlimit:10;stroke-dasharray:none;stroke-opacity:1" id="path2710"/><path d="m 1785.6,782.4 249.6,498" style="fill:none;stroke:#000;stroke-width:5;stroke-linecap:round;stroke-linejoin:round;stroke-miterlimit:10;stroke-dasharray:none;stroke-opacity:1" id="path2712"/><path d="m 1951.2,698.4 168,541.2" style="fill:none;stroke:#000;stroke-width:5;stroke-linecap:round;stroke-linejoin:round;stroke-miterlimit:10;stroke-dasharray:none;stroke-opacity:1" id="path2714"/><path d="m 2119.2,614.4 84,583.2" style="fill:none;stroke:#000;stroke-width:20;stroke-linecap:round;stroke-linejoin:round;stroke-miterlimit:10;stroke-dasharray:none;stroke-opacity:1" id="path2716"/><path d="m 1868.4,1363.2 334.8,-165.6" style="fill:none;stroke:#000;stroke-width:20;stroke-linecap:round;stroke-linejoin:round;stroke-miterlimit:10;stroke-dasharray:none;stroke-opacity:1" id="path2718"/><path d="m 1453.2,946.8 666,-332.4" style="fill:none;stroke:#000;stroke-width:20;stroke-linecap:round;stroke-linejoin:round;stroke-miterlimit:10;stroke-dasharray:none;stroke-opacity:1" id="path2720"/><path d="M 1423.2,1657.2 1694.4,1188" style="fill:none;stroke:#000;stroke-width:5;stroke-linecap:round;stroke-linejoin:round;stroke-miterlimit:10;stroke-dasharray:none;stroke-opacity:1" id="path2722"/><path d="m 1562.4,1677.6 222,-399.6" style="fill:none;stroke:#000;stroke-width:5;stroke-linecap:round;stroke-linejoin:round;stroke-miterlimit:10;stroke-dasharray:none;stroke-opacity:1" id="path2724"/><path d="m 1285.2,1636.8 296.4,-559.2" style="fill:none;stroke:#000;stroke-width:5;stroke-linecap:round;stroke-linejoin:round;stroke-miterlimit:10;stroke-dasharray:none;stroke-opacity:1" id="path2726"/><path d="M 1201.2,1448.4 1742.4,1614" style="fill:none;stroke:#000;stroke-width:5;stroke-linecap:round;stroke-linejoin:round;stroke-miterlimit:10;stroke-dasharray:none;stroke-opacity:1" id="path2728"/><path d="m 1285.2,1280.4 498,254.4" style="fill:none;stroke:#000;stroke-width:5;stroke-linecap:round;stroke-linejoin:round;stroke-miterlimit:10;stroke-dasharray:none;stroke-opacity:1" id="path2730"/><path d="m 1369.2,1114.8 453.6,336" style="fill:none;stroke:#000;stroke-width:5;stroke-linecap:round;stroke-linejoin:round;stroke-miterlimit:10;stroke-dasharray:none;stroke-opacity:1" id="path2732"/><path d="m 1118.4,1612.8 584.4,84" style="fill:none;stroke:#000;stroke-width:20;stroke-linecap:round;stroke-linejoin:round;stroke-miterlimit:10;stroke-dasharray:none;stroke-opacity:1" id="path2734"/><path d="m 1452,948 414,412.8" style="fill:none;stroke:#000;stroke-width:20;stroke-linecap:round;stroke-linejoin:round;stroke-miterlimit:10;stroke-dasharray:none;stroke-opacity:1" id="path2736"/><path d="m 1702.8,1696.8 163.2,-336" style="fill:none;stroke:#000;stroke-width:20;stroke-linecap:round;stroke-linejoin:round;stroke-miterlimit:10;stroke-dasharray:none;stroke-opacity:1" id="path2738"/><path d="M 1118.4,1612.8 1453.2,945.6" style="fill:none;stroke:#000;stroke-width:20;stroke-linecap:round;stroke-linejoin:round;stroke-miterlimit:10;stroke-dasharray:none;stroke-opacity:1" id="path2740"/><path d="m 121.2,783.6 h 330 v 328.8 h -330 z" style="fill:#fff;fill-opacity:1;fill-rule:evenodd;stroke:none" id="path2742"/><path d="m 121.2,783.6 h 330 v 328.8 h -330 z" style="fill:none;stroke:#000;stroke-width:7.5;stroke-linecap:round;stroke-linejoin:round;stroke-miterlimit:10;stroke-dasharray:none;stroke-opacity:1" id="path2744"/><path d="m 285.6,966 h 3.6 l 3.6,-1.2 3.6,-2.4 2.4,-2.4 2.4,-2.4 1.2,-3.6 2.4,-3.6 v -7.2 l -2.4,-3.6 -1.2,-3.6 -2.4,-1.2 -2.4,-2.4 -3.6,-1.2 -3.6,-2.4 H 282 l -3.6,2.4 -2.4,1.2 -3.6,2.4 -1.2,1.2 -2.4,3.6 -1.2,3.6 v 7.2 l 1.2,3.6 2.4,3.6 1.2,2.4 3.6,2.4 2.4,2.4 3.6,1.2 h 3.6" style="fill:#000;fill-opacity:1;fill-rule:evenodd;stroke:none" id="path2746"/><path d="m 285.6,966 h 3.6 l 3.6,-1.2 3.6,-2.4 2.4,-2.4 2.4,-2.4 1.2,-3.6 1.2,-3.6 v -7.2 l -1.2,-3.6 -1.2,-3.6 -2.4,-1.2 -2.4,-2.4 -3.6,-1.2 -3.6,-1.2 H 282 l -3.6,1.2 -2.4,1.2 -3.6,2.4 -1.2,1.2 -2.4,3.6 -1.2,3.6 v 7.2 l 1.2,3.6 2.4,3.6 1.2,2.4 3.6,2.4 2.4,2.4 3.6,1.2 z" style="fill:none;stroke:#000;stroke-width:5;stroke-linecap:round;stroke-linejoin:round;stroke-miterlimit:10;stroke-dasharray:none;stroke-opacity:1" id="path2748"/><path d="m 285.6,966 h 3.6 l 3.6,-1.2 3.6,-2.4 2.4,-2.4 2.4,-2.4 1.2,-3.6 1.2,-3.6 v -7.2 l -1.2,-3.6 -1.2,-3.6 -2.4,-1.2 -2.4,-2.4 -3.6,-1.2 -3.6,-1.2 H 282 l -3.6,1.2 -2.4,1.2 -3.6,2.4 -1.2,1.2 -2.4,3.6 -1.2,3.6 v 7.2 l 1.2,3.6 2.4,3.6 1.2,2.4 3.6,2.4 2.4,2.4 3.6,1.2 z" style="fill:none;stroke:#000;stroke-width:5;stroke-linecap:round;stroke-linejoin:round;stroke-miterlimit:10;stroke-dasharray:none;stroke-opacity:1" id="path2750"/><path d="m 436.8,922.8 43.2,22.8 -43.2,21.6 v -44.4" style="fill:#000;fill-opacity:1;fill-rule:evenodd;stroke:none" id="path2752"/><path d="m 103.2,922.8 44.4,22.8 -44.4,21.6 v -44.4" style="fill:#000;fill-opacity:1;fill-rule:evenodd;stroke:none" id="path2754"/><path d="m 286.8,1137.6 -20.4,-44.4 h 43.2 l -22.8,44.4" style="fill:#000;fill-opacity:1;fill-rule:evenodd;stroke:none" id="path2756"/><path d="m 288,804 -21.6,-43.2 h 43.2 L 288,804" style="fill:#000;fill-opacity:1;fill-rule:evenodd;stroke:none" id="path2758"/><path d="m 2638.8,493.2 h 363.6" style="fill:none;stroke:silver;stroke-width:7.5;stroke-linecap:round;stroke-linejoin:round;stroke-miterlimit:10;stroke-dasharray:none;stroke-opacity:1" id="path2760"/><path d="M 2820,1333.2 V 969.6" style="fill:none;stroke:silver;stroke-width:7.5;stroke-linecap:round;stroke-linejoin:round;stroke-miterlimit:10;stroke-dasharray:none;stroke-opacity:1" id="path2762"/><path d="m 2640,130.8 h 363.6 V 854.4 H 2640 Z" style="fill:none;stroke:silver;stroke-width:7.5;stroke-linecap:round;stroke-linejoin:round;stroke-miterlimit:10;stroke-dasharray:none;stroke-opacity:1" id="path2764"/><path d="M 2463.6,966 H 3180 v 363.6 h -716.4 z" style="fill:none;stroke:silver;stroke-width:7.5;stroke-linecap:round;stroke-linejoin:round;stroke-miterlimit:10;stroke-dasharray:none;stroke-opacity:1" id="path2766"/><path d="m 2640,1448.4 h 360 V 1812 h -360 z" style="fill:none;stroke:silver;stroke-width:7.5;stroke-linecap:round;stroke-linejoin:round;stroke-miterlimit:10;stroke-dasharray:none;stroke-opacity:1" id="path2768"/><path d="m 2820,1628.4 v -180" style="fill:none;stroke:silver;stroke-width:15;stroke-linecap:round;stroke-linejoin:round;stroke-miterlimit:10;stroke-dasharray:none;stroke-opacity:1" id="path2770"/><path d="M 2619.6,1154.4 H 2820" style="fill:none;stroke:silver;stroke-width:15;stroke-linecap:round;stroke-linejoin:round;stroke-miterlimit:10;stroke-dasharray:none;stroke-opacity:1" id="path2772"/><path d="m 2817.6,1634.4 h 180" style="fill:none;stroke:silver;stroke-width:15;stroke-linecap:round;stroke-linejoin:round;stroke-miterlimit:10;stroke-dasharray:none;stroke-opacity:1" id="path2774"/><path d="m 2637.6,1634.4 h 180" style="fill:none;stroke:silver;stroke-width:15;stroke-linecap:round;stroke-linejoin:round;stroke-miterlimit:10;stroke-dasharray:none;stroke-opacity:1" id="path2776"/><path d="m 2818.8,1814.4 v -180" style="fill:none;stroke:silver;stroke-width:15;stroke-linecap:round;stroke-linejoin:round;stroke-miterlimit:10;stroke-dasharray:none;stroke-opacity:1" id="path2778"/><path d="m 2979.6,1611.6 48,25.2 -48,22.8 v -48" style="fill:silver;fill-opacity:1;fill-rule:evenodd;stroke:none" id="path2780"/><path d="m 2620.8,1611.6 46.8,25.2 -46.8,22.8 v -48" style="fill:silver;fill-opacity:1;fill-rule:evenodd;stroke:none" id="path2782"/><path d="m 2820,1839.6 -24,-48 h 48 l -24,48" style="fill:silver;fill-opacity:1;fill-rule:evenodd;stroke:none" id="path2784"/><path d="m 2820,1480.8 -24,-48 h 48 l -24,48" style="fill:silver;fill-opacity:1;fill-rule:evenodd;stroke:none" id="path2786"/><path d="m 2817.6,496.8 178.8,178.8" style="fill:none;stroke:silver;stroke-width:15;stroke-linecap:round;stroke-linejoin:round;stroke-miterlimit:10;stroke-dasharray:none;stroke-opacity:1" id="path2788"/><path d="m 2637.6,675.6 180,-178.8" style="fill:none;stroke:silver;stroke-width:15;stroke-linecap:round;stroke-linejoin:round;stroke-miterlimit:10;stroke-dasharray:none;stroke-opacity:1" id="path2790"/><path d="m 2637.6,316.8 180,180" style="fill:none;stroke:silver;stroke-width:15;stroke-linecap:round;stroke-linejoin:round;stroke-miterlimit:10;stroke-dasharray:none;stroke-opacity:1" id="path2792"/><path d="m 2817.6,496.8 178.8,-180" style="fill:none;stroke:silver;stroke-width:15;stroke-linecap:round;stroke-linejoin:round;stroke-miterlimit:10;stroke-dasharray:none;stroke-opacity:1" id="path2794"/><path d="M 2817.6,675.6 V 496.8" style="fill:none;stroke:silver;stroke-width:15;stroke-linecap:round;stroke-linejoin:round;stroke-miterlimit:10;stroke-dasharray:none;stroke-opacity:1" id="path2796"/><path d="m 2817.6,646.8 v -336" style="fill:none;stroke:silver;stroke-width:15;stroke-linecap:round;stroke-linejoin:round;stroke-miterlimit:10;stroke-dasharray:none;stroke-opacity:1" id="path2798"/><path d="m 2979.6,294 46.8,25.2 -46.8,22.8 v -48" style="fill:silver;fill-opacity:1;fill-rule:evenodd;stroke:none" id="path2800"/><path d="m 2620.8,294 46.8,25.2 -46.8,22.8 v -48" style="fill:silver;fill-opacity:1;fill-rule:evenodd;stroke:none" id="path2802"/><path d="M 2818.8,162 2796,114 h 46.8 l -24,48" style="fill:silver;fill-opacity:1;fill-rule:evenodd;stroke:none" id="path2804"/><path d="m 2979.6,652.8 46.8,25.2 -46.8,22.8 v -48" style="fill:silver;fill-opacity:1;fill-rule:evenodd;stroke:none" id="path2806"/><path d="m 2620.8,652.8 46.8,25.2 -46.8,22.8 v -48" style="fill:silver;fill-opacity:1;fill-rule:evenodd;stroke:none" id="path2808"/><path d="m 2818.8,880.8 -22.8,-48 h 46.8 l -24,48" style="fill:silver;fill-opacity:1;fill-rule:evenodd;stroke:none" id="path2810"/><path d="m 2817.6,696 4.8,-1.2 3.6,-1.2 2.4,-1.2 3.6,-2.4 2.4,-3.6 1.2,-2.4 1.2,-4.8 2.4,-3.6 -2.4,-3.6 -1.2,-3.6 -1.2,-3.6 -2.4,-3.6 -3.6,-2.4 -2.4,-1.2 -3.6,-1.2 -4.8,-2.4 -3.6,2.4 -3.6,1.2 -3.6,1.2 -3.6,2.4 -2.4,3.6 -1.2,3.6 -1.2,3.6 v 7.2 l 1.2,4.8 1.2,2.4 2.4,3.6 3.6,2.4 3.6,1.2 3.6,1.2 3.6,1.2" style="fill:silver;fill-opacity:1;fill-rule:evenodd;stroke:none" id="path2812"/><path d="m 2817.6,696 4.8,-1.2 3.6,-1.2 2.4,-1.2 3.6,-2.4 2.4,-3.6 1.2,-2.4 1.2,-4.8 2.4,-3.6 -2.4,-3.6 -1.2,-3.6 -1.2,-3.6 -2.4,-3.6 -3.6,-2.4 -2.4,-1.2 -3.6,-1.2 -4.8,-2.4 -3.6,2.4 -3.6,1.2 -3.6,1.2 -3.6,2.4 -2.4,3.6 -1.2,3.6 -1.2,3.6 v 7.2 l 1.2,4.8 1.2,2.4 2.4,3.6 3.6,2.4 3.6,1.2 3.6,1.2 3.6,1.2" style="fill:silver;fill-opacity:1;fill-rule:evenodd;stroke:none" id="path2814"/><path d="m 2817.6,696 4.8,-1.2 3.6,-1.2 2.4,-1.2 3.6,-2.4 2.4,-3.6 1.2,-2.4 1.2,-4.8 2.4,-3.6 -2.4,-3.6 -1.2,-3.6 -1.2,-3.6 -2.4,-3.6 -3.6,-2.4 -2.4,-1.2 -3.6,-1.2 -4.8,-2.4 -3.6,2.4 -3.6,1.2 -3.6,1.2 -3.6,2.4 -2.4,3.6 -1.2,3.6 -1.2,3.6 v 7.2 l 1.2,4.8 1.2,2.4 2.4,3.6 3.6,2.4 3.6,1.2 3.6,1.2 3.6,1.2" style="fill:silver;fill-opacity:1;fill-rule:evenodd;stroke:none" id="path2816"/><path d="m 2817.6,1155.6 180,178.8" style="fill:none;stroke:silver;stroke-width:15;stroke-linecap:round;stroke-linejoin:round;stroke-miterlimit:10;stroke-dasharray:none;stroke-opacity:1" id="path2818"/><path d="m 2817.6,1155.6 180,-180" style="fill:none;stroke:silver;stroke-width:15;stroke-linecap:round;stroke-linejoin:round;stroke-miterlimit:10;stroke-dasharray:none;stroke-opacity:1" id="path2820"/><path d="m 2637.6,1334.4 180,-178.8" style="fill:none;stroke:silver;stroke-width:15;stroke-linecap:round;stroke-linejoin:round;stroke-miterlimit:10;stroke-dasharray:none;stroke-opacity:1" id="path2822"/><path d="m 2637.6,975.6 180,180" style="fill:none;stroke:silver;stroke-width:15;stroke-linecap:round;stroke-linejoin:round;stroke-miterlimit:10;stroke-dasharray:none;stroke-opacity:1" id="path2824"/><path d="m 2817.6,1154.4 h 180" style="fill:none;stroke:silver;stroke-width:15;stroke-linecap:round;stroke-linejoin:round;stroke-miterlimit:10;stroke-dasharray:none;stroke-opacity:1" id="path2826"/><path d="m 2800.8,1132.8 46.8,24 -46.8,22.8 v -46.8" style="fill:silver;fill-opacity:1;fill-rule:evenodd;stroke:none" id="path2828"/><path d="m 2440.8,1132.8 48,24 -48,22.8 v -46.8" style="fill:silver;fill-opacity:1;fill-rule:evenodd;stroke:none" id="path2830"/><path d="m 2640,1359.6 -24,-48 h 48 l -24,48" style="fill:silver;fill-opacity:1;fill-rule:evenodd;stroke:none" id="path2832"/><path d="m 2640,1000.8 -24,-48 h 48 l -24,48" style="fill:silver;fill-opacity:1;fill-rule:evenodd;stroke:none" id="path2834"/><path d="m 2997.6,1359.6 -22.8,-48 h 48 l -25.2,48" style="fill:silver;fill-opacity:1;fill-rule:evenodd;stroke:none" id="path2836"/><path d="m 2997.6,1000.8 -22.8,-48 h 48 l -25.2,48" style="fill:silver;fill-opacity:1;fill-rule:evenodd;stroke:none" id="path2838"/><path d="m 3159.6,1129.2 46.8,24 -46.8,24 v -48" style="fill:silver;fill-opacity:1;fill-rule:evenodd;stroke:none" id="path2840"/><path d="m 3001.2,1174.8 3.6,-1.2 3.6,-1.2 3.6,-1.2 2.4,-2.4 2.4,-2.4 2.4,-3.6 2.4,-3.6 v -8.4 l -2.4,-3.6 -2.4,-2.4 -2.4,-3.6 -2.4,-2.4 -3.6,-1.2 -3.6,-1.2 -3.6,-2.4 -3.6,2.4 -3.6,1.2 -3.6,1.2 -3.6,2.4 -2.4,3.6 -1.2,2.4 -1.2,3.6 v 8.4 l 1.2,3.6 1.2,3.6 2.4,2.4 3.6,2.4 3.6,1.2 3.6,1.2 3.6,1.2" style="fill:silver;fill-opacity:1;fill-rule:evenodd;stroke:none" id="path2842"/><path d="m 3001.2,1174.8 3.6,-1.2 3.6,-1.2 3.6,-1.2 2.4,-2.4 2.4,-2.4 2.4,-3.6 2.4,-3.6 v -8.4 l -2.4,-3.6 -2.4,-2.4 -2.4,-3.6 -2.4,-2.4 -3.6,-1.2 -3.6,-1.2 -3.6,-2.4 -3.6,2.4 -3.6,1.2 -3.6,1.2 -3.6,2.4 -2.4,3.6 -1.2,2.4 -1.2,3.6 v 8.4 l 1.2,3.6 1.2,3.6 2.4,2.4 3.6,2.4 3.6,1.2 3.6,1.2 3.6,1.2" style="fill:silver;fill-opacity:1;fill-rule:evenodd;stroke:none" id="path2844"/><path d="m 3001.2,1174.8 3.6,-1.2 3.6,-1.2 3.6,-1.2 2.4,-2.4 2.4,-2.4 2.4,-3.6 2.4,-3.6 v -8.4 l -2.4,-3.6 -2.4,-2.4 -2.4,-3.6 -2.4,-2.4 -3.6,-1.2 -3.6,-1.2 -3.6,-2.4 -3.6,2.4 -3.6,1.2 -3.6,1.2 -3.6,2.4 -2.4,3.6 -1.2,2.4 -1.2,3.6 v 8.4 l 1.2,3.6 1.2,3.6 2.4,2.4 3.6,2.4 3.6,1.2 3.6,1.2 3.6,1.2" style="fill:silver;fill-opacity:1;fill-rule:evenodd;stroke:none" id="path2846"/><path d="M 2818.8,520.8 2796,474 h 46.8 l -24,46.8" style="fill:silver;fill-opacity:1;fill-rule:evenodd;stroke:none" id="path2848"/><path d="m 2814,339.6 3.6,-1.2 3.6,-1.2 3.6,-1.2 2.4,-2.4 2.4,-2.4 2.4,-3.6 2.4,-3.6 v -8.4 l -2.4,-3.6 -2.4,-2.4 -2.4,-3.6 -2.4,-2.4 -3.6,-1.2 -3.6,-1.2 -3.6,-2.4 -3.6,2.4 -3.6,1.2 -3.6,1.2 -3.6,2.4 -2.4,3.6 -1.2,2.4 -1.2,3.6 v 8.4 l 1.2,3.6 1.2,3.6 2.4,2.4 3.6,2.4 3.6,1.2 3.6,1.2 3.6,1.2" style="fill:silver;fill-opacity:1;fill-rule:evenodd;stroke:none" id="path2850"/><path d="m 2641.2,1171.2 3.6,-1.2 3.6,-1.2 3.6,-1.2 2.4,-2.4 2.4,-2.4 2.4,-3.6 2.4,-3.6 v -8.4 l -2.4,-3.6 -2.4,-2.4 -2.4,-3.6 -2.4,-2.4 -3.6,-1.2 -3.6,-1.2 -3.6,-2.4 -3.6,2.4 -3.6,1.2 -3.6,1.2 -3.6,2.4 -2.4,3.6 -1.2,2.4 -1.2,3.6 v 8.4 l 1.2,3.6 1.2,3.6 2.4,2.4 3.6,2.4 3.6,1.2 3.6,1.2 3.6,1.2" style="fill:silver;fill-opacity:1;fill-rule:evenodd;stroke:none" id="path2852"/><path d="m 2817.6,1653.6 3.6,-1.2 3.6,-1.2 3.6,-1.2 2.4,-2.4 2.4,-2.4 2.4,-3.6 2.4,-3.6 v -8.4 l -2.4,-3.6 -2.4,-2.4 -2.4,-3.6 -2.4,-2.4 -3.6,-1.2 -3.6,-1.2 -3.6,-2.4 -3.6,2.4 -3.6,1.2 -3.6,1.2 -3.6,2.4 -2.4,3.6 -1.2,2.4 -1.2,3.6 v 8.4 l 1.2,3.6 1.2,3.6 2.4,2.4 3.6,2.4 3.6,1.2 3.6,1.2 3.6,1.2" style="fill:silver;fill-opacity:1;fill-rule:evenodd;stroke:none" id="path2854"/><path d="m 3174.77,1155.68 c -108.11,62.17 -241.2,62.21 -349.35,0.1" style="fill:none;stroke:silver;stroke-width:15;stroke-linecap:round;stroke-linejoin:round;stroke-miterlimit:10;stroke-dasharray:none;stroke-opacity:1" id="path2856"/><path d="m 2814.77,1155.68 c -108.11,62.17 -241.2,62.21 -349.35,0.1" style="fill:none;stroke:silver;stroke-width:15;stroke-linecap:round;stroke-linejoin:round;stroke-miterlimit:10;stroke-dasharray:none;stroke-opacity:1" id="path2858"/><path d="m 2818.21,854.001 c -62.08,-108.548 -61.49,-241.904 1.56,-349.894" style="fill:none;stroke:silver;stroke-width:15;stroke-linecap:round;stroke-linejoin:round;stroke-miterlimit:10;stroke-dasharray:none;stroke-opacity:1" id="path2860"/><path d="m 2813.41,489.201 c -62.08,-108.548 -61.48,-241.904 1.56,-349.894" style="fill:none;stroke:silver;stroke-width:15;stroke-linecap:round;stroke-linejoin:round;stroke-miterlimit:10;stroke-dasharray:none;stroke-opacity:1" id="path2862"/></g></g></g></svg>