<svg xmlns="http://www.w3.org/2000/svg" xmlns:svg="http://www.w3.org/2000/svg" id="svg1492" width="419.424" height="215.904" version="1.1" viewBox="0 0 419.424 215.904" xml:space="preserve"><metadata id="metadata1498"/><g id="g1500" transform="matrix(1.3333333,0,0,-1.3333333,-218.592,386.496)"><g id="g1502" transform="translate(258.9579,187.86549)"><path d="m 0,0 53.831,93.177 h 107.11 L 107.11,0 Z" style="fill:#a50021;fill-opacity:.19999701;fill-rule:evenodd;stroke:none" id="path1504"/></g><g id="g1506" transform="translate(258.72121,187.2346)"><path d="M 0,0 H 108" style="fill:none;stroke:#a50021;stroke-width:2.5;stroke-linecap:butt;stroke-linejoin:round;stroke-miterlimit:10;stroke-dasharray:none;stroke-opacity:1" id="path1508"/></g><g id="g1510" transform="translate(366.72121,187.2346)"><path d="M 0,0 54,93.531" style="fill:none;stroke:#a50021;stroke-width:2.5;stroke-linecap:butt;stroke-linejoin:round;stroke-miterlimit:10;stroke-dasharray:none;stroke-opacity:1" id="path1512"/></g><g id="g1514" transform="translate(258.72121,187.2346)"><path d="M 0,0 54,93.531" style="fill:none;stroke:#a50021;stroke-width:2.5;stroke-linecap:butt;stroke-linejoin:round;stroke-miterlimit:10;stroke-dasharray:none;stroke-opacity:1" id="path1516"/></g><g id="g1518" transform="translate(312.72121,280.2547)"><path d="M 0,0 H 108" style="fill:none;stroke:#a50021;stroke-width:2.5;stroke-linecap:butt;stroke-linejoin:round;stroke-miterlimit:10;stroke-dasharray:none;stroke-opacity:1" id="path1520"/></g><g id="g1522" transform="translate(264.72121,197.4194)"><path d="M 0,0 H 18" style="fill:none;stroke:#a50021;stroke-width:.75;stroke-linecap:butt;stroke-linejoin:round;stroke-miterlimit:10;stroke-dasharray:none;stroke-opacity:1" id="path1524"/></g><g id="g1526" transform="translate(270.72121,187.23441)"><path d="M 0,0 9,15.588" style="fill:none;stroke:#a50021;stroke-width:.75;stroke-linecap:butt;stroke-linejoin:round;stroke-miterlimit:10;stroke-dasharray:none;stroke-opacity:1" id="path1528"/></g><g id="g1530" transform="translate(282.72121,187.2346)"><path d="M 0,0 3.6,6.235" style="fill:none;stroke:#a50021;stroke-width:.75;stroke-linecap:butt;stroke-linejoin:round;stroke-miterlimit:10;stroke-dasharray:none;stroke-opacity:1" id="path1532"/></g><g id="g1534" transform="translate(270.72121,207.60429)"><path d="M 0,0 H 7.2" style="fill:none;stroke:#a50021;stroke-width:.75;stroke-linecap:butt;stroke-linejoin:round;stroke-miterlimit:10;stroke-dasharray:none;stroke-opacity:1" id="path1536"/></g><g id="g1538" transform="translate(414.72121,270.01939)"><path d="M 0,0 H -18" style="fill:none;stroke:#a50021;stroke-width:.75;stroke-linecap:butt;stroke-linejoin:round;stroke-miterlimit:10;stroke-dasharray:none;stroke-opacity:1" id="path1540"/></g><g id="g1542" transform="translate(408.72121,280.2045)"><path d="M 0,0 -9,-15.588" style="fill:none;stroke:#a50021;stroke-width:.75;stroke-linecap:butt;stroke-linejoin:round;stroke-miterlimit:10;stroke-dasharray:none;stroke-opacity:1" id="path1544"/></g><g id="g1546" transform="translate(396.72121,280.2043)"><path d="M 0,0 -3.6,-6.235" style="fill:none;stroke:#a50021;stroke-width:.75;stroke-linecap:butt;stroke-linejoin:round;stroke-miterlimit:10;stroke-dasharray:none;stroke-opacity:1" id="path1548"/></g><g id="g1550" transform="translate(408.72121,259.83459)"><path d="M 0,0 H -7.2" style="fill:none;stroke:#a50021;stroke-width:.75;stroke-linecap:butt;stroke-linejoin:round;stroke-miterlimit:10;stroke-dasharray:none;stroke-opacity:1" id="path1552"/></g><text transform="matrix(1,0,0,-1,312.6158,227.9146)" style="font-style:italic;font-variant:normal;font-weight:700;font-stretch:normal;font-size:20.04000092px;font-family:'Times New Roman';-inkscape-font-specification:TimesNewRomanPS-BoldItalicMT;writing-mode:lr-tb;fill:#a50021;fill-opacity:1;fill-rule:nonzero;stroke:none" id="text1556"><tspan id="tspan1554" x="0 10.08 20.16 27.956 33.467 38.156" y="0">part 0</tspan></text><text transform="matrix(1,0,0,-1,439.4749,275.1744)" style="font-style:italic;font-variant:normal;font-weight:400;font-stretch:normal;font-size:12px;font-family:'Times New Roman';-inkscape-font-specification:TimesNewRomanPS-ItalicMT;writing-mode:lr-tb;fill:#a50021;fill-opacity:1;fill-rule:nonzero;stroke:none" id="text1560"><tspan id="tspan1558" x="0 3.84 9.84 12.84 18.84" y="0">(9,9)</tspan></text><g id="g1562" transform="translate(437.51109,279.6512)"><path d="M 0,0 -25.421,-4.406" style="fill:none;stroke:#a50021;stroke-width:1;stroke-linecap:butt;stroke-linejoin:round;stroke-miterlimit:10;stroke-dasharray:none;stroke-opacity:1" id="path1564"/></g><g id="g1566" transform="translate(413.5876,272.46069)"><path d="m 0,0 -4.454,2.273 3.429,3.639 z" style="fill:#a50021;fill-opacity:1;fill-rule:evenodd;stroke:none" id="path1568"/></g><text transform="matrix(1,0,0,-1,296.7354,193.6045)" style="font-style:italic;font-variant:normal;font-weight:400;font-stretch:normal;font-size:12px;font-family:'Times New Roman';-inkscape-font-specification:TimesNewRomanPS-ItalicMT;writing-mode:lr-tb;fill:#a50021;fill-opacity:1;fill-rule:nonzero;stroke:none" id="text1572"><tspan id="tspan1570" x="0 3.84 9.84 12.84 18.84" y="0">(1,1)</tspan></text><g id="g1574" transform="translate(295.3262,197.76019)"><path d="M 0,0 -25.421,-4.406" style="fill:none;stroke:#a50021;stroke-width:1;stroke-linecap:butt;stroke-linejoin:round;stroke-miterlimit:10;stroke-dasharray:none;stroke-opacity:1" id="path1576"/></g><g id="g1578" transform="translate(271.40269,190.56979)"><path d="m 0,0 -4.454,2.273 3.429,3.639 z" style="fill:#a50021;fill-opacity:1;fill-rule:evenodd;stroke:none" id="path1580"/></g></g></svg>