<svg xmlns="http://www.w3.org/2000/svg" xmlns:svg="http://www.w3.org/2000/svg" id="svg3526" width="414.08" height="230.08" version="1.1" viewBox="0 0 414.08 230.08" xml:space="preserve"><metadata id="metadata3532"/><g id="g3534" transform="matrix(1.3333333,0,0,-1.3333333,-13.76,245.11999)"><g id="g3536" transform="scale(0.1)"><g id="g3538"><path d="M 450,1112.4 1119.6,784.8" style="fill:none;stroke:#000;stroke-width:1;stroke-linecap:round;stroke-linejoin:round;stroke-miterlimit:10;stroke-dasharray:10,20;stroke-dashoffset:0;stroke-opacity:1" id="path3540"/><path d="M 118.8,1112.4 968.4,777.6" style="fill:none;stroke:#000;stroke-width:1;stroke-linecap:round;stroke-linejoin:round;stroke-miterlimit:10;stroke-dasharray:10,20;stroke-dashoffset:0;stroke-opacity:1" id="path3542"/><path d="m 442.8,792 684,-180" style="fill:none;stroke:#000;stroke-width:1;stroke-linecap:round;stroke-linejoin:round;stroke-miterlimit:10;stroke-dasharray:10,20;stroke-dashoffset:0;stroke-opacity:1" id="path3544"/><path d="M 118.8,784.8 957.6,615.6" style="fill:none;stroke:#000;stroke-width:1;stroke-linecap:round;stroke-linejoin:round;stroke-miterlimit:10;stroke-dasharray:10,20;stroke-dashoffset:0;stroke-opacity:1" id="path3546"/><path d="m 2641.2,492 h 363.6" style="fill:none;stroke:#000;stroke-width:1;stroke-linecap:round;stroke-linejoin:round;stroke-miterlimit:10;stroke-dasharray:none;stroke-opacity:1" id="path3548"/><path d="M 2822.4,1332 V 968.4" style="fill:none;stroke:#000;stroke-width:1;stroke-linecap:round;stroke-linejoin:round;stroke-miterlimit:10;stroke-dasharray:none;stroke-opacity:1" id="path3550"/><path d="M 2642.4,129.6 H 3006 v 723.6 h -363.6 z" style="fill:none;stroke:#000;stroke-width:1;stroke-linecap:round;stroke-linejoin:round;stroke-miterlimit:10;stroke-dasharray:none;stroke-opacity:1" id="path3552"/><path d="m 2466,964.8 h 716.4 v 363.6 H 2466 Z" style="fill:none;stroke:#000;stroke-width:1;stroke-linecap:round;stroke-linejoin:round;stroke-miterlimit:10;stroke-dasharray:none;stroke-opacity:1" id="path3554"/><path d="m 2642.4,1447.2 h 360 v 363.6 h -360 z" style="fill:none;stroke:#000;stroke-width:1;stroke-linecap:round;stroke-linejoin:round;stroke-miterlimit:10;stroke-dasharray:none;stroke-opacity:1" id="path3556"/><path d="m 2822.4,134.4 -4.8,10.8 -6,9.6 -4.8,10.8 -3.6,10.8 -4.8,10.8 -3.6,10.8 -3.6,10.8 -3.6,12 -2.4,10.8 -2.4,10.8 -1.2,12 -2.4,12 -1.2,10.8 -1.2,12 V 336 l 1.2,10.8 1.2,12 1.2,10.8 2.4,12 2.4,10.8 2.4,10.8 3.6,12 3.6,10.8 3.6,10.8 3.6,10.8 4.8,10.8 4.8,10.8 4.8,9.6 6,10.8" style="fill:none;stroke:#a0a0a4;stroke-width:15;stroke-linecap:round;stroke-linejoin:round;stroke-miterlimit:10;stroke-dasharray:none;stroke-opacity:1" id="path3558"/><path d="m 2822.4,1627.2 v -180" style="fill:none;stroke:#a0a0a4;stroke-width:15;stroke-linecap:round;stroke-linejoin:round;stroke-miterlimit:10;stroke-dasharray:none;stroke-opacity:1" id="path3560"/><path d="m 2466,1150.8 10.8,6 10.8,4.8 9.6,4.8 10.8,4.8 10.8,3.6 10.8,3.6 12,3.6 10.8,3.6 10.8,2.4 12,2.4 10.8,2.4 12,1.2 10.8,1.2 12,1.2 h 12 l 10.8,1.2 12,-1.2 h 12 l 12,-1.2 10.8,-1.2 12,-1.2 10.8,-2.4 12,-2.4 10.8,-2.4 12,-3.6 10.8,-3.6 10.8,-3.6 10.8,-3.6 10.8,-4.8 10.8,-4.8 10.8,-6 9.6,-4.8" style="fill:none;stroke:#a0a0a4;stroke-width:15;stroke-linecap:round;stroke-linejoin:round;stroke-miterlimit:10;stroke-dasharray:none;stroke-opacity:1" id="path3562"/><path d="m 2622,1153.2 h 200.4" style="fill:none;stroke:#a0a0a4;stroke-width:15;stroke-linecap:round;stroke-linejoin:round;stroke-miterlimit:10;stroke-dasharray:none;stroke-opacity:1" id="path3564"/><path d="M 784.8,613.2 H 1452" style="fill:none;stroke:#000;stroke-width:5;stroke-linecap:round;stroke-linejoin:round;stroke-miterlimit:10;stroke-dasharray:none;stroke-opacity:1" id="path3566"/><path d="M 784.8,781.2 H 1452" style="fill:none;stroke:#000;stroke-width:5;stroke-linecap:round;stroke-linejoin:round;stroke-miterlimit:10;stroke-dasharray:none;stroke-opacity:1" id="path3568"/><path d="M 784.8,446.4 H 1452" style="fill:none;stroke:#000;stroke-width:5;stroke-linecap:round;stroke-linejoin:round;stroke-miterlimit:10;stroke-dasharray:none;stroke-opacity:1" id="path3570"/><path d="m 952.8,946.8 v -666" style="fill:none;stroke:#000;stroke-width:5;stroke-linecap:round;stroke-linejoin:round;stroke-miterlimit:10;stroke-dasharray:none;stroke-opacity:1" id="path3572"/><path d="m 1118.4,946.8 v -666" style="fill:none;stroke:#000;stroke-width:5;stroke-linecap:round;stroke-linejoin:round;stroke-miterlimit:10;stroke-dasharray:none;stroke-opacity:1" id="path3574"/><path d="m 1286.4,946.8 v -666" style="fill:none;stroke:#000;stroke-width:5;stroke-linecap:round;stroke-linejoin:round;stroke-miterlimit:10;stroke-dasharray:none;stroke-opacity:1" id="path3576"/><path d="m 786,946.8 v -666" style="fill:none;stroke:#000;stroke-width:20;stroke-linecap:round;stroke-linejoin:round;stroke-miterlimit:10;stroke-dasharray:none;stroke-opacity:1" id="path3578"/><path d="m 1453.2,946.8 v -666" style="fill:none;stroke:#000;stroke-width:20;stroke-linecap:round;stroke-linejoin:round;stroke-miterlimit:10;stroke-dasharray:none;stroke-opacity:1" id="path3580"/><path d="M 784.8,945.6 H 1452" style="fill:none;stroke:#000;stroke-width:20;stroke-linecap:round;stroke-linejoin:round;stroke-miterlimit:10;stroke-dasharray:none;stroke-opacity:1" id="path3582"/><path d="m 784.8,279.6 h 668.4" style="fill:none;stroke:#000;stroke-width:20;stroke-linecap:round;stroke-linejoin:round;stroke-miterlimit:10;stroke-dasharray:none;stroke-opacity:1" id="path3584"/><path d="m 1453.2,613.2 666,-164.4" style="fill:none;stroke:#000;stroke-width:5;stroke-linecap:round;stroke-linejoin:round;stroke-miterlimit:10;stroke-dasharray:none;stroke-opacity:1" id="path3586"/><path d="m 1453.2,781.2 666,-249.6" style="fill:none;stroke:#000;stroke-width:5;stroke-linecap:round;stroke-linejoin:round;stroke-miterlimit:10;stroke-dasharray:none;stroke-opacity:1" id="path3588"/><path d="m 1453.2,446.4 666,-81.6" style="fill:none;stroke:#000;stroke-width:5;stroke-linecap:round;stroke-linejoin:round;stroke-miterlimit:10;stroke-dasharray:none;stroke-opacity:1" id="path3590"/><path d="M 1617.6,865.2 V 280.8" style="fill:none;stroke:#000;stroke-width:5;stroke-linecap:round;stroke-linejoin:round;stroke-miterlimit:10;stroke-dasharray:none;stroke-opacity:1" id="path3592"/><path d="M 1784.4,782.4 V 280.8" style="fill:none;stroke:#000;stroke-width:5;stroke-linecap:round;stroke-linejoin:round;stroke-miterlimit:10;stroke-dasharray:none;stroke-opacity:1" id="path3594"/><path d="M 1951.2,698.4 V 280.8" style="fill:none;stroke:#000;stroke-width:5;stroke-linecap:round;stroke-linejoin:round;stroke-miterlimit:10;stroke-dasharray:none;stroke-opacity:1" id="path3596"/><path d="m 1453.2,945.6 v -666" style="fill:none;stroke:#000;stroke-width:20;stroke-linecap:round;stroke-linejoin:round;stroke-miterlimit:10;stroke-dasharray:none;stroke-opacity:1" id="path3598"/><path d="M 2119.2,614.4 V 279.6" style="fill:none;stroke:#000;stroke-width:20;stroke-linecap:round;stroke-linejoin:round;stroke-miterlimit:10;stroke-dasharray:none;stroke-opacity:1" id="path3600"/><path d="m 1453.2,945.6 666,-331.2" style="fill:none;stroke:#000;stroke-width:20;stroke-linecap:round;stroke-linejoin:round;stroke-miterlimit:10;stroke-dasharray:none;stroke-opacity:1" id="path3602"/><path d="m 1453.2,279.6 h 666" style="fill:none;stroke:#000;stroke-width:20;stroke-linecap:round;stroke-linejoin:round;stroke-miterlimit:10;stroke-dasharray:none;stroke-opacity:1" id="path3604"/><path d="m 784.8,1280.4 h 500.4" style="fill:none;stroke:#000;stroke-width:5;stroke-linecap:round;stroke-linejoin:round;stroke-miterlimit:10;stroke-dasharray:none;stroke-opacity:1" id="path3606"/><path d="m 784.8,1447.2 h 416.4" style="fill:none;stroke:#000;stroke-width:5;stroke-linecap:round;stroke-linejoin:round;stroke-miterlimit:10;stroke-dasharray:none;stroke-opacity:1" id="path3608"/><path d="M 784.8,1113.6 H 1368" style="fill:none;stroke:#000;stroke-width:5;stroke-linecap:round;stroke-linejoin:round;stroke-miterlimit:10;stroke-dasharray:none;stroke-opacity:1" id="path3610"/><path d="m 868.8,1612.8 82.8,-666" style="fill:none;stroke:#000;stroke-width:5;stroke-linecap:round;stroke-linejoin:round;stroke-miterlimit:10;stroke-dasharray:none;stroke-opacity:1" id="path3612"/><path d="M 952.8,1612.8 1118.4,945.6" style="fill:none;stroke:#000;stroke-width:5;stroke-linecap:round;stroke-linejoin:round;stroke-miterlimit:10;stroke-dasharray:none;stroke-opacity:1" id="path3614"/><path d="M 1035.6,1612.8 1285.2,945.6" style="fill:none;stroke:#000;stroke-width:5;stroke-linecap:round;stroke-linejoin:round;stroke-miterlimit:10;stroke-dasharray:none;stroke-opacity:1" id="path3616"/><path d="M 786,1612.8 V 945.6" style="fill:none;stroke:#000;stroke-width:20;stroke-linecap:round;stroke-linejoin:round;stroke-miterlimit:10;stroke-dasharray:none;stroke-opacity:1" id="path3618"/><path d="M 1118.4,1612.8 1452,946.8" style="fill:none;stroke:#000;stroke-width:20;stroke-linecap:round;stroke-linejoin:round;stroke-miterlimit:10;stroke-dasharray:none;stroke-opacity:1" id="path3620"/><path d="m 784.8,1612.8 h 333.6" style="fill:none;stroke:#000;stroke-width:20;stroke-linecap:round;stroke-linejoin:round;stroke-miterlimit:10;stroke-dasharray:none;stroke-opacity:1" id="path3622"/><path d="m 784.8,945.6 h 668.4" style="fill:none;stroke:#000;stroke-width:20;stroke-linecap:round;stroke-linejoin:round;stroke-miterlimit:10;stroke-dasharray:none;stroke-opacity:1" id="path3624"/><path d="m 1453.2,946.8 415.2,416.4" style="fill:none;stroke:#000;stroke-width:20;stroke-linecap:round;stroke-linejoin:round;stroke-miterlimit:10;stroke-dasharray:none;stroke-opacity:1" id="path3626"/><path d="m 1700.4,1195.2 462,-276" style="fill:none;stroke:#000;stroke-width:5;stroke-linecap:round;stroke-linejoin:round;stroke-miterlimit:10;stroke-dasharray:none;stroke-opacity:1" id="path3628"/><path d="m 1785.6,1279.2 387.6,-219.6" style="fill:none;stroke:#000;stroke-width:5;stroke-linecap:round;stroke-linejoin:round;stroke-miterlimit:10;stroke-dasharray:none;stroke-opacity:1" id="path3630"/><path d="M 1575.6,1089.6 2142,780" style="fill:none;stroke:#000;stroke-width:5;stroke-linecap:round;stroke-linejoin:round;stroke-miterlimit:10;stroke-dasharray:none;stroke-opacity:1" id="path3632"/><path d="M 1618.8,864 1956,1320" style="fill:none;stroke:#000;stroke-width:5;stroke-linecap:round;stroke-linejoin:round;stroke-miterlimit:10;stroke-dasharray:none;stroke-opacity:1" id="path3634"/><path d="m 1785.6,782.4 249.6,498" style="fill:none;stroke:#000;stroke-width:5;stroke-linecap:round;stroke-linejoin:round;stroke-miterlimit:10;stroke-dasharray:none;stroke-opacity:1" id="path3636"/><path d="m 1951.2,698.4 168,541.2" style="fill:none;stroke:#000;stroke-width:5;stroke-linecap:round;stroke-linejoin:round;stroke-miterlimit:10;stroke-dasharray:none;stroke-opacity:1" id="path3638"/><path d="m 2119.2,614.4 84,583.2" style="fill:none;stroke:#000;stroke-width:20;stroke-linecap:round;stroke-linejoin:round;stroke-miterlimit:10;stroke-dasharray:none;stroke-opacity:1" id="path3640"/><path d="m 1868.4,1363.2 334.8,-165.6" style="fill:none;stroke:#000;stroke-width:20;stroke-linecap:round;stroke-linejoin:round;stroke-miterlimit:10;stroke-dasharray:none;stroke-opacity:1" id="path3642"/><path d="m 1453.2,946.8 666,-332.4" style="fill:none;stroke:#000;stroke-width:20;stroke-linecap:round;stroke-linejoin:round;stroke-miterlimit:10;stroke-dasharray:none;stroke-opacity:1" id="path3644"/><path d="M 1423.2,1657.2 1694.4,1188" style="fill:none;stroke:#000;stroke-width:5;stroke-linecap:round;stroke-linejoin:round;stroke-miterlimit:10;stroke-dasharray:none;stroke-opacity:1" id="path3646"/><path d="m 1562.4,1677.6 222,-399.6" style="fill:none;stroke:#000;stroke-width:5;stroke-linecap:round;stroke-linejoin:round;stroke-miterlimit:10;stroke-dasharray:none;stroke-opacity:1" id="path3648"/><path d="m 1285.2,1636.8 296.4,-559.2" style="fill:none;stroke:#000;stroke-width:5;stroke-linecap:round;stroke-linejoin:round;stroke-miterlimit:10;stroke-dasharray:none;stroke-opacity:1" id="path3650"/><path d="M 1201.2,1448.4 1742.4,1614" style="fill:none;stroke:#000;stroke-width:5;stroke-linecap:round;stroke-linejoin:round;stroke-miterlimit:10;stroke-dasharray:none;stroke-opacity:1" id="path3652"/><path d="m 1285.2,1280.4 498,254.4" style="fill:none;stroke:#000;stroke-width:5;stroke-linecap:round;stroke-linejoin:round;stroke-miterlimit:10;stroke-dasharray:none;stroke-opacity:1" id="path3654"/><path d="m 1369.2,1114.8 453.6,336" style="fill:none;stroke:#000;stroke-width:5;stroke-linecap:round;stroke-linejoin:round;stroke-miterlimit:10;stroke-dasharray:none;stroke-opacity:1" id="path3656"/><path d="m 1118.4,1612.8 584.4,84" style="fill:none;stroke:#000;stroke-width:20;stroke-linecap:round;stroke-linejoin:round;stroke-miterlimit:10;stroke-dasharray:none;stroke-opacity:1" id="path3658"/><path d="m 1452,948 414,412.8" style="fill:none;stroke:#000;stroke-width:20;stroke-linecap:round;stroke-linejoin:round;stroke-miterlimit:10;stroke-dasharray:none;stroke-opacity:1" id="path3660"/><path d="m 1702.8,1696.8 163.2,-336" style="fill:none;stroke:#000;stroke-width:20;stroke-linecap:round;stroke-linejoin:round;stroke-miterlimit:10;stroke-dasharray:none;stroke-opacity:1" id="path3662"/><path d="M 1118.4,1612.8 1453.2,945.6" style="fill:none;stroke:#000;stroke-width:20;stroke-linecap:round;stroke-linejoin:round;stroke-miterlimit:10;stroke-dasharray:none;stroke-opacity:1" id="path3664"/><path d="m 121.2,783.6 h 330 v 328.8 h -330 z" style="fill:#fff;fill-opacity:1;fill-rule:evenodd;stroke:none" id="path3666"/><path d="m 121.2,783.6 h 330 v 328.8 h -330 z" style="fill:none;stroke:#000;stroke-width:7.5;stroke-linecap:round;stroke-linejoin:round;stroke-miterlimit:10;stroke-dasharray:none;stroke-opacity:1" id="path3668"/><path d="m 285.6,966 h 3.6 l 3.6,-1.2 3.6,-2.4 2.4,-2.4 2.4,-2.4 1.2,-3.6 2.4,-3.6 v -7.2 l -2.4,-3.6 -1.2,-3.6 -2.4,-1.2 -2.4,-2.4 -3.6,-1.2 -3.6,-2.4 H 282 l -3.6,2.4 -2.4,1.2 -3.6,2.4 -1.2,1.2 -2.4,3.6 -1.2,3.6 v 7.2 l 1.2,3.6 2.4,3.6 1.2,2.4 3.6,2.4 2.4,2.4 3.6,1.2 h 3.6" style="fill:#000;fill-opacity:1;fill-rule:evenodd;stroke:none" id="path3670"/><path d="m 285.6,966 h 3.6 l 3.6,-1.2 3.6,-2.4 2.4,-2.4 2.4,-2.4 1.2,-3.6 1.2,-3.6 v -7.2 l -1.2,-3.6 -1.2,-3.6 -2.4,-1.2 -2.4,-2.4 -3.6,-1.2 -3.6,-1.2 H 282 l -3.6,1.2 -2.4,1.2 -3.6,2.4 -1.2,1.2 -2.4,3.6 -1.2,3.6 v 7.2 l 1.2,3.6 2.4,3.6 1.2,2.4 3.6,2.4 2.4,2.4 3.6,1.2 z" style="fill:none;stroke:#000;stroke-width:5;stroke-linecap:round;stroke-linejoin:round;stroke-miterlimit:10;stroke-dasharray:none;stroke-opacity:1" id="path3672"/><path d="m 285.6,966 h 3.6 l 3.6,-1.2 3.6,-2.4 2.4,-2.4 2.4,-2.4 1.2,-3.6 1.2,-3.6 v -7.2 l -1.2,-3.6 -1.2,-3.6 -2.4,-1.2 -2.4,-2.4 -3.6,-1.2 -3.6,-1.2 H 282 l -3.6,1.2 -2.4,1.2 -3.6,2.4 -1.2,1.2 -2.4,3.6 -1.2,3.6 v 7.2 l 1.2,3.6 2.4,3.6 1.2,2.4 3.6,2.4 2.4,2.4 3.6,1.2 z" style="fill:none;stroke:#000;stroke-width:5;stroke-linecap:round;stroke-linejoin:round;stroke-miterlimit:10;stroke-dasharray:none;stroke-opacity:1" id="path3674"/><path d="m 436.8,922.8 43.2,22.8 -43.2,21.6 v -44.4" style="fill:#000;fill-opacity:1;fill-rule:evenodd;stroke:none" id="path3676"/><path d="m 103.2,922.8 44.4,22.8 -44.4,21.6 v -44.4" style="fill:#000;fill-opacity:1;fill-rule:evenodd;stroke:none" id="path3678"/><path d="m 286.8,1137.6 -20.4,-44.4 h 43.2 l -22.8,44.4" style="fill:#000;fill-opacity:1;fill-rule:evenodd;stroke:none" id="path3680"/><path d="m 288,804 -21.6,-43.2 h 43.2 L 288,804" style="fill:#000;fill-opacity:1;fill-rule:evenodd;stroke:none" id="path3682"/><path d="m 2820,1633.2 h 180" style="fill:none;stroke:#a0a0a4;stroke-width:15;stroke-linecap:round;stroke-linejoin:round;stroke-miterlimit:10;stroke-dasharray:none;stroke-opacity:1" id="path3684"/><path d="m 2640,1633.2 h 180" style="fill:none;stroke:#a0a0a4;stroke-width:15;stroke-linecap:round;stroke-linejoin:round;stroke-miterlimit:10;stroke-dasharray:none;stroke-opacity:1" id="path3686"/><path d="m 2821.2,1813.2 v -180" style="fill:none;stroke:#a0a0a4;stroke-width:15;stroke-linecap:round;stroke-linejoin:round;stroke-miterlimit:10;stroke-dasharray:none;stroke-opacity:1" id="path3688"/><path d="m 2982,1610.4 48,25.2 -48,22.8 v -48" style="fill:#000;fill-opacity:1;fill-rule:evenodd;stroke:none" id="path3690"/><path d="m 2623.2,1610.4 46.8,25.2 -46.8,22.8 v -48" style="fill:#000;fill-opacity:1;fill-rule:evenodd;stroke:none" id="path3692"/><path d="m 2822.4,1838.4 -24,-48 h 48 l -24,48" style="fill:#000;fill-opacity:1;fill-rule:evenodd;stroke:none" id="path3694"/><path d="m 2822.4,1479.6 -24,-48 h 48 l -24,48" style="fill:#000;fill-opacity:1;fill-rule:evenodd;stroke:none" id="path3696"/><path d="m 2820,495.6 178.8,178.8" style="fill:none;stroke:#a0a0a4;stroke-width:15;stroke-linecap:round;stroke-linejoin:round;stroke-miterlimit:10;stroke-dasharray:none;stroke-opacity:1" id="path3698"/><path d="M 2640,674.4 2820,495.6" style="fill:none;stroke:#a0a0a4;stroke-width:15;stroke-linecap:round;stroke-linejoin:round;stroke-miterlimit:10;stroke-dasharray:none;stroke-opacity:1" id="path3700"/><path d="m 2640,315.6 180,180" style="fill:none;stroke:#a0a0a4;stroke-width:15;stroke-linecap:round;stroke-linejoin:round;stroke-miterlimit:10;stroke-dasharray:none;stroke-opacity:1" id="path3702"/><path d="m 2820,495.6 178.8,-180" style="fill:none;stroke:#a0a0a4;stroke-width:15;stroke-linecap:round;stroke-linejoin:round;stroke-miterlimit:10;stroke-dasharray:none;stroke-opacity:1" id="path3704"/><path d="M 2820,674.4 V 495.6" style="fill:none;stroke:#a0a0a4;stroke-width:15;stroke-linecap:round;stroke-linejoin:round;stroke-miterlimit:10;stroke-dasharray:none;stroke-opacity:1" id="path3706"/><path d="m 2820,645.6 v -336" style="fill:none;stroke:#a0a0a4;stroke-width:15;stroke-linecap:round;stroke-linejoin:round;stroke-miterlimit:10;stroke-dasharray:none;stroke-opacity:1" id="path3708"/><path d="m 2822.4,496.8 -4.8,10.8 -6,9.6 -4.8,10.8 -3.6,10.8 -4.8,10.8 -3.6,10.8 -3.6,12 -3.6,10.8 -2.4,10.8 -2.4,12 -1.2,10.8 -2.4,12 -1.2,10.8 -1.2,12 v 46.8 l 1.2,12 1.2,10.8 2.4,12 1.2,10.8 2.4,12 2.4,10.8 3.6,12 3.6,10.8 3.6,10.8 4.8,10.8 3.6,10.8 4.8,10.8 6,10.8 4.8,9.6" style="fill:none;stroke:#a0a0a4;stroke-width:15;stroke-linecap:round;stroke-linejoin:round;stroke-miterlimit:10;stroke-dasharray:none;stroke-opacity:1" id="path3710"/><path d="m 2982,292.8 46.8,25.2 -46.8,22.8 v -48" style="fill:#000;fill-opacity:1;fill-rule:evenodd;stroke:none" id="path3712"/><path d="m 2623.2,292.8 46.8,25.2 -46.8,22.8 v -48" style="fill:#000;fill-opacity:1;fill-rule:evenodd;stroke:none" id="path3714"/><path d="m 2821.2,160.8 -22.8,-48 h 46.8 l -24,48" style="fill:#000;fill-opacity:1;fill-rule:evenodd;stroke:none" id="path3716"/><path d="m 2982,651.6 46.8,25.2 -46.8,22.8 v -48" style="fill:#000;fill-opacity:1;fill-rule:evenodd;stroke:none" id="path3718"/><path d="m 2623.2,651.6 46.8,25.2 -46.8,22.8 v -48" style="fill:#000;fill-opacity:1;fill-rule:evenodd;stroke:none" id="path3720"/><path d="m 2821.2,879.6 -22.8,-48 h 46.8 l -24,48" style="fill:#000;fill-opacity:1;fill-rule:evenodd;stroke:none" id="path3722"/><path d="m 2820,694.8 4.8,-1.2 3.6,-1.2 2.4,-1.2 3.6,-2.4 2.4,-3.6 1.2,-2.4 1.2,-4.8 2.4,-3.6 -2.4,-3.6 -1.2,-3.6 -1.2,-3.6 -2.4,-3.6 -3.6,-2.4 -2.4,-1.2 -3.6,-1.2 -4.8,-2.4 -3.6,2.4 -3.6,1.2 -3.6,1.2 -3.6,2.4 -2.4,3.6 -1.2,3.6 -1.2,3.6 v 7.2 l 1.2,4.8 1.2,2.4 2.4,3.6 3.6,2.4 3.6,1.2 3.6,1.2 3.6,1.2" style="fill:#000;fill-opacity:1;fill-rule:evenodd;stroke:none" id="path3724"/><path d="m 2820,694.8 4.8,-1.2 3.6,-1.2 2.4,-1.2 3.6,-2.4 2.4,-3.6 1.2,-2.4 1.2,-4.8 1.2,-3.6 -1.2,-3.6 -1.2,-3.6 -1.2,-3.6 -2.4,-3.6 -3.6,-2.4 -2.4,-1.2 -3.6,-1.2 -4.8,-1.2 -3.6,1.2 -3.6,1.2 -3.6,1.2 -3.6,2.4 -2.4,3.6 -1.2,3.6 -1.2,3.6 v 7.2 l 1.2,4.8 1.2,2.4 2.4,3.6 3.6,2.4 3.6,1.2 3.6,1.2 z" style="fill:none;stroke:#000;stroke-width:5;stroke-linecap:round;stroke-linejoin:round;stroke-miterlimit:10;stroke-dasharray:none;stroke-opacity:1" id="path3726"/><path d="m 2820,694.8 4.8,-1.2 3.6,-1.2 2.4,-1.2 3.6,-2.4 2.4,-3.6 1.2,-2.4 1.2,-4.8 1.2,-3.6 -1.2,-3.6 -1.2,-3.6 -1.2,-3.6 -2.4,-3.6 -3.6,-2.4 -2.4,-1.2 -3.6,-1.2 -4.8,-1.2 -3.6,1.2 -3.6,1.2 -3.6,1.2 -3.6,2.4 -2.4,3.6 -1.2,3.6 -1.2,3.6 v 7.2 l 1.2,4.8 1.2,2.4 2.4,3.6 3.6,2.4 3.6,1.2 3.6,1.2 z" style="fill:none;stroke:#000;stroke-width:5;stroke-linecap:round;stroke-linejoin:round;stroke-miterlimit:10;stroke-dasharray:none;stroke-opacity:1" id="path3728"/><path d="m 2820,1154.4 180,178.8" style="fill:none;stroke:#a0a0a4;stroke-width:15;stroke-linecap:round;stroke-linejoin:round;stroke-miterlimit:10;stroke-dasharray:none;stroke-opacity:1" id="path3730"/><path d="m 2820,1154.4 180,-180" style="fill:none;stroke:#a0a0a4;stroke-width:15;stroke-linecap:round;stroke-linejoin:round;stroke-miterlimit:10;stroke-dasharray:none;stroke-opacity:1" id="path3732"/><path d="m 2640,1333.2 180,-178.8" style="fill:none;stroke:#a0a0a4;stroke-width:15;stroke-linecap:round;stroke-linejoin:round;stroke-miterlimit:10;stroke-dasharray:none;stroke-opacity:1" id="path3734"/><path d="m 2640,974.4 180,180" style="fill:none;stroke:#a0a0a4;stroke-width:15;stroke-linecap:round;stroke-linejoin:round;stroke-miterlimit:10;stroke-dasharray:none;stroke-opacity:1" id="path3736"/><path d="m 2820,1153.2 h 180" style="fill:none;stroke:#a0a0a4;stroke-width:15;stroke-linecap:round;stroke-linejoin:round;stroke-miterlimit:10;stroke-dasharray:none;stroke-opacity:1" id="path3738"/><path d="m 2826,1150.8 10.8,6 10.8,4.8 9.6,4.8 10.8,4.8 10.8,3.6 10.8,3.6 10.8,3.6 12,3.6 10.8,2.4 10.8,2.4 12,2.4 10.8,1.2 12,1.2 12,1.2 h 10.8 l 12,1.2 12,-1.2 h 10.8 l 12,-1.2 12,-1.2 10.8,-1.2 12,-2.4 10.8,-2.4 12,-2.4 10.8,-3.6 10.8,-3.6 10.8,-3.6 10.8,-3.6 10.8,-4.8 10.8,-4.8 10.8,-6 9.6,-4.8" style="fill:none;stroke:#a0a0a4;stroke-width:15;stroke-linecap:round;stroke-linejoin:round;stroke-miterlimit:10;stroke-dasharray:none;stroke-opacity:1" id="path3740"/><path d="m 2803.2,1132.8 45.6,22.8 -45.6,22.8 v -45.6" style="fill:#a0a0a4;fill-opacity:1;fill-rule:evenodd;stroke:none" id="path3742"/><path d="m 2803.2,1132.8 45.6,22.8 -45.6,22.8 v -45.6" style="fill:none;stroke:#000;stroke-width:7.5;stroke-linecap:round;stroke-linejoin:round;stroke-miterlimit:10;stroke-dasharray:none;stroke-opacity:1" id="path3744"/><path d="m 2443.2,1131.6 48,24 -48,22.8 v -46.8" style="fill:#000;fill-opacity:1;fill-rule:evenodd;stroke:none" id="path3746"/><path d="m 2642.4,1358.4 -24,-48 h 48 l -24,48" style="fill:#000;fill-opacity:1;fill-rule:evenodd;stroke:none" id="path3748"/><path d="m 2642.4,999.6 -24,-48 h 48 l -24,48" style="fill:#000;fill-opacity:1;fill-rule:evenodd;stroke:none" id="path3750"/><path d="m 3000,1358.4 -22.8,-48 h 48 l -25.2,48" style="fill:#000;fill-opacity:1;fill-rule:evenodd;stroke:none" id="path3752"/><path d="m 3000,999.6 -22.8,-48 h 48 l -25.2,48" style="fill:#000;fill-opacity:1;fill-rule:evenodd;stroke:none" id="path3754"/><path d="m 3162,1128 46.8,24 -46.8,24 v -48" style="fill:#000;fill-opacity:1;fill-rule:evenodd;stroke:none" id="path3756"/><path d="m 3003.6,1173.6 3.6,-1.2 3.6,-1.2 3.6,-1.2 2.4,-2.4 2.4,-2.4 2.4,-3.6 2.4,-3.6 v -8.4 l -2.4,-3.6 -2.4,-2.4 -2.4,-3.6 -2.4,-2.4 -3.6,-1.2 -3.6,-1.2 -3.6,-2.4 -3.6,2.4 -3.6,1.2 -3.6,1.2 -3.6,2.4 -2.4,3.6 -1.2,2.4 -1.2,3.6 v 8.4 l 1.2,3.6 1.2,3.6 2.4,2.4 3.6,2.4 3.6,1.2 3.6,1.2 3.6,1.2" style="fill:#000;fill-opacity:1;fill-rule:evenodd;stroke:none" id="path3758"/><path d="m 3003.6,1173.6 3.6,-1.2 3.6,-1.2 3.6,-1.2 2.4,-2.4 2.4,-2.4 2.4,-3.6 1.2,-3.6 v -8.4 l -1.2,-3.6 -2.4,-2.4 -2.4,-3.6 -2.4,-2.4 -3.6,-1.2 -3.6,-1.2 -3.6,-1.2 -3.6,1.2 -3.6,1.2 -3.6,1.2 -3.6,2.4 -2.4,3.6 -1.2,2.4 -1.2,3.6 v 8.4 l 1.2,3.6 1.2,3.6 2.4,2.4 3.6,2.4 3.6,1.2 3.6,1.2 z" style="fill:none;stroke:#000;stroke-width:5;stroke-linecap:round;stroke-linejoin:round;stroke-miterlimit:10;stroke-dasharray:none;stroke-opacity:1" id="path3760"/><path d="m 3003.6,1173.6 3.6,-1.2 3.6,-1.2 3.6,-1.2 2.4,-2.4 2.4,-2.4 2.4,-3.6 1.2,-3.6 v -8.4 l -1.2,-3.6 -2.4,-2.4 -2.4,-3.6 -2.4,-2.4 -3.6,-1.2 -3.6,-1.2 -3.6,-1.2 -3.6,1.2 -3.6,1.2 -3.6,1.2 -3.6,2.4 -2.4,3.6 -1.2,2.4 -1.2,3.6 v 8.4 l 1.2,3.6 1.2,3.6 2.4,2.4 3.6,2.4 3.6,1.2 3.6,1.2 z" style="fill:none;stroke:#000;stroke-width:5;stroke-linecap:round;stroke-linejoin:round;stroke-miterlimit:10;stroke-dasharray:none;stroke-opacity:1" id="path3762"/><path d="M 2821.2,519.6 2798.4,474 h 45.6 l -22.8,45.6" style="fill:#a0a0a4;fill-opacity:1;fill-rule:evenodd;stroke:none" id="path3764"/><path d="M 2821.2,519.6 2798.4,474 h 45.6 l -22.8,45.6" style="fill:none;stroke:#000;stroke-width:7.5;stroke-linecap:round;stroke-linejoin:round;stroke-miterlimit:10;stroke-dasharray:none;stroke-opacity:1" id="path3766"/><path d="m 2816.4,338.4 3.6,-1.2 3.6,-1.2 3.6,-1.2 2.4,-2.4 2.4,-2.4 2.4,-3.6 1.2,-3.6 v -8.4 l -1.2,-3.6 -2.4,-2.4 -2.4,-3.6 -2.4,-2.4 -3.6,-1.2 -3.6,-1.2 -3.6,-1.2 -3.6,1.2 -3.6,1.2 -3.6,1.2 -3.6,2.4 -2.4,3.6 -1.2,2.4 -1.2,3.6 v 8.4 l 1.2,3.6 1.2,3.6 2.4,2.4 3.6,2.4 3.6,1.2 3.6,1.2 3.6,1.2" style="fill:#000;fill-opacity:1;fill-rule:evenodd;stroke:none" id="path3768"/><path d="m 2816.4,338.4 3.6,-1.2 3.6,-1.2 3.6,-1.2 2.4,-2.4 2.4,-2.4 2.4,-3.6 1.2,-3.6 v -8.4 l -1.2,-3.6 -2.4,-2.4 -2.4,-3.6 -2.4,-2.4 -3.6,-1.2 -3.6,-1.2 -3.6,-1.2 -3.6,1.2 -3.6,1.2 -3.6,1.2 -3.6,2.4 -2.4,3.6 -1.2,2.4 -1.2,3.6 v 8.4 l 1.2,3.6 1.2,3.6 2.4,2.4 3.6,2.4 3.6,1.2 3.6,1.2 3.6,1.2" style="fill:none;stroke:#000;stroke-width:5;stroke-linecap:round;stroke-linejoin:round;stroke-miterlimit:10;stroke-dasharray:none;stroke-opacity:1" id="path3770"/><path d="m 2643.6,1170 3.6,-1.2 3.6,-1.2 3.6,-1.2 2.4,-2.4 2.4,-2.4 2.4,-3.6 1.2,-3.6 v -8.4 l -1.2,-3.6 -2.4,-2.4 -2.4,-3.6 -2.4,-2.4 -3.6,-1.2 -3.6,-1.2 -3.6,-1.2 -3.6,1.2 -3.6,1.2 -3.6,1.2 -3.6,2.4 -2.4,3.6 -1.2,2.4 -1.2,3.6 v 8.4 l 1.2,3.6 1.2,3.6 2.4,2.4 3.6,2.4 3.6,1.2 3.6,1.2 3.6,1.2" style="fill:#000;fill-opacity:1;fill-rule:evenodd;stroke:none" id="path3772"/><path d="m 2643.6,1170 3.6,-1.2 3.6,-1.2 3.6,-1.2 2.4,-2.4 2.4,-2.4 2.4,-3.6 1.2,-3.6 v -8.4 l -1.2,-3.6 -2.4,-2.4 -2.4,-3.6 -2.4,-2.4 -3.6,-1.2 -3.6,-1.2 -3.6,-1.2 -3.6,1.2 -3.6,1.2 -3.6,1.2 -3.6,2.4 -2.4,3.6 -1.2,2.4 -1.2,3.6 v 8.4 l 1.2,3.6 1.2,3.6 2.4,2.4 3.6,2.4 3.6,1.2 3.6,1.2 3.6,1.2" style="fill:none;stroke:#000;stroke-width:5;stroke-linecap:round;stroke-linejoin:round;stroke-miterlimit:10;stroke-dasharray:none;stroke-opacity:1" id="path3774"/><path d="m 2820,1652.4 3.6,-1.2 3.6,-1.2 3.6,-1.2 2.4,-2.4 2.4,-2.4 2.4,-3.6 1.2,-3.6 v -8.4 l -1.2,-3.6 -2.4,-2.4 -2.4,-3.6 -2.4,-2.4 -3.6,-1.2 -3.6,-1.2 -3.6,-1.2 -3.6,1.2 -3.6,1.2 -3.6,1.2 -3.6,2.4 -2.4,3.6 -1.2,2.4 -1.2,3.6 v 8.4 l 1.2,3.6 1.2,3.6 2.4,2.4 3.6,2.4 3.6,1.2 3.6,1.2 3.6,1.2" style="fill:#a0a0a4;fill-opacity:1;fill-rule:evenodd;stroke:none" id="path3776"/><path d="m 2820,1652.4 3.6,-1.2 3.6,-1.2 3.6,-1.2 2.4,-2.4 2.4,-2.4 2.4,-3.6 1.2,-3.6 v -8.4 l -1.2,-3.6 -2.4,-2.4 -2.4,-3.6 -2.4,-2.4 -3.6,-1.2 -3.6,-1.2 -3.6,-1.2 -3.6,1.2 -3.6,1.2 -3.6,1.2 -3.6,2.4 -2.4,3.6 -1.2,2.4 -1.2,3.6 v 8.4 l 1.2,3.6 1.2,3.6 2.4,2.4 3.6,2.4 3.6,1.2 3.6,1.2 3.6,1.2" style="fill:none;stroke:#000;stroke-width:7.5;stroke-linecap:round;stroke-linejoin:round;stroke-miterlimit:10;stroke-dasharray:none;stroke-opacity:1" id="path3778"/></g></g></g></svg>