<svg xmlns="http://www.w3.org/2000/svg" xmlns:svg="http://www.w3.org/2000/svg" id="svg5154" width="200.068" height="294.787" version="1.1" viewBox="0 0 200.068 294.787" xml:space="preserve"><metadata id="metadata5160"/><g id="g5162" transform="matrix(1.3333333,0,0,-1.3333333,-4.732357,299.35999)"><g id="g5164" transform="scale(0.1)"><g id="g5166"><path d="M 35.9998,754.8 H 1477.2" style="fill:none;stroke:#000;stroke-width:1;stroke-linecap:round;stroke-linejoin:round;stroke-miterlimit:10;stroke-dasharray:none;stroke-opacity:1" id="path5168"/><path d="M 40.7998,1474.8 H 1480.8" style="fill:none;stroke:#000;stroke-width:1;stroke-linecap:round;stroke-linejoin:round;stroke-miterlimit:10;stroke-dasharray:none;stroke-opacity:1" id="path5170"/><path d="M 759.6,2194.8 V 38.3999" style="fill:none;stroke:#000;stroke-width:1;stroke-linecap:round;stroke-linejoin:round;stroke-miterlimit:10;stroke-dasharray:none;stroke-opacity:1" id="path5172"/><path d="M 1480.8,2192.4 V 35.9998" style="fill:none;stroke:#000;stroke-width:1;stroke-linecap:round;stroke-linejoin:round;stroke-miterlimit:10;stroke-dasharray:none;stroke-opacity:1" id="path5174"/><path d="M 44.3999,2194.8 H 1480.8" style="fill:none;stroke:#000;stroke-width:1;stroke-linecap:round;stroke-linejoin:round;stroke-miterlimit:10;stroke-dasharray:none;stroke-opacity:1" id="path5176"/><path d="M 40.7998,2191.2 V 758.4" style="fill:none;stroke:#000;stroke-width:1;stroke-linecap:round;stroke-linejoin:round;stroke-miterlimit:10;stroke-dasharray:none;stroke-opacity:1" id="path5178"/><path d="m 760.8,34.7998 h 724.8" style="fill:none;stroke:#000;stroke-width:1;stroke-linecap:round;stroke-linejoin:round;stroke-miterlimit:10;stroke-dasharray:none;stroke-opacity:1" id="path5180"/><path d="M 1120.8,1834.8 V 1471.2" style="fill:none;stroke:#a0a0a4;stroke-width:30;stroke-linecap:round;stroke-linejoin:round;stroke-miterlimit:10;stroke-dasharray:none;stroke-opacity:1" id="path5182"/><path d="M 1124.4,1464 V 1100.4" style="fill:none;stroke:#a0a0a4;stroke-width:30;stroke-linecap:round;stroke-linejoin:round;stroke-miterlimit:10;stroke-dasharray:none;stroke-opacity:1" id="path5184"/><path d="m 1122,1470 361.2,362.4" style="fill:none;stroke:#a0a0a4;stroke-width:30;stroke-linecap:round;stroke-linejoin:round;stroke-miterlimit:10;stroke-dasharray:none;stroke-opacity:1" id="path5186"/><path d="M 765.6,1113.6 1126.8,1476" style="fill:none;stroke:#a0a0a4;stroke-width:30;stroke-linecap:round;stroke-linejoin:round;stroke-miterlimit:10;stroke-dasharray:none;stroke-opacity:1" id="path5188"/><path d="m 764.4,1826.4 362.4,-361.2" style="fill:none;stroke:#a0a0a4;stroke-width:30;stroke-linecap:round;stroke-linejoin:round;stroke-miterlimit:10;stroke-dasharray:none;stroke-opacity:1" id="path5190"/><path d="m 1124.4,1467.6 362.4,-361.2" style="fill:none;stroke:#a0a0a4;stroke-width:30;stroke-linecap:round;stroke-linejoin:round;stroke-miterlimit:10;stroke-dasharray:none;stroke-opacity:1" id="path5192"/><path d="m 1119.6,1878 h 3.6 l 6,-1.2 3.6,-1.2 3.6,-1.2 4.8,-1.2 2.4,-2.4 7.2,-6 6,-6 2.4,-2.4 1.2,-4.8 1.2,-3.6 1.2,-3.6 2.4,-6 v -7.2 l -2.4,-6 -1.2,-3.6 -1.2,-3.6 -1.2,-4.8 -2.4,-2.4 -6,-6 -7.2,-6 -2.4,-2.4 -4.8,-1.2 -3.6,-1.2 -3.6,-1.2 -6,-2.4 h -8.4 l -6,2.4 -3.6,1.2 -3.6,1.2 -4.8,1.2 -2.4,2.4 -7.2,6 -6,6 -2.4,2.4 -1.2,4.8 -1.2,3.6 -1.2,3.6 -1.2,6 v 7.2 l 1.2,6 1.2,3.6 1.2,3.6 1.2,4.8 2.4,2.4 6,6 7.2,6 2.4,2.4 4.8,1.2 3.6,1.2 3.6,1.2 6,1.2 h 4.8" style="fill:#000;fill-opacity:1;fill-rule:evenodd;stroke:none" id="path5194"/><path d="m 1123.2,1154.4 h 3.6 l 6,-1.2 3.6,-1.2 3.6,-1.2 4.8,-1.2 2.4,-2.4 7.2,-6 6,-6 2.4,-2.4 1.2,-4.8 1.2,-3.6 1.2,-3.6 2.4,-6 v -7.2 l -2.4,-6 -1.2,-3.6 -1.2,-3.6 -1.2,-4.8 -2.4,-2.4 -6,-6 -7.2,-6 -2.4,-2.4 -4.8,-1.2 -3.6,-1.2 -3.6,-1.2 -6,-2.4 h -8.4 l -6,2.4 -3.6,1.2 -3.6,1.2 -4.8,1.2 -2.4,2.4 -7.2,6 -6,6 -2.4,2.4 -1.2,4.8 -1.2,3.6 -1.2,3.6 -1.2,6 v 7.2 l 1.2,6 1.2,3.6 1.2,3.6 1.2,4.8 2.4,2.4 6,6 7.2,6 2.4,2.4 4.8,1.2 3.6,1.2 3.6,1.2 6,1.2 h 4.8" style="fill:#000;fill-opacity:1;fill-rule:evenodd;stroke:none" id="path5196"/><path d="M 1119.03,1459.02 C 966.772,1246.49 968.079,960.431 1122.28,749.302" style="fill:none;stroke:#a0a0a4;stroke-width:30;stroke-linecap:round;stroke-linejoin:round;stroke-miterlimit:10;stroke-dasharray:none;stroke-opacity:1" id="path5198"/><path d="M 1119.03,2179.02 C 966.772,1966.49 968.079,1680.43 1122.28,1469.3" style="fill:none;stroke:#a0a0a4;stroke-width:30;stroke-linecap:round;stroke-linejoin:round;stroke-miterlimit:10;stroke-dasharray:none;stroke-opacity:1" id="path5200"/><path d="m 1123.2,1510.8 h 3.6 l 6,-1.2 3.6,-1.2 3.6,-1.2 4.8,-1.2 2.4,-2.4 7.2,-6 6,-6 2.4,-2.4 1.2,-4.8 1.2,-3.6 1.2,-3.6 2.4,-6 v -7.2 l -2.4,-6 -1.2,-3.6 -1.2,-3.6 -1.2,-4.8 -2.4,-2.4 -6,-6 -7.2,-6 -2.4,-2.4 -4.8,-1.2 -3.6,-1.2 -3.6,-1.2 -6,-2.4 h -8.4 l -6,2.4 -3.6,1.2 -3.6,1.2 -4.8,1.2 -2.4,2.4 -7.2,6 -6,6 -2.4,2.4 -1.2,4.8 -1.2,3.6 -1.2,3.6 -1.2,6 v 7.2 l 1.2,6 1.2,3.6 1.2,3.6 1.2,4.8 2.4,2.4 6,6 7.2,6 2.4,2.4 4.8,1.2 3.6,1.2 3.6,1.2 6,1.2 h 4.8" style="fill:#000;fill-opacity:1;fill-rule:evenodd;stroke:none" id="path5202"/><path d="m 1441.2,1783.2 94.8,48 -94.8,46.8 v -94.8" style="fill:#000;fill-opacity:1;fill-rule:evenodd;stroke:none" id="path5204"/><path d="m 721.2,1786.8 94.8,48 -94.8,46.8 v -94.8" style="fill:#000;fill-opacity:1;fill-rule:evenodd;stroke:none" id="path5206"/><path d="m 1441.2,1066.8 94.8,48 -94.8,46.8 v -94.8" style="fill:#000;fill-opacity:1;fill-rule:evenodd;stroke:none" id="path5208"/><path d="m 721.2,1066.8 94.8,48 -94.8,46.8 v -94.8" style="fill:#000;fill-opacity:1;fill-rule:evenodd;stroke:none" id="path5210"/><path d="m 1119.6,2245.2 -45.6,-92.4 h 92.4 l -46.8,92.4" style="fill:#000;fill-opacity:1;fill-rule:evenodd;stroke:none" id="path5212"/><path d="M 1119.6,808.8 1074,716.4 h 92.4 l -46.8,92.4" style="fill:#000;fill-opacity:1;fill-rule:evenodd;stroke:none" id="path5214"/><g id="g5216" transform="scale(10)"><text transform="matrix(0.836364,0,0,-1,24.6,179.52)" style="font-style:italic;font-variant:normal;font-size:13.75px;font-family:'Times New Roman';-inkscape-font-specification:Times-Italic;writing-mode:lr-tb;fill:#000;fill-opacity:1;fill-rule:nonzero;stroke:none" id="text5224"><tspan id="tspan5218" x="0 4.579 9.157 16.032 19.47 26.345 30.924" y="0">(-1,1)</tspan><tspan id="tspan5220" x="0 4.579 9.158 16.032 19.47 26.345 30.924" y="71.28">(-1,0)</tspan><tspan id="tspan5222" x="86.087 90.666 97.541 100.978 105.557 112.432 117.011" y="143.64">(0,-1)</tspan></text></g><path d="m 1196.4,1473.61 c -0.06,57.28 -61.99,93.02 -111.61,64.42 -49.61,-28.79 -49.52,-100.3 0.09,-128.91 49.66,-28.53 111.47,7.21 111.52,64.48" style="fill:#fff;fill-opacity:1;fill-rule:evenodd;stroke:none" id="path5226"/><g id="g5228" transform="scale(10)"><text transform="matrix(0.854545,0,0,-1,108.6,143.28)" style="font-style:italic;font-variant:normal;font-weight:700;font-size:13.75px;font-family:'Times New Roman';-inkscape-font-specification:Times-BoldItalic;writing-mode:lr-tb;fill:#000;fill-opacity:1;fill-rule:nonzero;stroke:none" id="text5232"><tspan id="tspan5230" x="0 6.875" y="0">0</tspan></text></g><path d="m 1117.2,904.814 c -0.06,57.271 -61.99,93.016 -111.61,64.414 -49.612,-28.784 -49.521,-100.293 0.09,-128.907 49.66,-28.534 111.47,7.208 111.52,64.479" style="fill:#fff;fill-opacity:1;fill-rule:evenodd;stroke:none" id="path5234"/><g id="g5236" transform="scale(10)"><text transform="matrix(0.854545,0,0,-1,100.68,86.4)" style="font-style:italic;font-variant:normal;font-weight:700;font-size:13.75px;font-family:'Times New Roman';-inkscape-font-specification:Times-BoldItalic;writing-mode:lr-tb;fill:#000;fill-opacity:1;fill-rule:nonzero;stroke:none" id="text5240"><tspan id="tspan5238" x="0 6.875" y="0">1</tspan></text></g><path d="m 1117.2,2024.41 c -0.06,57.27 -61.99,93.02 -111.61,64.42 -49.612,-28.79 -49.521,-100.3 0.09,-128.91 49.66,-28.53 111.47,7.21 111.52,64.48" style="fill:#fff;fill-opacity:1;fill-rule:evenodd;stroke:none" id="path5242"/><g id="g5244" transform="scale(10)"><text transform="matrix(0.854545,0,0,-1,100.68,198.36)" style="font-style:italic;font-variant:normal;font-weight:700;font-size:13.75px;font-family:'Times New Roman';-inkscape-font-specification:Times-BoldItalic;writing-mode:lr-tb;fill:#000;fill-opacity:1;fill-rule:nonzero;stroke:none" id="text5248"><tspan id="tspan5246" x="0 6.875" y="0">2</tspan></text></g><path d="m 1196.4,1268.41 c -0.06,57.27 -61.99,93.02 -111.61,64.42 -49.61,-28.79 -49.52,-100.3 0.09,-128.91 49.66,-28.53 111.47,7.21 111.52,64.48" style="fill:#fff;fill-opacity:1;fill-rule:evenodd;stroke:none" id="path5250"/><g id="g5252" transform="scale(10)"><text transform="matrix(0.854545,0,0,-1,108.6,122.76)" style="font-style:italic;font-variant:normal;font-weight:700;font-size:13.75px;font-family:'Times New Roman';-inkscape-font-specification:Times-BoldItalic;writing-mode:lr-tb;fill:#000;fill-opacity:1;fill-rule:nonzero;stroke:none" id="text5256"><tspan id="tspan5254" x="0 6.875" y="0">3</tspan></text></g><path d="m 1192.8,1671.61 c -0.06,57.28 -61.99,93.02 -111.61,64.42 -49.61,-28.79 -49.52,-100.3 0.09,-128.91 49.66,-28.53 111.47,7.21 111.52,64.48" style="fill:#fff;fill-opacity:1;fill-rule:evenodd;stroke:none" id="path5258"/><g id="g5260" transform="scale(10)"><text transform="matrix(0.854545,0,0,-1,108.24,163.08)" style="font-style:italic;font-variant:normal;font-weight:700;font-size:13.75px;font-family:'Times New Roman';-inkscape-font-specification:Times-BoldItalic;writing-mode:lr-tb;fill:#000;fill-opacity:1;fill-rule:nonzero;stroke:none" id="text5264"><tspan id="tspan5262" x="0 6.875" y="0">4</tspan></text></g><path d="m 955.2,1232.41 c -0.056,57.28 -61.99,93.02 -111.608,64.42 -49.614,-28.79 -49.523,-100.3 0.088,-128.91 49.657,-28.53 111.474,7.21 111.52,64.48" style="fill:#fff;fill-opacity:1;fill-rule:evenodd;stroke:none" id="path5266"/><g id="g5268" transform="scale(10)"><text transform="matrix(0.854545,0,0,-1,84.48,119.16)" style="font-style:italic;font-variant:normal;font-weight:700;font-size:13.75px;font-family:'Times New Roman';-inkscape-font-specification:Times-BoldItalic;writing-mode:lr-tb;fill:#000;fill-opacity:1;fill-rule:nonzero;stroke:none" id="text5272"><tspan id="tspan5270" x="0 6.875" y="0">5</tspan></text></g><path d="m 1430.4,1236.01 c -0.06,57.27 -61.99,93.02 -111.61,64.42 -49.61,-28.79 -49.52,-100.3 0.09,-128.91 49.66,-28.53 111.47,7.21 111.52,64.48" style="fill:#fff;fill-opacity:1;fill-rule:evenodd;stroke:none" id="path5274"/><g id="g5276" transform="scale(10)"><text transform="matrix(0.854545,0,0,-1,132,119.52)" style="font-style:italic;font-variant:normal;font-weight:700;font-size:13.75px;font-family:'Times New Roman';-inkscape-font-specification:Times-BoldItalic;writing-mode:lr-tb;fill:#000;fill-opacity:1;fill-rule:nonzero;stroke:none" id="text5280"><tspan id="tspan5278" x="0 6.875" y="0">6</tspan></text></g><path d="m 955.2,1696.81 c -0.056,57.27 -61.99,93.02 -111.608,64.42 -49.614,-28.79 -49.523,-100.29 0.088,-128.91 49.657,-28.53 111.474,7.21 111.52,64.48" style="fill:#fff;fill-opacity:1;fill-rule:evenodd;stroke:none" id="path5282"/><g id="g5284" transform="scale(10)"><text transform="matrix(0.854545,0,0,-1,84.48,165.6)" style="font-style:italic;font-variant:normal;font-weight:700;font-size:13.75px;font-family:'Times New Roman';-inkscape-font-specification:Times-BoldItalic;writing-mode:lr-tb;fill:#000;fill-opacity:1;fill-rule:nonzero;stroke:none" id="text5288"><tspan id="tspan5286" x="0 6.875" y="0">7</tspan></text></g><path d="m 1423.2,1696.81 c -0.06,57.27 -61.99,93.02 -111.61,64.42 -49.61,-28.79 -49.52,-100.29 0.09,-128.91 49.66,-28.53 111.47,7.21 111.52,64.48" style="fill:#fff;fill-opacity:1;fill-rule:evenodd;stroke:none" id="path5290"/><g id="g5292" transform="scale(10)"><text transform="matrix(0.854545,0,0,-1,131.28,165.6)" style="font-style:italic;font-variant:normal;font-weight:700;font-size:13.75px;font-family:'Times New Roman';-inkscape-font-specification:Times-BoldItalic;writing-mode:lr-tb;fill:#000;fill-opacity:1;fill-rule:nonzero;stroke:none" id="text5296"><tspan id="tspan5294" x="0 6.875" y="0">8</tspan></text></g></g></g></g></svg>