<svg xmlns="http://www.w3.org/2000/svg" xmlns:svg="http://www.w3.org/2000/svg" id="svg736" width="258.667" height="260" version="1.1" viewBox="0 0 258.667 260" xml:space="preserve"><metadata id="metadata742"/><g id="g744" transform="matrix(1.3333333,0,0,-1.3333333,0,260)"><g id="g746" transform="scale(0.1)"><g id="g748"><g id="g750" transform="scale(10)"><text transform="matrix(0.836364,0,0,-1,3.83999,8.27998)" style="font-style:italic;font-variant:normal;font-size:13.75px;font-family:'Times New Roman';-inkscape-font-specification:Times-Italic;writing-mode:lr-tb;fill:#000;fill-opacity:1;fill-rule:nonzero;stroke:none" id="text754"><tspan id="tspan752" x="0 4.579 9.157 16.032 19.47 26.345 30.924" y="0">(-3,1)</tspan></text></g><path d="M 360,956.4 V 357.6" style="fill:none;stroke:#000;stroke-width:7.5;stroke-linecap:round;stroke-linejoin:round;stroke-miterlimit:10;stroke-dasharray:none;stroke-opacity:1" id="path756"/><path d="M 660,956.4 V 357.6" style="fill:none;stroke:#000;stroke-width:7.5;stroke-linecap:round;stroke-linejoin:round;stroke-miterlimit:10;stroke-dasharray:none;stroke-opacity:1" id="path758"/><path d="M 960,956.4 V 357.6" style="fill:none;stroke:#000;stroke-width:7.5;stroke-linecap:round;stroke-linejoin:round;stroke-miterlimit:10;stroke-dasharray:none;stroke-opacity:1" id="path760"/><path d="M 1260,1556.4 V 357.6" style="fill:none;stroke:#000;stroke-width:7.5;stroke-linecap:round;stroke-linejoin:round;stroke-miterlimit:10;stroke-dasharray:none;stroke-opacity:1" id="path762"/><path d="M 1560,1556.4 V 357.6" style="fill:none;stroke:#000;stroke-width:7.5;stroke-linecap:round;stroke-linejoin:round;stroke-miterlimit:10;stroke-dasharray:none;stroke-opacity:1" id="path764"/><path d="M 1860,1556.4 V 357.6" style="fill:none;stroke:#000;stroke-width:7.5;stroke-linecap:round;stroke-linejoin:round;stroke-miterlimit:10;stroke-dasharray:none;stroke-opacity:1" id="path766"/><path d="M 60,657.6 H 960" style="fill:none;stroke:#000;stroke-width:7.5;stroke-linecap:round;stroke-linejoin:round;stroke-miterlimit:10;stroke-dasharray:none;stroke-opacity:1" id="path768"/><path d="m 960,357.6 h 900" style="fill:none;stroke:#000;stroke-width:22.5;stroke-linecap:round;stroke-linejoin:round;stroke-miterlimit:10;stroke-dasharray:none;stroke-opacity:1" id="path770"/><path d="m 960,1256.4 h 900" style="fill:none;stroke:#000;stroke-width:7.5;stroke-linecap:round;stroke-linejoin:round;stroke-miterlimit:10;stroke-dasharray:none;stroke-opacity:1" id="path772"/><path d="m 960,956.4 h 900" style="fill:none;stroke:#000;stroke-width:7.5;stroke-linecap:round;stroke-linejoin:round;stroke-miterlimit:10;stroke-dasharray:none;stroke-opacity:1" id="path774"/><path d="m 961.2,657.6 h 897.6" style="fill:none;stroke:#000;stroke-width:7.5;stroke-linecap:round;stroke-linejoin:round;stroke-miterlimit:10;stroke-dasharray:none;stroke-opacity:1" id="path776"/><path d="m 1106.4,537.6 h 3.6" style="fill:none;stroke:#000;stroke-width:7.5;stroke-linecap:round;stroke-linejoin:round;stroke-miterlimit:10;stroke-dasharray:none;stroke-opacity:1" id="path778"/><path d="m 1110,537.6 3.6,-1.2" style="fill:none;stroke:#000;stroke-width:7.5;stroke-linecap:round;stroke-linejoin:round;stroke-miterlimit:10;stroke-dasharray:none;stroke-opacity:1" id="path780"/><path d="m 1113.6,536.4 2.4,-1.2" style="fill:none;stroke:#000;stroke-width:7.5;stroke-linecap:round;stroke-linejoin:round;stroke-miterlimit:10;stroke-dasharray:none;stroke-opacity:1" id="path782"/><path d="m 1116,535.2 3.6,-2.4" style="fill:none;stroke:#000;stroke-width:7.5;stroke-linecap:round;stroke-linejoin:round;stroke-miterlimit:10;stroke-dasharray:none;stroke-opacity:1" id="path784"/><path d="m 1702.8,532.8 1.2,-2.4" style="fill:none;stroke:#000;stroke-width:7.5;stroke-linecap:round;stroke-linejoin:round;stroke-miterlimit:10;stroke-dasharray:none;stroke-opacity:1" id="path786"/><path d="m 1704,530.4 2.4,-2.4" style="fill:none;stroke:#000;stroke-width:7.5;stroke-linecap:round;stroke-linejoin:round;stroke-miterlimit:10;stroke-dasharray:none;stroke-opacity:1" id="path788"/><path d="m 1706.4,528 1.2,-3.6" style="fill:none;stroke:#000;stroke-width:7.5;stroke-linecap:round;stroke-linejoin:round;stroke-miterlimit:10;stroke-dasharray:none;stroke-opacity:1" id="path790"/><path d="m 1707.6,524.4 v -3.6" style="fill:none;stroke:#000;stroke-width:7.5;stroke-linecap:round;stroke-linejoin:round;stroke-miterlimit:10;stroke-dasharray:none;stroke-opacity:1" id="path792"/><path d="m 1707.6,520.8 v -3.6" style="fill:none;stroke:#000;stroke-width:7.5;stroke-linecap:round;stroke-linejoin:round;stroke-miterlimit:10;stroke-dasharray:none;stroke-opacity:1" id="path794"/><path d="m 1707.6,517.2 -1.2,-3.6" style="fill:none;stroke:#000;stroke-width:7.5;stroke-linecap:round;stroke-linejoin:round;stroke-miterlimit:10;stroke-dasharray:none;stroke-opacity:1" id="path796"/><path d="m 1706.4,513.6 -2.4,-2.4" style="fill:none;stroke:#000;stroke-width:7.5;stroke-linecap:round;stroke-linejoin:round;stroke-miterlimit:10;stroke-dasharray:none;stroke-opacity:1" id="path798"/><path d="m 1704,511.2 -1.2,-3.6" style="fill:none;stroke:#000;stroke-width:7.5;stroke-linecap:round;stroke-linejoin:round;stroke-miterlimit:10;stroke-dasharray:none;stroke-opacity:1" id="path800"/><g id="g802" transform="scale(10)"><text transform="matrix(0.836364,0,0,-1,156.24,176.4)" style="font-style:italic;font-variant:normal;font-size:13.75px;font-family:'Times New Roman';-inkscape-font-specification:Times-Italic;writing-mode:lr-tb;fill:#000;fill-opacity:1;fill-rule:nonzero;stroke:none" id="text806"><tspan id="tspan804" x="0 4.579 11.454 14.891 21.766 26.345" y="0">(2,4)</tspan></text></g><path d="m 198,537.6 h 3.6 l 3.6,-1.2 2.4,-1.2 3.6,-2.4 1.2,-2.4 2.4,-2.4 2.4,-3.6 v -7.2 l -2.4,-3.6 -2.4,-2.4 -1.2,-3.6 -3.6,-1.2 -2.4,-2.4 h -3.6 l -3.6,-2.4 -3.6,2.4 h -3.6 l -2.4,2.4 -3.6,1.2 -2.4,3.6 -1.2,2.4 -1.2,3.6 v 7.2 l 1.2,3.6 1.2,2.4 2.4,2.4 3.6,2.4 2.4,1.2 3.6,1.2 h 3.6" style="fill:#000;fill-opacity:1;fill-rule:evenodd;stroke:none" id="path808"/><path d="m 198,537.6 h 3.6 l 3.6,-1.2 2.4,-1.2 3.6,-2.4 1.2,-2.4 2.4,-2.4 1.2,-3.6 v -7.2 l -1.2,-3.6 -2.4,-2.4 -1.2,-3.6 -3.6,-1.2 -2.4,-2.4 h -3.6 l -3.6,-1.2 -3.6,1.2 h -3.6 l -2.4,2.4 -3.6,1.2 -2.4,3.6 -1.2,2.4 -1.2,3.6 v 7.2 l 1.2,3.6 1.2,2.4 2.4,2.4 3.6,2.4 2.4,1.2 3.6,1.2 z" style="fill:none;stroke:#000;stroke-width:7.5;stroke-linecap:round;stroke-linejoin:round;stroke-miterlimit:10;stroke-dasharray:none;stroke-opacity:1" id="path810"/><path d="m 198,537.6 h 3.6 l 3.6,-1.2 2.4,-1.2 3.6,-2.4 1.2,-2.4 2.4,-2.4 1.2,-3.6 v -7.2 l -1.2,-3.6 -2.4,-2.4 -1.2,-3.6 -3.6,-1.2 -2.4,-2.4 h -3.6 l -3.6,-1.2 -3.6,1.2 h -3.6 l -2.4,2.4 -3.6,1.2 -2.4,3.6 -1.2,2.4 -1.2,3.6 v 7.2 l 1.2,3.6 1.2,2.4 2.4,2.4 3.6,2.4 2.4,1.2 3.6,1.2 z" style="fill:none;stroke:#000;stroke-width:7.5;stroke-linecap:round;stroke-linejoin:round;stroke-miterlimit:10;stroke-dasharray:none;stroke-opacity:1" id="path812"/><path d="m 498,537.6 h 3.6 l 3.6,-1.2 2.4,-1.2 3.6,-2.4 1.2,-2.4 2.4,-2.4 2.4,-3.6 v -7.2 l -2.4,-3.6 -2.4,-2.4 -1.2,-3.6 -3.6,-1.2 -2.4,-2.4 h -3.6 l -3.6,-2.4 -3.6,2.4 h -3.6 l -2.4,2.4 -3.6,1.2 -2.4,3.6 -1.2,2.4 -1.2,3.6 v 7.2 l 1.2,3.6 1.2,2.4 2.4,2.4 3.6,2.4 2.4,1.2 3.6,1.2 h 3.6" style="fill:#000;fill-opacity:1;fill-rule:evenodd;stroke:none" id="path814"/><path d="m 498,537.6 h 3.6 l 3.6,-1.2 2.4,-1.2 3.6,-2.4 1.2,-2.4 2.4,-2.4 1.2,-3.6 v -7.2 l -1.2,-3.6 -2.4,-2.4 -1.2,-3.6 -3.6,-1.2 -2.4,-2.4 h -3.6 l -3.6,-1.2 -3.6,1.2 h -3.6 l -2.4,2.4 -3.6,1.2 -2.4,3.6 -1.2,2.4 -1.2,3.6 v 7.2 l 1.2,3.6 1.2,2.4 2.4,2.4 3.6,2.4 2.4,1.2 3.6,1.2 z" style="fill:none;stroke:#000;stroke-width:7.5;stroke-linecap:round;stroke-linejoin:round;stroke-miterlimit:10;stroke-dasharray:none;stroke-opacity:1" id="path816"/><path d="m 498,537.6 h 3.6 l 3.6,-1.2 2.4,-1.2 3.6,-2.4 1.2,-2.4 2.4,-2.4 1.2,-3.6 v -7.2 l -1.2,-3.6 -2.4,-2.4 -1.2,-3.6 -3.6,-1.2 -2.4,-2.4 h -3.6 l -3.6,-1.2 -3.6,1.2 h -3.6 l -2.4,2.4 -3.6,1.2 -2.4,3.6 -1.2,2.4 -1.2,3.6 v 7.2 l 1.2,3.6 1.2,2.4 2.4,2.4 3.6,2.4 2.4,1.2 3.6,1.2 z" style="fill:none;stroke:#000;stroke-width:7.5;stroke-linecap:round;stroke-linejoin:round;stroke-miterlimit:10;stroke-dasharray:none;stroke-opacity:1" id="path818"/><path d="m 1098,537.6 h 3.6 l 3.6,-1.2 2.4,-1.2 3.6,-2.4 1.2,-2.4 2.4,-2.4 2.4,-3.6 v -7.2 l -2.4,-3.6 -2.4,-2.4 -1.2,-3.6 -3.6,-1.2 -2.4,-2.4 h -3.6 l -3.6,-2.4 -3.6,2.4 h -3.6 l -2.4,2.4 -3.6,1.2 -2.4,3.6 -1.2,2.4 -1.2,3.6 v 7.2 l 1.2,3.6 1.2,2.4 2.4,2.4 3.6,2.4 2.4,1.2 3.6,1.2 h 3.6" style="fill:#000;fill-opacity:1;fill-rule:evenodd;stroke:none" id="path820"/><path d="m 1098,537.6 h 3.6 l 3.6,-1.2 2.4,-1.2 3.6,-2.4 1.2,-2.4 2.4,-2.4 1.2,-3.6 v -7.2 l -1.2,-3.6 -2.4,-2.4 -1.2,-3.6 -3.6,-1.2 -2.4,-2.4 h -3.6 l -3.6,-1.2 -3.6,1.2 h -3.6 l -2.4,2.4 -3.6,1.2 -2.4,3.6 -1.2,2.4 -1.2,3.6 v 7.2 l 1.2,3.6 1.2,2.4 2.4,2.4 3.6,2.4 2.4,1.2 3.6,1.2 z" style="fill:none;stroke:#000;stroke-width:7.5;stroke-linecap:round;stroke-linejoin:round;stroke-miterlimit:10;stroke-dasharray:none;stroke-opacity:1" id="path822"/><path d="m 1098,537.6 h -3.6 l -3.6,-1.2 -2.4,-1.2 -3.6,-2.4 -2.4,-2.4 -1.2,-2.4 -1.2,-3.6 v -7.2 l 1.2,-3.6 1.2,-2.4 2.4,-3.6 3.6,-1.2 2.4,-2.4 h 3.6 l 3.6,-1.2 3.6,1.2 h 3.6 l 2.4,2.4 3.6,1.2 1.2,3.6 2.4,2.4 1.2,3.6 v 7.2 l -1.2,3.6 -2.4,2.4 -1.2,2.4" style="fill:none;stroke:#000;stroke-width:7.5;stroke-linecap:round;stroke-linejoin:round;stroke-miterlimit:10;stroke-dasharray:none;stroke-opacity:1" id="path824"/><path d="m 1398,537.6 h 3.6 l 3.6,-1.2 2.4,-1.2 3.6,-2.4 1.2,-2.4 2.4,-2.4 2.4,-3.6 v -7.2 l -2.4,-3.6 -2.4,-2.4 -1.2,-3.6 -3.6,-1.2 -2.4,-2.4 h -3.6 l -3.6,-2.4 -3.6,2.4 h -3.6 l -2.4,2.4 -3.6,1.2 -2.4,3.6 -1.2,2.4 -1.2,3.6 v 7.2 l 1.2,3.6 1.2,2.4 2.4,2.4 3.6,2.4 2.4,1.2 3.6,1.2 h 3.6" style="fill:#000;fill-opacity:1;fill-rule:evenodd;stroke:none" id="path826"/><path d="m 1398,537.6 h 3.6 l 3.6,-1.2 2.4,-1.2 3.6,-2.4 1.2,-2.4 2.4,-2.4 1.2,-3.6 v -7.2 l -1.2,-3.6 -2.4,-2.4 -1.2,-3.6 -3.6,-1.2 -2.4,-2.4 h -3.6 l -3.6,-1.2 -3.6,1.2 h -3.6 l -2.4,2.4 -3.6,1.2 -2.4,3.6 -1.2,2.4 -1.2,3.6 v 7.2 l 1.2,3.6 1.2,2.4 2.4,2.4 3.6,2.4 2.4,1.2 3.6,1.2 z" style="fill:none;stroke:#000;stroke-width:7.5;stroke-linecap:round;stroke-linejoin:round;stroke-miterlimit:10;stroke-dasharray:none;stroke-opacity:1" id="path828"/><path d="m 1398,537.6 h 3.6 l 3.6,-1.2 2.4,-1.2 3.6,-2.4 1.2,-2.4 2.4,-2.4 1.2,-3.6 v -7.2 l -1.2,-3.6 -2.4,-2.4 -1.2,-3.6 -3.6,-1.2 -2.4,-2.4 h -3.6 l -3.6,-1.2 -3.6,1.2 h -3.6 l -2.4,2.4 -3.6,1.2 -2.4,3.6 -1.2,2.4 -1.2,3.6 v 7.2 l 1.2,3.6 1.2,2.4 2.4,2.4 3.6,2.4 2.4,1.2 3.6,1.2 z" style="fill:none;stroke:#000;stroke-width:7.5;stroke-linecap:round;stroke-linejoin:round;stroke-miterlimit:10;stroke-dasharray:none;stroke-opacity:1" id="path830"/><path d="m 798,537.6 h 3.6 l 3.6,-1.2 2.4,-1.2 3.6,-2.4 1.2,-2.4 2.4,-2.4 2.4,-3.6 v -7.2 l -2.4,-3.6 -2.4,-2.4 -1.2,-3.6 -3.6,-1.2 -2.4,-2.4 h -3.6 l -3.6,-2.4 -3.6,2.4 h -3.6 l -2.4,2.4 -3.6,1.2 -2.4,3.6 -1.2,2.4 -1.2,3.6 v 7.2 l 1.2,3.6 1.2,2.4 2.4,2.4 3.6,2.4 2.4,1.2 3.6,1.2 h 3.6" style="fill:#000;fill-opacity:1;fill-rule:evenodd;stroke:none" id="path832"/><path d="m 798,537.6 h 3.6 l 3.6,-1.2 2.4,-1.2 3.6,-2.4 1.2,-2.4 2.4,-2.4 1.2,-3.6 v -7.2 l -1.2,-3.6 -2.4,-2.4 -1.2,-3.6 -3.6,-1.2 -2.4,-2.4 h -3.6 l -3.6,-1.2 -3.6,1.2 h -3.6 l -2.4,2.4 -3.6,1.2 -2.4,3.6 -1.2,2.4 -1.2,3.6 v 7.2 l 1.2,3.6 1.2,2.4 2.4,2.4 3.6,2.4 2.4,1.2 3.6,1.2 z" style="fill:none;stroke:#000;stroke-width:7.5;stroke-linecap:round;stroke-linejoin:round;stroke-miterlimit:10;stroke-dasharray:none;stroke-opacity:1" id="path834"/><path d="m 798,537.6 h 3.6 l 3.6,-1.2 2.4,-1.2 3.6,-2.4 1.2,-2.4 2.4,-2.4 1.2,-3.6 v -7.2 l -1.2,-3.6 -2.4,-2.4 -1.2,-3.6 -3.6,-1.2 -2.4,-2.4 h -3.6 l -3.6,-1.2 -3.6,1.2 h -3.6 l -2.4,2.4 -3.6,1.2 -2.4,3.6 -1.2,2.4 -1.2,3.6 v 7.2 l 1.2,3.6 1.2,2.4 2.4,2.4 3.6,2.4 2.4,1.2 3.6,1.2 z" style="fill:none;stroke:#000;stroke-width:7.5;stroke-linecap:round;stroke-linejoin:round;stroke-miterlimit:10;stroke-dasharray:none;stroke-opacity:1" id="path836"/><path d="m 1698,537.6 h 3.6 l 3.6,-1.2 2.4,-1.2 3.6,-2.4 1.2,-2.4 2.4,-2.4 2.4,-3.6 v -7.2 l -2.4,-3.6 -2.4,-2.4 -1.2,-3.6 -3.6,-1.2 -2.4,-2.4 h -3.6 l -3.6,-2.4 -3.6,2.4 h -3.6 l -2.4,2.4 -3.6,1.2 -2.4,3.6 -1.2,2.4 -1.2,3.6 v 7.2 l 1.2,3.6 1.2,2.4 2.4,2.4 3.6,2.4 2.4,1.2 3.6,1.2 h 3.6" style="fill:#000;fill-opacity:1;fill-rule:evenodd;stroke:none" id="path838"/><path d="m 1698,537.6 h 3.6 l 3.6,-1.2 2.4,-1.2 3.6,-2.4 1.2,-2.4 2.4,-2.4 1.2,-3.6 v -7.2 l -1.2,-3.6 -2.4,-2.4 -1.2,-3.6 -3.6,-1.2 -2.4,-2.4 h -3.6 l -3.6,-1.2 -3.6,1.2 h -3.6 l -2.4,2.4 -3.6,1.2 -2.4,3.6 -1.2,2.4 -1.2,3.6 v 7.2 l 1.2,3.6 1.2,2.4 2.4,2.4 3.6,2.4 2.4,1.2 3.6,1.2 z" style="fill:none;stroke:#000;stroke-width:7.5;stroke-linecap:round;stroke-linejoin:round;stroke-miterlimit:10;stroke-dasharray:none;stroke-opacity:1" id="path840"/><path d="m 1698,537.6 h -3.6 l -3.6,-1.2 -2.4,-1.2 -3.6,-2.4 -2.4,-2.4 -1.2,-2.4 -1.2,-3.6 v -7.2 l 1.2,-3.6 1.2,-2.4 2.4,-3.6 3.6,-1.2 2.4,-2.4 h 3.6 l 3.6,-1.2 3.6,1.2 h 3.6 l 2.4,2.4 3.6,1.2" style="fill:none;stroke:#000;stroke-width:7.5;stroke-linecap:round;stroke-linejoin:round;stroke-miterlimit:10;stroke-dasharray:none;stroke-opacity:1" id="path842"/><path d="m 198,837.6 h 3.6 l 3.6,-1.2 2.4,-1.2 3.6,-2.4 1.2,-2.4 2.4,-2.4 2.4,-3.6 v -7.2 l -2.4,-3.6 -2.4,-2.4 -1.2,-2.4 -3.6,-2.4 -2.4,-2.4 h -3.6 l -3.6,-2.4 -3.6,2.4 h -3.6 l -2.4,2.4 -3.6,2.4 -2.4,2.4 -1.2,2.4 -1.2,3.6 v 7.2 l 1.2,3.6 1.2,2.4 2.4,2.4 3.6,2.4 2.4,1.2 3.6,1.2 h 3.6" style="fill:#000;fill-opacity:1;fill-rule:evenodd;stroke:none" id="path844"/><path d="m 198,837.6 h 3.6 l 3.6,-1.2 2.4,-1.2 3.6,-2.4 1.2,-2.4 2.4,-2.4 1.2,-3.6 v -7.2 l -1.2,-3.6 -2.4,-2.4 -1.2,-2.4 -3.6,-2.4 -2.4,-2.4 h -3.6 l -3.6,-1.2 -3.6,1.2 h -3.6 l -2.4,2.4 -3.6,2.4 -2.4,2.4 -1.2,2.4 -1.2,3.6 v 7.2 l 1.2,3.6 1.2,2.4 2.4,2.4 3.6,2.4 2.4,1.2 3.6,1.2 z" style="fill:none;stroke:#000;stroke-width:7.5;stroke-linecap:round;stroke-linejoin:round;stroke-miterlimit:10;stroke-dasharray:none;stroke-opacity:1" id="path846"/><path d="m 198,837.6 h 3.6 l 3.6,-1.2 2.4,-1.2 3.6,-2.4 1.2,-2.4 2.4,-2.4 1.2,-3.6 v -7.2 l -1.2,-3.6 -2.4,-2.4 -1.2,-2.4 -3.6,-2.4 -2.4,-2.4 h -3.6 l -3.6,-1.2 -3.6,1.2 h -3.6 l -2.4,2.4 -3.6,2.4 -2.4,2.4 -1.2,2.4 -1.2,3.6 v 7.2 l 1.2,3.6 1.2,2.4 2.4,2.4 3.6,2.4 2.4,1.2 3.6,1.2 z" style="fill:none;stroke:#000;stroke-width:7.5;stroke-linecap:round;stroke-linejoin:round;stroke-miterlimit:10;stroke-dasharray:none;stroke-opacity:1" id="path848"/><path d="m 498,837.6 h 3.6 l 3.6,-1.2 2.4,-1.2 3.6,-2.4 1.2,-2.4 2.4,-2.4 2.4,-3.6 v -7.2 l -2.4,-3.6 -2.4,-2.4 -1.2,-2.4 -3.6,-2.4 -2.4,-2.4 h -3.6 l -3.6,-2.4 -3.6,2.4 h -3.6 l -2.4,2.4 -3.6,2.4 -2.4,2.4 -1.2,2.4 -1.2,3.6 v 7.2 l 1.2,3.6 1.2,2.4 2.4,2.4 3.6,2.4 2.4,1.2 3.6,1.2 h 3.6" style="fill:#000;fill-opacity:1;fill-rule:evenodd;stroke:none" id="path850"/><path d="m 498,837.6 h 3.6 l 3.6,-1.2 2.4,-1.2 3.6,-2.4 1.2,-2.4 2.4,-2.4 1.2,-3.6 v -7.2 l -1.2,-3.6 -2.4,-2.4 -1.2,-2.4 -3.6,-2.4 -2.4,-2.4 h -3.6 l -3.6,-1.2 -3.6,1.2 h -3.6 l -2.4,2.4 -3.6,2.4 -2.4,2.4 -1.2,2.4 -1.2,3.6 v 7.2 l 1.2,3.6 1.2,2.4 2.4,2.4 3.6,2.4 2.4,1.2 3.6,1.2 z" style="fill:none;stroke:#000;stroke-width:7.5;stroke-linecap:round;stroke-linejoin:round;stroke-miterlimit:10;stroke-dasharray:none;stroke-opacity:1" id="path852"/><path d="m 498,837.6 h 3.6 l 3.6,-1.2 2.4,-1.2 3.6,-2.4 1.2,-2.4 2.4,-2.4 1.2,-3.6 v -7.2 l -1.2,-3.6 -2.4,-2.4 -1.2,-2.4 -3.6,-2.4 -2.4,-2.4 h -3.6 l -3.6,-1.2 -3.6,1.2 h -3.6 l -2.4,2.4 -3.6,2.4 -2.4,2.4 -1.2,2.4 -1.2,3.6 v 7.2 l 1.2,3.6 1.2,2.4 2.4,2.4 3.6,2.4 2.4,1.2 3.6,1.2 z" style="fill:none;stroke:#000;stroke-width:7.5;stroke-linecap:round;stroke-linejoin:round;stroke-miterlimit:10;stroke-dasharray:none;stroke-opacity:1" id="path854"/><path d="m 1098,837.6 h 3.6 l 3.6,-1.2 2.4,-1.2 3.6,-2.4 1.2,-2.4 2.4,-2.4 2.4,-3.6 v -7.2 l -2.4,-3.6 -2.4,-2.4 -1.2,-2.4 -3.6,-2.4 -2.4,-2.4 h -3.6 l -3.6,-2.4 -3.6,2.4 h -3.6 l -2.4,2.4 -3.6,2.4 -2.4,2.4 -1.2,2.4 -1.2,3.6 v 7.2 l 1.2,3.6 1.2,2.4 2.4,2.4 3.6,2.4 2.4,1.2 3.6,1.2 h 3.6" style="fill:#000;fill-opacity:1;fill-rule:evenodd;stroke:none" id="path856"/><path d="m 1098,837.6 h 3.6 l 3.6,-1.2 2.4,-1.2 3.6,-2.4 1.2,-2.4 2.4,-2.4 1.2,-3.6 v -7.2 l -1.2,-3.6 -2.4,-2.4 -1.2,-2.4 -3.6,-2.4 -2.4,-2.4 h -3.6 l -3.6,-1.2 -3.6,1.2 h -3.6 l -2.4,2.4 -3.6,2.4 -2.4,2.4 -1.2,2.4 -1.2,3.6 v 7.2 l 1.2,3.6 1.2,2.4 2.4,2.4 3.6,2.4 2.4,1.2 3.6,1.2 z" style="fill:none;stroke:#000;stroke-width:7.5;stroke-linecap:round;stroke-linejoin:round;stroke-miterlimit:10;stroke-dasharray:none;stroke-opacity:1" id="path858"/><path d="m 1098,837.6 h 3.6 l 3.6,-1.2 2.4,-1.2 3.6,-2.4 1.2,-2.4 2.4,-2.4 1.2,-3.6 v -7.2 l -1.2,-3.6 -2.4,-2.4 -1.2,-2.4 -3.6,-2.4 -2.4,-2.4 h -3.6 l -3.6,-1.2 -3.6,1.2 h -3.6 l -2.4,2.4 -3.6,2.4 -2.4,2.4 -1.2,2.4 -1.2,3.6 v 7.2 l 1.2,3.6 1.2,2.4 2.4,2.4 3.6,2.4 2.4,1.2 3.6,1.2 z" style="fill:none;stroke:#000;stroke-width:7.5;stroke-linecap:round;stroke-linejoin:round;stroke-miterlimit:10;stroke-dasharray:none;stroke-opacity:1" id="path860"/><path d="m 1398,837.6 h 3.6 l 3.6,-1.2 2.4,-1.2 3.6,-2.4 1.2,-2.4 2.4,-2.4 2.4,-3.6 v -7.2 l -2.4,-3.6 -2.4,-2.4 -1.2,-2.4 -3.6,-2.4 -2.4,-2.4 h -3.6 l -3.6,-2.4 -3.6,2.4 h -3.6 l -2.4,2.4 -3.6,2.4 -2.4,2.4 -1.2,2.4 -1.2,3.6 v 7.2 l 1.2,3.6 1.2,2.4 2.4,2.4 3.6,2.4 2.4,1.2 3.6,1.2 h 3.6" style="fill:#000;fill-opacity:1;fill-rule:evenodd;stroke:none" id="path862"/><path d="m 1398,837.6 h 3.6 l 3.6,-1.2 2.4,-1.2 3.6,-2.4 1.2,-2.4 2.4,-2.4 1.2,-3.6 v -7.2 l -1.2,-3.6 -2.4,-2.4 -1.2,-2.4 -3.6,-2.4 -2.4,-2.4 h -3.6 l -3.6,-1.2 -3.6,1.2 h -3.6 l -2.4,2.4 -3.6,2.4 -2.4,2.4 -1.2,2.4 -1.2,3.6 v 7.2 l 1.2,3.6 1.2,2.4 2.4,2.4 3.6,2.4 2.4,1.2 3.6,1.2 z" style="fill:none;stroke:#000;stroke-width:7.5;stroke-linecap:round;stroke-linejoin:round;stroke-miterlimit:10;stroke-dasharray:none;stroke-opacity:1" id="path864"/><path d="m 1398,837.6 h 3.6 l 3.6,-1.2 2.4,-1.2 3.6,-2.4 1.2,-2.4 2.4,-2.4 1.2,-3.6 v -7.2 l -1.2,-3.6 -2.4,-2.4 -1.2,-2.4 -3.6,-2.4 -2.4,-2.4 h -3.6 l -3.6,-1.2 -3.6,1.2 h -3.6 l -2.4,2.4 -3.6,2.4 -2.4,2.4 -1.2,2.4 -1.2,3.6 v 7.2 l 1.2,3.6 1.2,2.4 2.4,2.4 3.6,2.4 2.4,1.2 3.6,1.2 z" style="fill:none;stroke:#000;stroke-width:7.5;stroke-linecap:round;stroke-linejoin:round;stroke-miterlimit:10;stroke-dasharray:none;stroke-opacity:1" id="path866"/><path d="m 798,837.6 h 3.6 l 3.6,-1.2 2.4,-1.2 3.6,-2.4 1.2,-2.4 2.4,-2.4 2.4,-3.6 v -7.2 l -2.4,-3.6 -2.4,-2.4 -1.2,-2.4 -3.6,-2.4 -2.4,-2.4 h -3.6 l -3.6,-2.4 -3.6,2.4 h -3.6 l -2.4,2.4 -3.6,2.4 -2.4,2.4 -1.2,2.4 -1.2,3.6 v 7.2 l 1.2,3.6 1.2,2.4 2.4,2.4 3.6,2.4 2.4,1.2 3.6,1.2 h 3.6" style="fill:#000;fill-opacity:1;fill-rule:evenodd;stroke:none" id="path868"/><path d="m 798,837.6 h 3.6 l 3.6,-1.2 2.4,-1.2 3.6,-2.4 1.2,-2.4 2.4,-2.4 1.2,-3.6 v -7.2 l -1.2,-3.6 -2.4,-2.4 -1.2,-2.4 -3.6,-2.4 -2.4,-2.4 h -3.6 l -3.6,-1.2 -3.6,1.2 h -3.6 l -2.4,2.4 -3.6,2.4 -2.4,2.4 -1.2,2.4 -1.2,3.6 v 7.2 l 1.2,3.6 1.2,2.4 2.4,2.4 3.6,2.4 2.4,1.2 3.6,1.2 z" style="fill:none;stroke:#000;stroke-width:7.5;stroke-linecap:round;stroke-linejoin:round;stroke-miterlimit:10;stroke-dasharray:none;stroke-opacity:1" id="path870"/><path d="m 798,837.6 h 3.6 l 3.6,-1.2 2.4,-1.2 3.6,-2.4 1.2,-2.4 2.4,-2.4 1.2,-3.6 v -7.2 l -1.2,-3.6 -2.4,-2.4 -1.2,-2.4 -3.6,-2.4 -2.4,-2.4 h -3.6 l -3.6,-1.2 -3.6,1.2 h -3.6 l -2.4,2.4 -3.6,2.4 -2.4,2.4 -1.2,2.4 -1.2,3.6 v 7.2 l 1.2,3.6 1.2,2.4 2.4,2.4 3.6,2.4 2.4,1.2 3.6,1.2 z" style="fill:none;stroke:#000;stroke-width:7.5;stroke-linecap:round;stroke-linejoin:round;stroke-miterlimit:10;stroke-dasharray:none;stroke-opacity:1" id="path872"/><path d="m 1698,837.6 h 3.6 l 3.6,-1.2 2.4,-1.2 3.6,-2.4 1.2,-2.4 2.4,-2.4 2.4,-3.6 v -7.2 l -2.4,-3.6 -2.4,-2.4 -1.2,-3.6 -3.6,-1.2 -2.4,-2.4 h -3.6 l -3.6,-2.4 -3.6,2.4 h -3.6 l -2.4,2.4 -3.6,1.2 -2.4,3.6 -1.2,2.4 -1.2,3.6 v 7.2 l 1.2,3.6 1.2,2.4 2.4,2.4 3.6,2.4 2.4,1.2 3.6,1.2 h 3.6" style="fill:#000;fill-opacity:1;fill-rule:evenodd;stroke:none" id="path874"/><path d="m 1698,837.6 h 3.6 l 3.6,-1.2 2.4,-1.2 3.6,-2.4 1.2,-2.4 2.4,-2.4 1.2,-3.6 v -7.2 l -1.2,-3.6 -2.4,-2.4 -1.2,-3.6 -3.6,-1.2 -2.4,-2.4 h -3.6 l -3.6,-1.2 -3.6,1.2 h -3.6 l -2.4,2.4 -3.6,1.2 -2.4,3.6 -1.2,2.4 -1.2,3.6 v 7.2 l 1.2,3.6 1.2,2.4 2.4,2.4 3.6,2.4 2.4,1.2 3.6,1.2 z" style="fill:none;stroke:#000;stroke-width:7.5;stroke-linecap:round;stroke-linejoin:round;stroke-miterlimit:10;stroke-dasharray:none;stroke-opacity:1" id="path876"/><path d="m 1698,837.6 h 3.6 l 3.6,-1.2 2.4,-1.2 3.6,-2.4 1.2,-2.4 2.4,-2.4 1.2,-3.6 v -7.2 l -1.2,-3.6 -2.4,-2.4 -1.2,-3.6 -3.6,-1.2 -2.4,-2.4 h -3.6 l -3.6,-1.2 -3.6,1.2 h -3.6 l -2.4,2.4 -3.6,1.2 -2.4,3.6 -1.2,2.4 -1.2,3.6 v 7.2 l 1.2,3.6 1.2,2.4 2.4,2.4 3.6,2.4 2.4,1.2 3.6,1.2 z" style="fill:none;stroke:#000;stroke-width:7.5;stroke-linecap:round;stroke-linejoin:round;stroke-miterlimit:10;stroke-dasharray:none;stroke-opacity:1" id="path878"/><path d="m 1098,1136.4 h 3.6 l 3.6,-1.2 2.4,-1.2 3.6,-2.4 1.2,-2.4 2.4,-2.4 2.4,-3.6 v -7.2 l -2.4,-3.6 -2.4,-2.4 -1.2,-2.4 -3.6,-2.4 -2.4,-2.4 h -3.6 l -3.6,-2.4 -3.6,2.4 h -3.6 l -2.4,2.4 -3.6,2.4 -2.4,2.4 -1.2,2.4 -1.2,3.6 v 7.2 l 1.2,3.6 1.2,2.4 2.4,2.4 3.6,2.4 2.4,1.2 3.6,1.2 h 3.6" style="fill:#000;fill-opacity:1;fill-rule:evenodd;stroke:none" id="path880"/><path d="m 1098,1136.4 h 3.6 l 3.6,-1.2 2.4,-1.2 3.6,-2.4 1.2,-2.4 2.4,-2.4 1.2,-3.6 v -7.2 l -1.2,-3.6 -2.4,-2.4 -1.2,-2.4 -3.6,-2.4 -2.4,-2.4 h -3.6 l -3.6,-1.2 -3.6,1.2 h -3.6 l -2.4,2.4 -3.6,2.4 -2.4,2.4 -1.2,2.4 -1.2,3.6 v 7.2 l 1.2,3.6 1.2,2.4 2.4,2.4 3.6,2.4 2.4,1.2 3.6,1.2 z" style="fill:none;stroke:#000;stroke-width:7.5;stroke-linecap:round;stroke-linejoin:round;stroke-miterlimit:10;stroke-dasharray:none;stroke-opacity:1" id="path882"/><path d="m 1098,1136.4 h 3.6 l 3.6,-1.2 2.4,-1.2 3.6,-2.4 1.2,-2.4 2.4,-2.4 1.2,-3.6 v -7.2 l -1.2,-3.6 -2.4,-2.4 -1.2,-2.4 -3.6,-2.4 -2.4,-2.4 h -3.6 l -3.6,-1.2 -3.6,1.2 h -3.6 l -2.4,2.4 -3.6,2.4 -2.4,2.4 -1.2,2.4 -1.2,3.6 v 7.2 l 1.2,3.6 1.2,2.4 2.4,2.4 3.6,2.4 2.4,1.2 3.6,1.2 z" style="fill:none;stroke:#000;stroke-width:7.5;stroke-linecap:round;stroke-linejoin:round;stroke-miterlimit:10;stroke-dasharray:none;stroke-opacity:1" id="path884"/><path d="m 1398,1136.4 h 3.6 l 3.6,-1.2 2.4,-1.2 3.6,-2.4 1.2,-2.4 2.4,-2.4 2.4,-3.6 v -7.2 l -2.4,-3.6 -2.4,-2.4 -1.2,-2.4 -3.6,-2.4 -2.4,-2.4 h -3.6 l -3.6,-2.4 -3.6,2.4 h -3.6 l -2.4,2.4 -3.6,2.4 -2.4,2.4 -1.2,2.4 -1.2,3.6 v 7.2 l 1.2,3.6 1.2,2.4 2.4,2.4 3.6,2.4 2.4,1.2 3.6,1.2 h 3.6" style="fill:#000;fill-opacity:1;fill-rule:evenodd;stroke:none" id="path886"/><path d="m 1398,1136.4 h 3.6 l 3.6,-1.2 2.4,-1.2 3.6,-2.4 1.2,-2.4 2.4,-2.4 1.2,-3.6 v -7.2 l -1.2,-3.6 -2.4,-2.4 -1.2,-2.4 -3.6,-2.4 -2.4,-2.4 h -3.6 l -3.6,-1.2 -3.6,1.2 h -3.6 l -2.4,2.4 -3.6,2.4 -2.4,2.4 -1.2,2.4 -1.2,3.6 v 7.2 l 1.2,3.6 1.2,2.4 2.4,2.4 3.6,2.4 2.4,1.2 3.6,1.2 z" style="fill:none;stroke:#000;stroke-width:7.5;stroke-linecap:round;stroke-linejoin:round;stroke-miterlimit:10;stroke-dasharray:none;stroke-opacity:1" id="path888"/><path d="m 1398,1136.4 h 3.6 l 3.6,-1.2 2.4,-1.2 3.6,-2.4 1.2,-2.4 2.4,-2.4 1.2,-3.6 v -7.2 l -1.2,-3.6 -2.4,-2.4 -1.2,-2.4 -3.6,-2.4 -2.4,-2.4 h -3.6 l -3.6,-1.2 -3.6,1.2 h -3.6 l -2.4,2.4 -3.6,2.4 -2.4,2.4 -1.2,2.4 -1.2,3.6 v 7.2 l 1.2,3.6 1.2,2.4 2.4,2.4 3.6,2.4 2.4,1.2 3.6,1.2 z" style="fill:none;stroke:#000;stroke-width:7.5;stroke-linecap:round;stroke-linejoin:round;stroke-miterlimit:10;stroke-dasharray:none;stroke-opacity:1" id="path890"/><path d="m 1698,1136.4 h 3.6 l 3.6,-1.2 2.4,-1.2 3.6,-2.4 1.2,-2.4 2.4,-2.4 2.4,-3.6 v -7.2 l -2.4,-3.6 -2.4,-2.4 -1.2,-3.6 -3.6,-1.2 -2.4,-2.4 h -3.6 l -3.6,-2.4 -3.6,2.4 h -3.6 l -2.4,2.4 -3.6,1.2 -2.4,3.6 -1.2,2.4 -1.2,3.6 v 7.2 l 1.2,3.6 1.2,2.4 2.4,2.4 3.6,2.4 2.4,1.2 3.6,1.2 h 3.6" style="fill:#000;fill-opacity:1;fill-rule:evenodd;stroke:none" id="path892"/><path d="m 1698,1136.4 h 3.6 l 3.6,-1.2 2.4,-1.2 3.6,-2.4 1.2,-2.4 2.4,-2.4 1.2,-3.6 v -7.2 l -1.2,-3.6 -2.4,-2.4 -1.2,-3.6 -3.6,-1.2 -2.4,-2.4 h -3.6 l -3.6,-1.2 -3.6,1.2 h -3.6 l -2.4,2.4 -3.6,1.2 -2.4,3.6 -1.2,2.4 -1.2,3.6 v 7.2 l 1.2,3.6 1.2,2.4 2.4,2.4 3.6,2.4 2.4,1.2 3.6,1.2 z" style="fill:none;stroke:#000;stroke-width:7.5;stroke-linecap:round;stroke-linejoin:round;stroke-miterlimit:10;stroke-dasharray:none;stroke-opacity:1" id="path894"/><path d="m 1698,1136.4 h 3.6 l 3.6,-1.2 2.4,-1.2 3.6,-2.4 1.2,-2.4 2.4,-2.4 1.2,-3.6 v -7.2 l -1.2,-3.6 -2.4,-2.4 -1.2,-3.6 -3.6,-1.2 -2.4,-2.4 h -3.6 l -3.6,-1.2 -3.6,1.2 h -3.6 l -2.4,2.4 -3.6,1.2 -2.4,3.6 -1.2,2.4 -1.2,3.6 v 7.2 l 1.2,3.6 1.2,2.4 2.4,2.4 3.6,2.4 2.4,1.2 3.6,1.2 z" style="fill:none;stroke:#000;stroke-width:7.5;stroke-linecap:round;stroke-linejoin:round;stroke-miterlimit:10;stroke-dasharray:none;stroke-opacity:1" id="path896"/><path d="m 1098,1436.4 h 3.6 l 3.6,-1.2 2.4,-1.2 3.6,-2.4 1.2,-2.4 2.4,-2.4 2.4,-3.6 v -7.2 l -2.4,-3.6 -2.4,-2.4 -1.2,-2.4 -3.6,-2.4 -2.4,-2.4 h -3.6 l -3.6,-2.4 -3.6,2.4 h -3.6 l -2.4,2.4 -3.6,2.4 -2.4,2.4 -1.2,2.4 -1.2,3.6 v 7.2 l 1.2,3.6 1.2,2.4 2.4,2.4 3.6,2.4 2.4,1.2 3.6,1.2 h 3.6" style="fill:#000;fill-opacity:1;fill-rule:evenodd;stroke:none" id="path898"/><path d="m 1098,1436.4 h 3.6 l 3.6,-1.2 2.4,-1.2 3.6,-2.4 1.2,-2.4 2.4,-2.4 1.2,-3.6 v -7.2 l -1.2,-3.6 -2.4,-2.4 -1.2,-2.4 -3.6,-2.4 -2.4,-2.4 h -3.6 l -3.6,-1.2 -3.6,1.2 h -3.6 l -2.4,2.4 -3.6,2.4 -2.4,2.4 -1.2,2.4 -1.2,3.6 v 7.2 l 1.2,3.6 1.2,2.4 2.4,2.4 3.6,2.4 2.4,1.2 3.6,1.2 z" style="fill:none;stroke:#000;stroke-width:7.5;stroke-linecap:round;stroke-linejoin:round;stroke-miterlimit:10;stroke-dasharray:none;stroke-opacity:1" id="path900"/><path d="m 1098,1436.4 h 3.6 l 3.6,-1.2 2.4,-1.2 3.6,-2.4 1.2,-2.4 2.4,-2.4 1.2,-3.6 v -7.2 l -1.2,-3.6 -2.4,-2.4 -1.2,-2.4 -3.6,-2.4 -2.4,-2.4 h -3.6 l -3.6,-1.2 -3.6,1.2 h -3.6 l -2.4,2.4 -3.6,2.4 -2.4,2.4 -1.2,2.4 -1.2,3.6 v 7.2 l 1.2,3.6 1.2,2.4 2.4,2.4 3.6,2.4 2.4,1.2 3.6,1.2 z" style="fill:none;stroke:#000;stroke-width:7.5;stroke-linecap:round;stroke-linejoin:round;stroke-miterlimit:10;stroke-dasharray:none;stroke-opacity:1" id="path902"/><path d="m 1398,1436.4 h 3.6 l 3.6,-1.2 2.4,-1.2 3.6,-2.4 1.2,-2.4 2.4,-2.4 2.4,-3.6 v -7.2 l -2.4,-3.6 -2.4,-2.4 -1.2,-2.4 -3.6,-2.4 -2.4,-2.4 h -3.6 l -3.6,-2.4 -3.6,2.4 h -3.6 l -2.4,2.4 -3.6,2.4 -2.4,2.4 -1.2,2.4 -1.2,3.6 v 7.2 l 1.2,3.6 1.2,2.4 2.4,2.4 3.6,2.4 2.4,1.2 3.6,1.2 h 3.6" style="fill:#000;fill-opacity:1;fill-rule:evenodd;stroke:none" id="path904"/><path d="m 1398,1436.4 h 3.6 l 3.6,-1.2 2.4,-1.2 3.6,-2.4 1.2,-2.4 2.4,-2.4 1.2,-3.6 v -7.2 l -1.2,-3.6 -2.4,-2.4 -1.2,-2.4 -3.6,-2.4 -2.4,-2.4 h -3.6 l -3.6,-1.2 -3.6,1.2 h -3.6 l -2.4,2.4 -3.6,2.4 -2.4,2.4 -1.2,2.4 -1.2,3.6 v 7.2 l 1.2,3.6 1.2,2.4 2.4,2.4 3.6,2.4 2.4,1.2 3.6,1.2 z" style="fill:none;stroke:#000;stroke-width:7.5;stroke-linecap:round;stroke-linejoin:round;stroke-miterlimit:10;stroke-dasharray:none;stroke-opacity:1" id="path906"/><path d="m 1398,1436.4 h 3.6 l 3.6,-1.2 2.4,-1.2 3.6,-2.4 1.2,-2.4 2.4,-2.4 1.2,-3.6 v -7.2 l -1.2,-3.6 -2.4,-2.4 -1.2,-2.4 -3.6,-2.4 -2.4,-2.4 h -3.6 l -3.6,-1.2 -3.6,1.2 h -3.6 l -2.4,2.4 -3.6,2.4 -2.4,2.4 -1.2,2.4 -1.2,3.6 v 7.2 l 1.2,3.6 1.2,2.4 2.4,2.4 3.6,2.4 2.4,1.2 3.6,1.2 z" style="fill:none;stroke:#000;stroke-width:7.5;stroke-linecap:round;stroke-linejoin:round;stroke-miterlimit:10;stroke-dasharray:none;stroke-opacity:1" id="path908"/><path d="m 1698,1436.4 h 3.6 l 3.6,-1.2 2.4,-1.2 3.6,-2.4 1.2,-2.4 2.4,-2.4 2.4,-3.6 v -7.2 l -2.4,-3.6 -2.4,-2.4 -1.2,-3.6 -3.6,-1.2 -2.4,-2.4 h -3.6 l -3.6,-2.4 -3.6,2.4 h -3.6 l -2.4,2.4 -3.6,1.2 -2.4,3.6 -1.2,2.4 -1.2,3.6 v 7.2 l 1.2,3.6 1.2,2.4 2.4,2.4 3.6,2.4 2.4,1.2 3.6,1.2 h 3.6" style="fill:#000;fill-opacity:1;fill-rule:evenodd;stroke:none" id="path910"/><path d="m 1698,1436.4 h 3.6 l 3.6,-1.2 2.4,-1.2 3.6,-2.4 1.2,-2.4 2.4,-2.4 1.2,-3.6 v -7.2 l -1.2,-3.6 -2.4,-2.4 -1.2,-3.6 -3.6,-1.2 -2.4,-2.4 h -3.6 l -3.6,-1.2 -3.6,1.2 h -3.6 l -2.4,2.4 -3.6,1.2 -2.4,3.6 -1.2,2.4 -1.2,3.6 v 7.2 l 1.2,3.6 1.2,2.4 2.4,2.4 3.6,2.4 2.4,1.2 3.6,1.2 z" style="fill:none;stroke:#000;stroke-width:7.5;stroke-linecap:round;stroke-linejoin:round;stroke-miterlimit:10;stroke-dasharray:none;stroke-opacity:1" id="path912"/><path d="m 1698,1436.4 h 3.6 l 3.6,-1.2 2.4,-1.2 3.6,-2.4 1.2,-2.4 2.4,-2.4 1.2,-3.6 v -7.2 l -1.2,-3.6 -2.4,-2.4 -1.2,-3.6 -3.6,-1.2 -2.4,-2.4 h -3.6 l -3.6,-1.2 -3.6,1.2 h -3.6 l -2.4,2.4 -3.6,1.2 -2.4,3.6 -1.2,2.4 -1.2,3.6 v 7.2 l 1.2,3.6 1.2,2.4 2.4,2.4 3.6,2.4 2.4,1.2 3.6,1.2 z" style="fill:none;stroke:#000;stroke-width:7.5;stroke-linecap:round;stroke-linejoin:round;stroke-miterlimit:10;stroke-dasharray:none;stroke-opacity:1" id="path914"/><path d="m 198,537.6 h 3.6 l 3.6,-1.2 2.4,-1.2 3.6,-2.4 1.2,-2.4 2.4,-2.4 2.4,-3.6 v -7.2 l -2.4,-3.6 -2.4,-2.4 -1.2,-3.6 -3.6,-1.2 -2.4,-2.4 h -3.6 l -3.6,-2.4 -3.6,2.4 h -3.6 l -2.4,2.4 -3.6,1.2 -2.4,3.6 -1.2,2.4 -1.2,3.6 v 7.2 l 1.2,3.6 1.2,2.4 2.4,2.4 3.6,2.4 2.4,1.2 3.6,1.2 h 3.6" style="fill:#000;fill-opacity:1;fill-rule:evenodd;stroke:none" id="path916"/><path d="m 198,537.6 h 3.6 l 3.6,-1.2 2.4,-1.2 3.6,-2.4 1.2,-2.4 2.4,-2.4 1.2,-3.6 v -7.2 l -1.2,-3.6 -2.4,-2.4 -1.2,-3.6 -3.6,-1.2 -2.4,-2.4 h -3.6 l -3.6,-1.2 -3.6,1.2 h -3.6 l -2.4,2.4 -3.6,1.2 -2.4,3.6 -1.2,2.4 -1.2,3.6 v 7.2 l 1.2,3.6 1.2,2.4 2.4,2.4 3.6,2.4 2.4,1.2 3.6,1.2 z" style="fill:none;stroke:#000;stroke-width:7.5;stroke-linecap:round;stroke-linejoin:round;stroke-miterlimit:10;stroke-dasharray:none;stroke-opacity:1" id="path918"/><path d="m 198,537.6 h 3.6 l 3.6,-1.2 2.4,-1.2 3.6,-2.4 1.2,-2.4 2.4,-2.4 1.2,-3.6 v -7.2 l -1.2,-3.6 -2.4,-2.4 -1.2,-3.6 -3.6,-1.2 -2.4,-2.4 h -3.6 l -3.6,-1.2 -3.6,1.2 h -3.6 l -2.4,2.4 -3.6,1.2 -2.4,3.6 -1.2,2.4 -1.2,3.6 v 7.2 l 1.2,3.6 1.2,2.4 2.4,2.4 3.6,2.4 2.4,1.2 3.6,1.2 z" style="fill:none;stroke:#000;stroke-width:7.5;stroke-linecap:round;stroke-linejoin:round;stroke-miterlimit:10;stroke-dasharray:none;stroke-opacity:1" id="path920"/><path d="m 498,537.6 h 3.6 l 3.6,-1.2 2.4,-1.2 3.6,-2.4 1.2,-2.4 2.4,-2.4 2.4,-3.6 v -7.2 l -2.4,-3.6 -2.4,-2.4 -1.2,-3.6 -3.6,-1.2 -2.4,-2.4 h -3.6 l -3.6,-2.4 -3.6,2.4 h -3.6 l -2.4,2.4 -3.6,1.2 -2.4,3.6 -1.2,2.4 -1.2,3.6 v 7.2 l 1.2,3.6 1.2,2.4 2.4,2.4 3.6,2.4 2.4,1.2 3.6,1.2 h 3.6" style="fill:#000;fill-opacity:1;fill-rule:evenodd;stroke:none" id="path922"/><path d="m 498,537.6 h 3.6 l 3.6,-1.2 2.4,-1.2 3.6,-2.4 1.2,-2.4 2.4,-2.4 1.2,-3.6 v -7.2 l -1.2,-3.6 -2.4,-2.4 -1.2,-3.6 -3.6,-1.2 -2.4,-2.4 h -3.6 l -3.6,-1.2 -3.6,1.2 h -3.6 l -2.4,2.4 -3.6,1.2 -2.4,3.6 -1.2,2.4 -1.2,3.6 v 7.2 l 1.2,3.6 1.2,2.4 2.4,2.4 3.6,2.4 2.4,1.2 3.6,1.2 z" style="fill:none;stroke:#000;stroke-width:7.5;stroke-linecap:round;stroke-linejoin:round;stroke-miterlimit:10;stroke-dasharray:none;stroke-opacity:1" id="path924"/><path d="m 498,537.6 h 3.6 l 3.6,-1.2 2.4,-1.2 3.6,-2.4 1.2,-2.4 2.4,-2.4 1.2,-3.6 v -7.2 l -1.2,-3.6 -2.4,-2.4 -1.2,-3.6 -3.6,-1.2 -2.4,-2.4 h -3.6 l -3.6,-1.2 -3.6,1.2 h -3.6 l -2.4,2.4 -3.6,1.2 -2.4,3.6 -1.2,2.4 -1.2,3.6 v 7.2 l 1.2,3.6 1.2,2.4 2.4,2.4 3.6,2.4 2.4,1.2 3.6,1.2 z" style="fill:none;stroke:#000;stroke-width:7.5;stroke-linecap:round;stroke-linejoin:round;stroke-miterlimit:10;stroke-dasharray:none;stroke-opacity:1" id="path926"/><path d="m 1098,537.6 h 3.6 l 3.6,-1.2 2.4,-1.2 3.6,-2.4 1.2,-2.4 2.4,-2.4 2.4,-3.6 v -7.2 l -2.4,-3.6 -2.4,-2.4 -1.2,-3.6 -3.6,-1.2 -2.4,-2.4 h -3.6 l -3.6,-2.4 -3.6,2.4 h -3.6 l -2.4,2.4 -3.6,1.2 -2.4,3.6 -1.2,2.4 -1.2,3.6 v 7.2 l 1.2,3.6 1.2,2.4 2.4,2.4 3.6,2.4 2.4,1.2 3.6,1.2 h 3.6" style="fill:#000;fill-opacity:1;fill-rule:evenodd;stroke:none" id="path928"/><path d="m 1098,537.6 h 3.6 l 3.6,-1.2 2.4,-1.2 3.6,-2.4 1.2,-2.4 2.4,-2.4 1.2,-3.6 v -7.2 l -1.2,-3.6 -2.4,-2.4 -1.2,-3.6 -3.6,-1.2 -2.4,-2.4 h -3.6 l -3.6,-1.2 -3.6,1.2 h -3.6 l -2.4,2.4 -3.6,1.2 -2.4,3.6 -1.2,2.4 -1.2,3.6 v 7.2 l 1.2,3.6 1.2,2.4 2.4,2.4 3.6,2.4 2.4,1.2 3.6,1.2 z" style="fill:none;stroke:#000;stroke-width:7.5;stroke-linecap:round;stroke-linejoin:round;stroke-miterlimit:10;stroke-dasharray:none;stroke-opacity:1" id="path930"/><path d="m 1098,537.6 h 3.6 l 3.6,-1.2 2.4,-1.2 3.6,-2.4 1.2,-2.4 2.4,-2.4 1.2,-3.6 v -7.2 l -1.2,-3.6 -2.4,-2.4 -1.2,-3.6 -3.6,-1.2 -2.4,-2.4 h -3.6 l -3.6,-1.2 -3.6,1.2 h -3.6 l -2.4,2.4 -3.6,1.2 -2.4,3.6 -1.2,2.4 -1.2,3.6 v 7.2 l 1.2,3.6 1.2,2.4 2.4,2.4 3.6,2.4 2.4,1.2 3.6,1.2 z" style="fill:none;stroke:#000;stroke-width:7.5;stroke-linecap:round;stroke-linejoin:round;stroke-miterlimit:10;stroke-dasharray:none;stroke-opacity:1" id="path932"/><path d="m 1398,537.6 h 3.6 l 3.6,-1.2 2.4,-1.2 3.6,-2.4 1.2,-2.4 2.4,-2.4 2.4,-3.6 v -7.2 l -2.4,-3.6 -2.4,-2.4 -1.2,-3.6 -3.6,-1.2 -2.4,-2.4 h -3.6 l -3.6,-2.4 -3.6,2.4 h -3.6 l -2.4,2.4 -3.6,1.2 -2.4,3.6 -1.2,2.4 -1.2,3.6 v 7.2 l 1.2,3.6 1.2,2.4 2.4,2.4 3.6,2.4 2.4,1.2 3.6,1.2 h 3.6" style="fill:#000;fill-opacity:1;fill-rule:evenodd;stroke:none" id="path934"/><path d="m 1398,537.6 h 3.6 l 3.6,-1.2 2.4,-1.2 3.6,-2.4 1.2,-2.4 2.4,-2.4 1.2,-3.6 v -7.2 l -1.2,-3.6 -2.4,-2.4 -1.2,-3.6 -3.6,-1.2 -2.4,-2.4 h -3.6 l -3.6,-1.2 -3.6,1.2 h -3.6 l -2.4,2.4 -3.6,1.2 -2.4,3.6 -1.2,2.4 -1.2,3.6 v 7.2 l 1.2,3.6 1.2,2.4 2.4,2.4 3.6,2.4 2.4,1.2 3.6,1.2 z" style="fill:none;stroke:#000;stroke-width:7.5;stroke-linecap:round;stroke-linejoin:round;stroke-miterlimit:10;stroke-dasharray:none;stroke-opacity:1" id="path936"/><path d="m 1398,537.6 h 3.6 l 3.6,-1.2 2.4,-1.2 3.6,-2.4 1.2,-2.4 2.4,-2.4 1.2,-3.6 v -7.2 l -1.2,-3.6 -2.4,-2.4 -1.2,-3.6 -3.6,-1.2 -2.4,-2.4 h -3.6 l -3.6,-1.2 -3.6,1.2 h -3.6 l -2.4,2.4 -3.6,1.2 -2.4,3.6 -1.2,2.4 -1.2,3.6 v 7.2 l 1.2,3.6 1.2,2.4 2.4,2.4 3.6,2.4 2.4,1.2 3.6,1.2 z" style="fill:none;stroke:#000;stroke-width:7.5;stroke-linecap:round;stroke-linejoin:round;stroke-miterlimit:10;stroke-dasharray:none;stroke-opacity:1" id="path938"/><path d="m 798,537.6 h 3.6 l 3.6,-1.2 2.4,-1.2 3.6,-2.4 1.2,-2.4 2.4,-2.4 2.4,-3.6 v -7.2 l -2.4,-3.6 -2.4,-2.4 -1.2,-3.6 -3.6,-1.2 -2.4,-2.4 h -3.6 l -3.6,-2.4 -3.6,2.4 h -3.6 l -2.4,2.4 -3.6,1.2 -2.4,3.6 -1.2,2.4 -1.2,3.6 v 7.2 l 1.2,3.6 1.2,2.4 2.4,2.4 3.6,2.4 2.4,1.2 3.6,1.2 h 3.6" style="fill:#000;fill-opacity:1;fill-rule:evenodd;stroke:none" id="path940"/><path d="m 798,537.6 h 3.6 l 3.6,-1.2 2.4,-1.2 3.6,-2.4 1.2,-2.4 2.4,-2.4 1.2,-3.6 v -7.2 l -1.2,-3.6 -2.4,-2.4 -1.2,-3.6 -3.6,-1.2 -2.4,-2.4 h -3.6 l -3.6,-1.2 -3.6,1.2 h -3.6 l -2.4,2.4 -3.6,1.2 -2.4,3.6 -1.2,2.4 -1.2,3.6 v 7.2 l 1.2,3.6 1.2,2.4 2.4,2.4 3.6,2.4 2.4,1.2 3.6,1.2 z" style="fill:none;stroke:#000;stroke-width:7.5;stroke-linecap:round;stroke-linejoin:round;stroke-miterlimit:10;stroke-dasharray:none;stroke-opacity:1" id="path942"/><path d="m 798,537.6 h 3.6 l 3.6,-1.2 2.4,-1.2 3.6,-2.4 1.2,-2.4 2.4,-2.4 1.2,-3.6 v -7.2 l -1.2,-3.6 -2.4,-2.4 -1.2,-3.6 -3.6,-1.2 -2.4,-2.4 h -3.6 l -3.6,-1.2 -3.6,1.2 h -3.6 l -2.4,2.4 -3.6,1.2 -2.4,3.6 -1.2,2.4 -1.2,3.6 v 7.2 l 1.2,3.6 1.2,2.4 2.4,2.4 3.6,2.4 2.4,1.2 3.6,1.2 z" style="fill:none;stroke:#000;stroke-width:7.5;stroke-linecap:round;stroke-linejoin:round;stroke-miterlimit:10;stroke-dasharray:none;stroke-opacity:1" id="path944"/><path d="m 1698,537.6 h 3.6 l 3.6,-1.2 2.4,-1.2 3.6,-2.4 1.2,-2.4 2.4,-2.4 2.4,-3.6 v -7.2 l -2.4,-3.6 -2.4,-2.4 -1.2,-3.6 -3.6,-1.2 -2.4,-2.4 h -3.6 l -3.6,-2.4 -3.6,2.4 h -3.6 l -2.4,2.4 -3.6,1.2 -2.4,3.6 -1.2,2.4 -1.2,3.6 v 7.2 l 1.2,3.6 1.2,2.4 2.4,2.4 3.6,2.4 2.4,1.2 3.6,1.2 h 3.6" style="fill:#000;fill-opacity:1;fill-rule:evenodd;stroke:none" id="path946"/><path d="m 1698,537.6 h 3.6 l 3.6,-1.2 2.4,-1.2 3.6,-2.4 1.2,-2.4 2.4,-2.4 1.2,-3.6 v -7.2 l -1.2,-3.6 -2.4,-2.4 -1.2,-3.6 -3.6,-1.2 -2.4,-2.4 h -3.6 l -3.6,-1.2 -3.6,1.2 h -3.6 l -2.4,2.4 -3.6,1.2 -2.4,3.6 -1.2,2.4 -1.2,3.6 v 7.2 l 1.2,3.6 1.2,2.4 2.4,2.4 3.6,2.4 2.4,1.2 3.6,1.2 z" style="fill:none;stroke:#000;stroke-width:7.5;stroke-linecap:round;stroke-linejoin:round;stroke-miterlimit:10;stroke-dasharray:none;stroke-opacity:1" id="path948"/><path d="m 1698,537.6 h 3.6 l 3.6,-1.2 2.4,-1.2 3.6,-2.4 1.2,-2.4 2.4,-2.4 1.2,-3.6 v -7.2 l -1.2,-3.6 -2.4,-2.4 -1.2,-3.6 -3.6,-1.2 -2.4,-2.4 h -3.6 l -3.6,-1.2 -3.6,1.2 h -3.6 l -2.4,2.4 -3.6,1.2 -2.4,3.6 -1.2,2.4 -1.2,3.6 v 7.2 l 1.2,3.6 1.2,2.4 2.4,2.4 3.6,2.4 2.4,1.2 3.6,1.2 z" style="fill:none;stroke:#000;stroke-width:7.5;stroke-linecap:round;stroke-linejoin:round;stroke-miterlimit:10;stroke-dasharray:none;stroke-opacity:1" id="path950"/><path d="m 198,837.6 h 3.6 l 3.6,-1.2 2.4,-1.2 3.6,-2.4 1.2,-2.4 2.4,-2.4 2.4,-3.6 v -7.2 l -2.4,-3.6 -2.4,-2.4 -1.2,-2.4 -3.6,-2.4 -2.4,-2.4 h -3.6 l -3.6,-2.4 -3.6,2.4 h -3.6 l -2.4,2.4 -3.6,2.4 -2.4,2.4 -1.2,2.4 -1.2,3.6 v 7.2 l 1.2,3.6 1.2,2.4 2.4,2.4 3.6,2.4 2.4,1.2 3.6,1.2 h 3.6" style="fill:#000;fill-opacity:1;fill-rule:evenodd;stroke:none" id="path952"/><path d="m 198,837.6 h 3.6 l 3.6,-1.2 2.4,-1.2 3.6,-2.4 1.2,-2.4 2.4,-2.4 1.2,-3.6 v -7.2 l -1.2,-3.6 -2.4,-2.4 -1.2,-2.4 -3.6,-2.4 -2.4,-2.4 h -3.6 l -3.6,-1.2 -3.6,1.2 h -3.6 l -2.4,2.4 -3.6,2.4 -2.4,2.4 -1.2,2.4 -1.2,3.6 v 7.2 l 1.2,3.6 1.2,2.4 2.4,2.4 3.6,2.4 2.4,1.2 3.6,1.2 z" style="fill:none;stroke:#000;stroke-width:7.5;stroke-linecap:round;stroke-linejoin:round;stroke-miterlimit:10;stroke-dasharray:none;stroke-opacity:1" id="path954"/><path d="m 198,837.6 h 3.6 l 3.6,-1.2 2.4,-1.2 3.6,-2.4 1.2,-2.4 2.4,-2.4 1.2,-3.6 v -7.2 l -1.2,-3.6 -2.4,-2.4 -1.2,-2.4 -3.6,-2.4 -2.4,-2.4 h -3.6 l -3.6,-1.2 -3.6,1.2 h -3.6 l -2.4,2.4 -3.6,2.4 -2.4,2.4 -1.2,2.4 -1.2,3.6 v 7.2 l 1.2,3.6 1.2,2.4 2.4,2.4 3.6,2.4 2.4,1.2 3.6,1.2 z" style="fill:none;stroke:#000;stroke-width:7.5;stroke-linecap:round;stroke-linejoin:round;stroke-miterlimit:10;stroke-dasharray:none;stroke-opacity:1" id="path956"/><path d="m 498,837.6 h 3.6 l 3.6,-1.2 2.4,-1.2 3.6,-2.4 1.2,-2.4 2.4,-2.4 2.4,-3.6 v -7.2 l -2.4,-3.6 -2.4,-2.4 -1.2,-2.4 -3.6,-2.4 -2.4,-2.4 h -3.6 l -3.6,-2.4 -3.6,2.4 h -3.6 l -2.4,2.4 -3.6,2.4 -2.4,2.4 -1.2,2.4 -1.2,3.6 v 7.2 l 1.2,3.6 1.2,2.4 2.4,2.4 3.6,2.4 2.4,1.2 3.6,1.2 h 3.6" style="fill:#000;fill-opacity:1;fill-rule:evenodd;stroke:none" id="path958"/><path d="m 498,837.6 h 3.6 l 3.6,-1.2 2.4,-1.2 3.6,-2.4 1.2,-2.4 2.4,-2.4 1.2,-3.6 v -7.2 l -1.2,-3.6 -2.4,-2.4 -1.2,-2.4 -3.6,-2.4 -2.4,-2.4 h -3.6 l -3.6,-1.2 -3.6,1.2 h -3.6 l -2.4,2.4 -3.6,2.4 -2.4,2.4 -1.2,2.4 -1.2,3.6 v 7.2 l 1.2,3.6 1.2,2.4 2.4,2.4 3.6,2.4 2.4,1.2 3.6,1.2 z" style="fill:none;stroke:#000;stroke-width:7.5;stroke-linecap:round;stroke-linejoin:round;stroke-miterlimit:10;stroke-dasharray:none;stroke-opacity:1" id="path960"/><path d="m 498,837.6 h 3.6 l 3.6,-1.2 2.4,-1.2 3.6,-2.4 1.2,-2.4 2.4,-2.4 1.2,-3.6 v -7.2 l -1.2,-3.6 -2.4,-2.4 -1.2,-2.4 -3.6,-2.4 -2.4,-2.4 h -3.6 l -3.6,-1.2 -3.6,1.2 h -3.6 l -2.4,2.4 -3.6,2.4 -2.4,2.4 -1.2,2.4 -1.2,3.6 v 7.2 l 1.2,3.6 1.2,2.4 2.4,2.4 3.6,2.4 2.4,1.2 3.6,1.2 z" style="fill:none;stroke:#000;stroke-width:7.5;stroke-linecap:round;stroke-linejoin:round;stroke-miterlimit:10;stroke-dasharray:none;stroke-opacity:1" id="path962"/><path d="m 1098,837.6 h 3.6 l 3.6,-1.2 2.4,-1.2 3.6,-2.4 1.2,-2.4 2.4,-2.4 2.4,-3.6 v -7.2 l -2.4,-3.6 -2.4,-2.4 -1.2,-2.4 -3.6,-2.4 -2.4,-2.4 h -3.6 l -3.6,-2.4 -3.6,2.4 h -3.6 l -2.4,2.4 -3.6,2.4 -2.4,2.4 -1.2,2.4 -1.2,3.6 v 7.2 l 1.2,3.6 1.2,2.4 2.4,2.4 3.6,2.4 2.4,1.2 3.6,1.2 h 3.6" style="fill:#000;fill-opacity:1;fill-rule:evenodd;stroke:none" id="path964"/><path d="m 1098,837.6 h 3.6 l 3.6,-1.2 2.4,-1.2 3.6,-2.4 1.2,-2.4 2.4,-2.4 1.2,-3.6 v -7.2 l -1.2,-3.6 -2.4,-2.4 -1.2,-2.4 -3.6,-2.4 -2.4,-2.4 h -3.6 l -3.6,-1.2 -3.6,1.2 h -3.6 l -2.4,2.4 -3.6,2.4 -2.4,2.4 -1.2,2.4 -1.2,3.6 v 7.2 l 1.2,3.6 1.2,2.4 2.4,2.4 3.6,2.4 2.4,1.2 3.6,1.2 z" style="fill:none;stroke:#000;stroke-width:7.5;stroke-linecap:round;stroke-linejoin:round;stroke-miterlimit:10;stroke-dasharray:none;stroke-opacity:1" id="path966"/><path d="m 1098,837.6 h 3.6 l 3.6,-1.2 2.4,-1.2 3.6,-2.4 1.2,-2.4 2.4,-2.4 1.2,-3.6 v -7.2 l -1.2,-3.6 -2.4,-2.4 -1.2,-2.4 -3.6,-2.4 -2.4,-2.4 h -3.6 l -3.6,-1.2 -3.6,1.2 h -3.6 l -2.4,2.4 -3.6,2.4 -2.4,2.4 -1.2,2.4 -1.2,3.6 v 7.2 l 1.2,3.6 1.2,2.4 2.4,2.4 3.6,2.4 2.4,1.2 3.6,1.2 z" style="fill:none;stroke:#000;stroke-width:7.5;stroke-linecap:round;stroke-linejoin:round;stroke-miterlimit:10;stroke-dasharray:none;stroke-opacity:1" id="path968"/><path d="m 1398,837.6 h 3.6 l 3.6,-1.2 2.4,-1.2 3.6,-2.4 1.2,-2.4 2.4,-2.4 2.4,-3.6 v -7.2 l -2.4,-3.6 -2.4,-2.4 -1.2,-2.4 -3.6,-2.4 -2.4,-2.4 h -3.6 l -3.6,-2.4 -3.6,2.4 h -3.6 l -2.4,2.4 -3.6,2.4 -2.4,2.4 -1.2,2.4 -1.2,3.6 v 7.2 l 1.2,3.6 1.2,2.4 2.4,2.4 3.6,2.4 2.4,1.2 3.6,1.2 h 3.6" style="fill:#000;fill-opacity:1;fill-rule:evenodd;stroke:none" id="path970"/><path d="m 1398,837.6 h 3.6 l 3.6,-1.2 2.4,-1.2 3.6,-2.4 1.2,-2.4 2.4,-2.4 1.2,-3.6 v -7.2 l -1.2,-3.6 -2.4,-2.4 -1.2,-2.4 -3.6,-2.4 -2.4,-2.4 h -3.6 l -3.6,-1.2 -3.6,1.2 h -3.6 l -2.4,2.4 -3.6,2.4 -2.4,2.4 -1.2,2.4 -1.2,3.6 v 7.2 l 1.2,3.6 1.2,2.4 2.4,2.4 3.6,2.4 2.4,1.2 3.6,1.2 z" style="fill:none;stroke:#000;stroke-width:7.5;stroke-linecap:round;stroke-linejoin:round;stroke-miterlimit:10;stroke-dasharray:none;stroke-opacity:1" id="path972"/><path d="m 1398,837.6 h 3.6 l 3.6,-1.2 2.4,-1.2 3.6,-2.4 1.2,-2.4 2.4,-2.4 1.2,-3.6 v -7.2 l -1.2,-3.6 -2.4,-2.4 -1.2,-2.4 -3.6,-2.4 -2.4,-2.4 h -3.6 l -3.6,-1.2 -3.6,1.2 h -3.6 l -2.4,2.4 -3.6,2.4 -2.4,2.4 -1.2,2.4 -1.2,3.6 v 7.2 l 1.2,3.6 1.2,2.4 2.4,2.4 3.6,2.4 2.4,1.2 3.6,1.2 z" style="fill:none;stroke:#000;stroke-width:7.5;stroke-linecap:round;stroke-linejoin:round;stroke-miterlimit:10;stroke-dasharray:none;stroke-opacity:1" id="path974"/><path d="m 798,837.6 h 3.6 l 3.6,-1.2 2.4,-1.2 3.6,-2.4 1.2,-2.4 2.4,-2.4 2.4,-3.6 v -7.2 l -2.4,-3.6 -2.4,-2.4 -1.2,-2.4 -3.6,-2.4 -2.4,-2.4 h -3.6 l -3.6,-2.4 -3.6,2.4 h -3.6 l -2.4,2.4 -3.6,2.4 -2.4,2.4 -1.2,2.4 -1.2,3.6 v 7.2 l 1.2,3.6 1.2,2.4 2.4,2.4 3.6,2.4 2.4,1.2 3.6,1.2 h 3.6" style="fill:#000;fill-opacity:1;fill-rule:evenodd;stroke:none" id="path976"/><path d="m 798,837.6 h 3.6 l 3.6,-1.2 2.4,-1.2 3.6,-2.4 1.2,-2.4 2.4,-2.4 1.2,-3.6 v -7.2 l -1.2,-3.6 -2.4,-2.4 -1.2,-2.4 -3.6,-2.4 -2.4,-2.4 h -3.6 l -3.6,-1.2 -3.6,1.2 h -3.6 l -2.4,2.4 -3.6,2.4 -2.4,2.4 -1.2,2.4 -1.2,3.6 v 7.2 l 1.2,3.6 1.2,2.4 2.4,2.4 3.6,2.4 2.4,1.2 3.6,1.2 z" style="fill:none;stroke:#000;stroke-width:7.5;stroke-linecap:round;stroke-linejoin:round;stroke-miterlimit:10;stroke-dasharray:none;stroke-opacity:1" id="path978"/><path d="m 798,837.6 h 3.6 l 3.6,-1.2 2.4,-1.2 3.6,-2.4 1.2,-2.4 2.4,-2.4 1.2,-3.6 v -7.2 l -1.2,-3.6 -2.4,-2.4 -1.2,-2.4 -3.6,-2.4 -2.4,-2.4 h -3.6 l -3.6,-1.2 -3.6,1.2 h -3.6 l -2.4,2.4 -3.6,2.4 -2.4,2.4 -1.2,2.4 -1.2,3.6 v 7.2 l 1.2,3.6 1.2,2.4 2.4,2.4 3.6,2.4 2.4,1.2 3.6,1.2 z" style="fill:none;stroke:#000;stroke-width:7.5;stroke-linecap:round;stroke-linejoin:round;stroke-miterlimit:10;stroke-dasharray:none;stroke-opacity:1" id="path980"/><path d="m 1698,837.6 h 3.6 l 3.6,-1.2 2.4,-1.2 3.6,-2.4 1.2,-2.4 2.4,-2.4 2.4,-3.6 v -7.2 l -2.4,-3.6 -2.4,-2.4 -1.2,-3.6 -3.6,-1.2 -2.4,-2.4 h -3.6 l -3.6,-2.4 -3.6,2.4 h -3.6 l -2.4,2.4 -3.6,1.2 -2.4,3.6 -1.2,2.4 -1.2,3.6 v 7.2 l 1.2,3.6 1.2,2.4 2.4,2.4 3.6,2.4 2.4,1.2 3.6,1.2 h 3.6" style="fill:#000;fill-opacity:1;fill-rule:evenodd;stroke:none" id="path982"/><path d="m 1698,837.6 h 3.6 l 3.6,-1.2 2.4,-1.2 3.6,-2.4 1.2,-2.4 2.4,-2.4 1.2,-3.6 v -7.2 l -1.2,-3.6 -2.4,-2.4 -1.2,-3.6 -3.6,-1.2 -2.4,-2.4 h -3.6 l -3.6,-1.2 -3.6,1.2 h -3.6 l -2.4,2.4 -3.6,1.2 -2.4,3.6 -1.2,2.4 -1.2,3.6 v 7.2 l 1.2,3.6 1.2,2.4 2.4,2.4 3.6,2.4 2.4,1.2 3.6,1.2 z" style="fill:none;stroke:#000;stroke-width:7.5;stroke-linecap:round;stroke-linejoin:round;stroke-miterlimit:10;stroke-dasharray:none;stroke-opacity:1" id="path984"/><path d="m 1698,837.6 h 3.6 l 3.6,-1.2 2.4,-1.2 3.6,-2.4 1.2,-2.4 2.4,-2.4 1.2,-3.6 v -7.2 l -1.2,-3.6 -2.4,-2.4 -1.2,-3.6 -3.6,-1.2 -2.4,-2.4 h -3.6 l -3.6,-1.2 -3.6,1.2 h -3.6 l -2.4,2.4 -3.6,1.2 -2.4,3.6 -1.2,2.4 -1.2,3.6 v 7.2 l 1.2,3.6 1.2,2.4 2.4,2.4 3.6,2.4 2.4,1.2 3.6,1.2 z" style="fill:none;stroke:#000;stroke-width:7.5;stroke-linecap:round;stroke-linejoin:round;stroke-miterlimit:10;stroke-dasharray:none;stroke-opacity:1" id="path986"/><path d="m 1098,1136.4 h 3.6 l 3.6,-1.2 2.4,-1.2 3.6,-2.4 1.2,-2.4 2.4,-2.4 2.4,-3.6 v -7.2 l -2.4,-3.6 -2.4,-2.4 -1.2,-2.4 -3.6,-2.4 -2.4,-2.4 h -3.6 l -3.6,-2.4 -3.6,2.4 h -3.6 l -2.4,2.4 -3.6,2.4 -2.4,2.4 -1.2,2.4 -1.2,3.6 v 7.2 l 1.2,3.6 1.2,2.4 2.4,2.4 3.6,2.4 2.4,1.2 3.6,1.2 h 3.6" style="fill:#000;fill-opacity:1;fill-rule:evenodd;stroke:none" id="path988"/><path d="m 1098,1136.4 h 3.6 l 3.6,-1.2 2.4,-1.2 3.6,-2.4 1.2,-2.4 2.4,-2.4 1.2,-3.6 v -7.2 l -1.2,-3.6 -2.4,-2.4 -1.2,-2.4 -3.6,-2.4 -2.4,-2.4 h -3.6 l -3.6,-1.2 -3.6,1.2 h -3.6 l -2.4,2.4 -3.6,2.4 -2.4,2.4 -1.2,2.4 -1.2,3.6 v 7.2 l 1.2,3.6 1.2,2.4 2.4,2.4 3.6,2.4 2.4,1.2 3.6,1.2 z" style="fill:none;stroke:#000;stroke-width:7.5;stroke-linecap:round;stroke-linejoin:round;stroke-miterlimit:10;stroke-dasharray:none;stroke-opacity:1" id="path990"/><path d="m 1098,1136.4 h 3.6 l 3.6,-1.2 2.4,-1.2 3.6,-2.4 1.2,-2.4 2.4,-2.4 1.2,-3.6 v -7.2 l -1.2,-3.6 -2.4,-2.4 -1.2,-2.4 -3.6,-2.4 -2.4,-2.4 h -3.6 l -3.6,-1.2 -3.6,1.2 h -3.6 l -2.4,2.4 -3.6,2.4 -2.4,2.4 -1.2,2.4 -1.2,3.6 v 7.2 l 1.2,3.6 1.2,2.4 2.4,2.4 3.6,2.4 2.4,1.2 3.6,1.2 z" style="fill:none;stroke:#000;stroke-width:7.5;stroke-linecap:round;stroke-linejoin:round;stroke-miterlimit:10;stroke-dasharray:none;stroke-opacity:1" id="path992"/><path d="m 1398,1136.4 h 3.6 l 3.6,-1.2 2.4,-1.2 3.6,-2.4 1.2,-2.4 2.4,-2.4 2.4,-3.6 v -7.2 l -2.4,-3.6 -2.4,-2.4 -1.2,-2.4 -3.6,-2.4 -2.4,-2.4 h -3.6 l -3.6,-2.4 -3.6,2.4 h -3.6 l -2.4,2.4 -3.6,2.4 -2.4,2.4 -1.2,2.4 -1.2,3.6 v 7.2 l 1.2,3.6 1.2,2.4 2.4,2.4 3.6,2.4 2.4,1.2 3.6,1.2 h 3.6" style="fill:#000;fill-opacity:1;fill-rule:evenodd;stroke:none" id="path994"/><path d="m 1398,1136.4 h 3.6 l 3.6,-1.2 2.4,-1.2 3.6,-2.4 1.2,-2.4 2.4,-2.4 1.2,-3.6 v -7.2 l -1.2,-3.6 -2.4,-2.4 -1.2,-2.4 -3.6,-2.4 -2.4,-2.4 h -3.6 l -3.6,-1.2 -3.6,1.2 h -3.6 l -2.4,2.4 -3.6,2.4 -2.4,2.4 -1.2,2.4 -1.2,3.6 v 7.2 l 1.2,3.6 1.2,2.4 2.4,2.4 3.6,2.4 2.4,1.2 3.6,1.2 z" style="fill:none;stroke:#000;stroke-width:7.5;stroke-linecap:round;stroke-linejoin:round;stroke-miterlimit:10;stroke-dasharray:none;stroke-opacity:1" id="path996"/><path d="m 1398,1136.4 h 3.6 l 3.6,-1.2 2.4,-1.2 3.6,-2.4 1.2,-2.4 2.4,-2.4 1.2,-3.6 v -7.2 l -1.2,-3.6 -2.4,-2.4 -1.2,-2.4 -3.6,-2.4 -2.4,-2.4 h -3.6 l -3.6,-1.2 -3.6,1.2 h -3.6 l -2.4,2.4 -3.6,2.4 -2.4,2.4 -1.2,2.4 -1.2,3.6 v 7.2 l 1.2,3.6 1.2,2.4 2.4,2.4 3.6,2.4 2.4,1.2 3.6,1.2 z" style="fill:none;stroke:#000;stroke-width:7.5;stroke-linecap:round;stroke-linejoin:round;stroke-miterlimit:10;stroke-dasharray:none;stroke-opacity:1" id="path998"/><path d="m 1698,1136.4 h 3.6 l 3.6,-1.2 2.4,-1.2 3.6,-2.4 1.2,-2.4 2.4,-2.4 2.4,-3.6 v -7.2 l -2.4,-3.6 -2.4,-2.4 -1.2,-3.6 -3.6,-1.2 -2.4,-2.4 h -3.6 l -3.6,-2.4 -3.6,2.4 h -3.6 l -2.4,2.4 -3.6,1.2 -2.4,3.6 -1.2,2.4 -1.2,3.6 v 7.2 l 1.2,3.6 1.2,2.4 2.4,2.4 3.6,2.4 2.4,1.2 3.6,1.2 h 3.6" style="fill:#000;fill-opacity:1;fill-rule:evenodd;stroke:none" id="path1000"/><path d="m 1698,1136.4 h 3.6 l 3.6,-1.2 2.4,-1.2 3.6,-2.4 1.2,-2.4 2.4,-2.4 1.2,-3.6 v -7.2 l -1.2,-3.6 -2.4,-2.4 -1.2,-3.6 -3.6,-1.2 -2.4,-2.4 h -3.6 l -3.6,-1.2 -3.6,1.2 h -3.6 l -2.4,2.4 -3.6,1.2 -2.4,3.6 -1.2,2.4 -1.2,3.6 v 7.2 l 1.2,3.6 1.2,2.4 2.4,2.4 3.6,2.4 2.4,1.2 3.6,1.2 z" style="fill:none;stroke:#000;stroke-width:7.5;stroke-linecap:round;stroke-linejoin:round;stroke-miterlimit:10;stroke-dasharray:none;stroke-opacity:1" id="path1002"/><path d="m 1698,1136.4 h 3.6 l 3.6,-1.2 2.4,-1.2 3.6,-2.4 1.2,-2.4 2.4,-2.4 1.2,-3.6 v -7.2 l -1.2,-3.6 -2.4,-2.4 -1.2,-3.6 -3.6,-1.2 -2.4,-2.4 h -3.6 l -3.6,-1.2 -3.6,1.2 h -3.6 l -2.4,2.4 -3.6,1.2 -2.4,3.6 -1.2,2.4 -1.2,3.6 v 7.2 l 1.2,3.6 1.2,2.4 2.4,2.4 3.6,2.4 2.4,1.2 3.6,1.2 z" style="fill:none;stroke:#000;stroke-width:7.5;stroke-linecap:round;stroke-linejoin:round;stroke-miterlimit:10;stroke-dasharray:none;stroke-opacity:1" id="path1004"/><path d="m 1098,1436.4 h 3.6 l 3.6,-1.2 2.4,-1.2 3.6,-2.4 1.2,-2.4 2.4,-2.4 2.4,-3.6 v -7.2 l -2.4,-3.6 -2.4,-2.4 -1.2,-2.4 -3.6,-2.4 -2.4,-2.4 h -3.6 l -3.6,-2.4 -3.6,2.4 h -3.6 l -2.4,2.4 -3.6,2.4 -2.4,2.4 -1.2,2.4 -1.2,3.6 v 7.2 l 1.2,3.6 1.2,2.4 2.4,2.4 3.6,2.4 2.4,1.2 3.6,1.2 h 3.6" style="fill:#000;fill-opacity:1;fill-rule:evenodd;stroke:none" id="path1006"/><path d="m 1098,1436.4 h 3.6 l 3.6,-1.2 2.4,-1.2 3.6,-2.4 1.2,-2.4 2.4,-2.4 1.2,-3.6 v -7.2 l -1.2,-3.6 -2.4,-2.4 -1.2,-2.4 -3.6,-2.4 -2.4,-2.4 h -3.6 l -3.6,-1.2 -3.6,1.2 h -3.6 l -2.4,2.4 -3.6,2.4 -2.4,2.4 -1.2,2.4 -1.2,3.6 v 7.2 l 1.2,3.6 1.2,2.4 2.4,2.4 3.6,2.4 2.4,1.2 3.6,1.2 z" style="fill:none;stroke:#000;stroke-width:7.5;stroke-linecap:round;stroke-linejoin:round;stroke-miterlimit:10;stroke-dasharray:none;stroke-opacity:1" id="path1008"/><path d="m 1098,1436.4 h 3.6 l 3.6,-1.2 2.4,-1.2 3.6,-2.4 1.2,-2.4 2.4,-2.4 1.2,-3.6 v -7.2 l -1.2,-3.6 -2.4,-2.4 -1.2,-2.4 -3.6,-2.4 -2.4,-2.4 h -3.6 l -3.6,-1.2 -3.6,1.2 h -3.6 l -2.4,2.4 -3.6,2.4 -2.4,2.4 -1.2,2.4 -1.2,3.6 v 7.2 l 1.2,3.6 1.2,2.4 2.4,2.4 3.6,2.4 2.4,1.2 3.6,1.2 z" style="fill:none;stroke:#000;stroke-width:7.5;stroke-linecap:round;stroke-linejoin:round;stroke-miterlimit:10;stroke-dasharray:none;stroke-opacity:1" id="path1010"/><path d="m 1398,1436.4 h 3.6 l 3.6,-1.2 2.4,-1.2 3.6,-2.4 1.2,-2.4 2.4,-2.4 2.4,-3.6 v -7.2 l -2.4,-3.6 -2.4,-2.4 -1.2,-2.4 -3.6,-2.4 -2.4,-2.4 h -3.6 l -3.6,-2.4 -3.6,2.4 h -3.6 l -2.4,2.4 -3.6,2.4 -2.4,2.4 -1.2,2.4 -1.2,3.6 v 7.2 l 1.2,3.6 1.2,2.4 2.4,2.4 3.6,2.4 2.4,1.2 3.6,1.2 h 3.6" style="fill:#000;fill-opacity:1;fill-rule:evenodd;stroke:none" id="path1012"/><path d="m 1398,1436.4 h 3.6 l 3.6,-1.2 2.4,-1.2 3.6,-2.4 1.2,-2.4 2.4,-2.4 1.2,-3.6 v -7.2 l -1.2,-3.6 -2.4,-2.4 -1.2,-2.4 -3.6,-2.4 -2.4,-2.4 h -3.6 l -3.6,-1.2 -3.6,1.2 h -3.6 l -2.4,2.4 -3.6,2.4 -2.4,2.4 -1.2,2.4 -1.2,3.6 v 7.2 l 1.2,3.6 1.2,2.4 2.4,2.4 3.6,2.4 2.4,1.2 3.6,1.2 z" style="fill:none;stroke:#000;stroke-width:7.5;stroke-linecap:round;stroke-linejoin:round;stroke-miterlimit:10;stroke-dasharray:none;stroke-opacity:1" id="path1014"/><path d="m 1398,1436.4 h 3.6 l 3.6,-1.2 2.4,-1.2 3.6,-2.4 1.2,-2.4 2.4,-2.4 1.2,-3.6 v -7.2 l -1.2,-3.6 -2.4,-2.4 -1.2,-2.4 -3.6,-2.4 -2.4,-2.4 h -3.6 l -3.6,-1.2 -3.6,1.2 h -3.6 l -2.4,2.4 -3.6,2.4 -2.4,2.4 -1.2,2.4 -1.2,3.6 v 7.2 l 1.2,3.6 1.2,2.4 2.4,2.4 3.6,2.4 2.4,1.2 3.6,1.2 z" style="fill:none;stroke:#000;stroke-width:7.5;stroke-linecap:round;stroke-linejoin:round;stroke-miterlimit:10;stroke-dasharray:none;stroke-opacity:1" id="path1016"/><path d="m 1698,1436.4 h 3.6 l 3.6,-1.2 2.4,-1.2 3.6,-2.4 1.2,-2.4 2.4,-2.4 2.4,-3.6 v -7.2 l -2.4,-3.6 -2.4,-2.4 -1.2,-3.6 -3.6,-1.2 -2.4,-2.4 h -3.6 l -3.6,-2.4 -3.6,2.4 h -3.6 l -2.4,2.4 -3.6,1.2 -2.4,3.6 -1.2,2.4 -1.2,3.6 v 7.2 l 1.2,3.6 1.2,2.4 2.4,2.4 3.6,2.4 2.4,1.2 3.6,1.2 h 3.6" style="fill:#000;fill-opacity:1;fill-rule:evenodd;stroke:none" id="path1018"/><path d="m 1698,1436.4 h 3.6 l 3.6,-1.2 2.4,-1.2 3.6,-2.4 1.2,-2.4 2.4,-2.4 1.2,-3.6 v -7.2 l -1.2,-3.6 -2.4,-2.4 -1.2,-3.6 -3.6,-1.2 -2.4,-2.4 h -3.6 l -3.6,-1.2 -3.6,1.2 h -3.6 l -2.4,2.4 -3.6,1.2 -2.4,3.6 -1.2,2.4 -1.2,3.6 v 7.2 l 1.2,3.6 1.2,2.4 2.4,2.4 3.6,2.4 2.4,1.2 3.6,1.2 z" style="fill:none;stroke:#000;stroke-width:7.5;stroke-linecap:round;stroke-linejoin:round;stroke-miterlimit:10;stroke-dasharray:none;stroke-opacity:1" id="path1020"/><path d="m 1698,1436.4 h 3.6 l 3.6,-1.2 2.4,-1.2 3.6,-2.4 1.2,-2.4 2.4,-2.4 1.2,-3.6 v -7.2 l -1.2,-3.6 -2.4,-2.4 -1.2,-3.6 -3.6,-1.2 -2.4,-2.4 h -3.6 l -3.6,-1.2 -3.6,1.2 h -3.6 l -2.4,2.4 -3.6,1.2 -2.4,3.6 -1.2,2.4 -1.2,3.6 v 7.2 l 1.2,3.6 1.2,2.4 2.4,2.4 3.6,2.4 2.4,1.2 3.6,1.2 z" style="fill:none;stroke:#000;stroke-width:7.5;stroke-linecap:round;stroke-linejoin:round;stroke-miterlimit:10;stroke-dasharray:none;stroke-opacity:1" id="path1022"/><path d="M 60,956.4 V 357.6" style="fill:none;stroke:#000;stroke-width:22.5;stroke-linecap:round;stroke-linejoin:round;stroke-miterlimit:10;stroke-dasharray:none;stroke-opacity:1" id="path1024"/><path d="M 60,961.2 H 957.6" style="fill:none;stroke:#000;stroke-width:22.5;stroke-linecap:round;stroke-linejoin:round;stroke-miterlimit:10;stroke-dasharray:none;stroke-opacity:1" id="path1026"/><path d="M 957.6,1540.8 V 961.2" style="fill:none;stroke:#000;stroke-width:22.5;stroke-linecap:round;stroke-linejoin:round;stroke-miterlimit:10;stroke-dasharray:none;stroke-opacity:1" id="path1028"/><path d="M 60,357.6 H 960" style="fill:none;stroke:#000;stroke-width:22.5;stroke-linecap:round;stroke-linejoin:round;stroke-miterlimit:10;stroke-dasharray:none;stroke-opacity:1" id="path1030"/><path d="m 960,1556.4 h 900" style="fill:none;stroke:#000;stroke-width:22.5;stroke-linecap:round;stroke-linejoin:round;stroke-miterlimit:10;stroke-dasharray:none;stroke-opacity:1" id="path1032"/><path d="M 194.4,453.6 V 223.2" style="fill:none;stroke:#000;stroke-width:15;stroke-linecap:round;stroke-linejoin:round;stroke-miterlimit:10;stroke-dasharray:none;stroke-opacity:1" id="path1034"/><path d="m 194.4,475.2 27.6,-57.6 -27.6,25.2 -28.8,-25.2 28.8,57.6" style="fill:#000;fill-opacity:1;fill-rule:evenodd;stroke:none" id="path1036"/><path d="m 194.4,475.2 27.6,-57.6 -27.6,25.2 -28.8,-25.2 28.8,57.6" style="fill:none;stroke:#000;stroke-width:7.5;stroke-linecap:round;stroke-linejoin:round;stroke-miterlimit:10;stroke-dasharray:none;stroke-opacity:1" id="path1038"/><path d="M 1692,1713.6 V 1483.2" style="fill:none;stroke:#000;stroke-width:15;stroke-linecap:round;stroke-linejoin:round;stroke-miterlimit:10;stroke-dasharray:none;stroke-opacity:1" id="path1040"/><path d="m 1692,1461.6 -27.6,57.6 27.6,-25.2 28.8,25.2 -28.8,-57.6" style="fill:#000;fill-opacity:1;fill-rule:evenodd;stroke:none" id="path1042"/><path d="m 1692,1461.6 -27.6,57.6 27.6,-25.2 28.8,25.2 -28.8,-57.6" style="fill:none;stroke:#000;stroke-width:7.5;stroke-linecap:round;stroke-linejoin:round;stroke-miterlimit:10;stroke-dasharray:none;stroke-opacity:1" id="path1044"/></g></g></g></svg>