<svg xmlns="http://www.w3.org/2000/svg" xmlns:svg="http://www.w3.org/2000/svg" id="svg2518" width="241.014" height="241.014" version="1.1" viewBox="0 0 241.014 241.014" xml:space="preserve"><metadata id="metadata2524"/><g id="g2526" transform="matrix(1.3333333,0,0,-1.3333333,-4.292852,245.30712)"><g id="g2528" transform="scale(0.1)"><g id="g2530"><path d="m 35.9998,34.7998 h 901.2 v 901.2 h -901.2 z" style="fill:#e0e0e0;fill-opacity:1;fill-rule:evenodd;stroke:none" id="path2532"/><path d="m 35.9998,934.8 h 1621.2 V 1836 h -1621.2 z" style="fill:#e0e0e0;fill-opacity:1;fill-rule:evenodd;stroke:none" id="path2534"/><path d="m 1108.8,1116 h 374.4" style="fill:none;stroke:#000;stroke-width:22.5;stroke-linecap:round;stroke-linejoin:round;stroke-miterlimit:10;stroke-dasharray:none;stroke-opacity:1" id="path2536"/><path d="M 1116,1476 V 1116" style="fill:none;stroke:#000;stroke-width:22.5;stroke-linecap:round;stroke-linejoin:round;stroke-miterlimit:10;stroke-dasharray:none;stroke-opacity:1" id="path2538"/><path d="M 1116,1116 V 756" style="fill:none;stroke:#000;stroke-width:7.5;stroke-linecap:round;stroke-linejoin:round;stroke-miterlimit:10;stroke-dasharray:10,20;stroke-dashoffset:0;stroke-opacity:1" id="path2540"/><path d="m 756,1116 h 360" style="fill:none;stroke:#000;stroke-width:7.5;stroke-linecap:round;stroke-linejoin:round;stroke-miterlimit:10;stroke-dasharray:10,20;stroke-dashoffset:0;stroke-opacity:1" id="path2542"/><path d="M 1116,1116 1296,576" style="fill:none;stroke:#a0a0a4;stroke-width:22.5;stroke-linecap:round;stroke-linejoin:round;stroke-miterlimit:10;stroke-dasharray:none;stroke-opacity:1" id="path2544"/><path d="m 576,1296 540,-180" style="fill:none;stroke:#a0a0a4;stroke-width:22.5;stroke-linecap:round;stroke-linejoin:round;stroke-miterlimit:10;stroke-dasharray:none;stroke-opacity:1" id="path2546"/><path d="M 35.9998,1656 H 1836" style="fill:none;stroke:#000;stroke-width:7.5;stroke-linecap:round;stroke-linejoin:round;stroke-miterlimit:10;stroke-dasharray:none;stroke-opacity:1" id="path2548"/><path d="M 35.9998,216 H 1836" style="fill:none;stroke:#000;stroke-width:7.5;stroke-linecap:round;stroke-linejoin:round;stroke-miterlimit:10;stroke-dasharray:none;stroke-opacity:1" id="path2550"/><path d="M 216,1836 V 35.9998" style="fill:none;stroke:#000;stroke-width:7.5;stroke-linecap:round;stroke-linejoin:round;stroke-miterlimit:10;stroke-dasharray:none;stroke-opacity:1" id="path2552"/><path d="M 35.9998,936 H 936" style="fill:none;stroke:#000;stroke-width:7.5;stroke-linecap:round;stroke-linejoin:round;stroke-miterlimit:10;stroke-dasharray:none;stroke-opacity:1" id="path2554"/><path d="m 936,1296 h 900" style="fill:none;stroke:#000;stroke-width:7.5;stroke-linecap:round;stroke-linejoin:round;stroke-miterlimit:10;stroke-dasharray:none;stroke-opacity:1" id="path2556"/><path d="M 1656,1836 V 35.9998" style="fill:none;stroke:#000;stroke-width:7.5;stroke-linecap:round;stroke-linejoin:round;stroke-miterlimit:10;stroke-dasharray:none;stroke-opacity:1" id="path2558"/><path d="m 1321.2,576.005 c -0.02,19.398 -21,31.505 -37.8,21.817 -16.81,-9.749 -16.78,-33.97 0.03,-43.662 16.82,-9.664 37.75,2.442 37.77,21.84" style="fill:#000;fill-opacity:1;fill-rule:evenodd;stroke:none" id="path2560"/><path d="m 1321.2,576.005 c -0.02,19.398 -21,31.505 -37.8,21.817 -16.81,-9.749 -16.78,-33.97 0.03,-43.662 16.82,-9.664 37.75,2.442 37.77,21.84" style="fill:none;stroke:#000;stroke-width:7.5;stroke-linecap:round;stroke-linejoin:round;stroke-miterlimit:10;stroke-dasharray:none;stroke-opacity:1" id="path2562"/><path d="M 936,936 V 35.9998" style="fill:none;stroke:#000;stroke-width:7.5;stroke-linecap:round;stroke-linejoin:round;stroke-miterlimit:10;stroke-dasharray:none;stroke-opacity:1" id="path2564"/><path d="M 1296,1836 V 936" style="fill:none;stroke:#000;stroke-width:7.5;stroke-linecap:round;stroke-linejoin:round;stroke-miterlimit:10;stroke-dasharray:none;stroke-opacity:1" id="path2566"/><path d="m 604.8,1292.4 c -0.019,19.4 -20.997,31.51 -37.803,21.82 -16.804,-9.75 -16.774,-33.97 0.03,-43.66 16.819,-9.66 37.758,2.44 37.773,21.84" style="fill:#000;fill-opacity:1;fill-rule:evenodd;stroke:none" id="path2568"/><path d="m 604.8,1292.4 c -0.019,19.4 -20.997,31.51 -37.803,21.82 -16.804,-9.75 -16.774,-33.97 0.03,-43.66 16.819,-9.66 37.758,2.44 37.773,21.84" style="fill:none;stroke:#000;stroke-width:7.5;stroke-linecap:round;stroke-linejoin:round;stroke-miterlimit:10;stroke-dasharray:none;stroke-opacity:1" id="path2570"/><path d="m 1144.8,1112.4 c -0.02,19.4 -21,31.51 -37.8,21.82 -16.81,-9.75 -16.78,-33.97 0.03,-43.66 16.82,-9.66 37.75,2.44 37.77,21.84" style="fill:#000;fill-opacity:1;fill-rule:evenodd;stroke:none" id="path2572"/><path d="m 1144.8,1112.4 c -0.02,19.4 -21,31.51 -37.8,21.82 -16.81,-9.75 -16.78,-33.97 0.03,-43.66 16.82,-9.66 37.75,2.44 37.77,21.84" style="fill:none;stroke:#000;stroke-width:7.5;stroke-linecap:round;stroke-linejoin:round;stroke-miterlimit:10;stroke-dasharray:none;stroke-opacity:1" id="path2574"/><path d="m 1504.8,1112.4 c -0.02,19.4 -21,31.51 -37.8,21.82 -16.81,-9.75 -16.78,-33.97 0.03,-43.66 16.82,-9.66 37.75,2.44 37.77,21.84" style="fill:#000;fill-opacity:1;fill-rule:evenodd;stroke:none" id="path2576"/><path d="m 1504.8,1112.4 c -0.02,19.4 -21,31.51 -37.8,21.82 -16.81,-9.75 -16.78,-33.97 0.03,-43.66 16.82,-9.66 37.75,2.44 37.77,21.84" style="fill:none;stroke:#000;stroke-width:7.5;stroke-linecap:round;stroke-linejoin:round;stroke-miterlimit:10;stroke-dasharray:none;stroke-opacity:1" id="path2578"/><path d="m 1144.8,1472.4 c -0.02,19.4 -21,31.51 -37.8,21.82 -16.81,-9.75 -16.78,-33.97 0.03,-43.66 16.82,-9.66 37.75,2.44 37.77,21.84" style="fill:#000;fill-opacity:1;fill-rule:evenodd;stroke:none" id="path2580"/><path d="m 1144.8,1472.4 c -0.02,19.4 -21,31.51 -37.8,21.82 -16.81,-9.75 -16.78,-33.97 0.03,-43.66 16.82,-9.66 37.75,2.44 37.77,21.84" style="fill:none;stroke:#000;stroke-width:7.5;stroke-linecap:round;stroke-linejoin:round;stroke-miterlimit:10;stroke-dasharray:none;stroke-opacity:1" id="path2582"/><g id="g2584" transform="scale(10)"><text transform="matrix(0.871795,0,0,-1,120.24,42.48)" style="font-style:italic;font-variant:normal;font-size:10px;font-family:'Times New Roman';-inkscape-font-specification:Times-Italic;writing-mode:lr-tb;fill:#000;fill-opacity:1;fill-rule:nonzero;stroke:none" id="text2592"><tspan id="tspan2586" x="0 3.33 8.33 10.83 15.83 19.16" y="0">(3,2)</tspan><tspan id="tspan2588" x="-82.588 -79.258 -74.258 -71.758 -66.758 -63.428" y="-96.48">(2,3)</tspan><tspan id="tspan2590" x="19.821 23.151 28.151 30.651 35.651 38.981" y="-100.8">(6,6)</tspan></text></g><path d="m 1182,1182 207.6,207.6" style="fill:none;stroke:#000;stroke-width:7.5;stroke-linecap:round;stroke-linejoin:round;stroke-miterlimit:10;stroke-dasharray:none;stroke-opacity:1" id="path2594"/><path d="m 1166.4,1166.4 21.6,52.8 -2.4,-33.6 33.6,2.4 -52.8,-21.6" style="fill:#000;fill-opacity:1;fill-rule:evenodd;stroke:none" id="path2596"/><path d="m 1166.4,1166.4 21.6,52.8 -2.4,-33.6 33.6,2.4 -52.8,-21.6" style="fill:none;stroke:#000;stroke-width:7.5;stroke-linecap:round;stroke-linejoin:round;stroke-miterlimit:10;stroke-dasharray:none;stroke-opacity:1" id="path2598"/><path d="m 727.2,1087.2 57.6,57.6" style="fill:none;stroke:#000;stroke-width:7.5;stroke-linecap:round;stroke-linejoin:round;stroke-miterlimit:10;stroke-dasharray:none;stroke-opacity:1" id="path2600"/><path d="m 727.2,1144.8 57.6,-57.6" style="fill:none;stroke:#000;stroke-width:7.5;stroke-linecap:round;stroke-linejoin:round;stroke-miterlimit:10;stroke-dasharray:none;stroke-opacity:1" id="path2602"/><path d="m 1087.2,727.2 57.6,57.6" style="fill:none;stroke:#000;stroke-width:7.5;stroke-linecap:round;stroke-linejoin:round;stroke-miterlimit:10;stroke-dasharray:none;stroke-opacity:1" id="path2604"/><path d="m 1087.2,784.8 57.6,-57.6" style="fill:none;stroke:#000;stroke-width:7.5;stroke-linecap:round;stroke-linejoin:round;stroke-miterlimit:10;stroke-dasharray:none;stroke-opacity:1" id="path2606"/><path d="m 936,936 h 900" style="fill:none;stroke:#000;stroke-width:7.5;stroke-linecap:round;stroke-linejoin:round;stroke-miterlimit:10;stroke-dasharray:none;stroke-opacity:1" id="path2608"/><path d="M 936,1836 V 936" style="fill:none;stroke:#000;stroke-width:7.5;stroke-linecap:round;stroke-linejoin:round;stroke-miterlimit:10;stroke-dasharray:none;stroke-opacity:1" id="path2610"/></g></g></g></svg>