<svg xmlns="http://www.w3.org/2000/svg" xmlns:svg="http://www.w3.org/2000/svg" id="svg2284" width="530.447" height="325.793" version="1.1" viewBox="0 0 530.447 325.793" xml:space="preserve"><metadata id="metadata2290"/><g id="g2292" transform="matrix(1.3333333,0,0,-1.3333333,-4.2999732,331.21999)"><g id="g2294" transform="scale(0.1)"><g id="g2296"><path d="m 2199.6,1396.8 1800,-597.6" style="fill:none;stroke:#000;stroke-width:10;stroke-linecap:round;stroke-linejoin:round;stroke-miterlimit:10;stroke-dasharray:40,20;stroke-dashoffset:0;stroke-opacity:1" id="path2298"/><path d="m 2199.6,2476.8 1800,-237.6" style="fill:none;stroke:#000;stroke-width:10;stroke-linecap:round;stroke-linejoin:round;stroke-miterlimit:10;stroke-dasharray:40,20;stroke-dashoffset:0;stroke-opacity:1" id="path2300"/><path d="M 1116,309.6 H 2206.8 V 2480.4 H 1116 Z" style="fill:#fff;fill-opacity:1;fill-rule:evenodd;stroke:none" id="path2302"/><path d="M 1116,309.6 H 2206.8 V 2480.4 H 1116 Z" style="fill:none;stroke:#000;stroke-width:7.5;stroke-linecap:round;stroke-linejoin:round;stroke-miterlimit:10;stroke-dasharray:none;stroke-opacity:1" id="path2304"/><path d="m 35.9998,309.6 h 1090.8 v 2170.8 h -1090.8 z" style="fill:#e0e0e0;fill-opacity:1;fill-rule:evenodd;stroke:none" id="path2306"/><path d="m 35.9998,309.6 h 1090.8 v 2170.8 h -1090.8 z" style="fill:none;stroke:#000;stroke-width:7.5;stroke-linecap:round;stroke-linejoin:round;stroke-miterlimit:10;stroke-dasharray:none;stroke-opacity:1" id="path2308"/><path d="m 331.2,2210.4 c -0.019,19.4 -20.997,31.51 -37.803,21.82 -16.804,-9.75 -16.774,-33.97 0.03,-43.66 16.819,-9.66 37.758,2.44 37.773,21.84" style="fill:#000;fill-opacity:1;fill-rule:evenodd;stroke:none" id="path2310"/><path d="m 331.2,2210.4 c -0.019,19.4 -20.997,31.51 -37.803,21.82 -16.804,-9.75 -16.774,-33.97 0.03,-43.66 16.819,-9.66 37.758,2.44 37.773,21.84" style="fill:none;stroke:#000;stroke-width:7.5;stroke-linecap:round;stroke-linejoin:round;stroke-miterlimit:10;stroke-dasharray:none;stroke-opacity:1" id="path2312"/><path d="m 874.8,2206.8 c -0.019,19.4 -20.997,31.51 -37.803,21.82 -16.804,-9.75 -16.774,-33.97 0.03,-43.66 16.819,-9.66 37.758,2.44 37.773,21.84" style="fill:#000;fill-opacity:1;fill-rule:evenodd;stroke:none" id="path2314"/><path d="m 874.8,2206.8 c -0.019,19.4 -20.997,31.51 -37.803,21.82 -16.804,-9.75 -16.774,-33.97 0.03,-43.66 16.819,-9.66 37.758,2.44 37.773,21.84" style="fill:none;stroke:#000;stroke-width:7.5;stroke-linecap:round;stroke-linejoin:round;stroke-miterlimit:10;stroke-dasharray:none;stroke-opacity:1" id="path2316"/><path d="m 334.8,1666.8 c -0.019,19.4 -20.997,31.51 -37.803,21.82 -16.804,-9.75 -16.774,-33.97 0.03,-43.66 16.819,-9.66 37.758,2.44 37.773,21.84" style="fill:#000;fill-opacity:1;fill-rule:evenodd;stroke:none" id="path2318"/><path d="m 334.8,1666.8 c -0.019,19.4 -20.997,31.51 -37.803,21.82 -16.804,-9.75 -16.774,-33.97 0.03,-43.66 16.819,-9.66 37.758,2.44 37.773,21.84" style="fill:none;stroke:#000;stroke-width:7.5;stroke-linecap:round;stroke-linejoin:round;stroke-miterlimit:10;stroke-dasharray:none;stroke-opacity:1" id="path2320"/><path d="m 871.2,1670.4 c -0.019,19.4 -20.997,31.51 -37.803,21.82 -16.804,-9.75 -16.774,-33.97 0.03,-43.66 16.819,-9.66 37.758,2.44 37.773,21.84" style="fill:#000;fill-opacity:1;fill-rule:evenodd;stroke:none" id="path2322"/><path d="m 871.2,1670.4 c -0.019,19.4 -20.997,31.51 -37.803,21.82 -16.804,-9.75 -16.774,-33.97 0.03,-43.66 16.819,-9.66 37.758,2.44 37.773,21.84" style="fill:none;stroke:#000;stroke-width:7.5;stroke-linecap:round;stroke-linejoin:round;stroke-miterlimit:10;stroke-dasharray:none;stroke-opacity:1" id="path2324"/><path d="m 331.2,1130.4 c -0.019,19.4 -20.997,31.51 -37.803,21.82 -16.804,-9.75 -16.774,-33.97 0.03,-43.66 16.819,-9.66 37.758,2.44 37.773,21.84" style="fill:#000;fill-opacity:1;fill-rule:evenodd;stroke:none" id="path2326"/><path d="m 331.2,1130.4 c -0.019,19.4 -20.997,31.51 -37.803,21.82 -16.804,-9.75 -16.774,-33.97 0.03,-43.66 16.819,-9.66 37.758,2.44 37.773,21.84" style="fill:none;stroke:#000;stroke-width:7.5;stroke-linecap:round;stroke-linejoin:round;stroke-miterlimit:10;stroke-dasharray:none;stroke-opacity:1" id="path2328"/><path d="m 871.2,1130.4 c -0.019,19.4 -20.997,31.51 -37.803,21.82 -16.804,-9.75 -16.774,-33.97 0.03,-43.66 16.819,-9.66 37.758,2.44 37.773,21.84" style="fill:#000;fill-opacity:1;fill-rule:evenodd;stroke:none" id="path2330"/><path d="m 871.2,1130.4 c -0.019,19.4 -20.997,31.51 -37.803,21.82 -16.804,-9.75 -16.774,-33.97 0.03,-43.66 16.819,-9.66 37.758,2.44 37.773,21.84" style="fill:none;stroke:#000;stroke-width:7.5;stroke-linecap:round;stroke-linejoin:round;stroke-miterlimit:10;stroke-dasharray:none;stroke-opacity:1" id="path2332"/><path d="m 331.2,590.405 c -0.019,19.398 -20.997,31.505 -37.803,21.817 -16.804,-9.749 -16.774,-33.97 0.03,-43.662 16.819,-9.664 37.758,2.442 37.773,21.84" style="fill:#000;fill-opacity:1;fill-rule:evenodd;stroke:none" id="path2334"/><path d="m 331.2,590.405 c -0.019,19.398 -20.997,31.505 -37.803,21.817 -16.804,-9.749 -16.774,-33.97 0.03,-43.662 16.819,-9.664 37.758,2.442 37.773,21.84" style="fill:none;stroke:#000;stroke-width:7.5;stroke-linecap:round;stroke-linejoin:round;stroke-miterlimit:10;stroke-dasharray:none;stroke-opacity:1" id="path2336"/><path d="m 871.2,590.405 c -0.019,19.398 -20.997,31.505 -37.803,21.817 -16.804,-9.749 -16.774,-33.97 0.03,-43.662 16.819,-9.664 37.758,2.442 37.773,21.84" style="fill:#000;fill-opacity:1;fill-rule:evenodd;stroke:none" id="path2338"/><path d="m 871.2,590.405 c -0.019,19.398 -20.997,31.505 -37.803,21.817 -16.804,-9.749 -16.774,-33.97 0.03,-43.662 16.819,-9.664 37.758,2.442 37.773,21.84" style="fill:none;stroke:#000;stroke-width:7.5;stroke-linecap:round;stroke-linejoin:round;stroke-miterlimit:10;stroke-dasharray:none;stroke-opacity:1" id="path2340"/><path d="M 39.5999,1936.8 H 1119.6" style="fill:none;stroke:#000;stroke-width:7.5;stroke-linecap:round;stroke-linejoin:round;stroke-miterlimit:10;stroke-dasharray:none;stroke-opacity:1" id="path2342"/><path d="M 39.5999,856.8 H 1119.6" style="fill:none;stroke:#000;stroke-width:7.5;stroke-linecap:round;stroke-linejoin:round;stroke-miterlimit:10;stroke-dasharray:none;stroke-opacity:1" id="path2344"/><path d="M 579.6,2476.8 V 316.8" style="fill:none;stroke:#000;stroke-width:7.5;stroke-linecap:round;stroke-linejoin:round;stroke-miterlimit:10;stroke-dasharray:none;stroke-opacity:1" id="path2346"/><path d="M 46.7998,1396.8 H 1119.6" style="fill:none;stroke:#000;stroke-width:7.5;stroke-linecap:round;stroke-linejoin:round;stroke-miterlimit:10;stroke-dasharray:none;stroke-opacity:1" id="path2348"/><path d="m 1411.2,2210.4 c -0.02,19.4 -21,31.51 -37.8,21.82 -16.81,-9.75 -16.78,-33.97 0.03,-43.66 16.82,-9.66 37.75,2.44 37.77,21.84" style="fill:#e0e0e0;fill-opacity:1;fill-rule:evenodd;stroke:none" id="path2350"/><path d="m 1411.2,2210.4 c -0.02,19.4 -21,31.51 -37.8,21.82 -16.81,-9.75 -16.78,-33.97 0.03,-43.66 16.82,-9.66 37.75,2.44 37.77,21.84" style="fill:none;stroke:#000;stroke-width:7.5;stroke-linecap:round;stroke-linejoin:round;stroke-miterlimit:10;stroke-dasharray:none;stroke-opacity:1" id="path2352"/><path d="m 1954.8,2206.8 c -0.02,19.4 -21,31.51 -37.8,21.82 -16.81,-9.75 -16.78,-33.97 0.03,-43.66 16.82,-9.66 37.75,2.44 37.77,21.84" style="fill:#e0e0e0;fill-opacity:1;fill-rule:evenodd;stroke:none" id="path2354"/><path d="m 1954.8,2206.8 c -0.02,19.4 -21,31.51 -37.8,21.82 -16.81,-9.75 -16.78,-33.97 0.03,-43.66 16.82,-9.66 37.75,2.44 37.77,21.84" style="fill:none;stroke:#000;stroke-width:7.5;stroke-linecap:round;stroke-linejoin:round;stroke-miterlimit:10;stroke-dasharray:none;stroke-opacity:1" id="path2356"/><path d="m 1414.8,1666.8 c -0.02,19.4 -21,31.51 -37.8,21.82 -16.81,-9.75 -16.78,-33.97 0.03,-43.66 16.82,-9.66 37.75,2.44 37.77,21.84" style="fill:#e0e0e0;fill-opacity:1;fill-rule:evenodd;stroke:none" id="path2358"/><path d="m 1414.8,1666.8 c -0.02,19.4 -21,31.51 -37.8,21.82 -16.81,-9.75 -16.78,-33.97 0.03,-43.66 16.82,-9.66 37.75,2.44 37.77,21.84" style="fill:none;stroke:#000;stroke-width:7.5;stroke-linecap:round;stroke-linejoin:round;stroke-miterlimit:10;stroke-dasharray:none;stroke-opacity:1" id="path2360"/><path d="m 1951.2,1670.4 c -0.02,19.4 -21,31.51 -37.8,21.82 -16.81,-9.75 -16.78,-33.97 0.03,-43.66 16.82,-9.66 37.75,2.44 37.77,21.84" style="fill:#e0e0e0;fill-opacity:1;fill-rule:evenodd;stroke:none" id="path2362"/><path d="m 1951.2,1670.4 c -0.02,19.4 -21,31.51 -37.8,21.82 -16.81,-9.75 -16.78,-33.97 0.03,-43.66 16.82,-9.66 37.75,2.44 37.77,21.84" style="fill:none;stroke:#000;stroke-width:7.5;stroke-linecap:round;stroke-linejoin:round;stroke-miterlimit:10;stroke-dasharray:none;stroke-opacity:1" id="path2364"/><path d="m 1411.2,1130.4 c -0.02,19.4 -21,31.51 -37.8,21.82 -16.81,-9.75 -16.78,-33.97 0.03,-43.66 16.82,-9.66 37.75,2.44 37.77,21.84" style="fill:#000;fill-opacity:1;fill-rule:evenodd;stroke:none" id="path2366"/><path d="m 1411.2,1130.4 c -0.02,19.4 -21,31.51 -37.8,21.82 -16.81,-9.75 -16.78,-33.97 0.03,-43.66 16.82,-9.66 37.75,2.44 37.77,21.84" style="fill:none;stroke:#000;stroke-width:7.5;stroke-linecap:round;stroke-linejoin:round;stroke-miterlimit:10;stroke-dasharray:none;stroke-opacity:1" id="path2368"/><path d="m 1951.2,1130.4 c -0.02,19.4 -21,31.51 -37.8,21.82 -16.81,-9.75 -16.78,-33.97 0.03,-43.66 16.82,-9.66 37.75,2.44 37.77,21.84" style="fill:#000;fill-opacity:1;fill-rule:evenodd;stroke:none" id="path2370"/><path d="m 1951.2,1130.4 c -0.02,19.4 -21,31.51 -37.8,21.82 -16.81,-9.75 -16.78,-33.97 0.03,-43.66 16.82,-9.66 37.75,2.44 37.77,21.84" style="fill:none;stroke:#000;stroke-width:7.5;stroke-linecap:round;stroke-linejoin:round;stroke-miterlimit:10;stroke-dasharray:none;stroke-opacity:1" id="path2372"/><path d="m 1411.2,590.405 c -0.02,19.398 -21,31.505 -37.8,21.817 -16.81,-9.749 -16.78,-33.97 0.03,-43.662 16.82,-9.664 37.75,2.442 37.77,21.84" style="fill:#000;fill-opacity:1;fill-rule:evenodd;stroke:none" id="path2374"/><path d="m 1411.2,590.405 c -0.02,19.398 -21,31.505 -37.8,21.817 -16.81,-9.749 -16.78,-33.97 0.03,-43.662 16.82,-9.664 37.75,2.442 37.77,21.84" style="fill:none;stroke:#000;stroke-width:7.5;stroke-linecap:round;stroke-linejoin:round;stroke-miterlimit:10;stroke-dasharray:none;stroke-opacity:1" id="path2376"/><path d="m 1951.2,590.405 c -0.02,19.398 -21,31.505 -37.8,21.817 -16.81,-9.749 -16.78,-33.97 0.03,-43.662 16.82,-9.664 37.75,2.442 37.77,21.84" style="fill:#000;fill-opacity:1;fill-rule:evenodd;stroke:none" id="path2378"/><path d="m 1951.2,590.405 c -0.02,19.398 -21,31.505 -37.8,21.817 -16.81,-9.749 -16.78,-33.97 0.03,-43.662 16.82,-9.664 37.75,2.442 37.77,21.84" style="fill:none;stroke:#000;stroke-width:7.5;stroke-linecap:round;stroke-linejoin:round;stroke-miterlimit:10;stroke-dasharray:none;stroke-opacity:1" id="path2380"/><path d="m 1119.6,1936.8 h 1080" style="fill:none;stroke:#000;stroke-width:7.5;stroke-linecap:round;stroke-linejoin:round;stroke-miterlimit:10;stroke-dasharray:none;stroke-opacity:1" id="path2382"/><path d="m 1119.6,856.8 h 1080" style="fill:none;stroke:#000;stroke-width:7.5;stroke-linecap:round;stroke-linejoin:round;stroke-miterlimit:10;stroke-dasharray:none;stroke-opacity:1" id="path2384"/><path d="M 1659.6,2476.8 V 316.8" style="fill:none;stroke:#000;stroke-width:7.5;stroke-linecap:round;stroke-linejoin:round;stroke-miterlimit:10;stroke-dasharray:none;stroke-opacity:1" id="path2386"/><path d="m 1119.6,1396.8 h 1080" style="fill:none;stroke:#000;stroke-width:7.5;stroke-linecap:round;stroke-linejoin:round;stroke-miterlimit:10;stroke-dasharray:none;stroke-opacity:1" id="path2388"/><g id="g2390" transform="scale(10)"><text transform="matrix(0.871795,0,0,-1,183.24,207.36)" style="font-style:italic;font-variant:normal;font-size:10px;font-family:'Times New Roman';-inkscape-font-specification:Times-Italic;writing-mode:lr-tb;fill:#000;fill-opacity:1;fill-rule:nonzero;stroke:none" id="text2400"><tspan id="tspan2392" x="0 3.33 8.33 10.83 15.83 19.16" y="0">(4,4)</tspan><tspan id="tspan2394" x="-186.649 -183.319 -178.319 -175.819 -170.819 -167.489" y="162">(1,1)</tspan><tspan id="tspan2396" x="-124.708 -121.378 -116.378 -113.878 -108.878 -105.548" y="0">(2,4)</tspan><tspan id="tspan2398" x="-62.767 -59.437 -54.437 -51.937 -46.937 -43.607" y="162">(3,1)</tspan></text></g><path d="m 3279.6,792 h 727.2 v 1447.2 h -727.2 z" style="fill:#fff;fill-opacity:1;fill-rule:evenodd;stroke:none" id="path2402"/><path d="m 3279.6,792 h 727.2 v 1447.2 h -727.2 z" style="fill:none;stroke:#000;stroke-width:7.5;stroke-linecap:round;stroke-linejoin:round;stroke-miterlimit:10;stroke-dasharray:none;stroke-opacity:1" id="path2404"/><path d="m 2559.6,792 h 727.2 v 1447.2 h -727.2 z" style="fill:#e0e0e0;fill-opacity:1;fill-rule:evenodd;stroke:none" id="path2406"/><path d="m 2559.6,792 h 727.2 v 1447.2 h -727.2 z" style="fill:none;stroke:#000;stroke-width:7.5;stroke-linecap:round;stroke-linejoin:round;stroke-miterlimit:10;stroke-dasharray:none;stroke-opacity:1" id="path2408"/><path d="m 2764.8,2059.2 c -0.02,19.4 -21,31.51 -37.8,21.82 -16.81,-9.75 -16.78,-33.97 0.03,-43.66 16.82,-9.66 37.75,2.44 37.77,21.84" style="fill:#000;fill-opacity:1;fill-rule:evenodd;stroke:none" id="path2410"/><path d="m 2764.8,2059.2 c -0.02,19.4 -21,31.51 -37.8,21.82 -16.81,-9.75 -16.78,-33.97 0.03,-43.66 16.82,-9.66 37.75,2.44 37.77,21.84" style="fill:none;stroke:#000;stroke-width:7.5;stroke-linecap:round;stroke-linejoin:round;stroke-miterlimit:10;stroke-dasharray:none;stroke-opacity:1" id="path2412"/><path d="m 3128.4,2055.6 c -0.02,19.4 -21,31.51 -37.8,21.82 -16.81,-9.75 -16.78,-33.97 0.03,-43.66 16.82,-9.66 37.76,2.44 37.77,21.84" style="fill:#000;fill-opacity:1;fill-rule:evenodd;stroke:none" id="path2414"/><path d="m 3128.4,2055.6 c -0.02,19.4 -21,31.51 -37.8,21.82 -16.81,-9.75 -16.78,-33.97 0.03,-43.66 16.82,-9.66 37.76,2.44 37.77,21.84" style="fill:none;stroke:#000;stroke-width:7.5;stroke-linecap:round;stroke-linejoin:round;stroke-miterlimit:10;stroke-dasharray:none;stroke-opacity:1" id="path2416"/><path d="m 2768.4,1695.6 c -0.02,19.4 -21,31.51 -37.8,21.82 -16.81,-9.75 -16.78,-33.97 0.03,-43.66 16.82,-9.66 37.76,2.44 37.77,21.84" style="fill:#000;fill-opacity:1;fill-rule:evenodd;stroke:none" id="path2418"/><path d="m 2768.4,1695.6 c -0.02,19.4 -21,31.51 -37.8,21.82 -16.81,-9.75 -16.78,-33.97 0.03,-43.66 16.82,-9.66 37.76,2.44 37.77,21.84" style="fill:none;stroke:#000;stroke-width:7.5;stroke-linecap:round;stroke-linejoin:round;stroke-miterlimit:10;stroke-dasharray:none;stroke-opacity:1" id="path2420"/><path d="m 3124.8,1699.2 c -0.02,19.4 -21,31.51 -37.8,21.82 -16.81,-9.75 -16.78,-33.97 0.03,-43.66 16.82,-9.66 37.75,2.44 37.77,21.84" style="fill:#000;fill-opacity:1;fill-rule:evenodd;stroke:none" id="path2422"/><path d="m 3124.8,1699.2 c -0.02,19.4 -21,31.51 -37.8,21.82 -16.81,-9.75 -16.78,-33.97 0.03,-43.66 16.82,-9.66 37.75,2.44 37.77,21.84" style="fill:none;stroke:#000;stroke-width:7.5;stroke-linecap:round;stroke-linejoin:round;stroke-miterlimit:10;stroke-dasharray:none;stroke-opacity:1" id="path2424"/><path d="m 2764.8,1339.2 c -0.02,19.4 -21,31.51 -37.8,21.82 -16.81,-9.75 -16.78,-33.97 0.03,-43.66 16.82,-9.66 37.75,2.44 37.77,21.84" style="fill:#000;fill-opacity:1;fill-rule:evenodd;stroke:none" id="path2426"/><path d="m 2764.8,1339.2 c -0.02,19.4 -21,31.51 -37.8,21.82 -16.81,-9.75 -16.78,-33.97 0.03,-43.66 16.82,-9.66 37.75,2.44 37.77,21.84" style="fill:none;stroke:#000;stroke-width:7.5;stroke-linecap:round;stroke-linejoin:round;stroke-miterlimit:10;stroke-dasharray:none;stroke-opacity:1" id="path2428"/><path d="m 3124.8,1339.2 c -0.02,19.4 -21,31.51 -37.8,21.82 -16.81,-9.75 -16.78,-33.97 0.03,-43.66 16.82,-9.66 37.75,2.44 37.77,21.84" style="fill:#000;fill-opacity:1;fill-rule:evenodd;stroke:none" id="path2430"/><path d="m 3124.8,1339.2 c -0.02,19.4 -21,31.51 -37.8,21.82 -16.81,-9.75 -16.78,-33.97 0.03,-43.66 16.82,-9.66 37.75,2.44 37.77,21.84" style="fill:none;stroke:#000;stroke-width:7.5;stroke-linecap:round;stroke-linejoin:round;stroke-miterlimit:10;stroke-dasharray:none;stroke-opacity:1" id="path2432"/><path d="m 2764.8,979.205 c -0.02,19.398 -21,31.505 -37.8,21.815 -16.81,-9.747 -16.78,-33.968 0.03,-43.66 16.82,-9.664 37.75,2.442 37.77,21.84" style="fill:#000;fill-opacity:1;fill-rule:evenodd;stroke:none" id="path2434"/><path d="m 2764.8,979.205 c -0.02,19.398 -21,31.505 -37.8,21.815 -16.81,-9.747 -16.78,-33.968 0.03,-43.66 16.82,-9.664 37.75,2.442 37.77,21.84" style="fill:none;stroke:#000;stroke-width:7.5;stroke-linecap:round;stroke-linejoin:round;stroke-miterlimit:10;stroke-dasharray:none;stroke-opacity:1" id="path2436"/><path d="m 3124.8,979.205 c -0.02,19.398 -21,31.505 -37.8,21.815 -16.81,-9.747 -16.78,-33.968 0.03,-43.66 16.82,-9.664 37.75,2.442 37.77,21.84" style="fill:#000;fill-opacity:1;fill-rule:evenodd;stroke:none" id="path2438"/><path d="m 3124.8,979.205 c -0.02,19.398 -21,31.505 -37.8,21.815 -16.81,-9.747 -16.78,-33.968 0.03,-43.66 16.82,-9.664 37.75,2.442 37.77,21.84" style="fill:none;stroke:#000;stroke-width:7.5;stroke-linecap:round;stroke-linejoin:round;stroke-miterlimit:10;stroke-dasharray:none;stroke-opacity:1" id="path2440"/><path d="m 2559.6,1879.2 h 720" style="fill:none;stroke:#000;stroke-width:7.5;stroke-linecap:round;stroke-linejoin:round;stroke-miterlimit:10;stroke-dasharray:none;stroke-opacity:1" id="path2442"/><path d="m 2559.6,1159.2 h 720" style="fill:none;stroke:#000;stroke-width:7.5;stroke-linecap:round;stroke-linejoin:round;stroke-miterlimit:10;stroke-dasharray:none;stroke-opacity:1" id="path2444"/><path d="M 2919.6,2239.2 V 799.2" style="fill:none;stroke:#000;stroke-width:7.5;stroke-linecap:round;stroke-linejoin:round;stroke-miterlimit:10;stroke-dasharray:none;stroke-opacity:1" id="path2446"/><path d="m 2559.6,1519.2 h 720" style="fill:none;stroke:#000;stroke-width:7.5;stroke-linecap:round;stroke-linejoin:round;stroke-miterlimit:10;stroke-dasharray:none;stroke-opacity:1" id="path2448"/><path d="m 3484.8,2059.2 c -0.02,19.4 -21,31.51 -37.8,21.82 -16.81,-9.75 -16.78,-33.97 0.03,-43.66 16.82,-9.66 37.75,2.44 37.77,21.84" style="fill:#000;fill-opacity:1;fill-rule:evenodd;stroke:none" id="path2450"/><path d="m 3484.8,2059.2 c -0.02,19.4 -21,31.51 -37.8,21.82 -16.81,-9.75 -16.78,-33.97 0.03,-43.66 16.82,-9.66 37.75,2.44 37.77,21.84" style="fill:none;stroke:#000;stroke-width:7.5;stroke-linecap:round;stroke-linejoin:round;stroke-miterlimit:10;stroke-dasharray:none;stroke-opacity:1" id="path2452"/><path d="m 3848.4,2055.6 c -0.02,19.4 -21,31.51 -37.8,21.82 -16.81,-9.75 -16.78,-33.97 0.03,-43.66 16.82,-9.66 37.76,2.44 37.77,21.84" style="fill:#000;fill-opacity:1;fill-rule:evenodd;stroke:none" id="path2454"/><path d="m 3848.4,2055.6 c -0.02,19.4 -21,31.51 -37.8,21.82 -16.81,-9.75 -16.78,-33.97 0.03,-43.66 16.82,-9.66 37.76,2.44 37.77,21.84" style="fill:none;stroke:#000;stroke-width:7.5;stroke-linecap:round;stroke-linejoin:round;stroke-miterlimit:10;stroke-dasharray:none;stroke-opacity:1" id="path2456"/><path d="m 3488.4,1695.6 c -0.02,19.4 -21,31.51 -37.8,21.82 -16.81,-9.75 -16.78,-33.97 0.03,-43.66 16.82,-9.66 37.76,2.44 37.77,21.84" style="fill:#000;fill-opacity:1;fill-rule:evenodd;stroke:none" id="path2458"/><path d="m 3488.4,1695.6 c -0.02,19.4 -21,31.51 -37.8,21.82 -16.81,-9.75 -16.78,-33.97 0.03,-43.66 16.82,-9.66 37.76,2.44 37.77,21.84" style="fill:none;stroke:#000;stroke-width:7.5;stroke-linecap:round;stroke-linejoin:round;stroke-miterlimit:10;stroke-dasharray:none;stroke-opacity:1" id="path2460"/><path d="m 3844.8,1699.2 c -0.02,19.4 -21,31.51 -37.8,21.82 -16.81,-9.75 -16.78,-33.97 0.03,-43.66 16.82,-9.66 37.75,2.44 37.77,21.84" style="fill:#000;fill-opacity:1;fill-rule:evenodd;stroke:none" id="path2462"/><path d="m 3844.8,1699.2 c -0.02,19.4 -21,31.51 -37.8,21.82 -16.81,-9.75 -16.78,-33.97 0.03,-43.66 16.82,-9.66 37.75,2.44 37.77,21.84" style="fill:none;stroke:#000;stroke-width:7.5;stroke-linecap:round;stroke-linejoin:round;stroke-miterlimit:10;stroke-dasharray:none;stroke-opacity:1" id="path2464"/><path d="m 3484.8,1339.2 c -0.02,19.4 -21,31.51 -37.8,21.82 -16.81,-9.75 -16.78,-33.97 0.03,-43.66 16.82,-9.66 37.75,2.44 37.77,21.84" style="fill:#000;fill-opacity:1;fill-rule:evenodd;stroke:none" id="path2466"/><path d="m 3484.8,1339.2 c -0.02,19.4 -21,31.51 -37.8,21.82 -16.81,-9.75 -16.78,-33.97 0.03,-43.66 16.82,-9.66 37.75,2.44 37.77,21.84" style="fill:none;stroke:#000;stroke-width:7.5;stroke-linecap:round;stroke-linejoin:round;stroke-miterlimit:10;stroke-dasharray:none;stroke-opacity:1" id="path2468"/><path d="m 3844.8,1339.2 c -0.02,19.4 -21,31.51 -37.8,21.82 -16.81,-9.75 -16.78,-33.97 0.03,-43.66 16.82,-9.66 37.75,2.44 37.77,21.84" style="fill:#000;fill-opacity:1;fill-rule:evenodd;stroke:none" id="path2470"/><path d="m 3844.8,1339.2 c -0.02,19.4 -21,31.51 -37.8,21.82 -16.81,-9.75 -16.78,-33.97 0.03,-43.66 16.82,-9.66 37.75,2.44 37.77,21.84" style="fill:none;stroke:#000;stroke-width:7.5;stroke-linecap:round;stroke-linejoin:round;stroke-miterlimit:10;stroke-dasharray:none;stroke-opacity:1" id="path2472"/><path d="m 3484.8,979.205 c -0.02,19.398 -21,31.505 -37.8,21.815 -16.81,-9.747 -16.78,-33.968 0.03,-43.66 16.82,-9.664 37.75,2.442 37.77,21.84" style="fill:#000;fill-opacity:1;fill-rule:evenodd;stroke:none" id="path2474"/><path d="m 3484.8,979.205 c -0.02,19.398 -21,31.505 -37.8,21.815 -16.81,-9.747 -16.78,-33.968 0.03,-43.66 16.82,-9.664 37.75,2.442 37.77,21.84" style="fill:none;stroke:#000;stroke-width:7.5;stroke-linecap:round;stroke-linejoin:round;stroke-miterlimit:10;stroke-dasharray:none;stroke-opacity:1" id="path2476"/><path d="m 3844.8,979.205 c -0.02,19.398 -21,31.505 -37.8,21.815 -16.81,-9.747 -16.78,-33.968 0.03,-43.66 16.82,-9.664 37.75,2.442 37.77,21.84" style="fill:#000;fill-opacity:1;fill-rule:evenodd;stroke:none" id="path2478"/><path d="m 3844.8,979.205 c -0.02,19.398 -21,31.505 -37.8,21.815 -16.81,-9.747 -16.78,-33.968 0.03,-43.66 16.82,-9.664 37.75,2.442 37.77,21.84" style="fill:none;stroke:#000;stroke-width:7.5;stroke-linecap:round;stroke-linejoin:round;stroke-miterlimit:10;stroke-dasharray:none;stroke-opacity:1" id="path2480"/><path d="m 3279.6,1879.2 h 727.2" style="fill:none;stroke:#000;stroke-width:7.5;stroke-linecap:round;stroke-linejoin:round;stroke-miterlimit:10;stroke-dasharray:none;stroke-opacity:1" id="path2482"/><path d="m 3279.6,1159.2 h 727.2" style="fill:none;stroke:#000;stroke-width:7.5;stroke-linecap:round;stroke-linejoin:round;stroke-miterlimit:10;stroke-dasharray:none;stroke-opacity:1" id="path2484"/><path d="M 3639.6,2239.2 V 799.2" style="fill:none;stroke:#000;stroke-width:7.5;stroke-linecap:round;stroke-linejoin:round;stroke-miterlimit:10;stroke-dasharray:none;stroke-opacity:1" id="path2486"/><path d="m 3279.6,1519.2 h 727.2" style="fill:none;stroke:#000;stroke-width:7.5;stroke-linecap:round;stroke-linejoin:round;stroke-miterlimit:10;stroke-dasharray:none;stroke-opacity:1" id="path2488"/><g id="g2490" transform="scale(10)"><text transform="matrix(0.871795,0,0,-1,372.6,192.24)" style="font-style:italic;font-variant:normal;font-size:10px;font-family:'Times New Roman';-inkscape-font-specification:Times-Italic;writing-mode:lr-tb;fill:#000;fill-opacity:1;fill-rule:nonzero;stroke:none" id="text2500"><tspan id="tspan2492" x="0 3.33 8.33 10.83 15.83 19.16" y="0">(9,9)</tspan><tspan id="tspan2494" x="-124.708 -121.378 -116.378 -113.878 -108.878 -105.548" y="107.28">(6,6)</tspan><tspan id="tspan2496" x="-83.414 -80.084 -75.084 -72.584 -67.584 -64.254" y="0">(7,9)</tspan><tspan id="tspan2498" x="-42.12 -38.79 -33.79 -31.29 -26.29 -22.96" y="108">(8,6)</tspan></text></g><path d="m 1119.6,2476.8 1440,-237.6" style="fill:none;stroke:#000;stroke-width:7.5;stroke-linecap:round;stroke-linejoin:round;stroke-miterlimit:10;stroke-dasharray:40,20;stroke-dashoffset:0;stroke-opacity:1" id="path2502"/><path d="m 1119.6,1396.8 1440,-597.6" style="fill:none;stroke:#000;stroke-width:7.5;stroke-linecap:round;stroke-linejoin:round;stroke-miterlimit:10;stroke-dasharray:40,20;stroke-dashoffset:0;stroke-opacity:1" id="path2504"/><g id="g2506" transform="scale(10)"><text transform="matrix(0.861111,0,0,-1,90.36,7.92)" style="font-style:italic;font-variant:normal;font-weight:700;font-size:18px;font-family:'Times New Roman';-inkscape-font-specification:Times-BoldItalic;writing-mode:lr-tb;fill:#000;fill-opacity:1;fill-rule:nonzero;stroke:none" id="text2512"><tspan id="tspan2508" x="0 9 18 25.002 30.006 34.506 43.506" y="0">part 0</tspan><tspan id="tspan2510" x="250.839 259.839 268.839 275.841 280.845 285.345 294.345" y="-48.24">part 1</tspan></text></g><path d="m 39.5999,309.6 h 2167.2 v 2167.2 h -2167.2 z" style="fill:none;stroke:#000;stroke-width:7.5;stroke-linecap:round;stroke-linejoin:round;stroke-miterlimit:10;stroke-dasharray:none;stroke-opacity:1" id="path2514"/><path d="M 2559.6,792 H 4006.8 V 2239.2 H 2559.6 Z" style="fill:none;stroke:#000;stroke-width:7.5;stroke-linecap:round;stroke-linejoin:round;stroke-miterlimit:10;stroke-dasharray:none;stroke-opacity:1" id="path2516"/></g></g></g></svg>