<svg xmlns="http://www.w3.org/2000/svg" xmlns:svg="http://www.w3.org/2000/svg" id="svg10" width="258.667" height="258.667" version="1.1" viewBox="0 0 258.667 258.667" xml:space="preserve"><metadata id="metadata16"/><g id="g18" transform="matrix(1.3333333,0,0,-1.3333333,0,258.66667)"><g id="g20" transform="scale(0.1)"><g id="g22"><g id="g24" transform="scale(10)"><text transform="matrix(0.836364,0,0,-1,3.6,7.92)" style="font-style:italic;font-variant:normal;font-size:13.75px;font-family:'Times New Roman';-inkscape-font-specification:Times-Italic;writing-mode:lr-tb;fill:silver;fill-opacity:1;fill-rule:nonzero;stroke:none" id="text28"><tspan id="tspan26" x="0 4.579 9.157 16.032 19.47 26.345 30.924" y="0">(-3,1)</tspan></text></g><path d="M 60,956.4 V 357.6" style="fill:none;stroke:silver;stroke-width:22.5;stroke-linecap:round;stroke-linejoin:round;stroke-miterlimit:10;stroke-dasharray:none;stroke-opacity:1" id="path30"/><path d="M 360,956.4 V 357.6" style="fill:none;stroke:silver;stroke-width:7.5;stroke-linecap:round;stroke-linejoin:round;stroke-miterlimit:10;stroke-dasharray:none;stroke-opacity:1" id="path32"/><path d="M 660,956.4 V 357.6" style="fill:none;stroke:silver;stroke-width:7.5;stroke-linecap:round;stroke-linejoin:round;stroke-miterlimit:10;stroke-dasharray:none;stroke-opacity:1" id="path34"/><path d="M 960,956.4 V 357.6" style="fill:none;stroke:silver;stroke-width:7.5;stroke-linecap:round;stroke-linejoin:round;stroke-miterlimit:10;stroke-dasharray:none;stroke-opacity:1" id="path36"/><path d="M 1260,1556.4 V 357.6" style="fill:none;stroke:silver;stroke-width:7.5;stroke-linecap:round;stroke-linejoin:round;stroke-miterlimit:10;stroke-dasharray:none;stroke-opacity:1" id="path38"/><path d="M 1560,1556.4 V 357.6" style="fill:none;stroke:silver;stroke-width:7.5;stroke-linecap:round;stroke-linejoin:round;stroke-miterlimit:10;stroke-dasharray:none;stroke-opacity:1" id="path40"/><path d="M 1860,1556.4 V 357.6" style="fill:none;stroke:silver;stroke-width:7.5;stroke-linecap:round;stroke-linejoin:round;stroke-miterlimit:10;stroke-dasharray:none;stroke-opacity:1" id="path42"/><path d="M 60,961.2 H 960" style="fill:none;stroke:silver;stroke-width:22.5;stroke-linecap:round;stroke-linejoin:round;stroke-miterlimit:10;stroke-dasharray:none;stroke-opacity:1" id="path44"/><path d="M 960,1556.4 V 961.2" style="fill:none;stroke:silver;stroke-width:22.5;stroke-linecap:round;stroke-linejoin:round;stroke-miterlimit:10;stroke-dasharray:none;stroke-opacity:1" id="path46"/><path d="M 60,357.6 H 960" style="fill:none;stroke:silver;stroke-width:22.5;stroke-linecap:round;stroke-linejoin:round;stroke-miterlimit:10;stroke-dasharray:none;stroke-opacity:1" id="path48"/><path d="M 60,657.6 H 960" style="fill:none;stroke:silver;stroke-width:7.5;stroke-linecap:round;stroke-linejoin:round;stroke-miterlimit:10;stroke-dasharray:none;stroke-opacity:1" id="path50"/><path d="m 960,1556.4 h 900" style="fill:none;stroke:silver;stroke-width:22.5;stroke-linecap:round;stroke-linejoin:round;stroke-miterlimit:10;stroke-dasharray:none;stroke-opacity:1" id="path52"/><path d="m 960,357.6 h 900" style="fill:none;stroke:silver;stroke-width:22.5;stroke-linecap:round;stroke-linejoin:round;stroke-miterlimit:10;stroke-dasharray:none;stroke-opacity:1" id="path54"/><path d="m 960,1256.4 h 900" style="fill:none;stroke:silver;stroke-width:7.5;stroke-linecap:round;stroke-linejoin:round;stroke-miterlimit:10;stroke-dasharray:none;stroke-opacity:1" id="path56"/><path d="m 960,956.4 h 900" style="fill:none;stroke:silver;stroke-width:7.5;stroke-linecap:round;stroke-linejoin:round;stroke-miterlimit:10;stroke-dasharray:none;stroke-opacity:1" id="path58"/><path d="m 960,657.6 h 900" style="fill:none;stroke:silver;stroke-width:7.5;stroke-linecap:round;stroke-linejoin:round;stroke-miterlimit:10;stroke-dasharray:none;stroke-opacity:1" id="path60"/><path d="M 60,956.4 V 357.6" style="fill:none;stroke:silver;stroke-width:22.5;stroke-linecap:round;stroke-linejoin:round;stroke-miterlimit:10;stroke-dasharray:none;stroke-opacity:1" id="path62"/><path d="M 360,956.4 V 357.6" style="fill:none;stroke:silver;stroke-width:7.5;stroke-linecap:round;stroke-linejoin:round;stroke-miterlimit:10;stroke-dasharray:none;stroke-opacity:1" id="path64"/><path d="M 660,956.4 V 357.6" style="fill:none;stroke:silver;stroke-width:7.5;stroke-linecap:round;stroke-linejoin:round;stroke-miterlimit:10;stroke-dasharray:none;stroke-opacity:1" id="path66"/><path d="M 960,956.4 V 357.6" style="fill:none;stroke:silver;stroke-width:7.5;stroke-linecap:round;stroke-linejoin:round;stroke-miterlimit:10;stroke-dasharray:none;stroke-opacity:1" id="path68"/><path d="M 1260,1556.4 V 357.6" style="fill:none;stroke:silver;stroke-width:7.5;stroke-linecap:round;stroke-linejoin:round;stroke-miterlimit:10;stroke-dasharray:none;stroke-opacity:1" id="path70"/><path d="M 1560,1556.4 V 357.6" style="fill:none;stroke:silver;stroke-width:7.5;stroke-linecap:round;stroke-linejoin:round;stroke-miterlimit:10;stroke-dasharray:none;stroke-opacity:1" id="path72"/><path d="M 1860,1556.4 V 357.6" style="fill:none;stroke:silver;stroke-width:7.5;stroke-linecap:round;stroke-linejoin:round;stroke-miterlimit:10;stroke-dasharray:none;stroke-opacity:1" id="path74"/><path d="M 60,357.6 H 960" style="fill:none;stroke:silver;stroke-width:22.5;stroke-linecap:round;stroke-linejoin:round;stroke-miterlimit:10;stroke-dasharray:none;stroke-opacity:1" id="path76"/><path d="M 60,657.6 H 960" style="fill:none;stroke:silver;stroke-width:7.5;stroke-linecap:round;stroke-linejoin:round;stroke-miterlimit:10;stroke-dasharray:none;stroke-opacity:1" id="path78"/><path d="m 960,357.6 h 900" style="fill:none;stroke:silver;stroke-width:22.5;stroke-linecap:round;stroke-linejoin:round;stroke-miterlimit:10;stroke-dasharray:none;stroke-opacity:1" id="path80"/><path d="m 960,1256.4 h 900" style="fill:none;stroke:silver;stroke-width:7.5;stroke-linecap:round;stroke-linejoin:round;stroke-miterlimit:10;stroke-dasharray:none;stroke-opacity:1" id="path82"/><path d="m 961.2,657.6 h 897.6" style="fill:none;stroke:silver;stroke-width:7.5;stroke-linecap:round;stroke-linejoin:round;stroke-miterlimit:10;stroke-dasharray:none;stroke-opacity:1" id="path84"/><path d="m 1106.4,537.6 h 3.6" style="fill:none;stroke:silver;stroke-width:7.5;stroke-linecap:round;stroke-linejoin:round;stroke-miterlimit:10;stroke-dasharray:none;stroke-opacity:1" id="path86"/><path d="m 1110,537.6 3.6,-1.2" style="fill:none;stroke:silver;stroke-width:7.5;stroke-linecap:round;stroke-linejoin:round;stroke-miterlimit:10;stroke-dasharray:none;stroke-opacity:1" id="path88"/><path d="m 1113.6,536.4 2.4,-1.2" style="fill:none;stroke:silver;stroke-width:7.5;stroke-linecap:round;stroke-linejoin:round;stroke-miterlimit:10;stroke-dasharray:none;stroke-opacity:1" id="path90"/><path d="m 1116,535.2 3.6,-2.4" style="fill:none;stroke:silver;stroke-width:7.5;stroke-linecap:round;stroke-linejoin:round;stroke-miterlimit:10;stroke-dasharray:none;stroke-opacity:1" id="path92"/><path d="m 1702.8,532.8 1.2,-2.4" style="fill:none;stroke:silver;stroke-width:7.5;stroke-linecap:round;stroke-linejoin:round;stroke-miterlimit:10;stroke-dasharray:none;stroke-opacity:1" id="path94"/><path d="m 1704,530.4 2.4,-2.4" style="fill:none;stroke:silver;stroke-width:7.5;stroke-linecap:round;stroke-linejoin:round;stroke-miterlimit:10;stroke-dasharray:none;stroke-opacity:1" id="path96"/><path d="m 1706.4,528 1.2,-3.6" style="fill:none;stroke:silver;stroke-width:7.5;stroke-linecap:round;stroke-linejoin:round;stroke-miterlimit:10;stroke-dasharray:none;stroke-opacity:1" id="path98"/><path d="m 1707.6,524.4 v -3.6" style="fill:none;stroke:silver;stroke-width:7.5;stroke-linecap:round;stroke-linejoin:round;stroke-miterlimit:10;stroke-dasharray:none;stroke-opacity:1" id="path100"/><path d="m 1707.6,520.8 v -3.6" style="fill:none;stroke:silver;stroke-width:7.5;stroke-linecap:round;stroke-linejoin:round;stroke-miterlimit:10;stroke-dasharray:none;stroke-opacity:1" id="path102"/><path d="m 1707.6,517.2 -1.2,-3.6" style="fill:none;stroke:silver;stroke-width:7.5;stroke-linecap:round;stroke-linejoin:round;stroke-miterlimit:10;stroke-dasharray:none;stroke-opacity:1" id="path104"/><path d="m 1706.4,513.6 -2.4,-2.4" style="fill:none;stroke:silver;stroke-width:7.5;stroke-linecap:round;stroke-linejoin:round;stroke-miterlimit:10;stroke-dasharray:none;stroke-opacity:1" id="path106"/><path d="m 1704,511.2 -1.2,-3.6" style="fill:none;stroke:silver;stroke-width:7.5;stroke-linecap:round;stroke-linejoin:round;stroke-miterlimit:10;stroke-dasharray:none;stroke-opacity:1" id="path108"/><g id="g110" transform="scale(10)"><text transform="matrix(0.836364,0,0,-1,156.24,176.4)" style="font-style:italic;font-variant:normal;font-size:13.75px;font-family:'Times New Roman';-inkscape-font-specification:Times-Italic;writing-mode:lr-tb;fill:silver;fill-opacity:1;fill-rule:nonzero;stroke:none" id="text114"><tspan id="tspan112" x="0 4.579 11.454 14.891 21.766 26.345" y="0">(2,4)</tspan></text></g><path d="m 198,537.6 h 3.6 l 3.6,-1.2 2.4,-1.2 3.6,-2.4 1.2,-2.4 2.4,-2.4 2.4,-3.6 v -7.2 l -2.4,-3.6 -2.4,-2.4 -1.2,-3.6 -3.6,-1.2 -2.4,-2.4 h -3.6 l -3.6,-2.4 -3.6,2.4 h -3.6 l -2.4,2.4 -3.6,1.2 -2.4,3.6 -1.2,2.4 -1.2,3.6 v 7.2 l 1.2,3.6 1.2,2.4 2.4,2.4 3.6,2.4 2.4,1.2 3.6,1.2 h 3.6" style="fill:silver;fill-opacity:1;fill-rule:evenodd;stroke:none" id="path116"/><path d="m 198,537.6 h 3.6 l 3.6,-1.2 2.4,-1.2 3.6,-2.4 1.2,-2.4 2.4,-2.4 1.2,-3.6 v -7.2 l -1.2,-3.6 -2.4,-2.4 -1.2,-3.6 -3.6,-1.2 -2.4,-2.4 h -3.6 l -3.6,-1.2 -3.6,1.2 h -3.6 l -2.4,2.4 -3.6,1.2 -2.4,3.6 -1.2,2.4 -1.2,3.6 v 7.2 l 1.2,3.6 1.2,2.4 2.4,2.4 3.6,2.4 2.4,1.2 3.6,1.2 z" style="fill:none;stroke:silver;stroke-width:7.5;stroke-linecap:round;stroke-linejoin:round;stroke-miterlimit:10;stroke-dasharray:none;stroke-opacity:1" id="path118"/><path d="m 198,537.6 h 3.6 l 3.6,-1.2 2.4,-1.2 3.6,-2.4 1.2,-2.4 2.4,-2.4 1.2,-3.6 v -7.2 l -1.2,-3.6 -2.4,-2.4 -1.2,-3.6 -3.6,-1.2 -2.4,-2.4 h -3.6 l -3.6,-1.2 -3.6,1.2 h -3.6 l -2.4,2.4 -3.6,1.2 -2.4,3.6 -1.2,2.4 -1.2,3.6 v 7.2 l 1.2,3.6 1.2,2.4 2.4,2.4 3.6,2.4 2.4,1.2 3.6,1.2 z" style="fill:none;stroke:silver;stroke-width:7.5;stroke-linecap:round;stroke-linejoin:round;stroke-miterlimit:10;stroke-dasharray:none;stroke-opacity:1" id="path120"/><path d="m 498,537.6 h 3.6 l 3.6,-1.2 2.4,-1.2 3.6,-2.4 1.2,-2.4 2.4,-2.4 2.4,-3.6 v -7.2 l -2.4,-3.6 -2.4,-2.4 -1.2,-3.6 -3.6,-1.2 -2.4,-2.4 h -3.6 l -3.6,-2.4 -3.6,2.4 h -3.6 l -2.4,2.4 -3.6,1.2 -2.4,3.6 -1.2,2.4 -1.2,3.6 v 7.2 l 1.2,3.6 1.2,2.4 2.4,2.4 3.6,2.4 2.4,1.2 3.6,1.2 h 3.6" style="fill:silver;fill-opacity:1;fill-rule:evenodd;stroke:none" id="path122"/><path d="m 498,537.6 h 3.6 l 3.6,-1.2 2.4,-1.2 3.6,-2.4 1.2,-2.4 2.4,-2.4 1.2,-3.6 v -7.2 l -1.2,-3.6 -2.4,-2.4 -1.2,-3.6 -3.6,-1.2 -2.4,-2.4 h -3.6 l -3.6,-1.2 -3.6,1.2 h -3.6 l -2.4,2.4 -3.6,1.2 -2.4,3.6 -1.2,2.4 -1.2,3.6 v 7.2 l 1.2,3.6 1.2,2.4 2.4,2.4 3.6,2.4 2.4,1.2 3.6,1.2 z" style="fill:none;stroke:silver;stroke-width:7.5;stroke-linecap:round;stroke-linejoin:round;stroke-miterlimit:10;stroke-dasharray:none;stroke-opacity:1" id="path124"/><path d="m 498,537.6 h 3.6 l 3.6,-1.2 2.4,-1.2 3.6,-2.4 1.2,-2.4 2.4,-2.4 1.2,-3.6 v -7.2 l -1.2,-3.6 -2.4,-2.4 -1.2,-3.6 -3.6,-1.2 -2.4,-2.4 h -3.6 l -3.6,-1.2 -3.6,1.2 h -3.6 l -2.4,2.4 -3.6,1.2 -2.4,3.6 -1.2,2.4 -1.2,3.6 v 7.2 l 1.2,3.6 1.2,2.4 2.4,2.4 3.6,2.4 2.4,1.2 3.6,1.2 z" style="fill:none;stroke:silver;stroke-width:7.5;stroke-linecap:round;stroke-linejoin:round;stroke-miterlimit:10;stroke-dasharray:none;stroke-opacity:1" id="path126"/><path d="m 1098,537.6 h 3.6 l 3.6,-1.2 2.4,-1.2 3.6,-2.4 1.2,-2.4 2.4,-2.4 2.4,-3.6 v -7.2 l -2.4,-3.6 -2.4,-2.4 -1.2,-3.6 -3.6,-1.2 -2.4,-2.4 h -3.6 l -3.6,-2.4 -3.6,2.4 h -3.6 l -2.4,2.4 -3.6,1.2 -2.4,3.6 -1.2,2.4 -1.2,3.6 v 7.2 l 1.2,3.6 1.2,2.4 2.4,2.4 3.6,2.4 2.4,1.2 3.6,1.2 h 3.6" style="fill:silver;fill-opacity:1;fill-rule:evenodd;stroke:none" id="path128"/><path d="m 1098,537.6 h 3.6 l 3.6,-1.2 2.4,-1.2 3.6,-2.4 1.2,-2.4 2.4,-2.4 1.2,-3.6 v -7.2 l -1.2,-3.6 -2.4,-2.4 -1.2,-3.6 -3.6,-1.2 -2.4,-2.4 h -3.6 l -3.6,-1.2 -3.6,1.2 h -3.6 l -2.4,2.4 -3.6,1.2 -2.4,3.6 -1.2,2.4 -1.2,3.6 v 7.2 l 1.2,3.6 1.2,2.4 2.4,2.4 3.6,2.4 2.4,1.2 3.6,1.2 z" style="fill:none;stroke:silver;stroke-width:7.5;stroke-linecap:round;stroke-linejoin:round;stroke-miterlimit:10;stroke-dasharray:none;stroke-opacity:1" id="path130"/><path d="m 1098,537.6 h -3.6 l -3.6,-1.2 -2.4,-1.2 -3.6,-2.4 -2.4,-2.4 -1.2,-2.4 -1.2,-3.6 v -7.2 l 1.2,-3.6 1.2,-2.4 2.4,-3.6 3.6,-1.2 2.4,-2.4 h 3.6 l 3.6,-1.2 3.6,1.2 h 3.6 l 2.4,2.4 3.6,1.2 1.2,3.6 2.4,2.4 1.2,3.6 v 7.2 l -1.2,3.6 -2.4,2.4 -1.2,2.4" style="fill:none;stroke:silver;stroke-width:7.5;stroke-linecap:round;stroke-linejoin:round;stroke-miterlimit:10;stroke-dasharray:none;stroke-opacity:1" id="path132"/><path d="m 1398,537.6 h 3.6 l 3.6,-1.2 2.4,-1.2 3.6,-2.4 1.2,-2.4 2.4,-2.4 2.4,-3.6 v -7.2 l -2.4,-3.6 -2.4,-2.4 -1.2,-3.6 -3.6,-1.2 -2.4,-2.4 h -3.6 l -3.6,-2.4 -3.6,2.4 h -3.6 l -2.4,2.4 -3.6,1.2 -2.4,3.6 -1.2,2.4 -1.2,3.6 v 7.2 l 1.2,3.6 1.2,2.4 2.4,2.4 3.6,2.4 2.4,1.2 3.6,1.2 h 3.6" style="fill:silver;fill-opacity:1;fill-rule:evenodd;stroke:none" id="path134"/><path d="m 1398,537.6 h 3.6 l 3.6,-1.2 2.4,-1.2 3.6,-2.4 1.2,-2.4 2.4,-2.4 1.2,-3.6 v -7.2 l -1.2,-3.6 -2.4,-2.4 -1.2,-3.6 -3.6,-1.2 -2.4,-2.4 h -3.6 l -3.6,-1.2 -3.6,1.2 h -3.6 l -2.4,2.4 -3.6,1.2 -2.4,3.6 -1.2,2.4 -1.2,3.6 v 7.2 l 1.2,3.6 1.2,2.4 2.4,2.4 3.6,2.4 2.4,1.2 3.6,1.2 z" style="fill:none;stroke:silver;stroke-width:7.5;stroke-linecap:round;stroke-linejoin:round;stroke-miterlimit:10;stroke-dasharray:none;stroke-opacity:1" id="path136"/><path d="m 1398,537.6 h 3.6 l 3.6,-1.2 2.4,-1.2 3.6,-2.4 1.2,-2.4 2.4,-2.4 1.2,-3.6 v -7.2 l -1.2,-3.6 -2.4,-2.4 -1.2,-3.6 -3.6,-1.2 -2.4,-2.4 h -3.6 l -3.6,-1.2 -3.6,1.2 h -3.6 l -2.4,2.4 -3.6,1.2 -2.4,3.6 -1.2,2.4 -1.2,3.6 v 7.2 l 1.2,3.6 1.2,2.4 2.4,2.4 3.6,2.4 2.4,1.2 3.6,1.2 z" style="fill:none;stroke:silver;stroke-width:7.5;stroke-linecap:round;stroke-linejoin:round;stroke-miterlimit:10;stroke-dasharray:none;stroke-opacity:1" id="path138"/><path d="m 798,537.6 h 3.6 l 3.6,-1.2 2.4,-1.2 3.6,-2.4 1.2,-2.4 2.4,-2.4 2.4,-3.6 v -7.2 l -2.4,-3.6 -2.4,-2.4 -1.2,-3.6 -3.6,-1.2 -2.4,-2.4 h -3.6 l -3.6,-2.4 -3.6,2.4 h -3.6 l -2.4,2.4 -3.6,1.2 -2.4,3.6 -1.2,2.4 -1.2,3.6 v 7.2 l 1.2,3.6 1.2,2.4 2.4,2.4 3.6,2.4 2.4,1.2 3.6,1.2 h 3.6" style="fill:silver;fill-opacity:1;fill-rule:evenodd;stroke:none" id="path140"/><path d="m 798,537.6 h 3.6 l 3.6,-1.2 2.4,-1.2 3.6,-2.4 1.2,-2.4 2.4,-2.4 1.2,-3.6 v -7.2 l -1.2,-3.6 -2.4,-2.4 -1.2,-3.6 -3.6,-1.2 -2.4,-2.4 h -3.6 l -3.6,-1.2 -3.6,1.2 h -3.6 l -2.4,2.4 -3.6,1.2 -2.4,3.6 -1.2,2.4 -1.2,3.6 v 7.2 l 1.2,3.6 1.2,2.4 2.4,2.4 3.6,2.4 2.4,1.2 3.6,1.2 z" style="fill:none;stroke:silver;stroke-width:7.5;stroke-linecap:round;stroke-linejoin:round;stroke-miterlimit:10;stroke-dasharray:none;stroke-opacity:1" id="path142"/><path d="m 798,537.6 h 3.6 l 3.6,-1.2 2.4,-1.2 3.6,-2.4 1.2,-2.4 2.4,-2.4 1.2,-3.6 v -7.2 l -1.2,-3.6 -2.4,-2.4 -1.2,-3.6 -3.6,-1.2 -2.4,-2.4 h -3.6 l -3.6,-1.2 -3.6,1.2 h -3.6 l -2.4,2.4 -3.6,1.2 -2.4,3.6 -1.2,2.4 -1.2,3.6 v 7.2 l 1.2,3.6 1.2,2.4 2.4,2.4 3.6,2.4 2.4,1.2 3.6,1.2 z" style="fill:none;stroke:silver;stroke-width:7.5;stroke-linecap:round;stroke-linejoin:round;stroke-miterlimit:10;stroke-dasharray:none;stroke-opacity:1" id="path144"/><path d="m 1698,537.6 h 3.6 l 3.6,-1.2 2.4,-1.2 3.6,-2.4 1.2,-2.4 2.4,-2.4 2.4,-3.6 v -7.2 l -2.4,-3.6 -2.4,-2.4 -1.2,-3.6 -3.6,-1.2 -2.4,-2.4 h -3.6 l -3.6,-2.4 -3.6,2.4 h -3.6 l -2.4,2.4 -3.6,1.2 -2.4,3.6 -1.2,2.4 -1.2,3.6 v 7.2 l 1.2,3.6 1.2,2.4 2.4,2.4 3.6,2.4 2.4,1.2 3.6,1.2 h 3.6" style="fill:silver;fill-opacity:1;fill-rule:evenodd;stroke:none" id="path146"/><path d="m 1698,537.6 h 3.6 l 3.6,-1.2 2.4,-1.2 3.6,-2.4 1.2,-2.4 2.4,-2.4 1.2,-3.6 v -7.2 l -1.2,-3.6 -2.4,-2.4 -1.2,-3.6 -3.6,-1.2 -2.4,-2.4 h -3.6 l -3.6,-1.2 -3.6,1.2 h -3.6 l -2.4,2.4 -3.6,1.2 -2.4,3.6 -1.2,2.4 -1.2,3.6 v 7.2 l 1.2,3.6 1.2,2.4 2.4,2.4 3.6,2.4 2.4,1.2 3.6,1.2 z" style="fill:none;stroke:silver;stroke-width:7.5;stroke-linecap:round;stroke-linejoin:round;stroke-miterlimit:10;stroke-dasharray:none;stroke-opacity:1" id="path148"/><path d="m 1698,537.6 h -3.6 l -3.6,-1.2 -2.4,-1.2 -3.6,-2.4 -2.4,-2.4 -1.2,-2.4 -1.2,-3.6 v -7.2 l 1.2,-3.6 1.2,-2.4 2.4,-3.6 3.6,-1.2 2.4,-2.4 h 3.6 l 3.6,-1.2 3.6,1.2 h 3.6 l 2.4,2.4 3.6,1.2" style="fill:none;stroke:silver;stroke-width:7.5;stroke-linecap:round;stroke-linejoin:round;stroke-miterlimit:10;stroke-dasharray:none;stroke-opacity:1" id="path150"/><path d="m 198,837.6 h 3.6 l 3.6,-1.2 2.4,-1.2 3.6,-2.4 1.2,-2.4 2.4,-2.4 2.4,-3.6 v -7.2 l -2.4,-3.6 -2.4,-2.4 -1.2,-2.4 -3.6,-2.4 -2.4,-2.4 h -3.6 l -3.6,-2.4 -3.6,2.4 h -3.6 l -2.4,2.4 -3.6,2.4 -2.4,2.4 -1.2,2.4 -1.2,3.6 v 7.2 l 1.2,3.6 1.2,2.4 2.4,2.4 3.6,2.4 2.4,1.2 3.6,1.2 h 3.6" style="fill:silver;fill-opacity:1;fill-rule:evenodd;stroke:none" id="path152"/><path d="m 198,837.6 h 3.6 l 3.6,-1.2 2.4,-1.2 3.6,-2.4 1.2,-2.4 2.4,-2.4 1.2,-3.6 v -7.2 l -1.2,-3.6 -2.4,-2.4 -1.2,-2.4 -3.6,-2.4 -2.4,-2.4 h -3.6 l -3.6,-1.2 -3.6,1.2 h -3.6 l -2.4,2.4 -3.6,2.4 -2.4,2.4 -1.2,2.4 -1.2,3.6 v 7.2 l 1.2,3.6 1.2,2.4 2.4,2.4 3.6,2.4 2.4,1.2 3.6,1.2 z" style="fill:none;stroke:silver;stroke-width:7.5;stroke-linecap:round;stroke-linejoin:round;stroke-miterlimit:10;stroke-dasharray:none;stroke-opacity:1" id="path154"/><path d="m 198,837.6 h 3.6 l 3.6,-1.2 2.4,-1.2 3.6,-2.4 1.2,-2.4 2.4,-2.4 1.2,-3.6 v -7.2 l -1.2,-3.6 -2.4,-2.4 -1.2,-2.4 -3.6,-2.4 -2.4,-2.4 h -3.6 l -3.6,-1.2 -3.6,1.2 h -3.6 l -2.4,2.4 -3.6,2.4 -2.4,2.4 -1.2,2.4 -1.2,3.6 v 7.2 l 1.2,3.6 1.2,2.4 2.4,2.4 3.6,2.4 2.4,1.2 3.6,1.2 z" style="fill:none;stroke:silver;stroke-width:7.5;stroke-linecap:round;stroke-linejoin:round;stroke-miterlimit:10;stroke-dasharray:none;stroke-opacity:1" id="path156"/><path d="m 498,837.6 h 3.6 l 3.6,-1.2 2.4,-1.2 3.6,-2.4 1.2,-2.4 2.4,-2.4 2.4,-3.6 v -7.2 l -2.4,-3.6 -2.4,-2.4 -1.2,-2.4 -3.6,-2.4 -2.4,-2.4 h -3.6 l -3.6,-2.4 -3.6,2.4 h -3.6 l -2.4,2.4 -3.6,2.4 -2.4,2.4 -1.2,2.4 -1.2,3.6 v 7.2 l 1.2,3.6 1.2,2.4 2.4,2.4 3.6,2.4 2.4,1.2 3.6,1.2 h 3.6" style="fill:silver;fill-opacity:1;fill-rule:evenodd;stroke:none" id="path158"/><path d="m 498,837.6 h 3.6 l 3.6,-1.2 2.4,-1.2 3.6,-2.4 1.2,-2.4 2.4,-2.4 1.2,-3.6 v -7.2 l -1.2,-3.6 -2.4,-2.4 -1.2,-2.4 -3.6,-2.4 -2.4,-2.4 h -3.6 l -3.6,-1.2 -3.6,1.2 h -3.6 l -2.4,2.4 -3.6,2.4 -2.4,2.4 -1.2,2.4 -1.2,3.6 v 7.2 l 1.2,3.6 1.2,2.4 2.4,2.4 3.6,2.4 2.4,1.2 3.6,1.2 z" style="fill:none;stroke:silver;stroke-width:7.5;stroke-linecap:round;stroke-linejoin:round;stroke-miterlimit:10;stroke-dasharray:none;stroke-opacity:1" id="path160"/><path d="m 498,837.6 h 3.6 l 3.6,-1.2 2.4,-1.2 3.6,-2.4 1.2,-2.4 2.4,-2.4 1.2,-3.6 v -7.2 l -1.2,-3.6 -2.4,-2.4 -1.2,-2.4 -3.6,-2.4 -2.4,-2.4 h -3.6 l -3.6,-1.2 -3.6,1.2 h -3.6 l -2.4,2.4 -3.6,2.4 -2.4,2.4 -1.2,2.4 -1.2,3.6 v 7.2 l 1.2,3.6 1.2,2.4 2.4,2.4 3.6,2.4 2.4,1.2 3.6,1.2 z" style="fill:none;stroke:silver;stroke-width:7.5;stroke-linecap:round;stroke-linejoin:round;stroke-miterlimit:10;stroke-dasharray:none;stroke-opacity:1" id="path162"/><path d="m 1098,837.6 h 3.6 l 3.6,-1.2 2.4,-1.2 3.6,-2.4 1.2,-2.4 2.4,-2.4 2.4,-3.6 v -7.2 l -2.4,-3.6 -2.4,-2.4 -1.2,-2.4 -3.6,-2.4 -2.4,-2.4 h -3.6 l -3.6,-2.4 -3.6,2.4 h -3.6 l -2.4,2.4 -3.6,2.4 -2.4,2.4 -1.2,2.4 -1.2,3.6 v 7.2 l 1.2,3.6 1.2,2.4 2.4,2.4 3.6,2.4 2.4,1.2 3.6,1.2 h 3.6" style="fill:silver;fill-opacity:1;fill-rule:evenodd;stroke:none" id="path164"/><path d="m 1098,837.6 h 3.6 l 3.6,-1.2 2.4,-1.2 3.6,-2.4 1.2,-2.4 2.4,-2.4 1.2,-3.6 v -7.2 l -1.2,-3.6 -2.4,-2.4 -1.2,-2.4 -3.6,-2.4 -2.4,-2.4 h -3.6 l -3.6,-1.2 -3.6,1.2 h -3.6 l -2.4,2.4 -3.6,2.4 -2.4,2.4 -1.2,2.4 -1.2,3.6 v 7.2 l 1.2,3.6 1.2,2.4 2.4,2.4 3.6,2.4 2.4,1.2 3.6,1.2 z" style="fill:none;stroke:silver;stroke-width:7.5;stroke-linecap:round;stroke-linejoin:round;stroke-miterlimit:10;stroke-dasharray:none;stroke-opacity:1" id="path166"/><path d="m 1098,837.6 h 3.6 l 3.6,-1.2 2.4,-1.2 3.6,-2.4 1.2,-2.4 2.4,-2.4 1.2,-3.6 v -7.2 l -1.2,-3.6 -2.4,-2.4 -1.2,-2.4 -3.6,-2.4 -2.4,-2.4 h -3.6 l -3.6,-1.2 -3.6,1.2 h -3.6 l -2.4,2.4 -3.6,2.4 -2.4,2.4 -1.2,2.4 -1.2,3.6 v 7.2 l 1.2,3.6 1.2,2.4 2.4,2.4 3.6,2.4 2.4,1.2 3.6,1.2 z" style="fill:none;stroke:silver;stroke-width:7.5;stroke-linecap:round;stroke-linejoin:round;stroke-miterlimit:10;stroke-dasharray:none;stroke-opacity:1" id="path168"/><path d="m 1398,837.6 h 3.6 l 3.6,-1.2 2.4,-1.2 3.6,-2.4 1.2,-2.4 2.4,-2.4 2.4,-3.6 v -7.2 l -2.4,-3.6 -2.4,-2.4 -1.2,-2.4 -3.6,-2.4 -2.4,-2.4 h -3.6 l -3.6,-2.4 -3.6,2.4 h -3.6 l -2.4,2.4 -3.6,2.4 -2.4,2.4 -1.2,2.4 -1.2,3.6 v 7.2 l 1.2,3.6 1.2,2.4 2.4,2.4 3.6,2.4 2.4,1.2 3.6,1.2 h 3.6" style="fill:silver;fill-opacity:1;fill-rule:evenodd;stroke:none" id="path170"/><path d="m 1398,837.6 h 3.6 l 3.6,-1.2 2.4,-1.2 3.6,-2.4 1.2,-2.4 2.4,-2.4 1.2,-3.6 v -7.2 l -1.2,-3.6 -2.4,-2.4 -1.2,-2.4 -3.6,-2.4 -2.4,-2.4 h -3.6 l -3.6,-1.2 -3.6,1.2 h -3.6 l -2.4,2.4 -3.6,2.4 -2.4,2.4 -1.2,2.4 -1.2,3.6 v 7.2 l 1.2,3.6 1.2,2.4 2.4,2.4 3.6,2.4 2.4,1.2 3.6,1.2 z" style="fill:none;stroke:silver;stroke-width:7.5;stroke-linecap:round;stroke-linejoin:round;stroke-miterlimit:10;stroke-dasharray:none;stroke-opacity:1" id="path172"/><path d="m 1398,837.6 h 3.6 l 3.6,-1.2 2.4,-1.2 3.6,-2.4 1.2,-2.4 2.4,-2.4 1.2,-3.6 v -7.2 l -1.2,-3.6 -2.4,-2.4 -1.2,-2.4 -3.6,-2.4 -2.4,-2.4 h -3.6 l -3.6,-1.2 -3.6,1.2 h -3.6 l -2.4,2.4 -3.6,2.4 -2.4,2.4 -1.2,2.4 -1.2,3.6 v 7.2 l 1.2,3.6 1.2,2.4 2.4,2.4 3.6,2.4 2.4,1.2 3.6,1.2 z" style="fill:none;stroke:silver;stroke-width:7.5;stroke-linecap:round;stroke-linejoin:round;stroke-miterlimit:10;stroke-dasharray:none;stroke-opacity:1" id="path174"/><path d="m 798,837.6 h 3.6 l 3.6,-1.2 2.4,-1.2 3.6,-2.4 1.2,-2.4 2.4,-2.4 2.4,-3.6 v -7.2 l -2.4,-3.6 -2.4,-2.4 -1.2,-2.4 -3.6,-2.4 -2.4,-2.4 h -3.6 l -3.6,-2.4 -3.6,2.4 h -3.6 l -2.4,2.4 -3.6,2.4 -2.4,2.4 -1.2,2.4 -1.2,3.6 v 7.2 l 1.2,3.6 1.2,2.4 2.4,2.4 3.6,2.4 2.4,1.2 3.6,1.2 h 3.6" style="fill:silver;fill-opacity:1;fill-rule:evenodd;stroke:none" id="path176"/><path d="m 798,837.6 h 3.6 l 3.6,-1.2 2.4,-1.2 3.6,-2.4 1.2,-2.4 2.4,-2.4 1.2,-3.6 v -7.2 l -1.2,-3.6 -2.4,-2.4 -1.2,-2.4 -3.6,-2.4 -2.4,-2.4 h -3.6 l -3.6,-1.2 -3.6,1.2 h -3.6 l -2.4,2.4 -3.6,2.4 -2.4,2.4 -1.2,2.4 -1.2,3.6 v 7.2 l 1.2,3.6 1.2,2.4 2.4,2.4 3.6,2.4 2.4,1.2 3.6,1.2 z" style="fill:none;stroke:silver;stroke-width:7.5;stroke-linecap:round;stroke-linejoin:round;stroke-miterlimit:10;stroke-dasharray:none;stroke-opacity:1" id="path178"/><path d="m 798,837.6 h 3.6 l 3.6,-1.2 2.4,-1.2 3.6,-2.4 1.2,-2.4 2.4,-2.4 1.2,-3.6 v -7.2 l -1.2,-3.6 -2.4,-2.4 -1.2,-2.4 -3.6,-2.4 -2.4,-2.4 h -3.6 l -3.6,-1.2 -3.6,1.2 h -3.6 l -2.4,2.4 -3.6,2.4 -2.4,2.4 -1.2,2.4 -1.2,3.6 v 7.2 l 1.2,3.6 1.2,2.4 2.4,2.4 3.6,2.4 2.4,1.2 3.6,1.2 z" style="fill:none;stroke:silver;stroke-width:7.5;stroke-linecap:round;stroke-linejoin:round;stroke-miterlimit:10;stroke-dasharray:none;stroke-opacity:1" id="path180"/><path d="m 1698,837.6 h 3.6 l 3.6,-1.2 2.4,-1.2 3.6,-2.4 1.2,-2.4 2.4,-2.4 2.4,-3.6 v -7.2 l -2.4,-3.6 -2.4,-2.4 -1.2,-3.6 -3.6,-1.2 -2.4,-2.4 h -3.6 l -3.6,-2.4 -3.6,2.4 h -3.6 l -2.4,2.4 -3.6,1.2 -2.4,3.6 -1.2,2.4 -1.2,3.6 v 7.2 l 1.2,3.6 1.2,2.4 2.4,2.4 3.6,2.4 2.4,1.2 3.6,1.2 h 3.6" style="fill:silver;fill-opacity:1;fill-rule:evenodd;stroke:none" id="path182"/><path d="m 1698,837.6 h 3.6 l 3.6,-1.2 2.4,-1.2 3.6,-2.4 1.2,-2.4 2.4,-2.4 1.2,-3.6 v -7.2 l -1.2,-3.6 -2.4,-2.4 -1.2,-3.6 -3.6,-1.2 -2.4,-2.4 h -3.6 l -3.6,-1.2 -3.6,1.2 h -3.6 l -2.4,2.4 -3.6,1.2 -2.4,3.6 -1.2,2.4 -1.2,3.6 v 7.2 l 1.2,3.6 1.2,2.4 2.4,2.4 3.6,2.4 2.4,1.2 3.6,1.2 z" style="fill:none;stroke:silver;stroke-width:7.5;stroke-linecap:round;stroke-linejoin:round;stroke-miterlimit:10;stroke-dasharray:none;stroke-opacity:1" id="path184"/><path d="m 1698,837.6 h 3.6 l 3.6,-1.2 2.4,-1.2 3.6,-2.4 1.2,-2.4 2.4,-2.4 1.2,-3.6 v -7.2 l -1.2,-3.6 -2.4,-2.4 -1.2,-3.6 -3.6,-1.2 -2.4,-2.4 h -3.6 l -3.6,-1.2 -3.6,1.2 h -3.6 l -2.4,2.4 -3.6,1.2 -2.4,3.6 -1.2,2.4 -1.2,3.6 v 7.2 l 1.2,3.6 1.2,2.4 2.4,2.4 3.6,2.4 2.4,1.2 3.6,1.2 z" style="fill:none;stroke:silver;stroke-width:7.5;stroke-linecap:round;stroke-linejoin:round;stroke-miterlimit:10;stroke-dasharray:none;stroke-opacity:1" id="path186"/><path d="m 1098,1136.4 h 3.6 l 3.6,-1.2 2.4,-1.2 3.6,-2.4 1.2,-2.4 2.4,-2.4 2.4,-3.6 v -7.2 l -2.4,-3.6 -2.4,-2.4 -1.2,-2.4 -3.6,-2.4 -2.4,-2.4 h -3.6 l -3.6,-2.4 -3.6,2.4 h -3.6 l -2.4,2.4 -3.6,2.4 -2.4,2.4 -1.2,2.4 -1.2,3.6 v 7.2 l 1.2,3.6 1.2,2.4 2.4,2.4 3.6,2.4 2.4,1.2 3.6,1.2 h 3.6" style="fill:silver;fill-opacity:1;fill-rule:evenodd;stroke:none" id="path188"/><path d="m 1098,1136.4 h 3.6 l 3.6,-1.2 2.4,-1.2 3.6,-2.4 1.2,-2.4 2.4,-2.4 1.2,-3.6 v -7.2 l -1.2,-3.6 -2.4,-2.4 -1.2,-2.4 -3.6,-2.4 -2.4,-2.4 h -3.6 l -3.6,-1.2 -3.6,1.2 h -3.6 l -2.4,2.4 -3.6,2.4 -2.4,2.4 -1.2,2.4 -1.2,3.6 v 7.2 l 1.2,3.6 1.2,2.4 2.4,2.4 3.6,2.4 2.4,1.2 3.6,1.2 z" style="fill:none;stroke:silver;stroke-width:7.5;stroke-linecap:round;stroke-linejoin:round;stroke-miterlimit:10;stroke-dasharray:none;stroke-opacity:1" id="path190"/><path d="m 1098,1136.4 h 3.6 l 3.6,-1.2 2.4,-1.2 3.6,-2.4 1.2,-2.4 2.4,-2.4 1.2,-3.6 v -7.2 l -1.2,-3.6 -2.4,-2.4 -1.2,-2.4 -3.6,-2.4 -2.4,-2.4 h -3.6 l -3.6,-1.2 -3.6,1.2 h -3.6 l -2.4,2.4 -3.6,2.4 -2.4,2.4 -1.2,2.4 -1.2,3.6 v 7.2 l 1.2,3.6 1.2,2.4 2.4,2.4 3.6,2.4 2.4,1.2 3.6,1.2 z" style="fill:none;stroke:silver;stroke-width:7.5;stroke-linecap:round;stroke-linejoin:round;stroke-miterlimit:10;stroke-dasharray:none;stroke-opacity:1" id="path192"/><path d="m 1398,1136.4 h 3.6 l 3.6,-1.2 2.4,-1.2 3.6,-2.4 1.2,-2.4 2.4,-2.4 2.4,-3.6 v -7.2 l -2.4,-3.6 -2.4,-2.4 -1.2,-2.4 -3.6,-2.4 -2.4,-2.4 h -3.6 l -3.6,-2.4 -3.6,2.4 h -3.6 l -2.4,2.4 -3.6,2.4 -2.4,2.4 -1.2,2.4 -1.2,3.6 v 7.2 l 1.2,3.6 1.2,2.4 2.4,2.4 3.6,2.4 2.4,1.2 3.6,1.2 h 3.6" style="fill:silver;fill-opacity:1;fill-rule:evenodd;stroke:none" id="path194"/><path d="m 1398,1136.4 h 3.6 l 3.6,-1.2 2.4,-1.2 3.6,-2.4 1.2,-2.4 2.4,-2.4 1.2,-3.6 v -7.2 l -1.2,-3.6 -2.4,-2.4 -1.2,-2.4 -3.6,-2.4 -2.4,-2.4 h -3.6 l -3.6,-1.2 -3.6,1.2 h -3.6 l -2.4,2.4 -3.6,2.4 -2.4,2.4 -1.2,2.4 -1.2,3.6 v 7.2 l 1.2,3.6 1.2,2.4 2.4,2.4 3.6,2.4 2.4,1.2 3.6,1.2 z" style="fill:none;stroke:silver;stroke-width:7.5;stroke-linecap:round;stroke-linejoin:round;stroke-miterlimit:10;stroke-dasharray:none;stroke-opacity:1" id="path196"/><path d="m 1398,1136.4 h 3.6 l 3.6,-1.2 2.4,-1.2 3.6,-2.4 1.2,-2.4 2.4,-2.4 1.2,-3.6 v -7.2 l -1.2,-3.6 -2.4,-2.4 -1.2,-2.4 -3.6,-2.4 -2.4,-2.4 h -3.6 l -3.6,-1.2 -3.6,1.2 h -3.6 l -2.4,2.4 -3.6,2.4 -2.4,2.4 -1.2,2.4 -1.2,3.6 v 7.2 l 1.2,3.6 1.2,2.4 2.4,2.4 3.6,2.4 2.4,1.2 3.6,1.2 z" style="fill:none;stroke:silver;stroke-width:7.5;stroke-linecap:round;stroke-linejoin:round;stroke-miterlimit:10;stroke-dasharray:none;stroke-opacity:1" id="path198"/><path d="m 1698,1136.4 h 3.6 l 3.6,-1.2 2.4,-1.2 3.6,-2.4 1.2,-2.4 2.4,-2.4 2.4,-3.6 v -7.2 l -2.4,-3.6 -2.4,-2.4 -1.2,-3.6 -3.6,-1.2 -2.4,-2.4 h -3.6 l -3.6,-2.4 -3.6,2.4 h -3.6 l -2.4,2.4 -3.6,1.2 -2.4,3.6 -1.2,2.4 -1.2,3.6 v 7.2 l 1.2,3.6 1.2,2.4 2.4,2.4 3.6,2.4 2.4,1.2 3.6,1.2 h 3.6" style="fill:silver;fill-opacity:1;fill-rule:evenodd;stroke:none" id="path200"/><path d="m 1698,1136.4 h 3.6 l 3.6,-1.2 2.4,-1.2 3.6,-2.4 1.2,-2.4 2.4,-2.4 1.2,-3.6 v -7.2 l -1.2,-3.6 -2.4,-2.4 -1.2,-3.6 -3.6,-1.2 -2.4,-2.4 h -3.6 l -3.6,-1.2 -3.6,1.2 h -3.6 l -2.4,2.4 -3.6,1.2 -2.4,3.6 -1.2,2.4 -1.2,3.6 v 7.2 l 1.2,3.6 1.2,2.4 2.4,2.4 3.6,2.4 2.4,1.2 3.6,1.2 z" style="fill:none;stroke:silver;stroke-width:7.5;stroke-linecap:round;stroke-linejoin:round;stroke-miterlimit:10;stroke-dasharray:none;stroke-opacity:1" id="path202"/><path d="m 1698,1136.4 h 3.6 l 3.6,-1.2 2.4,-1.2 3.6,-2.4 1.2,-2.4 2.4,-2.4 1.2,-3.6 v -7.2 l -1.2,-3.6 -2.4,-2.4 -1.2,-3.6 -3.6,-1.2 -2.4,-2.4 h -3.6 l -3.6,-1.2 -3.6,1.2 h -3.6 l -2.4,2.4 -3.6,1.2 -2.4,3.6 -1.2,2.4 -1.2,3.6 v 7.2 l 1.2,3.6 1.2,2.4 2.4,2.4 3.6,2.4 2.4,1.2 3.6,1.2 z" style="fill:none;stroke:silver;stroke-width:7.5;stroke-linecap:round;stroke-linejoin:round;stroke-miterlimit:10;stroke-dasharray:none;stroke-opacity:1" id="path204"/><path d="m 1098,1436.4 h 3.6 l 3.6,-1.2 2.4,-1.2 3.6,-2.4 1.2,-2.4 2.4,-2.4 2.4,-3.6 v -7.2 l -2.4,-3.6 -2.4,-2.4 -1.2,-2.4 -3.6,-2.4 -2.4,-2.4 h -3.6 l -3.6,-2.4 -3.6,2.4 h -3.6 l -2.4,2.4 -3.6,2.4 -2.4,2.4 -1.2,2.4 -1.2,3.6 v 7.2 l 1.2,3.6 1.2,2.4 2.4,2.4 3.6,2.4 2.4,1.2 3.6,1.2 h 3.6" style="fill:silver;fill-opacity:1;fill-rule:evenodd;stroke:none" id="path206"/><path d="m 1098,1436.4 h 3.6 l 3.6,-1.2 2.4,-1.2 3.6,-2.4 1.2,-2.4 2.4,-2.4 1.2,-3.6 v -7.2 l -1.2,-3.6 -2.4,-2.4 -1.2,-2.4 -3.6,-2.4 -2.4,-2.4 h -3.6 l -3.6,-1.2 -3.6,1.2 h -3.6 l -2.4,2.4 -3.6,2.4 -2.4,2.4 -1.2,2.4 -1.2,3.6 v 7.2 l 1.2,3.6 1.2,2.4 2.4,2.4 3.6,2.4 2.4,1.2 3.6,1.2 z" style="fill:none;stroke:silver;stroke-width:7.5;stroke-linecap:round;stroke-linejoin:round;stroke-miterlimit:10;stroke-dasharray:none;stroke-opacity:1" id="path208"/><path d="m 1098,1436.4 h 3.6 l 3.6,-1.2 2.4,-1.2 3.6,-2.4 1.2,-2.4 2.4,-2.4 1.2,-3.6 v -7.2 l -1.2,-3.6 -2.4,-2.4 -1.2,-2.4 -3.6,-2.4 -2.4,-2.4 h -3.6 l -3.6,-1.2 -3.6,1.2 h -3.6 l -2.4,2.4 -3.6,2.4 -2.4,2.4 -1.2,2.4 -1.2,3.6 v 7.2 l 1.2,3.6 1.2,2.4 2.4,2.4 3.6,2.4 2.4,1.2 3.6,1.2 z" style="fill:none;stroke:silver;stroke-width:7.5;stroke-linecap:round;stroke-linejoin:round;stroke-miterlimit:10;stroke-dasharray:none;stroke-opacity:1" id="path210"/><path d="m 1398,1436.4 h 3.6 l 3.6,-1.2 2.4,-1.2 3.6,-2.4 1.2,-2.4 2.4,-2.4 2.4,-3.6 v -7.2 l -2.4,-3.6 -2.4,-2.4 -1.2,-2.4 -3.6,-2.4 -2.4,-2.4 h -3.6 l -3.6,-2.4 -3.6,2.4 h -3.6 l -2.4,2.4 -3.6,2.4 -2.4,2.4 -1.2,2.4 -1.2,3.6 v 7.2 l 1.2,3.6 1.2,2.4 2.4,2.4 3.6,2.4 2.4,1.2 3.6,1.2 h 3.6" style="fill:silver;fill-opacity:1;fill-rule:evenodd;stroke:none" id="path212"/><path d="m 1398,1436.4 h 3.6 l 3.6,-1.2 2.4,-1.2 3.6,-2.4 1.2,-2.4 2.4,-2.4 1.2,-3.6 v -7.2 l -1.2,-3.6 -2.4,-2.4 -1.2,-2.4 -3.6,-2.4 -2.4,-2.4 h -3.6 l -3.6,-1.2 -3.6,1.2 h -3.6 l -2.4,2.4 -3.6,2.4 -2.4,2.4 -1.2,2.4 -1.2,3.6 v 7.2 l 1.2,3.6 1.2,2.4 2.4,2.4 3.6,2.4 2.4,1.2 3.6,1.2 z" style="fill:none;stroke:silver;stroke-width:7.5;stroke-linecap:round;stroke-linejoin:round;stroke-miterlimit:10;stroke-dasharray:none;stroke-opacity:1" id="path214"/><path d="m 1398,1436.4 h 3.6 l 3.6,-1.2 2.4,-1.2 3.6,-2.4 1.2,-2.4 2.4,-2.4 1.2,-3.6 v -7.2 l -1.2,-3.6 -2.4,-2.4 -1.2,-2.4 -3.6,-2.4 -2.4,-2.4 h -3.6 l -3.6,-1.2 -3.6,1.2 h -3.6 l -2.4,2.4 -3.6,2.4 -2.4,2.4 -1.2,2.4 -1.2,3.6 v 7.2 l 1.2,3.6 1.2,2.4 2.4,2.4 3.6,2.4 2.4,1.2 3.6,1.2 z" style="fill:none;stroke:silver;stroke-width:7.5;stroke-linecap:round;stroke-linejoin:round;stroke-miterlimit:10;stroke-dasharray:none;stroke-opacity:1" id="path216"/><path d="m 1698,1436.4 h 3.6 l 3.6,-1.2 2.4,-1.2 3.6,-2.4 1.2,-2.4 2.4,-2.4 2.4,-3.6 v -7.2 l -2.4,-3.6 -2.4,-2.4 -1.2,-3.6 -3.6,-1.2 -2.4,-2.4 h -3.6 l -3.6,-2.4 -3.6,2.4 h -3.6 l -2.4,2.4 -3.6,1.2 -2.4,3.6 -1.2,2.4 -1.2,3.6 v 7.2 l 1.2,3.6 1.2,2.4 2.4,2.4 3.6,2.4 2.4,1.2 3.6,1.2 h 3.6" style="fill:silver;fill-opacity:1;fill-rule:evenodd;stroke:none" id="path218"/><path d="m 1698,1436.4 h 3.6 l 3.6,-1.2 2.4,-1.2 3.6,-2.4 1.2,-2.4 2.4,-2.4 1.2,-3.6 v -7.2 l -1.2,-3.6 -2.4,-2.4 -1.2,-3.6 -3.6,-1.2 -2.4,-2.4 h -3.6 l -3.6,-1.2 -3.6,1.2 h -3.6 l -2.4,2.4 -3.6,1.2 -2.4,3.6 -1.2,2.4 -1.2,3.6 v 7.2 l 1.2,3.6 1.2,2.4 2.4,2.4 3.6,2.4 2.4,1.2 3.6,1.2 z" style="fill:none;stroke:silver;stroke-width:7.5;stroke-linecap:round;stroke-linejoin:round;stroke-miterlimit:10;stroke-dasharray:none;stroke-opacity:1" id="path220"/><path d="m 1698,1436.4 h 3.6 l 3.6,-1.2 2.4,-1.2 3.6,-2.4 1.2,-2.4 2.4,-2.4 1.2,-3.6 v -7.2 l -1.2,-3.6 -2.4,-2.4 -1.2,-3.6 -3.6,-1.2 -2.4,-2.4 h -3.6 l -3.6,-1.2 -3.6,1.2 h -3.6 l -2.4,2.4 -3.6,1.2 -2.4,3.6 -1.2,2.4 -1.2,3.6 v 7.2 l 1.2,3.6 1.2,2.4 2.4,2.4 3.6,2.4 2.4,1.2 3.6,1.2 z" style="fill:none;stroke:silver;stroke-width:7.5;stroke-linecap:round;stroke-linejoin:round;stroke-miterlimit:10;stroke-dasharray:none;stroke-opacity:1" id="path222"/><path d="m 198,537.6 h 3.6 l 3.6,-1.2 2.4,-1.2 3.6,-2.4 1.2,-2.4 2.4,-2.4 2.4,-3.6 v -7.2 l -2.4,-3.6 -2.4,-2.4 -1.2,-3.6 -3.6,-1.2 -2.4,-2.4 h -3.6 l -3.6,-2.4 -3.6,2.4 h -3.6 l -2.4,2.4 -3.6,1.2 -2.4,3.6 -1.2,2.4 -1.2,3.6 v 7.2 l 1.2,3.6 1.2,2.4 2.4,2.4 3.6,2.4 2.4,1.2 3.6,1.2 h 3.6" style="fill:silver;fill-opacity:1;fill-rule:evenodd;stroke:none" id="path224"/><path d="m 198,537.6 h 3.6 l 3.6,-1.2 2.4,-1.2 3.6,-2.4 1.2,-2.4 2.4,-2.4 1.2,-3.6 v -7.2 l -1.2,-3.6 -2.4,-2.4 -1.2,-3.6 -3.6,-1.2 -2.4,-2.4 h -3.6 l -3.6,-1.2 -3.6,1.2 h -3.6 l -2.4,2.4 -3.6,1.2 -2.4,3.6 -1.2,2.4 -1.2,3.6 v 7.2 l 1.2,3.6 1.2,2.4 2.4,2.4 3.6,2.4 2.4,1.2 3.6,1.2 z" style="fill:none;stroke:silver;stroke-width:7.5;stroke-linecap:round;stroke-linejoin:round;stroke-miterlimit:10;stroke-dasharray:none;stroke-opacity:1" id="path226"/><path d="m 198,537.6 h 3.6 l 3.6,-1.2 2.4,-1.2 3.6,-2.4 1.2,-2.4 2.4,-2.4 1.2,-3.6 v -7.2 l -1.2,-3.6 -2.4,-2.4 -1.2,-3.6 -3.6,-1.2 -2.4,-2.4 h -3.6 l -3.6,-1.2 -3.6,1.2 h -3.6 l -2.4,2.4 -3.6,1.2 -2.4,3.6 -1.2,2.4 -1.2,3.6 v 7.2 l 1.2,3.6 1.2,2.4 2.4,2.4 3.6,2.4 2.4,1.2 3.6,1.2 z" style="fill:none;stroke:silver;stroke-width:7.5;stroke-linecap:round;stroke-linejoin:round;stroke-miterlimit:10;stroke-dasharray:none;stroke-opacity:1" id="path228"/><path d="m 498,537.6 h 3.6 l 3.6,-1.2 2.4,-1.2 3.6,-2.4 1.2,-2.4 2.4,-2.4 2.4,-3.6 v -7.2 l -2.4,-3.6 -2.4,-2.4 -1.2,-3.6 -3.6,-1.2 -2.4,-2.4 h -3.6 l -3.6,-2.4 -3.6,2.4 h -3.6 l -2.4,2.4 -3.6,1.2 -2.4,3.6 -1.2,2.4 -1.2,3.6 v 7.2 l 1.2,3.6 1.2,2.4 2.4,2.4 3.6,2.4 2.4,1.2 3.6,1.2 h 3.6" style="fill:silver;fill-opacity:1;fill-rule:evenodd;stroke:none" id="path230"/><path d="m 498,537.6 h 3.6 l 3.6,-1.2 2.4,-1.2 3.6,-2.4 1.2,-2.4 2.4,-2.4 1.2,-3.6 v -7.2 l -1.2,-3.6 -2.4,-2.4 -1.2,-3.6 -3.6,-1.2 -2.4,-2.4 h -3.6 l -3.6,-1.2 -3.6,1.2 h -3.6 l -2.4,2.4 -3.6,1.2 -2.4,3.6 -1.2,2.4 -1.2,3.6 v 7.2 l 1.2,3.6 1.2,2.4 2.4,2.4 3.6,2.4 2.4,1.2 3.6,1.2 z" style="fill:none;stroke:silver;stroke-width:7.5;stroke-linecap:round;stroke-linejoin:round;stroke-miterlimit:10;stroke-dasharray:none;stroke-opacity:1" id="path232"/><path d="m 498,537.6 h 3.6 l 3.6,-1.2 2.4,-1.2 3.6,-2.4 1.2,-2.4 2.4,-2.4 1.2,-3.6 v -7.2 l -1.2,-3.6 -2.4,-2.4 -1.2,-3.6 -3.6,-1.2 -2.4,-2.4 h -3.6 l -3.6,-1.2 -3.6,1.2 h -3.6 l -2.4,2.4 -3.6,1.2 -2.4,3.6 -1.2,2.4 -1.2,3.6 v 7.2 l 1.2,3.6 1.2,2.4 2.4,2.4 3.6,2.4 2.4,1.2 3.6,1.2 z" style="fill:none;stroke:silver;stroke-width:7.5;stroke-linecap:round;stroke-linejoin:round;stroke-miterlimit:10;stroke-dasharray:none;stroke-opacity:1" id="path234"/><path d="m 1098,537.6 h 3.6 l 3.6,-1.2 2.4,-1.2 3.6,-2.4 1.2,-2.4 2.4,-2.4 2.4,-3.6 v -7.2 l -2.4,-3.6 -2.4,-2.4 -1.2,-3.6 -3.6,-1.2 -2.4,-2.4 h -3.6 l -3.6,-2.4 -3.6,2.4 h -3.6 l -2.4,2.4 -3.6,1.2 -2.4,3.6 -1.2,2.4 -1.2,3.6 v 7.2 l 1.2,3.6 1.2,2.4 2.4,2.4 3.6,2.4 2.4,1.2 3.6,1.2 h 3.6" style="fill:silver;fill-opacity:1;fill-rule:evenodd;stroke:none" id="path236"/><path d="m 1098,537.6 h 3.6 l 3.6,-1.2 2.4,-1.2 3.6,-2.4 1.2,-2.4 2.4,-2.4 1.2,-3.6 v -7.2 l -1.2,-3.6 -2.4,-2.4 -1.2,-3.6 -3.6,-1.2 -2.4,-2.4 h -3.6 l -3.6,-1.2 -3.6,1.2 h -3.6 l -2.4,2.4 -3.6,1.2 -2.4,3.6 -1.2,2.4 -1.2,3.6 v 7.2 l 1.2,3.6 1.2,2.4 2.4,2.4 3.6,2.4 2.4,1.2 3.6,1.2 z" style="fill:none;stroke:silver;stroke-width:7.5;stroke-linecap:round;stroke-linejoin:round;stroke-miterlimit:10;stroke-dasharray:none;stroke-opacity:1" id="path238"/><path d="m 1098,537.6 h 3.6 l 3.6,-1.2 2.4,-1.2 3.6,-2.4 1.2,-2.4 2.4,-2.4 1.2,-3.6 v -7.2 l -1.2,-3.6 -2.4,-2.4 -1.2,-3.6 -3.6,-1.2 -2.4,-2.4 h -3.6 l -3.6,-1.2 -3.6,1.2 h -3.6 l -2.4,2.4 -3.6,1.2 -2.4,3.6 -1.2,2.4 -1.2,3.6 v 7.2 l 1.2,3.6 1.2,2.4 2.4,2.4 3.6,2.4 2.4,1.2 3.6,1.2 z" style="fill:none;stroke:silver;stroke-width:7.5;stroke-linecap:round;stroke-linejoin:round;stroke-miterlimit:10;stroke-dasharray:none;stroke-opacity:1" id="path240"/><path d="m 1398,537.6 h 3.6 l 3.6,-1.2 2.4,-1.2 3.6,-2.4 1.2,-2.4 2.4,-2.4 2.4,-3.6 v -7.2 l -2.4,-3.6 -2.4,-2.4 -1.2,-3.6 -3.6,-1.2 -2.4,-2.4 h -3.6 l -3.6,-2.4 -3.6,2.4 h -3.6 l -2.4,2.4 -3.6,1.2 -2.4,3.6 -1.2,2.4 -1.2,3.6 v 7.2 l 1.2,3.6 1.2,2.4 2.4,2.4 3.6,2.4 2.4,1.2 3.6,1.2 h 3.6" style="fill:silver;fill-opacity:1;fill-rule:evenodd;stroke:none" id="path242"/><path d="m 1398,537.6 h 3.6 l 3.6,-1.2 2.4,-1.2 3.6,-2.4 1.2,-2.4 2.4,-2.4 1.2,-3.6 v -7.2 l -1.2,-3.6 -2.4,-2.4 -1.2,-3.6 -3.6,-1.2 -2.4,-2.4 h -3.6 l -3.6,-1.2 -3.6,1.2 h -3.6 l -2.4,2.4 -3.6,1.2 -2.4,3.6 -1.2,2.4 -1.2,3.6 v 7.2 l 1.2,3.6 1.2,2.4 2.4,2.4 3.6,2.4 2.4,1.2 3.6,1.2 z" style="fill:none;stroke:silver;stroke-width:7.5;stroke-linecap:round;stroke-linejoin:round;stroke-miterlimit:10;stroke-dasharray:none;stroke-opacity:1" id="path244"/><path d="m 1398,537.6 h 3.6 l 3.6,-1.2 2.4,-1.2 3.6,-2.4 1.2,-2.4 2.4,-2.4 1.2,-3.6 v -7.2 l -1.2,-3.6 -2.4,-2.4 -1.2,-3.6 -3.6,-1.2 -2.4,-2.4 h -3.6 l -3.6,-1.2 -3.6,1.2 h -3.6 l -2.4,2.4 -3.6,1.2 -2.4,3.6 -1.2,2.4 -1.2,3.6 v 7.2 l 1.2,3.6 1.2,2.4 2.4,2.4 3.6,2.4 2.4,1.2 3.6,1.2 z" style="fill:none;stroke:silver;stroke-width:7.5;stroke-linecap:round;stroke-linejoin:round;stroke-miterlimit:10;stroke-dasharray:none;stroke-opacity:1" id="path246"/><path d="m 798,537.6 h 3.6 l 3.6,-1.2 2.4,-1.2 3.6,-2.4 1.2,-2.4 2.4,-2.4 2.4,-3.6 v -7.2 l -2.4,-3.6 -2.4,-2.4 -1.2,-3.6 -3.6,-1.2 -2.4,-2.4 h -3.6 l -3.6,-2.4 -3.6,2.4 h -3.6 l -2.4,2.4 -3.6,1.2 -2.4,3.6 -1.2,2.4 -1.2,3.6 v 7.2 l 1.2,3.6 1.2,2.4 2.4,2.4 3.6,2.4 2.4,1.2 3.6,1.2 h 3.6" style="fill:silver;fill-opacity:1;fill-rule:evenodd;stroke:none" id="path248"/><path d="m 798,537.6 h 3.6 l 3.6,-1.2 2.4,-1.2 3.6,-2.4 1.2,-2.4 2.4,-2.4 1.2,-3.6 v -7.2 l -1.2,-3.6 -2.4,-2.4 -1.2,-3.6 -3.6,-1.2 -2.4,-2.4 h -3.6 l -3.6,-1.2 -3.6,1.2 h -3.6 l -2.4,2.4 -3.6,1.2 -2.4,3.6 -1.2,2.4 -1.2,3.6 v 7.2 l 1.2,3.6 1.2,2.4 2.4,2.4 3.6,2.4 2.4,1.2 3.6,1.2 z" style="fill:none;stroke:silver;stroke-width:7.5;stroke-linecap:round;stroke-linejoin:round;stroke-miterlimit:10;stroke-dasharray:none;stroke-opacity:1" id="path250"/><path d="m 798,537.6 h 3.6 l 3.6,-1.2 2.4,-1.2 3.6,-2.4 1.2,-2.4 2.4,-2.4 1.2,-3.6 v -7.2 l -1.2,-3.6 -2.4,-2.4 -1.2,-3.6 -3.6,-1.2 -2.4,-2.4 h -3.6 l -3.6,-1.2 -3.6,1.2 h -3.6 l -2.4,2.4 -3.6,1.2 -2.4,3.6 -1.2,2.4 -1.2,3.6 v 7.2 l 1.2,3.6 1.2,2.4 2.4,2.4 3.6,2.4 2.4,1.2 3.6,1.2 z" style="fill:none;stroke:silver;stroke-width:7.5;stroke-linecap:round;stroke-linejoin:round;stroke-miterlimit:10;stroke-dasharray:none;stroke-opacity:1" id="path252"/><path d="m 1698,537.6 h 3.6 l 3.6,-1.2 2.4,-1.2 3.6,-2.4 1.2,-2.4 2.4,-2.4 2.4,-3.6 v -7.2 l -2.4,-3.6 -2.4,-2.4 -1.2,-3.6 -3.6,-1.2 -2.4,-2.4 h -3.6 l -3.6,-2.4 -3.6,2.4 h -3.6 l -2.4,2.4 -3.6,1.2 -2.4,3.6 -1.2,2.4 -1.2,3.6 v 7.2 l 1.2,3.6 1.2,2.4 2.4,2.4 3.6,2.4 2.4,1.2 3.6,1.2 h 3.6" style="fill:silver;fill-opacity:1;fill-rule:evenodd;stroke:none" id="path254"/><path d="m 1698,537.6 h 3.6 l 3.6,-1.2 2.4,-1.2 3.6,-2.4 1.2,-2.4 2.4,-2.4 1.2,-3.6 v -7.2 l -1.2,-3.6 -2.4,-2.4 -1.2,-3.6 -3.6,-1.2 -2.4,-2.4 h -3.6 l -3.6,-1.2 -3.6,1.2 h -3.6 l -2.4,2.4 -3.6,1.2 -2.4,3.6 -1.2,2.4 -1.2,3.6 v 7.2 l 1.2,3.6 1.2,2.4 2.4,2.4 3.6,2.4 2.4,1.2 3.6,1.2 z" style="fill:none;stroke:silver;stroke-width:7.5;stroke-linecap:round;stroke-linejoin:round;stroke-miterlimit:10;stroke-dasharray:none;stroke-opacity:1" id="path256"/><path d="m 1698,537.6 h 3.6 l 3.6,-1.2 2.4,-1.2 3.6,-2.4 1.2,-2.4 2.4,-2.4 1.2,-3.6 v -7.2 l -1.2,-3.6 -2.4,-2.4 -1.2,-3.6 -3.6,-1.2 -2.4,-2.4 h -3.6 l -3.6,-1.2 -3.6,1.2 h -3.6 l -2.4,2.4 -3.6,1.2 -2.4,3.6 -1.2,2.4 -1.2,3.6 v 7.2 l 1.2,3.6 1.2,2.4 2.4,2.4 3.6,2.4 2.4,1.2 3.6,1.2 z" style="fill:none;stroke:silver;stroke-width:7.5;stroke-linecap:round;stroke-linejoin:round;stroke-miterlimit:10;stroke-dasharray:none;stroke-opacity:1" id="path258"/><path d="m 198,837.6 h 3.6 l 3.6,-1.2 2.4,-1.2 3.6,-2.4 1.2,-2.4 2.4,-2.4 2.4,-3.6 v -7.2 l -2.4,-3.6 -2.4,-2.4 -1.2,-2.4 -3.6,-2.4 -2.4,-2.4 h -3.6 l -3.6,-2.4 -3.6,2.4 h -3.6 l -2.4,2.4 -3.6,2.4 -2.4,2.4 -1.2,2.4 -1.2,3.6 v 7.2 l 1.2,3.6 1.2,2.4 2.4,2.4 3.6,2.4 2.4,1.2 3.6,1.2 h 3.6" style="fill:silver;fill-opacity:1;fill-rule:evenodd;stroke:none" id="path260"/><path d="m 198,837.6 h 3.6 l 3.6,-1.2 2.4,-1.2 3.6,-2.4 1.2,-2.4 2.4,-2.4 1.2,-3.6 v -7.2 l -1.2,-3.6 -2.4,-2.4 -1.2,-2.4 -3.6,-2.4 -2.4,-2.4 h -3.6 l -3.6,-1.2 -3.6,1.2 h -3.6 l -2.4,2.4 -3.6,2.4 -2.4,2.4 -1.2,2.4 -1.2,3.6 v 7.2 l 1.2,3.6 1.2,2.4 2.4,2.4 3.6,2.4 2.4,1.2 3.6,1.2 z" style="fill:none;stroke:silver;stroke-width:7.5;stroke-linecap:round;stroke-linejoin:round;stroke-miterlimit:10;stroke-dasharray:none;stroke-opacity:1" id="path262"/><path d="m 198,837.6 h 3.6 l 3.6,-1.2 2.4,-1.2 3.6,-2.4 1.2,-2.4 2.4,-2.4 1.2,-3.6 v -7.2 l -1.2,-3.6 -2.4,-2.4 -1.2,-2.4 -3.6,-2.4 -2.4,-2.4 h -3.6 l -3.6,-1.2 -3.6,1.2 h -3.6 l -2.4,2.4 -3.6,2.4 -2.4,2.4 -1.2,2.4 -1.2,3.6 v 7.2 l 1.2,3.6 1.2,2.4 2.4,2.4 3.6,2.4 2.4,1.2 3.6,1.2 z" style="fill:none;stroke:silver;stroke-width:7.5;stroke-linecap:round;stroke-linejoin:round;stroke-miterlimit:10;stroke-dasharray:none;stroke-opacity:1" id="path264"/><path d="m 498,837.6 h 3.6 l 3.6,-1.2 2.4,-1.2 3.6,-2.4 1.2,-2.4 2.4,-2.4 2.4,-3.6 v -7.2 l -2.4,-3.6 -2.4,-2.4 -1.2,-2.4 -3.6,-2.4 -2.4,-2.4 h -3.6 l -3.6,-2.4 -3.6,2.4 h -3.6 l -2.4,2.4 -3.6,2.4 -2.4,2.4 -1.2,2.4 -1.2,3.6 v 7.2 l 1.2,3.6 1.2,2.4 2.4,2.4 3.6,2.4 2.4,1.2 3.6,1.2 h 3.6" style="fill:silver;fill-opacity:1;fill-rule:evenodd;stroke:none" id="path266"/><path d="m 498,837.6 h 3.6 l 3.6,-1.2 2.4,-1.2 3.6,-2.4 1.2,-2.4 2.4,-2.4 1.2,-3.6 v -7.2 l -1.2,-3.6 -2.4,-2.4 -1.2,-2.4 -3.6,-2.4 -2.4,-2.4 h -3.6 l -3.6,-1.2 -3.6,1.2 h -3.6 l -2.4,2.4 -3.6,2.4 -2.4,2.4 -1.2,2.4 -1.2,3.6 v 7.2 l 1.2,3.6 1.2,2.4 2.4,2.4 3.6,2.4 2.4,1.2 3.6,1.2 z" style="fill:none;stroke:silver;stroke-width:7.5;stroke-linecap:round;stroke-linejoin:round;stroke-miterlimit:10;stroke-dasharray:none;stroke-opacity:1" id="path268"/><path d="m 498,837.6 h 3.6 l 3.6,-1.2 2.4,-1.2 3.6,-2.4 1.2,-2.4 2.4,-2.4 1.2,-3.6 v -7.2 l -1.2,-3.6 -2.4,-2.4 -1.2,-2.4 -3.6,-2.4 -2.4,-2.4 h -3.6 l -3.6,-1.2 -3.6,1.2 h -3.6 l -2.4,2.4 -3.6,2.4 -2.4,2.4 -1.2,2.4 -1.2,3.6 v 7.2 l 1.2,3.6 1.2,2.4 2.4,2.4 3.6,2.4 2.4,1.2 3.6,1.2 z" style="fill:none;stroke:silver;stroke-width:7.5;stroke-linecap:round;stroke-linejoin:round;stroke-miterlimit:10;stroke-dasharray:none;stroke-opacity:1" id="path270"/><path d="m 1098,837.6 h 3.6 l 3.6,-1.2 2.4,-1.2 3.6,-2.4 1.2,-2.4 2.4,-2.4 2.4,-3.6 v -7.2 l -2.4,-3.6 -2.4,-2.4 -1.2,-2.4 -3.6,-2.4 -2.4,-2.4 h -3.6 l -3.6,-2.4 -3.6,2.4 h -3.6 l -2.4,2.4 -3.6,2.4 -2.4,2.4 -1.2,2.4 -1.2,3.6 v 7.2 l 1.2,3.6 1.2,2.4 2.4,2.4 3.6,2.4 2.4,1.2 3.6,1.2 h 3.6" style="fill:silver;fill-opacity:1;fill-rule:evenodd;stroke:none" id="path272"/><path d="m 1098,837.6 h 3.6 l 3.6,-1.2 2.4,-1.2 3.6,-2.4 1.2,-2.4 2.4,-2.4 1.2,-3.6 v -7.2 l -1.2,-3.6 -2.4,-2.4 -1.2,-2.4 -3.6,-2.4 -2.4,-2.4 h -3.6 l -3.6,-1.2 -3.6,1.2 h -3.6 l -2.4,2.4 -3.6,2.4 -2.4,2.4 -1.2,2.4 -1.2,3.6 v 7.2 l 1.2,3.6 1.2,2.4 2.4,2.4 3.6,2.4 2.4,1.2 3.6,1.2 z" style="fill:none;stroke:silver;stroke-width:7.5;stroke-linecap:round;stroke-linejoin:round;stroke-miterlimit:10;stroke-dasharray:none;stroke-opacity:1" id="path274"/><path d="m 1098,837.6 h 3.6 l 3.6,-1.2 2.4,-1.2 3.6,-2.4 1.2,-2.4 2.4,-2.4 1.2,-3.6 v -7.2 l -1.2,-3.6 -2.4,-2.4 -1.2,-2.4 -3.6,-2.4 -2.4,-2.4 h -3.6 l -3.6,-1.2 -3.6,1.2 h -3.6 l -2.4,2.4 -3.6,2.4 -2.4,2.4 -1.2,2.4 -1.2,3.6 v 7.2 l 1.2,3.6 1.2,2.4 2.4,2.4 3.6,2.4 2.4,1.2 3.6,1.2 z" style="fill:none;stroke:silver;stroke-width:7.5;stroke-linecap:round;stroke-linejoin:round;stroke-miterlimit:10;stroke-dasharray:none;stroke-opacity:1" id="path276"/><path d="m 1398,837.6 h 3.6 l 3.6,-1.2 2.4,-1.2 3.6,-2.4 1.2,-2.4 2.4,-2.4 2.4,-3.6 v -7.2 l -2.4,-3.6 -2.4,-2.4 -1.2,-2.4 -3.6,-2.4 -2.4,-2.4 h -3.6 l -3.6,-2.4 -3.6,2.4 h -3.6 l -2.4,2.4 -3.6,2.4 -2.4,2.4 -1.2,2.4 -1.2,3.6 v 7.2 l 1.2,3.6 1.2,2.4 2.4,2.4 3.6,2.4 2.4,1.2 3.6,1.2 h 3.6" style="fill:silver;fill-opacity:1;fill-rule:evenodd;stroke:none" id="path278"/><path d="m 1398,837.6 h 3.6 l 3.6,-1.2 2.4,-1.2 3.6,-2.4 1.2,-2.4 2.4,-2.4 1.2,-3.6 v -7.2 l -1.2,-3.6 -2.4,-2.4 -1.2,-2.4 -3.6,-2.4 -2.4,-2.4 h -3.6 l -3.6,-1.2 -3.6,1.2 h -3.6 l -2.4,2.4 -3.6,2.4 -2.4,2.4 -1.2,2.4 -1.2,3.6 v 7.2 l 1.2,3.6 1.2,2.4 2.4,2.4 3.6,2.4 2.4,1.2 3.6,1.2 z" style="fill:none;stroke:silver;stroke-width:7.5;stroke-linecap:round;stroke-linejoin:round;stroke-miterlimit:10;stroke-dasharray:none;stroke-opacity:1" id="path280"/><path d="m 1398,837.6 h 3.6 l 3.6,-1.2 2.4,-1.2 3.6,-2.4 1.2,-2.4 2.4,-2.4 1.2,-3.6 v -7.2 l -1.2,-3.6 -2.4,-2.4 -1.2,-2.4 -3.6,-2.4 -2.4,-2.4 h -3.6 l -3.6,-1.2 -3.6,1.2 h -3.6 l -2.4,2.4 -3.6,2.4 -2.4,2.4 -1.2,2.4 -1.2,3.6 v 7.2 l 1.2,3.6 1.2,2.4 2.4,2.4 3.6,2.4 2.4,1.2 3.6,1.2 z" style="fill:none;stroke:silver;stroke-width:7.5;stroke-linecap:round;stroke-linejoin:round;stroke-miterlimit:10;stroke-dasharray:none;stroke-opacity:1" id="path282"/><path d="m 798,837.6 h 3.6 l 3.6,-1.2 2.4,-1.2 3.6,-2.4 1.2,-2.4 2.4,-2.4 2.4,-3.6 v -7.2 l -2.4,-3.6 -2.4,-2.4 -1.2,-2.4 -3.6,-2.4 -2.4,-2.4 h -3.6 l -3.6,-2.4 -3.6,2.4 h -3.6 l -2.4,2.4 -3.6,2.4 -2.4,2.4 -1.2,2.4 -1.2,3.6 v 7.2 l 1.2,3.6 1.2,2.4 2.4,2.4 3.6,2.4 2.4,1.2 3.6,1.2 h 3.6" style="fill:silver;fill-opacity:1;fill-rule:evenodd;stroke:none" id="path284"/><path d="m 798,837.6 h 3.6 l 3.6,-1.2 2.4,-1.2 3.6,-2.4 1.2,-2.4 2.4,-2.4 1.2,-3.6 v -7.2 l -1.2,-3.6 -2.4,-2.4 -1.2,-2.4 -3.6,-2.4 -2.4,-2.4 h -3.6 l -3.6,-1.2 -3.6,1.2 h -3.6 l -2.4,2.4 -3.6,2.4 -2.4,2.4 -1.2,2.4 -1.2,3.6 v 7.2 l 1.2,3.6 1.2,2.4 2.4,2.4 3.6,2.4 2.4,1.2 3.6,1.2 z" style="fill:none;stroke:silver;stroke-width:7.5;stroke-linecap:round;stroke-linejoin:round;stroke-miterlimit:10;stroke-dasharray:none;stroke-opacity:1" id="path286"/><path d="m 798,837.6 h 3.6 l 3.6,-1.2 2.4,-1.2 3.6,-2.4 1.2,-2.4 2.4,-2.4 1.2,-3.6 v -7.2 l -1.2,-3.6 -2.4,-2.4 -1.2,-2.4 -3.6,-2.4 -2.4,-2.4 h -3.6 l -3.6,-1.2 -3.6,1.2 h -3.6 l -2.4,2.4 -3.6,2.4 -2.4,2.4 -1.2,2.4 -1.2,3.6 v 7.2 l 1.2,3.6 1.2,2.4 2.4,2.4 3.6,2.4 2.4,1.2 3.6,1.2 z" style="fill:none;stroke:silver;stroke-width:7.5;stroke-linecap:round;stroke-linejoin:round;stroke-miterlimit:10;stroke-dasharray:none;stroke-opacity:1" id="path288"/><path d="m 1698,837.6 h 3.6 l 3.6,-1.2 2.4,-1.2 3.6,-2.4 1.2,-2.4 2.4,-2.4 2.4,-3.6 v -7.2 l -2.4,-3.6 -2.4,-2.4 -1.2,-3.6 -3.6,-1.2 -2.4,-2.4 h -3.6 l -3.6,-2.4 -3.6,2.4 h -3.6 l -2.4,2.4 -3.6,1.2 -2.4,3.6 -1.2,2.4 -1.2,3.6 v 7.2 l 1.2,3.6 1.2,2.4 2.4,2.4 3.6,2.4 2.4,1.2 3.6,1.2 h 3.6" style="fill:silver;fill-opacity:1;fill-rule:evenodd;stroke:none" id="path290"/><path d="m 1698,837.6 h 3.6 l 3.6,-1.2 2.4,-1.2 3.6,-2.4 1.2,-2.4 2.4,-2.4 1.2,-3.6 v -7.2 l -1.2,-3.6 -2.4,-2.4 -1.2,-3.6 -3.6,-1.2 -2.4,-2.4 h -3.6 l -3.6,-1.2 -3.6,1.2 h -3.6 l -2.4,2.4 -3.6,1.2 -2.4,3.6 -1.2,2.4 -1.2,3.6 v 7.2 l 1.2,3.6 1.2,2.4 2.4,2.4 3.6,2.4 2.4,1.2 3.6,1.2 z" style="fill:none;stroke:silver;stroke-width:7.5;stroke-linecap:round;stroke-linejoin:round;stroke-miterlimit:10;stroke-dasharray:none;stroke-opacity:1" id="path292"/><path d="m 1698,837.6 h 3.6 l 3.6,-1.2 2.4,-1.2 3.6,-2.4 1.2,-2.4 2.4,-2.4 1.2,-3.6 v -7.2 l -1.2,-3.6 -2.4,-2.4 -1.2,-3.6 -3.6,-1.2 -2.4,-2.4 h -3.6 l -3.6,-1.2 -3.6,1.2 h -3.6 l -2.4,2.4 -3.6,1.2 -2.4,3.6 -1.2,2.4 -1.2,3.6 v 7.2 l 1.2,3.6 1.2,2.4 2.4,2.4 3.6,2.4 2.4,1.2 3.6,1.2 z" style="fill:none;stroke:silver;stroke-width:7.5;stroke-linecap:round;stroke-linejoin:round;stroke-miterlimit:10;stroke-dasharray:none;stroke-opacity:1" id="path294"/><path d="m 1098,1136.4 h 3.6 l 3.6,-1.2 2.4,-1.2 3.6,-2.4 1.2,-2.4 2.4,-2.4 2.4,-3.6 v -7.2 l -2.4,-3.6 -2.4,-2.4 -1.2,-2.4 -3.6,-2.4 -2.4,-2.4 h -3.6 l -3.6,-2.4 -3.6,2.4 h -3.6 l -2.4,2.4 -3.6,2.4 -2.4,2.4 -1.2,2.4 -1.2,3.6 v 7.2 l 1.2,3.6 1.2,2.4 2.4,2.4 3.6,2.4 2.4,1.2 3.6,1.2 h 3.6" style="fill:silver;fill-opacity:1;fill-rule:evenodd;stroke:none" id="path296"/><path d="m 1098,1136.4 h 3.6 l 3.6,-1.2 2.4,-1.2 3.6,-2.4 1.2,-2.4 2.4,-2.4 1.2,-3.6 v -7.2 l -1.2,-3.6 -2.4,-2.4 -1.2,-2.4 -3.6,-2.4 -2.4,-2.4 h -3.6 l -3.6,-1.2 -3.6,1.2 h -3.6 l -2.4,2.4 -3.6,2.4 -2.4,2.4 -1.2,2.4 -1.2,3.6 v 7.2 l 1.2,3.6 1.2,2.4 2.4,2.4 3.6,2.4 2.4,1.2 3.6,1.2 z" style="fill:none;stroke:silver;stroke-width:7.5;stroke-linecap:round;stroke-linejoin:round;stroke-miterlimit:10;stroke-dasharray:none;stroke-opacity:1" id="path298"/><path d="m 1098,1136.4 h 3.6 l 3.6,-1.2 2.4,-1.2 3.6,-2.4 1.2,-2.4 2.4,-2.4 1.2,-3.6 v -7.2 l -1.2,-3.6 -2.4,-2.4 -1.2,-2.4 -3.6,-2.4 -2.4,-2.4 h -3.6 l -3.6,-1.2 -3.6,1.2 h -3.6 l -2.4,2.4 -3.6,2.4 -2.4,2.4 -1.2,2.4 -1.2,3.6 v 7.2 l 1.2,3.6 1.2,2.4 2.4,2.4 3.6,2.4 2.4,1.2 3.6,1.2 z" style="fill:none;stroke:silver;stroke-width:7.5;stroke-linecap:round;stroke-linejoin:round;stroke-miterlimit:10;stroke-dasharray:none;stroke-opacity:1" id="path300"/><path d="m 1398,1136.4 h 3.6 l 3.6,-1.2 2.4,-1.2 3.6,-2.4 1.2,-2.4 2.4,-2.4 2.4,-3.6 v -7.2 l -2.4,-3.6 -2.4,-2.4 -1.2,-2.4 -3.6,-2.4 -2.4,-2.4 h -3.6 l -3.6,-2.4 -3.6,2.4 h -3.6 l -2.4,2.4 -3.6,2.4 -2.4,2.4 -1.2,2.4 -1.2,3.6 v 7.2 l 1.2,3.6 1.2,2.4 2.4,2.4 3.6,2.4 2.4,1.2 3.6,1.2 h 3.6" style="fill:silver;fill-opacity:1;fill-rule:evenodd;stroke:none" id="path302"/><path d="m 1398,1136.4 h 3.6 l 3.6,-1.2 2.4,-1.2 3.6,-2.4 1.2,-2.4 2.4,-2.4 1.2,-3.6 v -7.2 l -1.2,-3.6 -2.4,-2.4 -1.2,-2.4 -3.6,-2.4 -2.4,-2.4 h -3.6 l -3.6,-1.2 -3.6,1.2 h -3.6 l -2.4,2.4 -3.6,2.4 -2.4,2.4 -1.2,2.4 -1.2,3.6 v 7.2 l 1.2,3.6 1.2,2.4 2.4,2.4 3.6,2.4 2.4,1.2 3.6,1.2 z" style="fill:none;stroke:silver;stroke-width:7.5;stroke-linecap:round;stroke-linejoin:round;stroke-miterlimit:10;stroke-dasharray:none;stroke-opacity:1" id="path304"/><path d="m 1398,1136.4 h 3.6 l 3.6,-1.2 2.4,-1.2 3.6,-2.4 1.2,-2.4 2.4,-2.4 1.2,-3.6 v -7.2 l -1.2,-3.6 -2.4,-2.4 -1.2,-2.4 -3.6,-2.4 -2.4,-2.4 h -3.6 l -3.6,-1.2 -3.6,1.2 h -3.6 l -2.4,2.4 -3.6,2.4 -2.4,2.4 -1.2,2.4 -1.2,3.6 v 7.2 l 1.2,3.6 1.2,2.4 2.4,2.4 3.6,2.4 2.4,1.2 3.6,1.2 z" style="fill:none;stroke:silver;stroke-width:7.5;stroke-linecap:round;stroke-linejoin:round;stroke-miterlimit:10;stroke-dasharray:none;stroke-opacity:1" id="path306"/><path d="m 1698,1136.4 h 3.6 l 3.6,-1.2 2.4,-1.2 3.6,-2.4 1.2,-2.4 2.4,-2.4 2.4,-3.6 v -7.2 l -2.4,-3.6 -2.4,-2.4 -1.2,-3.6 -3.6,-1.2 -2.4,-2.4 h -3.6 l -3.6,-2.4 -3.6,2.4 h -3.6 l -2.4,2.4 -3.6,1.2 -2.4,3.6 -1.2,2.4 -1.2,3.6 v 7.2 l 1.2,3.6 1.2,2.4 2.4,2.4 3.6,2.4 2.4,1.2 3.6,1.2 h 3.6" style="fill:silver;fill-opacity:1;fill-rule:evenodd;stroke:none" id="path308"/><path d="m 1698,1136.4 h 3.6 l 3.6,-1.2 2.4,-1.2 3.6,-2.4 1.2,-2.4 2.4,-2.4 1.2,-3.6 v -7.2 l -1.2,-3.6 -2.4,-2.4 -1.2,-3.6 -3.6,-1.2 -2.4,-2.4 h -3.6 l -3.6,-1.2 -3.6,1.2 h -3.6 l -2.4,2.4 -3.6,1.2 -2.4,3.6 -1.2,2.4 -1.2,3.6 v 7.2 l 1.2,3.6 1.2,2.4 2.4,2.4 3.6,2.4 2.4,1.2 3.6,1.2 z" style="fill:none;stroke:silver;stroke-width:7.5;stroke-linecap:round;stroke-linejoin:round;stroke-miterlimit:10;stroke-dasharray:none;stroke-opacity:1" id="path310"/><path d="m 1698,1136.4 h 3.6 l 3.6,-1.2 2.4,-1.2 3.6,-2.4 1.2,-2.4 2.4,-2.4 1.2,-3.6 v -7.2 l -1.2,-3.6 -2.4,-2.4 -1.2,-3.6 -3.6,-1.2 -2.4,-2.4 h -3.6 l -3.6,-1.2 -3.6,1.2 h -3.6 l -2.4,2.4 -3.6,1.2 -2.4,3.6 -1.2,2.4 -1.2,3.6 v 7.2 l 1.2,3.6 1.2,2.4 2.4,2.4 3.6,2.4 2.4,1.2 3.6,1.2 z" style="fill:none;stroke:silver;stroke-width:7.5;stroke-linecap:round;stroke-linejoin:round;stroke-miterlimit:10;stroke-dasharray:none;stroke-opacity:1" id="path312"/><path d="m 1098,1436.4 h 3.6 l 3.6,-1.2 2.4,-1.2 3.6,-2.4 1.2,-2.4 2.4,-2.4 2.4,-3.6 v -7.2 l -2.4,-3.6 -2.4,-2.4 -1.2,-2.4 -3.6,-2.4 -2.4,-2.4 h -3.6 l -3.6,-2.4 -3.6,2.4 h -3.6 l -2.4,2.4 -3.6,2.4 -2.4,2.4 -1.2,2.4 -1.2,3.6 v 7.2 l 1.2,3.6 1.2,2.4 2.4,2.4 3.6,2.4 2.4,1.2 3.6,1.2 h 3.6" style="fill:silver;fill-opacity:1;fill-rule:evenodd;stroke:none" id="path314"/><path d="m 1098,1436.4 h 3.6 l 3.6,-1.2 2.4,-1.2 3.6,-2.4 1.2,-2.4 2.4,-2.4 1.2,-3.6 v -7.2 l -1.2,-3.6 -2.4,-2.4 -1.2,-2.4 -3.6,-2.4 -2.4,-2.4 h -3.6 l -3.6,-1.2 -3.6,1.2 h -3.6 l -2.4,2.4 -3.6,2.4 -2.4,2.4 -1.2,2.4 -1.2,3.6 v 7.2 l 1.2,3.6 1.2,2.4 2.4,2.4 3.6,2.4 2.4,1.2 3.6,1.2 z" style="fill:none;stroke:silver;stroke-width:7.5;stroke-linecap:round;stroke-linejoin:round;stroke-miterlimit:10;stroke-dasharray:none;stroke-opacity:1" id="path316"/><path d="m 1098,1436.4 h 3.6 l 3.6,-1.2 2.4,-1.2 3.6,-2.4 1.2,-2.4 2.4,-2.4 1.2,-3.6 v -7.2 l -1.2,-3.6 -2.4,-2.4 -1.2,-2.4 -3.6,-2.4 -2.4,-2.4 h -3.6 l -3.6,-1.2 -3.6,1.2 h -3.6 l -2.4,2.4 -3.6,2.4 -2.4,2.4 -1.2,2.4 -1.2,3.6 v 7.2 l 1.2,3.6 1.2,2.4 2.4,2.4 3.6,2.4 2.4,1.2 3.6,1.2 z" style="fill:none;stroke:silver;stroke-width:7.5;stroke-linecap:round;stroke-linejoin:round;stroke-miterlimit:10;stroke-dasharray:none;stroke-opacity:1" id="path318"/><path d="m 1398,1436.4 h 3.6 l 3.6,-1.2 2.4,-1.2 3.6,-2.4 1.2,-2.4 2.4,-2.4 2.4,-3.6 v -7.2 l -2.4,-3.6 -2.4,-2.4 -1.2,-2.4 -3.6,-2.4 -2.4,-2.4 h -3.6 l -3.6,-2.4 -3.6,2.4 h -3.6 l -2.4,2.4 -3.6,2.4 -2.4,2.4 -1.2,2.4 -1.2,3.6 v 7.2 l 1.2,3.6 1.2,2.4 2.4,2.4 3.6,2.4 2.4,1.2 3.6,1.2 h 3.6" style="fill:silver;fill-opacity:1;fill-rule:evenodd;stroke:none" id="path320"/><path d="m 1398,1436.4 h 3.6 l 3.6,-1.2 2.4,-1.2 3.6,-2.4 1.2,-2.4 2.4,-2.4 1.2,-3.6 v -7.2 l -1.2,-3.6 -2.4,-2.4 -1.2,-2.4 -3.6,-2.4 -2.4,-2.4 h -3.6 l -3.6,-1.2 -3.6,1.2 h -3.6 l -2.4,2.4 -3.6,2.4 -2.4,2.4 -1.2,2.4 -1.2,3.6 v 7.2 l 1.2,3.6 1.2,2.4 2.4,2.4 3.6,2.4 2.4,1.2 3.6,1.2 z" style="fill:none;stroke:silver;stroke-width:7.5;stroke-linecap:round;stroke-linejoin:round;stroke-miterlimit:10;stroke-dasharray:none;stroke-opacity:1" id="path322"/><path d="m 1398,1436.4 h 3.6 l 3.6,-1.2 2.4,-1.2 3.6,-2.4 1.2,-2.4 2.4,-2.4 1.2,-3.6 v -7.2 l -1.2,-3.6 -2.4,-2.4 -1.2,-2.4 -3.6,-2.4 -2.4,-2.4 h -3.6 l -3.6,-1.2 -3.6,1.2 h -3.6 l -2.4,2.4 -3.6,2.4 -2.4,2.4 -1.2,2.4 -1.2,3.6 v 7.2 l 1.2,3.6 1.2,2.4 2.4,2.4 3.6,2.4 2.4,1.2 3.6,1.2 z" style="fill:none;stroke:silver;stroke-width:7.5;stroke-linecap:round;stroke-linejoin:round;stroke-miterlimit:10;stroke-dasharray:none;stroke-opacity:1" id="path324"/><path d="m 1698,1436.4 h 3.6 l 3.6,-1.2 2.4,-1.2 3.6,-2.4 1.2,-2.4 2.4,-2.4 2.4,-3.6 v -7.2 l -2.4,-3.6 -2.4,-2.4 -1.2,-3.6 -3.6,-1.2 -2.4,-2.4 h -3.6 l -3.6,-2.4 -3.6,2.4 h -3.6 l -2.4,2.4 -3.6,1.2 -2.4,3.6 -1.2,2.4 -1.2,3.6 v 7.2 l 1.2,3.6 1.2,2.4 2.4,2.4 3.6,2.4 2.4,1.2 3.6,1.2 h 3.6" style="fill:silver;fill-opacity:1;fill-rule:evenodd;stroke:none" id="path326"/><path d="m 1698,1436.4 h 3.6 l 3.6,-1.2 2.4,-1.2 3.6,-2.4 1.2,-2.4 2.4,-2.4 1.2,-3.6 v -7.2 l -1.2,-3.6 -2.4,-2.4 -1.2,-3.6 -3.6,-1.2 -2.4,-2.4 h -3.6 l -3.6,-1.2 -3.6,1.2 h -3.6 l -2.4,2.4 -3.6,1.2 -2.4,3.6 -1.2,2.4 -1.2,3.6 v 7.2 l 1.2,3.6 1.2,2.4 2.4,2.4 3.6,2.4 2.4,1.2 3.6,1.2 z" style="fill:none;stroke:silver;stroke-width:7.5;stroke-linecap:round;stroke-linejoin:round;stroke-miterlimit:10;stroke-dasharray:none;stroke-opacity:1" id="path328"/><path d="m 1698,1436.4 h 3.6 l 3.6,-1.2 2.4,-1.2 3.6,-2.4 1.2,-2.4 2.4,-2.4 1.2,-3.6 v -7.2 l -1.2,-3.6 -2.4,-2.4 -1.2,-3.6 -3.6,-1.2 -2.4,-2.4 h -3.6 l -3.6,-1.2 -3.6,1.2 h -3.6 l -2.4,2.4 -3.6,1.2 -2.4,3.6 -1.2,2.4 -1.2,3.6 v 7.2 l 1.2,3.6 1.2,2.4 2.4,2.4 3.6,2.4 2.4,1.2 3.6,1.2 z" style="fill:none;stroke:silver;stroke-width:7.5;stroke-linecap:round;stroke-linejoin:round;stroke-miterlimit:10;stroke-dasharray:none;stroke-opacity:1" id="path330"/><path d="M 196.8,453.6 V 223.2" style="fill:none;stroke:silver;stroke-width:15;stroke-linecap:round;stroke-linejoin:round;stroke-miterlimit:10;stroke-dasharray:none;stroke-opacity:1" id="path332"/><path d="m 196.8,475.2 27.6,-57.6 -27.6,25.2 -28.8,-25.2 28.8,57.6" style="fill:silver;fill-opacity:1;fill-rule:evenodd;stroke:none" id="path334"/><path d="m 196.8,475.2 27.6,-57.6 -27.6,25.2 -28.8,-25.2 28.8,57.6" style="fill:none;stroke:silver;stroke-width:7.5;stroke-linecap:round;stroke-linejoin:round;stroke-miterlimit:10;stroke-dasharray:none;stroke-opacity:1" id="path336"/><path d="M 1694.4,1713.6 V 1483.2" style="fill:none;stroke:silver;stroke-width:15;stroke-linecap:round;stroke-linejoin:round;stroke-miterlimit:10;stroke-dasharray:none;stroke-opacity:1" id="path338"/><path d="m 1694.4,1461.6 -27.6,57.6 27.6,-25.2 28.8,25.2 -28.8,-57.6" style="fill:silver;fill-opacity:1;fill-rule:evenodd;stroke:none" id="path340"/><path d="m 1694.4,1461.6 -27.6,57.6 27.6,-25.2 28.8,25.2 -28.8,-57.6" style="fill:none;stroke:silver;stroke-width:7.5;stroke-linecap:round;stroke-linejoin:round;stroke-miterlimit:10;stroke-dasharray:none;stroke-opacity:1" id="path342"/></g></g></g></svg>