<svg xmlns="http://www.w3.org/2000/svg" xmlns:svg="http://www.w3.org/2000/svg" id="svg5306" width="500.57" height="217.974" version="1.1" viewBox="0 0 500.57 217.974" xml:space="preserve"><metadata id="metadata5312"/><g id="g5314" transform="matrix(1.3333333,0,0,-1.3333333,-5.8481774,222.26712)"><g id="g5316" transform="scale(0.1)"><g id="g5318"><g id="g5320" transform="scale(10)"><text transform="matrix(0.836364,0,0,-1,3.6,30.12)" style="font-style:italic;font-variant:normal;font-size:13.75px;font-family:'Times New Roman';-inkscape-font-specification:Times-Italic;writing-mode:lr-tb;fill:#000;fill-opacity:1;fill-rule:nonzero;stroke:none" id="text5324"><tspan id="tspan5322" x="0 4.579 9.157 16.032 19.47 26.345 30.924" y="0">(-3,1)</tspan></text></g><path d="M 760.8,778.8 V 180" style="fill:none;stroke:#000;stroke-width:7.5;stroke-linecap:round;stroke-linejoin:round;stroke-miterlimit:10;stroke-dasharray:none;stroke-opacity:1" id="path5326"/><path d="M 1060.8,778.8 V 180" style="fill:none;stroke:#000;stroke-width:7.5;stroke-linecap:round;stroke-linejoin:round;stroke-miterlimit:10;stroke-dasharray:none;stroke-opacity:1" id="path5328"/><path d="M 1360.8,778.8 V 180" style="fill:none;stroke:#000;stroke-width:7.5;stroke-linecap:round;stroke-linejoin:round;stroke-miterlimit:10;stroke-dasharray:none;stroke-opacity:1" id="path5330"/><path d="M 1660.8,1378.8 V 180" style="fill:none;stroke:#000;stroke-width:7.5;stroke-linecap:round;stroke-linejoin:round;stroke-miterlimit:10;stroke-dasharray:none;stroke-opacity:1" id="path5332"/><path d="M 1960.8,1378.8 V 180" style="fill:none;stroke:#000;stroke-width:7.5;stroke-linecap:round;stroke-linejoin:round;stroke-miterlimit:10;stroke-dasharray:none;stroke-opacity:1" id="path5334"/><path d="M 2260.8,1378.8 V 180" style="fill:none;stroke:#000;stroke-width:7.5;stroke-linecap:round;stroke-linejoin:round;stroke-miterlimit:10;stroke-dasharray:none;stroke-opacity:1" id="path5336"/><path d="m 460.8,480 h 900" style="fill:none;stroke:#000;stroke-width:7.5;stroke-linecap:round;stroke-linejoin:round;stroke-miterlimit:10;stroke-dasharray:none;stroke-opacity:1" id="path5338"/><path d="M 1360.8,180 H 3465.6" style="fill:none;stroke:#000;stroke-width:22.5;stroke-linecap:round;stroke-linejoin:round;stroke-miterlimit:10;stroke-dasharray:none;stroke-opacity:1" id="path5340"/><path d="M 1360.8,1078.8 H 3465.6" style="fill:none;stroke:#000;stroke-width:7.5;stroke-linecap:round;stroke-linejoin:round;stroke-miterlimit:10;stroke-dasharray:none;stroke-opacity:1" id="path5342"/><path d="m 1360.8,778.8 h 2100" style="fill:none;stroke:#000;stroke-width:7.5;stroke-linecap:round;stroke-linejoin:round;stroke-miterlimit:10;stroke-dasharray:none;stroke-opacity:1" id="path5344"/><path d="M 1362,480 H 3459.6" style="fill:none;stroke:#000;stroke-width:7.5;stroke-linecap:round;stroke-linejoin:round;stroke-miterlimit:10;stroke-dasharray:none;stroke-opacity:1" id="path5346"/><path d="m 1507.2,360 h 3.6" style="fill:none;stroke:#000;stroke-width:7.5;stroke-linecap:round;stroke-linejoin:round;stroke-miterlimit:10;stroke-dasharray:none;stroke-opacity:1" id="path5348"/><path d="m 1510.8,360 3.6,-1.2" style="fill:none;stroke:#000;stroke-width:7.5;stroke-linecap:round;stroke-linejoin:round;stroke-miterlimit:10;stroke-dasharray:none;stroke-opacity:1" id="path5350"/><path d="m 1514.4,358.8 2.4,-1.2" style="fill:none;stroke:#000;stroke-width:7.5;stroke-linecap:round;stroke-linejoin:round;stroke-miterlimit:10;stroke-dasharray:none;stroke-opacity:1" id="path5352"/><path d="m 1516.8,357.6 3.6,-2.4" style="fill:none;stroke:#000;stroke-width:7.5;stroke-linecap:round;stroke-linejoin:round;stroke-miterlimit:10;stroke-dasharray:none;stroke-opacity:1" id="path5354"/><path d="m 3303.6,355.2 1.2,-2.4" style="fill:none;stroke:#000;stroke-width:7.5;stroke-linecap:round;stroke-linejoin:round;stroke-miterlimit:10;stroke-dasharray:none;stroke-opacity:1" id="path5356"/><path d="m 3304.8,352.8 2.4,-2.4" style="fill:none;stroke:#000;stroke-width:7.5;stroke-linecap:round;stroke-linejoin:round;stroke-miterlimit:10;stroke-dasharray:none;stroke-opacity:1" id="path5358"/><path d="m 3307.2,350.4 1.2,-3.6" style="fill:none;stroke:#000;stroke-width:7.5;stroke-linecap:round;stroke-linejoin:round;stroke-miterlimit:10;stroke-dasharray:none;stroke-opacity:1" id="path5360"/><path d="m 3308.4,346.8 v -3.6" style="fill:none;stroke:#000;stroke-width:7.5;stroke-linecap:round;stroke-linejoin:round;stroke-miterlimit:10;stroke-dasharray:none;stroke-opacity:1" id="path5362"/><path d="m 3308.4,343.2 v -3.6" style="fill:none;stroke:#000;stroke-width:7.5;stroke-linecap:round;stroke-linejoin:round;stroke-miterlimit:10;stroke-dasharray:none;stroke-opacity:1" id="path5364"/><path d="m 3308.4,339.6 -1.2,-3.6" style="fill:none;stroke:#000;stroke-width:7.5;stroke-linecap:round;stroke-linejoin:round;stroke-miterlimit:10;stroke-dasharray:none;stroke-opacity:1" id="path5366"/><path d="m 3307.2,336 -2.4,-2.4" style="fill:none;stroke:#000;stroke-width:7.5;stroke-linecap:round;stroke-linejoin:round;stroke-miterlimit:10;stroke-dasharray:none;stroke-opacity:1" id="path5368"/><path d="m 3304.8,333.6 -1.2,-3.6" style="fill:none;stroke:#000;stroke-width:7.5;stroke-linecap:round;stroke-linejoin:round;stroke-miterlimit:10;stroke-dasharray:none;stroke-opacity:1" id="path5370"/><g id="g5372" transform="scale(10)"><text transform="matrix(0.836364,0,0,-1,358.56,120.12)" style="font-style:italic;font-variant:normal;font-size:13.75px;font-family:'Times New Roman';-inkscape-font-specification:Times-Italic;writing-mode:lr-tb;fill:#000;fill-opacity:1;fill-rule:nonzero;stroke:none" id="text5376"><tspan id="tspan5374" x="0 4.579 11.454 14.891 21.766 26.345" y="0">(6,4)</tspan></text></g><path d="m 598.8,360 h 3.6 l 3.6,-1.2 2.4,-1.2 3.6,-2.4 1.2,-2.4 2.4,-2.4 2.4,-3.6 v -7.2 l -2.4,-3.6 -2.4,-2.4 -1.2,-3.6 -3.6,-1.2 -2.4,-2.4 h -3.6 l -3.6,-2.4 -3.6,2.4 h -3.6 l -2.4,2.4 -3.6,1.2 -2.4,3.6 -1.2,2.4 -1.2,3.6 v 7.2 l 1.2,3.6 1.2,2.4 2.4,2.4 3.6,2.4 2.4,1.2 3.6,1.2 h 3.6" style="fill:#000;fill-opacity:1;fill-rule:evenodd;stroke:none" id="path5378"/><path d="m 598.8,360 h 3.6 l 3.6,-1.2 2.4,-1.2 3.6,-2.4 1.2,-2.4 2.4,-2.4 1.2,-3.6 v -7.2 l -1.2,-3.6 -2.4,-2.4 -1.2,-3.6 -3.6,-1.2 -2.4,-2.4 h -3.6 l -3.6,-1.2 -3.6,1.2 h -3.6 l -2.4,2.4 -3.6,1.2 -2.4,3.6 -1.2,2.4 -1.2,3.6 v 7.2 l 1.2,3.6 1.2,2.4 2.4,2.4 3.6,2.4 2.4,1.2 3.6,1.2 z" style="fill:none;stroke:#000;stroke-width:7.5;stroke-linecap:round;stroke-linejoin:round;stroke-miterlimit:10;stroke-dasharray:none;stroke-opacity:1" id="path5380"/><path d="m 598.8,360 h 3.6 l 3.6,-1.2 2.4,-1.2 3.6,-2.4 1.2,-2.4 2.4,-2.4 1.2,-3.6 v -7.2 l -1.2,-3.6 -2.4,-2.4 -1.2,-3.6 -3.6,-1.2 -2.4,-2.4 h -3.6 l -3.6,-1.2 -3.6,1.2 h -3.6 l -2.4,2.4 -3.6,1.2 -2.4,3.6 -1.2,2.4 -1.2,3.6 v 7.2 l 1.2,3.6 1.2,2.4 2.4,2.4 3.6,2.4 2.4,1.2 3.6,1.2 z" style="fill:none;stroke:#000;stroke-width:7.5;stroke-linecap:round;stroke-linejoin:round;stroke-miterlimit:10;stroke-dasharray:none;stroke-opacity:1" id="path5382"/><path d="m 898.8,360 h 3.6 l 3.6,-1.2 2.4,-1.2 3.6,-2.4 1.2,-2.4 2.4,-2.4 2.4,-3.6 v -7.2 l -2.4,-3.6 -2.4,-2.4 -1.2,-3.6 -3.6,-1.2 -2.4,-2.4 h -3.6 l -3.6,-2.4 -3.6,2.4 h -3.6 l -2.4,2.4 -3.6,1.2 -2.4,3.6 -1.2,2.4 -1.2,3.6 v 7.2 l 1.2,3.6 1.2,2.4 2.4,2.4 3.6,2.4 2.4,1.2 3.6,1.2 h 3.6" style="fill:#000;fill-opacity:1;fill-rule:evenodd;stroke:none" id="path5384"/><path d="m 898.8,360 h 3.6 l 3.6,-1.2 2.4,-1.2 3.6,-2.4 1.2,-2.4 2.4,-2.4 1.2,-3.6 v -7.2 l -1.2,-3.6 -2.4,-2.4 -1.2,-3.6 -3.6,-1.2 -2.4,-2.4 h -3.6 l -3.6,-1.2 -3.6,1.2 h -3.6 l -2.4,2.4 -3.6,1.2 -2.4,3.6 -1.2,2.4 -1.2,3.6 v 7.2 l 1.2,3.6 1.2,2.4 2.4,2.4 3.6,2.4 2.4,1.2 3.6,1.2 z" style="fill:none;stroke:#000;stroke-width:7.5;stroke-linecap:round;stroke-linejoin:round;stroke-miterlimit:10;stroke-dasharray:none;stroke-opacity:1" id="path5386"/><path d="m 898.8,360 h 3.6 l 3.6,-1.2 2.4,-1.2 3.6,-2.4 1.2,-2.4 2.4,-2.4 1.2,-3.6 v -7.2 l -1.2,-3.6 -2.4,-2.4 -1.2,-3.6 -3.6,-1.2 -2.4,-2.4 h -3.6 l -3.6,-1.2 -3.6,1.2 h -3.6 l -2.4,2.4 -3.6,1.2 -2.4,3.6 -1.2,2.4 -1.2,3.6 v 7.2 l 1.2,3.6 1.2,2.4 2.4,2.4 3.6,2.4 2.4,1.2 3.6,1.2 z" style="fill:none;stroke:#000;stroke-width:7.5;stroke-linecap:round;stroke-linejoin:round;stroke-miterlimit:10;stroke-dasharray:none;stroke-opacity:1" id="path5388"/><path d="m 1498.8,360 h 3.6 l 3.6,-1.2 2.4,-1.2 3.6,-2.4 1.2,-2.4 2.4,-2.4 2.4,-3.6 v -7.2 l -2.4,-3.6 -2.4,-2.4 -1.2,-3.6 -3.6,-1.2 -2.4,-2.4 h -3.6 l -3.6,-2.4 -3.6,2.4 h -3.6 l -2.4,2.4 -3.6,1.2 -2.4,3.6 -1.2,2.4 -1.2,3.6 v 7.2 l 1.2,3.6 1.2,2.4 2.4,2.4 3.6,2.4 2.4,1.2 3.6,1.2 h 3.6" style="fill:#000;fill-opacity:1;fill-rule:evenodd;stroke:none" id="path5390"/><path d="m 1498.8,360 h 3.6 l 3.6,-1.2 2.4,-1.2 3.6,-2.4 1.2,-2.4 2.4,-2.4 1.2,-3.6 v -7.2 l -1.2,-3.6 -2.4,-2.4 -1.2,-3.6 -3.6,-1.2 -2.4,-2.4 h -3.6 l -3.6,-1.2 -3.6,1.2 h -3.6 l -2.4,2.4 -3.6,1.2 -2.4,3.6 -1.2,2.4 -1.2,3.6 v 7.2 l 1.2,3.6 1.2,2.4 2.4,2.4 3.6,2.4 2.4,1.2 3.6,1.2 z" style="fill:none;stroke:#000;stroke-width:7.5;stroke-linecap:round;stroke-linejoin:round;stroke-miterlimit:10;stroke-dasharray:none;stroke-opacity:1" id="path5392"/><path d="m 1498.8,360 h -3.6 l -3.6,-1.2 -2.4,-1.2 -3.6,-2.4 -2.4,-2.4 -1.2,-2.4 -1.2,-3.6 v -7.2 l 1.2,-3.6 1.2,-2.4 2.4,-3.6 3.6,-1.2 2.4,-2.4 h 3.6 l 3.6,-1.2 3.6,1.2 h 3.6 l 2.4,2.4 3.6,1.2 1.2,3.6 2.4,2.4 1.2,3.6 v 7.2 l -1.2,3.6 -2.4,2.4 -1.2,2.4" style="fill:none;stroke:#000;stroke-width:7.5;stroke-linecap:round;stroke-linejoin:round;stroke-miterlimit:10;stroke-dasharray:none;stroke-opacity:1" id="path5394"/><path d="m 1798.8,360 h 3.6 l 3.6,-1.2 2.4,-1.2 3.6,-2.4 1.2,-2.4 2.4,-2.4 2.4,-3.6 v -7.2 l -2.4,-3.6 -2.4,-2.4 -1.2,-3.6 -3.6,-1.2 -2.4,-2.4 h -3.6 l -3.6,-2.4 -3.6,2.4 h -3.6 l -2.4,2.4 -3.6,1.2 -2.4,3.6 -1.2,2.4 -1.2,3.6 v 7.2 l 1.2,3.6 1.2,2.4 2.4,2.4 3.6,2.4 2.4,1.2 3.6,1.2 h 3.6" style="fill:#000;fill-opacity:1;fill-rule:evenodd;stroke:none" id="path5396"/><path d="m 1798.8,360 h 3.6 l 3.6,-1.2 2.4,-1.2 3.6,-2.4 1.2,-2.4 2.4,-2.4 1.2,-3.6 v -7.2 l -1.2,-3.6 -2.4,-2.4 -1.2,-3.6 -3.6,-1.2 -2.4,-2.4 h -3.6 l -3.6,-1.2 -3.6,1.2 h -3.6 l -2.4,2.4 -3.6,1.2 -2.4,3.6 -1.2,2.4 -1.2,3.6 v 7.2 l 1.2,3.6 1.2,2.4 2.4,2.4 3.6,2.4 2.4,1.2 3.6,1.2 z" style="fill:none;stroke:#000;stroke-width:7.5;stroke-linecap:round;stroke-linejoin:round;stroke-miterlimit:10;stroke-dasharray:none;stroke-opacity:1" id="path5398"/><path d="m 1798.8,360 h 3.6 l 3.6,-1.2 2.4,-1.2 3.6,-2.4 1.2,-2.4 2.4,-2.4 1.2,-3.6 v -7.2 l -1.2,-3.6 -2.4,-2.4 -1.2,-3.6 -3.6,-1.2 -2.4,-2.4 h -3.6 l -3.6,-1.2 -3.6,1.2 h -3.6 l -2.4,2.4 -3.6,1.2 -2.4,3.6 -1.2,2.4 -1.2,3.6 v 7.2 l 1.2,3.6 1.2,2.4 2.4,2.4 3.6,2.4 2.4,1.2 3.6,1.2 z" style="fill:none;stroke:#000;stroke-width:7.5;stroke-linecap:round;stroke-linejoin:round;stroke-miterlimit:10;stroke-dasharray:none;stroke-opacity:1" id="path5400"/><path d="m 1198.8,360 h 3.6 l 3.6,-1.2 2.4,-1.2 3.6,-2.4 1.2,-2.4 2.4,-2.4 2.4,-3.6 v -7.2 l -2.4,-3.6 -2.4,-2.4 -1.2,-3.6 -3.6,-1.2 -2.4,-2.4 h -3.6 l -3.6,-2.4 -3.6,2.4 h -3.6 l -2.4,2.4 -3.6,1.2 -2.4,3.6 -1.2,2.4 -1.2,3.6 v 7.2 l 1.2,3.6 1.2,2.4 2.4,2.4 3.6,2.4 2.4,1.2 3.6,1.2 h 3.6" style="fill:#000;fill-opacity:1;fill-rule:evenodd;stroke:none" id="path5402"/><path d="m 1198.8,360 h 3.6 l 3.6,-1.2 2.4,-1.2 3.6,-2.4 1.2,-2.4 2.4,-2.4 1.2,-3.6 v -7.2 l -1.2,-3.6 -2.4,-2.4 -1.2,-3.6 -3.6,-1.2 -2.4,-2.4 h -3.6 l -3.6,-1.2 -3.6,1.2 h -3.6 l -2.4,2.4 -3.6,1.2 -2.4,3.6 -1.2,2.4 -1.2,3.6 v 7.2 l 1.2,3.6 1.2,2.4 2.4,2.4 3.6,2.4 2.4,1.2 3.6,1.2 z" style="fill:none;stroke:#000;stroke-width:7.5;stroke-linecap:round;stroke-linejoin:round;stroke-miterlimit:10;stroke-dasharray:none;stroke-opacity:1" id="path5404"/><path d="m 1198.8,360 h 3.6 l 3.6,-1.2 2.4,-1.2 3.6,-2.4 1.2,-2.4 2.4,-2.4 1.2,-3.6 v -7.2 l -1.2,-3.6 -2.4,-2.4 -1.2,-3.6 -3.6,-1.2 -2.4,-2.4 h -3.6 l -3.6,-1.2 -3.6,1.2 h -3.6 l -2.4,2.4 -3.6,1.2 -2.4,3.6 -1.2,2.4 -1.2,3.6 v 7.2 l 1.2,3.6 1.2,2.4 2.4,2.4 3.6,2.4 2.4,1.2 3.6,1.2 z" style="fill:none;stroke:#000;stroke-width:7.5;stroke-linecap:round;stroke-linejoin:round;stroke-miterlimit:10;stroke-dasharray:none;stroke-opacity:1" id="path5406"/><path d="m 2098.8,360 h 3.6 l 3.6,-1.2 2.4,-1.2 3.6,-2.4 1.2,-2.4 2.4,-2.4 2.4,-3.6 v -7.2 l -2.4,-3.6 -2.4,-2.4 -1.2,-3.6 -3.6,-1.2 -2.4,-2.4 h -3.6 l -3.6,-2.4 -3.6,2.4 h -3.6 l -2.4,2.4 -3.6,1.2 -2.4,3.6 -1.2,2.4 -1.2,3.6 v 7.2 l 1.2,3.6 1.2,2.4 2.4,2.4 3.6,2.4 2.4,1.2 3.6,1.2 h 3.6" style="fill:#000;fill-opacity:1;fill-rule:evenodd;stroke:none" id="path5408"/><path d="m 2098.8,360 h 3.6 l 3.6,-1.2 2.4,-1.2 3.6,-2.4 1.2,-2.4 2.4,-2.4 1.2,-3.6 v -7.2 l -1.2,-3.6 -2.4,-2.4 -1.2,-3.6 -3.6,-1.2 -2.4,-2.4 h -3.6 l -3.6,-1.2 -3.6,1.2 h -3.6 l -2.4,2.4 -3.6,1.2 -2.4,3.6 -1.2,2.4 -1.2,3.6 v 7.2 l 1.2,3.6 1.2,2.4 2.4,2.4 3.6,2.4 2.4,1.2 3.6,1.2 z" style="fill:none;stroke:#000;stroke-width:7.5;stroke-linecap:round;stroke-linejoin:round;stroke-miterlimit:10;stroke-dasharray:none;stroke-opacity:1" id="path5410"/><path d="m 2098.8,360 h -3.6 l -3.6,-1.2 -2.4,-1.2 -3.6,-2.4 -2.4,-2.4 -1.2,-2.4 -1.2,-3.6 v -7.2 l 1.2,-3.6 1.2,-2.4 2.4,-3.6 3.6,-1.2 2.4,-2.4 h 3.6 l 3.6,-1.2 3.6,1.2 h 3.6 l 2.4,2.4 3.6,1.2" style="fill:none;stroke:#000;stroke-width:7.5;stroke-linecap:round;stroke-linejoin:round;stroke-miterlimit:10;stroke-dasharray:none;stroke-opacity:1" id="path5412"/><path d="m 598.8,660 h 3.6 l 3.6,-1.2 2.4,-1.2 3.6,-2.4 1.2,-2.4 2.4,-2.4 2.4,-3.6 v -7.2 l -2.4,-3.6 -2.4,-2.4 -1.2,-2.4 -3.6,-2.4 -2.4,-2.4 h -3.6 l -3.6,-2.4 -3.6,2.4 h -3.6 l -2.4,2.4 -3.6,2.4 -2.4,2.4 -1.2,2.4 -1.2,3.6 v 7.2 l 1.2,3.6 1.2,2.4 2.4,2.4 3.6,2.4 2.4,1.2 3.6,1.2 h 3.6" style="fill:#000;fill-opacity:1;fill-rule:evenodd;stroke:none" id="path5414"/><path d="m 598.8,660 h 3.6 l 3.6,-1.2 2.4,-1.2 3.6,-2.4 1.2,-2.4 2.4,-2.4 1.2,-3.6 v -7.2 l -1.2,-3.6 -2.4,-2.4 -1.2,-2.4 -3.6,-2.4 -2.4,-2.4 h -3.6 l -3.6,-1.2 -3.6,1.2 h -3.6 l -2.4,2.4 -3.6,2.4 -2.4,2.4 -1.2,2.4 -1.2,3.6 v 7.2 l 1.2,3.6 1.2,2.4 2.4,2.4 3.6,2.4 2.4,1.2 3.6,1.2 z" style="fill:none;stroke:#000;stroke-width:7.5;stroke-linecap:round;stroke-linejoin:round;stroke-miterlimit:10;stroke-dasharray:none;stroke-opacity:1" id="path5416"/><path d="m 598.8,660 h 3.6 l 3.6,-1.2 2.4,-1.2 3.6,-2.4 1.2,-2.4 2.4,-2.4 1.2,-3.6 v -7.2 l -1.2,-3.6 -2.4,-2.4 -1.2,-2.4 -3.6,-2.4 -2.4,-2.4 h -3.6 l -3.6,-1.2 -3.6,1.2 h -3.6 l -2.4,2.4 -3.6,2.4 -2.4,2.4 -1.2,2.4 -1.2,3.6 v 7.2 l 1.2,3.6 1.2,2.4 2.4,2.4 3.6,2.4 2.4,1.2 3.6,1.2 z" style="fill:none;stroke:#000;stroke-width:7.5;stroke-linecap:round;stroke-linejoin:round;stroke-miterlimit:10;stroke-dasharray:none;stroke-opacity:1" id="path5418"/><path d="m 898.8,660 h 3.6 l 3.6,-1.2 2.4,-1.2 3.6,-2.4 1.2,-2.4 2.4,-2.4 2.4,-3.6 v -7.2 l -2.4,-3.6 -2.4,-2.4 -1.2,-2.4 -3.6,-2.4 -2.4,-2.4 h -3.6 l -3.6,-2.4 -3.6,2.4 h -3.6 l -2.4,2.4 -3.6,2.4 -2.4,2.4 -1.2,2.4 -1.2,3.6 v 7.2 l 1.2,3.6 1.2,2.4 2.4,2.4 3.6,2.4 2.4,1.2 3.6,1.2 h 3.6" style="fill:#000;fill-opacity:1;fill-rule:evenodd;stroke:none" id="path5420"/><path d="m 898.8,660 h 3.6 l 3.6,-1.2 2.4,-1.2 3.6,-2.4 1.2,-2.4 2.4,-2.4 1.2,-3.6 v -7.2 l -1.2,-3.6 -2.4,-2.4 -1.2,-2.4 -3.6,-2.4 -2.4,-2.4 h -3.6 l -3.6,-1.2 -3.6,1.2 h -3.6 l -2.4,2.4 -3.6,2.4 -2.4,2.4 -1.2,2.4 -1.2,3.6 v 7.2 l 1.2,3.6 1.2,2.4 2.4,2.4 3.6,2.4 2.4,1.2 3.6,1.2 z" style="fill:none;stroke:#000;stroke-width:7.5;stroke-linecap:round;stroke-linejoin:round;stroke-miterlimit:10;stroke-dasharray:none;stroke-opacity:1" id="path5422"/><path d="m 898.8,660 h 3.6 l 3.6,-1.2 2.4,-1.2 3.6,-2.4 1.2,-2.4 2.4,-2.4 1.2,-3.6 v -7.2 l -1.2,-3.6 -2.4,-2.4 -1.2,-2.4 -3.6,-2.4 -2.4,-2.4 h -3.6 l -3.6,-1.2 -3.6,1.2 h -3.6 l -2.4,2.4 -3.6,2.4 -2.4,2.4 -1.2,2.4 -1.2,3.6 v 7.2 l 1.2,3.6 1.2,2.4 2.4,2.4 3.6,2.4 2.4,1.2 3.6,1.2 z" style="fill:none;stroke:#000;stroke-width:7.5;stroke-linecap:round;stroke-linejoin:round;stroke-miterlimit:10;stroke-dasharray:none;stroke-opacity:1" id="path5424"/><path d="m 1498.8,660 h 3.6 l 3.6,-1.2 2.4,-1.2 3.6,-2.4 1.2,-2.4 2.4,-2.4 2.4,-3.6 v -7.2 l -2.4,-3.6 -2.4,-2.4 -1.2,-2.4 -3.6,-2.4 -2.4,-2.4 h -3.6 l -3.6,-2.4 -3.6,2.4 h -3.6 l -2.4,2.4 -3.6,2.4 -2.4,2.4 -1.2,2.4 -1.2,3.6 v 7.2 l 1.2,3.6 1.2,2.4 2.4,2.4 3.6,2.4 2.4,1.2 3.6,1.2 h 3.6" style="fill:#000;fill-opacity:1;fill-rule:evenodd;stroke:none" id="path5426"/><path d="m 1498.8,660 h 3.6 l 3.6,-1.2 2.4,-1.2 3.6,-2.4 1.2,-2.4 2.4,-2.4 1.2,-3.6 v -7.2 l -1.2,-3.6 -2.4,-2.4 -1.2,-2.4 -3.6,-2.4 -2.4,-2.4 h -3.6 l -3.6,-1.2 -3.6,1.2 h -3.6 l -2.4,2.4 -3.6,2.4 -2.4,2.4 -1.2,2.4 -1.2,3.6 v 7.2 l 1.2,3.6 1.2,2.4 2.4,2.4 3.6,2.4 2.4,1.2 3.6,1.2 z" style="fill:none;stroke:#000;stroke-width:7.5;stroke-linecap:round;stroke-linejoin:round;stroke-miterlimit:10;stroke-dasharray:none;stroke-opacity:1" id="path5428"/><path d="m 1498.8,660 h 3.6 l 3.6,-1.2 2.4,-1.2 3.6,-2.4 1.2,-2.4 2.4,-2.4 1.2,-3.6 v -7.2 l -1.2,-3.6 -2.4,-2.4 -1.2,-2.4 -3.6,-2.4 -2.4,-2.4 h -3.6 l -3.6,-1.2 -3.6,1.2 h -3.6 l -2.4,2.4 -3.6,2.4 -2.4,2.4 -1.2,2.4 -1.2,3.6 v 7.2 l 1.2,3.6 1.2,2.4 2.4,2.4 3.6,2.4 2.4,1.2 3.6,1.2 z" style="fill:none;stroke:#000;stroke-width:7.5;stroke-linecap:round;stroke-linejoin:round;stroke-miterlimit:10;stroke-dasharray:none;stroke-opacity:1" id="path5430"/><path d="m 1798.8,660 h 3.6 l 3.6,-1.2 2.4,-1.2 3.6,-2.4 1.2,-2.4 2.4,-2.4 2.4,-3.6 v -7.2 l -2.4,-3.6 -2.4,-2.4 -1.2,-2.4 -3.6,-2.4 -2.4,-2.4 h -3.6 l -3.6,-2.4 -3.6,2.4 h -3.6 l -2.4,2.4 -3.6,2.4 -2.4,2.4 -1.2,2.4 -1.2,3.6 v 7.2 l 1.2,3.6 1.2,2.4 2.4,2.4 3.6,2.4 2.4,1.2 3.6,1.2 h 3.6" style="fill:#000;fill-opacity:1;fill-rule:evenodd;stroke:none" id="path5432"/><path d="m 1798.8,660 h 3.6 l 3.6,-1.2 2.4,-1.2 3.6,-2.4 1.2,-2.4 2.4,-2.4 1.2,-3.6 v -7.2 l -1.2,-3.6 -2.4,-2.4 -1.2,-2.4 -3.6,-2.4 -2.4,-2.4 h -3.6 l -3.6,-1.2 -3.6,1.2 h -3.6 l -2.4,2.4 -3.6,2.4 -2.4,2.4 -1.2,2.4 -1.2,3.6 v 7.2 l 1.2,3.6 1.2,2.4 2.4,2.4 3.6,2.4 2.4,1.2 3.6,1.2 z" style="fill:none;stroke:#000;stroke-width:7.5;stroke-linecap:round;stroke-linejoin:round;stroke-miterlimit:10;stroke-dasharray:none;stroke-opacity:1" id="path5434"/><path d="m 1798.8,660 h 3.6 l 3.6,-1.2 2.4,-1.2 3.6,-2.4 1.2,-2.4 2.4,-2.4 1.2,-3.6 v -7.2 l -1.2,-3.6 -2.4,-2.4 -1.2,-2.4 -3.6,-2.4 -2.4,-2.4 h -3.6 l -3.6,-1.2 -3.6,1.2 h -3.6 l -2.4,2.4 -3.6,2.4 -2.4,2.4 -1.2,2.4 -1.2,3.6 v 7.2 l 1.2,3.6 1.2,2.4 2.4,2.4 3.6,2.4 2.4,1.2 3.6,1.2 z" style="fill:none;stroke:#000;stroke-width:7.5;stroke-linecap:round;stroke-linejoin:round;stroke-miterlimit:10;stroke-dasharray:none;stroke-opacity:1" id="path5436"/><path d="m 1198.8,660 h 3.6 l 3.6,-1.2 2.4,-1.2 3.6,-2.4 1.2,-2.4 2.4,-2.4 2.4,-3.6 v -7.2 l -2.4,-3.6 -2.4,-2.4 -1.2,-2.4 -3.6,-2.4 -2.4,-2.4 h -3.6 l -3.6,-2.4 -3.6,2.4 h -3.6 l -2.4,2.4 -3.6,2.4 -2.4,2.4 -1.2,2.4 -1.2,3.6 v 7.2 l 1.2,3.6 1.2,2.4 2.4,2.4 3.6,2.4 2.4,1.2 3.6,1.2 h 3.6" style="fill:#000;fill-opacity:1;fill-rule:evenodd;stroke:none" id="path5438"/><path d="m 1198.8,660 h 3.6 l 3.6,-1.2 2.4,-1.2 3.6,-2.4 1.2,-2.4 2.4,-2.4 1.2,-3.6 v -7.2 l -1.2,-3.6 -2.4,-2.4 -1.2,-2.4 -3.6,-2.4 -2.4,-2.4 h -3.6 l -3.6,-1.2 -3.6,1.2 h -3.6 l -2.4,2.4 -3.6,2.4 -2.4,2.4 -1.2,2.4 -1.2,3.6 v 7.2 l 1.2,3.6 1.2,2.4 2.4,2.4 3.6,2.4 2.4,1.2 3.6,1.2 z" style="fill:none;stroke:#000;stroke-width:7.5;stroke-linecap:round;stroke-linejoin:round;stroke-miterlimit:10;stroke-dasharray:none;stroke-opacity:1" id="path5440"/><path d="m 1198.8,660 h 3.6 l 3.6,-1.2 2.4,-1.2 3.6,-2.4 1.2,-2.4 2.4,-2.4 1.2,-3.6 v -7.2 l -1.2,-3.6 -2.4,-2.4 -1.2,-2.4 -3.6,-2.4 -2.4,-2.4 h -3.6 l -3.6,-1.2 -3.6,1.2 h -3.6 l -2.4,2.4 -3.6,2.4 -2.4,2.4 -1.2,2.4 -1.2,3.6 v 7.2 l 1.2,3.6 1.2,2.4 2.4,2.4 3.6,2.4 2.4,1.2 3.6,1.2 z" style="fill:none;stroke:#000;stroke-width:7.5;stroke-linecap:round;stroke-linejoin:round;stroke-miterlimit:10;stroke-dasharray:none;stroke-opacity:1" id="path5442"/><path d="m 2098.8,660 h 3.6 l 3.6,-1.2 2.4,-1.2 3.6,-2.4 1.2,-2.4 2.4,-2.4 2.4,-3.6 v -7.2 l -2.4,-3.6 -2.4,-2.4 -1.2,-3.6 -3.6,-1.2 -2.4,-2.4 h -3.6 l -3.6,-2.4 -3.6,2.4 h -3.6 l -2.4,2.4 -3.6,1.2 -2.4,3.6 -1.2,2.4 -1.2,3.6 v 7.2 l 1.2,3.6 1.2,2.4 2.4,2.4 3.6,2.4 2.4,1.2 3.6,1.2 h 3.6" style="fill:#000;fill-opacity:1;fill-rule:evenodd;stroke:none" id="path5444"/><path d="m 2098.8,660 h 3.6 l 3.6,-1.2 2.4,-1.2 3.6,-2.4 1.2,-2.4 2.4,-2.4 1.2,-3.6 v -7.2 l -1.2,-3.6 -2.4,-2.4 -1.2,-3.6 -3.6,-1.2 -2.4,-2.4 h -3.6 l -3.6,-1.2 -3.6,1.2 h -3.6 l -2.4,2.4 -3.6,1.2 -2.4,3.6 -1.2,2.4 -1.2,3.6 v 7.2 l 1.2,3.6 1.2,2.4 2.4,2.4 3.6,2.4 2.4,1.2 3.6,1.2 z" style="fill:none;stroke:#000;stroke-width:7.5;stroke-linecap:round;stroke-linejoin:round;stroke-miterlimit:10;stroke-dasharray:none;stroke-opacity:1" id="path5446"/><path d="m 2098.8,660 h 3.6 l 3.6,-1.2 2.4,-1.2 3.6,-2.4 1.2,-2.4 2.4,-2.4 1.2,-3.6 v -7.2 l -1.2,-3.6 -2.4,-2.4 -1.2,-3.6 -3.6,-1.2 -2.4,-2.4 h -3.6 l -3.6,-1.2 -3.6,1.2 h -3.6 l -2.4,2.4 -3.6,1.2 -2.4,3.6 -1.2,2.4 -1.2,3.6 v 7.2 l 1.2,3.6 1.2,2.4 2.4,2.4 3.6,2.4 2.4,1.2 3.6,1.2 z" style="fill:none;stroke:#000;stroke-width:7.5;stroke-linecap:round;stroke-linejoin:round;stroke-miterlimit:10;stroke-dasharray:none;stroke-opacity:1" id="path5448"/><path d="m 1498.8,958.8 h 3.6 l 3.6,-1.2 2.4,-1.2 3.6,-2.4 1.2,-2.4 2.4,-2.4 2.4,-3.6 v -7.2 l -2.4,-3.6 -2.4,-2.4 -1.2,-2.4 -3.6,-2.4 -2.4,-2.4 h -3.6 l -3.6,-2.4 -3.6,2.4 h -3.6 l -2.4,2.4 -3.6,2.4 -2.4,2.4 -1.2,2.4 -1.2,3.6 v 7.2 l 1.2,3.6 1.2,2.4 2.4,2.4 3.6,2.4 2.4,1.2 3.6,1.2 h 3.6" style="fill:#000;fill-opacity:1;fill-rule:evenodd;stroke:none" id="path5450"/><path d="m 1498.8,958.8 h 3.6 l 3.6,-1.2 2.4,-1.2 3.6,-2.4 1.2,-2.4 2.4,-2.4 1.2,-3.6 v -7.2 l -1.2,-3.6 -2.4,-2.4 -1.2,-2.4 -3.6,-2.4 -2.4,-2.4 h -3.6 l -3.6,-1.2 -3.6,1.2 h -3.6 l -2.4,2.4 -3.6,2.4 -2.4,2.4 -1.2,2.4 -1.2,3.6 v 7.2 l 1.2,3.6 1.2,2.4 2.4,2.4 3.6,2.4 2.4,1.2 3.6,1.2 z" style="fill:none;stroke:#000;stroke-width:7.5;stroke-linecap:round;stroke-linejoin:round;stroke-miterlimit:10;stroke-dasharray:none;stroke-opacity:1" id="path5452"/><path d="m 1498.8,958.8 h 3.6 l 3.6,-1.2 2.4,-1.2 3.6,-2.4 1.2,-2.4 2.4,-2.4 1.2,-3.6 v -7.2 l -1.2,-3.6 -2.4,-2.4 -1.2,-2.4 -3.6,-2.4 -2.4,-2.4 h -3.6 l -3.6,-1.2 -3.6,1.2 h -3.6 l -2.4,2.4 -3.6,2.4 -2.4,2.4 -1.2,2.4 -1.2,3.6 v 7.2 l 1.2,3.6 1.2,2.4 2.4,2.4 3.6,2.4 2.4,1.2 3.6,1.2 z" style="fill:none;stroke:#000;stroke-width:7.5;stroke-linecap:round;stroke-linejoin:round;stroke-miterlimit:10;stroke-dasharray:none;stroke-opacity:1" id="path5454"/><path d="m 1798.8,958.8 h 3.6 l 3.6,-1.2 2.4,-1.2 3.6,-2.4 1.2,-2.4 2.4,-2.4 2.4,-3.6 v -7.2 l -2.4,-3.6 -2.4,-2.4 -1.2,-2.4 -3.6,-2.4 -2.4,-2.4 h -3.6 l -3.6,-2.4 -3.6,2.4 h -3.6 l -2.4,2.4 -3.6,2.4 -2.4,2.4 -1.2,2.4 -1.2,3.6 v 7.2 l 1.2,3.6 1.2,2.4 2.4,2.4 3.6,2.4 2.4,1.2 3.6,1.2 h 3.6" style="fill:#000;fill-opacity:1;fill-rule:evenodd;stroke:none" id="path5456"/><path d="m 1798.8,958.8 h 3.6 l 3.6,-1.2 2.4,-1.2 3.6,-2.4 1.2,-2.4 2.4,-2.4 1.2,-3.6 v -7.2 l -1.2,-3.6 -2.4,-2.4 -1.2,-2.4 -3.6,-2.4 -2.4,-2.4 h -3.6 l -3.6,-1.2 -3.6,1.2 h -3.6 l -2.4,2.4 -3.6,2.4 -2.4,2.4 -1.2,2.4 -1.2,3.6 v 7.2 l 1.2,3.6 1.2,2.4 2.4,2.4 3.6,2.4 2.4,1.2 3.6,1.2 z" style="fill:none;stroke:#000;stroke-width:7.5;stroke-linecap:round;stroke-linejoin:round;stroke-miterlimit:10;stroke-dasharray:none;stroke-opacity:1" id="path5458"/><path d="m 1798.8,958.8 h 3.6 l 3.6,-1.2 2.4,-1.2 3.6,-2.4 1.2,-2.4 2.4,-2.4 1.2,-3.6 v -7.2 l -1.2,-3.6 -2.4,-2.4 -1.2,-2.4 -3.6,-2.4 -2.4,-2.4 h -3.6 l -3.6,-1.2 -3.6,1.2 h -3.6 l -2.4,2.4 -3.6,2.4 -2.4,2.4 -1.2,2.4 -1.2,3.6 v 7.2 l 1.2,3.6 1.2,2.4 2.4,2.4 3.6,2.4 2.4,1.2 3.6,1.2 z" style="fill:none;stroke:#000;stroke-width:7.5;stroke-linecap:round;stroke-linejoin:round;stroke-miterlimit:10;stroke-dasharray:none;stroke-opacity:1" id="path5460"/><path d="m 2098.8,958.8 h 3.6 l 3.6,-1.2 2.4,-1.2 3.6,-2.4 1.2,-2.4 2.4,-2.4 2.4,-3.6 v -7.2 l -2.4,-3.6 -2.4,-2.4 -1.2,-3.6 -3.6,-1.2 -2.4,-2.4 h -3.6 l -3.6,-2.4 -3.6,2.4 h -3.6 l -2.4,2.4 -3.6,1.2 -2.4,3.6 -1.2,2.4 -1.2,3.6 v 7.2 l 1.2,3.6 1.2,2.4 2.4,2.4 3.6,2.4 2.4,1.2 3.6,1.2 h 3.6" style="fill:#000;fill-opacity:1;fill-rule:evenodd;stroke:none" id="path5462"/><path d="m 2098.8,958.8 h 3.6 l 3.6,-1.2 2.4,-1.2 3.6,-2.4 1.2,-2.4 2.4,-2.4 1.2,-3.6 v -7.2 l -1.2,-3.6 -2.4,-2.4 -1.2,-3.6 -3.6,-1.2 -2.4,-2.4 h -3.6 l -3.6,-1.2 -3.6,1.2 h -3.6 l -2.4,2.4 -3.6,1.2 -2.4,3.6 -1.2,2.4 -1.2,3.6 v 7.2 l 1.2,3.6 1.2,2.4 2.4,2.4 3.6,2.4 2.4,1.2 3.6,1.2 z" style="fill:none;stroke:#000;stroke-width:7.5;stroke-linecap:round;stroke-linejoin:round;stroke-miterlimit:10;stroke-dasharray:none;stroke-opacity:1" id="path5464"/><path d="m 2098.8,958.8 h 3.6 l 3.6,-1.2 2.4,-1.2 3.6,-2.4 1.2,-2.4 2.4,-2.4 1.2,-3.6 v -7.2 l -1.2,-3.6 -2.4,-2.4 -1.2,-3.6 -3.6,-1.2 -2.4,-2.4 h -3.6 l -3.6,-1.2 -3.6,1.2 h -3.6 l -2.4,2.4 -3.6,1.2 -2.4,3.6 -1.2,2.4 -1.2,3.6 v 7.2 l 1.2,3.6 1.2,2.4 2.4,2.4 3.6,2.4 2.4,1.2 3.6,1.2 z" style="fill:none;stroke:#000;stroke-width:7.5;stroke-linecap:round;stroke-linejoin:round;stroke-miterlimit:10;stroke-dasharray:none;stroke-opacity:1" id="path5466"/><path d="m 1498.8,1258.8 h 3.6 l 3.6,-1.2 2.4,-1.2 3.6,-2.4 1.2,-2.4 2.4,-2.4 2.4,-3.6 v -7.2 l -2.4,-3.6 -2.4,-2.4 -1.2,-2.4 -3.6,-2.4 -2.4,-2.4 h -3.6 l -3.6,-2.4 -3.6,2.4 h -3.6 l -2.4,2.4 -3.6,2.4 -2.4,2.4 -1.2,2.4 -1.2,3.6 v 7.2 l 1.2,3.6 1.2,2.4 2.4,2.4 3.6,2.4 2.4,1.2 3.6,1.2 h 3.6" style="fill:#000;fill-opacity:1;fill-rule:evenodd;stroke:none" id="path5468"/><path d="m 1498.8,1258.8 h 3.6 l 3.6,-1.2 2.4,-1.2 3.6,-2.4 1.2,-2.4 2.4,-2.4 1.2,-3.6 v -7.2 l -1.2,-3.6 -2.4,-2.4 -1.2,-2.4 -3.6,-2.4 -2.4,-2.4 h -3.6 l -3.6,-1.2 -3.6,1.2 h -3.6 l -2.4,2.4 -3.6,2.4 -2.4,2.4 -1.2,2.4 -1.2,3.6 v 7.2 l 1.2,3.6 1.2,2.4 2.4,2.4 3.6,2.4 2.4,1.2 3.6,1.2 z" style="fill:none;stroke:#000;stroke-width:7.5;stroke-linecap:round;stroke-linejoin:round;stroke-miterlimit:10;stroke-dasharray:none;stroke-opacity:1" id="path5470"/><path d="m 1498.8,1258.8 h 3.6 l 3.6,-1.2 2.4,-1.2 3.6,-2.4 1.2,-2.4 2.4,-2.4 1.2,-3.6 v -7.2 l -1.2,-3.6 -2.4,-2.4 -1.2,-2.4 -3.6,-2.4 -2.4,-2.4 h -3.6 l -3.6,-1.2 -3.6,1.2 h -3.6 l -2.4,2.4 -3.6,2.4 -2.4,2.4 -1.2,2.4 -1.2,3.6 v 7.2 l 1.2,3.6 1.2,2.4 2.4,2.4 3.6,2.4 2.4,1.2 3.6,1.2 z" style="fill:none;stroke:#000;stroke-width:7.5;stroke-linecap:round;stroke-linejoin:round;stroke-miterlimit:10;stroke-dasharray:none;stroke-opacity:1" id="path5472"/><path d="m 1798.8,1258.8 h 3.6 l 3.6,-1.2 2.4,-1.2 3.6,-2.4 1.2,-2.4 2.4,-2.4 2.4,-3.6 v -7.2 l -2.4,-3.6 -2.4,-2.4 -1.2,-2.4 -3.6,-2.4 -2.4,-2.4 h -3.6 l -3.6,-2.4 -3.6,2.4 h -3.6 l -2.4,2.4 -3.6,2.4 -2.4,2.4 -1.2,2.4 -1.2,3.6 v 7.2 l 1.2,3.6 1.2,2.4 2.4,2.4 3.6,2.4 2.4,1.2 3.6,1.2 h 3.6" style="fill:#000;fill-opacity:1;fill-rule:evenodd;stroke:none" id="path5474"/><path d="m 1798.8,1258.8 h 3.6 l 3.6,-1.2 2.4,-1.2 3.6,-2.4 1.2,-2.4 2.4,-2.4 1.2,-3.6 v -7.2 l -1.2,-3.6 -2.4,-2.4 -1.2,-2.4 -3.6,-2.4 -2.4,-2.4 h -3.6 l -3.6,-1.2 -3.6,1.2 h -3.6 l -2.4,2.4 -3.6,2.4 -2.4,2.4 -1.2,2.4 -1.2,3.6 v 7.2 l 1.2,3.6 1.2,2.4 2.4,2.4 3.6,2.4 2.4,1.2 3.6,1.2 z" style="fill:none;stroke:#000;stroke-width:7.5;stroke-linecap:round;stroke-linejoin:round;stroke-miterlimit:10;stroke-dasharray:none;stroke-opacity:1" id="path5476"/><path d="m 1798.8,1258.8 h 3.6 l 3.6,-1.2 2.4,-1.2 3.6,-2.4 1.2,-2.4 2.4,-2.4 1.2,-3.6 v -7.2 l -1.2,-3.6 -2.4,-2.4 -1.2,-2.4 -3.6,-2.4 -2.4,-2.4 h -3.6 l -3.6,-1.2 -3.6,1.2 h -3.6 l -2.4,2.4 -3.6,2.4 -2.4,2.4 -1.2,2.4 -1.2,3.6 v 7.2 l 1.2,3.6 1.2,2.4 2.4,2.4 3.6,2.4 2.4,1.2 3.6,1.2 z" style="fill:none;stroke:#000;stroke-width:7.5;stroke-linecap:round;stroke-linejoin:round;stroke-miterlimit:10;stroke-dasharray:none;stroke-opacity:1" id="path5478"/><path d="m 2098.8,1258.8 h 3.6 l 3.6,-1.2 2.4,-1.2 3.6,-2.4 1.2,-2.4 2.4,-2.4 2.4,-3.6 v -7.2 l -2.4,-3.6 -2.4,-2.4 -1.2,-3.6 -3.6,-1.2 -2.4,-2.4 h -3.6 l -3.6,-2.4 -3.6,2.4 h -3.6 l -2.4,2.4 -3.6,1.2 -2.4,3.6 -1.2,2.4 -1.2,3.6 v 7.2 l 1.2,3.6 1.2,2.4 2.4,2.4 3.6,2.4 2.4,1.2 3.6,1.2 h 3.6" style="fill:#000;fill-opacity:1;fill-rule:evenodd;stroke:none" id="path5480"/><path d="m 2098.8,1258.8 h 3.6 l 3.6,-1.2 2.4,-1.2 3.6,-2.4 1.2,-2.4 2.4,-2.4 1.2,-3.6 v -7.2 l -1.2,-3.6 -2.4,-2.4 -1.2,-3.6 -3.6,-1.2 -2.4,-2.4 h -3.6 l -3.6,-1.2 -3.6,1.2 h -3.6 l -2.4,2.4 -3.6,1.2 -2.4,3.6 -1.2,2.4 -1.2,3.6 v 7.2 l 1.2,3.6 1.2,2.4 2.4,2.4 3.6,2.4 2.4,1.2 3.6,1.2 z" style="fill:none;stroke:#000;stroke-width:7.5;stroke-linecap:round;stroke-linejoin:round;stroke-miterlimit:10;stroke-dasharray:none;stroke-opacity:1" id="path5482"/><path d="m 2098.8,1258.8 h 3.6 l 3.6,-1.2 2.4,-1.2 3.6,-2.4 1.2,-2.4 2.4,-2.4 1.2,-3.6 v -7.2 l -1.2,-3.6 -2.4,-2.4 -1.2,-3.6 -3.6,-1.2 -2.4,-2.4 h -3.6 l -3.6,-1.2 -3.6,1.2 h -3.6 l -2.4,2.4 -3.6,1.2 -2.4,3.6 -1.2,2.4 -1.2,3.6 v 7.2 l 1.2,3.6 1.2,2.4 2.4,2.4 3.6,2.4 2.4,1.2 3.6,1.2 z" style="fill:none;stroke:#000;stroke-width:7.5;stroke-linecap:round;stroke-linejoin:round;stroke-miterlimit:10;stroke-dasharray:none;stroke-opacity:1" id="path5484"/><path d="m 598.8,360 h 3.6 l 3.6,-1.2 2.4,-1.2 3.6,-2.4 1.2,-2.4 2.4,-2.4 2.4,-3.6 v -7.2 l -2.4,-3.6 -2.4,-2.4 -1.2,-3.6 -3.6,-1.2 -2.4,-2.4 h -3.6 l -3.6,-2.4 -3.6,2.4 h -3.6 l -2.4,2.4 -3.6,1.2 -2.4,3.6 -1.2,2.4 -1.2,3.6 v 7.2 l 1.2,3.6 1.2,2.4 2.4,2.4 3.6,2.4 2.4,1.2 3.6,1.2 h 3.6" style="fill:#000;fill-opacity:1;fill-rule:evenodd;stroke:none" id="path5486"/><path d="m 598.8,360 h 3.6 l 3.6,-1.2 2.4,-1.2 3.6,-2.4 1.2,-2.4 2.4,-2.4 1.2,-3.6 v -7.2 l -1.2,-3.6 -2.4,-2.4 -1.2,-3.6 -3.6,-1.2 -2.4,-2.4 h -3.6 l -3.6,-1.2 -3.6,1.2 h -3.6 l -2.4,2.4 -3.6,1.2 -2.4,3.6 -1.2,2.4 -1.2,3.6 v 7.2 l 1.2,3.6 1.2,2.4 2.4,2.4 3.6,2.4 2.4,1.2 3.6,1.2 z" style="fill:none;stroke:#000;stroke-width:7.5;stroke-linecap:round;stroke-linejoin:round;stroke-miterlimit:10;stroke-dasharray:none;stroke-opacity:1" id="path5488"/><path d="m 598.8,360 h 3.6 l 3.6,-1.2 2.4,-1.2 3.6,-2.4 1.2,-2.4 2.4,-2.4 1.2,-3.6 v -7.2 l -1.2,-3.6 -2.4,-2.4 -1.2,-3.6 -3.6,-1.2 -2.4,-2.4 h -3.6 l -3.6,-1.2 -3.6,1.2 h -3.6 l -2.4,2.4 -3.6,1.2 -2.4,3.6 -1.2,2.4 -1.2,3.6 v 7.2 l 1.2,3.6 1.2,2.4 2.4,2.4 3.6,2.4 2.4,1.2 3.6,1.2 z" style="fill:none;stroke:#000;stroke-width:7.5;stroke-linecap:round;stroke-linejoin:round;stroke-miterlimit:10;stroke-dasharray:none;stroke-opacity:1" id="path5490"/><path d="m 898.8,360 h 3.6 l 3.6,-1.2 2.4,-1.2 3.6,-2.4 1.2,-2.4 2.4,-2.4 2.4,-3.6 v -7.2 l -2.4,-3.6 -2.4,-2.4 -1.2,-3.6 -3.6,-1.2 -2.4,-2.4 h -3.6 l -3.6,-2.4 -3.6,2.4 h -3.6 l -2.4,2.4 -3.6,1.2 -2.4,3.6 -1.2,2.4 -1.2,3.6 v 7.2 l 1.2,3.6 1.2,2.4 2.4,2.4 3.6,2.4 2.4,1.2 3.6,1.2 h 3.6" style="fill:#000;fill-opacity:1;fill-rule:evenodd;stroke:none" id="path5492"/><path d="m 898.8,360 h 3.6 l 3.6,-1.2 2.4,-1.2 3.6,-2.4 1.2,-2.4 2.4,-2.4 1.2,-3.6 v -7.2 l -1.2,-3.6 -2.4,-2.4 -1.2,-3.6 -3.6,-1.2 -2.4,-2.4 h -3.6 l -3.6,-1.2 -3.6,1.2 h -3.6 l -2.4,2.4 -3.6,1.2 -2.4,3.6 -1.2,2.4 -1.2,3.6 v 7.2 l 1.2,3.6 1.2,2.4 2.4,2.4 3.6,2.4 2.4,1.2 3.6,1.2 z" style="fill:none;stroke:#000;stroke-width:7.5;stroke-linecap:round;stroke-linejoin:round;stroke-miterlimit:10;stroke-dasharray:none;stroke-opacity:1" id="path5494"/><path d="m 898.8,360 h 3.6 l 3.6,-1.2 2.4,-1.2 3.6,-2.4 1.2,-2.4 2.4,-2.4 1.2,-3.6 v -7.2 l -1.2,-3.6 -2.4,-2.4 -1.2,-3.6 -3.6,-1.2 -2.4,-2.4 h -3.6 l -3.6,-1.2 -3.6,1.2 h -3.6 l -2.4,2.4 -3.6,1.2 -2.4,3.6 -1.2,2.4 -1.2,3.6 v 7.2 l 1.2,3.6 1.2,2.4 2.4,2.4 3.6,2.4 2.4,1.2 3.6,1.2 z" style="fill:none;stroke:#000;stroke-width:7.5;stroke-linecap:round;stroke-linejoin:round;stroke-miterlimit:10;stroke-dasharray:none;stroke-opacity:1" id="path5496"/><path d="m 1498.8,360 h 3.6 l 3.6,-1.2 2.4,-1.2 3.6,-2.4 1.2,-2.4 2.4,-2.4 2.4,-3.6 v -7.2 l -2.4,-3.6 -2.4,-2.4 -1.2,-3.6 -3.6,-1.2 -2.4,-2.4 h -3.6 l -3.6,-2.4 -3.6,2.4 h -3.6 l -2.4,2.4 -3.6,1.2 -2.4,3.6 -1.2,2.4 -1.2,3.6 v 7.2 l 1.2,3.6 1.2,2.4 2.4,2.4 3.6,2.4 2.4,1.2 3.6,1.2 h 3.6" style="fill:#000;fill-opacity:1;fill-rule:evenodd;stroke:none" id="path5498"/><path d="m 1498.8,360 h 3.6 l 3.6,-1.2 2.4,-1.2 3.6,-2.4 1.2,-2.4 2.4,-2.4 1.2,-3.6 v -7.2 l -1.2,-3.6 -2.4,-2.4 -1.2,-3.6 -3.6,-1.2 -2.4,-2.4 h -3.6 l -3.6,-1.2 -3.6,1.2 h -3.6 l -2.4,2.4 -3.6,1.2 -2.4,3.6 -1.2,2.4 -1.2,3.6 v 7.2 l 1.2,3.6 1.2,2.4 2.4,2.4 3.6,2.4 2.4,1.2 3.6,1.2 z" style="fill:none;stroke:#000;stroke-width:7.5;stroke-linecap:round;stroke-linejoin:round;stroke-miterlimit:10;stroke-dasharray:none;stroke-opacity:1" id="path5500"/><path d="m 1498.8,360 h 3.6 l 3.6,-1.2 2.4,-1.2 3.6,-2.4 1.2,-2.4 2.4,-2.4 1.2,-3.6 v -7.2 l -1.2,-3.6 -2.4,-2.4 -1.2,-3.6 -3.6,-1.2 -2.4,-2.4 h -3.6 l -3.6,-1.2 -3.6,1.2 h -3.6 l -2.4,2.4 -3.6,1.2 -2.4,3.6 -1.2,2.4 -1.2,3.6 v 7.2 l 1.2,3.6 1.2,2.4 2.4,2.4 3.6,2.4 2.4,1.2 3.6,1.2 z" style="fill:none;stroke:#000;stroke-width:7.5;stroke-linecap:round;stroke-linejoin:round;stroke-miterlimit:10;stroke-dasharray:none;stroke-opacity:1" id="path5502"/><path d="m 1798.8,360 h 3.6 l 3.6,-1.2 2.4,-1.2 3.6,-2.4 1.2,-2.4 2.4,-2.4 2.4,-3.6 v -7.2 l -2.4,-3.6 -2.4,-2.4 -1.2,-3.6 -3.6,-1.2 -2.4,-2.4 h -3.6 l -3.6,-2.4 -3.6,2.4 h -3.6 l -2.4,2.4 -3.6,1.2 -2.4,3.6 -1.2,2.4 -1.2,3.6 v 7.2 l 1.2,3.6 1.2,2.4 2.4,2.4 3.6,2.4 2.4,1.2 3.6,1.2 h 3.6" style="fill:#000;fill-opacity:1;fill-rule:evenodd;stroke:none" id="path5504"/><path d="m 1798.8,360 h 3.6 l 3.6,-1.2 2.4,-1.2 3.6,-2.4 1.2,-2.4 2.4,-2.4 1.2,-3.6 v -7.2 l -1.2,-3.6 -2.4,-2.4 -1.2,-3.6 -3.6,-1.2 -2.4,-2.4 h -3.6 l -3.6,-1.2 -3.6,1.2 h -3.6 l -2.4,2.4 -3.6,1.2 -2.4,3.6 -1.2,2.4 -1.2,3.6 v 7.2 l 1.2,3.6 1.2,2.4 2.4,2.4 3.6,2.4 2.4,1.2 3.6,1.2 z" style="fill:none;stroke:#000;stroke-width:7.5;stroke-linecap:round;stroke-linejoin:round;stroke-miterlimit:10;stroke-dasharray:none;stroke-opacity:1" id="path5506"/><path d="m 1798.8,360 h 3.6 l 3.6,-1.2 2.4,-1.2 3.6,-2.4 1.2,-2.4 2.4,-2.4 1.2,-3.6 v -7.2 l -1.2,-3.6 -2.4,-2.4 -1.2,-3.6 -3.6,-1.2 -2.4,-2.4 h -3.6 l -3.6,-1.2 -3.6,1.2 h -3.6 l -2.4,2.4 -3.6,1.2 -2.4,3.6 -1.2,2.4 -1.2,3.6 v 7.2 l 1.2,3.6 1.2,2.4 2.4,2.4 3.6,2.4 2.4,1.2 3.6,1.2 z" style="fill:none;stroke:#000;stroke-width:7.5;stroke-linecap:round;stroke-linejoin:round;stroke-miterlimit:10;stroke-dasharray:none;stroke-opacity:1" id="path5508"/><path d="m 1198.8,360 h 3.6 l 3.6,-1.2 2.4,-1.2 3.6,-2.4 1.2,-2.4 2.4,-2.4 2.4,-3.6 v -7.2 l -2.4,-3.6 -2.4,-2.4 -1.2,-3.6 -3.6,-1.2 -2.4,-2.4 h -3.6 l -3.6,-2.4 -3.6,2.4 h -3.6 l -2.4,2.4 -3.6,1.2 -2.4,3.6 -1.2,2.4 -1.2,3.6 v 7.2 l 1.2,3.6 1.2,2.4 2.4,2.4 3.6,2.4 2.4,1.2 3.6,1.2 h 3.6" style="fill:#000;fill-opacity:1;fill-rule:evenodd;stroke:none" id="path5510"/><path d="m 1198.8,360 h 3.6 l 3.6,-1.2 2.4,-1.2 3.6,-2.4 1.2,-2.4 2.4,-2.4 1.2,-3.6 v -7.2 l -1.2,-3.6 -2.4,-2.4 -1.2,-3.6 -3.6,-1.2 -2.4,-2.4 h -3.6 l -3.6,-1.2 -3.6,1.2 h -3.6 l -2.4,2.4 -3.6,1.2 -2.4,3.6 -1.2,2.4 -1.2,3.6 v 7.2 l 1.2,3.6 1.2,2.4 2.4,2.4 3.6,2.4 2.4,1.2 3.6,1.2 z" style="fill:none;stroke:#000;stroke-width:7.5;stroke-linecap:round;stroke-linejoin:round;stroke-miterlimit:10;stroke-dasharray:none;stroke-opacity:1" id="path5512"/><path d="m 1198.8,360 h 3.6 l 3.6,-1.2 2.4,-1.2 3.6,-2.4 1.2,-2.4 2.4,-2.4 1.2,-3.6 v -7.2 l -1.2,-3.6 -2.4,-2.4 -1.2,-3.6 -3.6,-1.2 -2.4,-2.4 h -3.6 l -3.6,-1.2 -3.6,1.2 h -3.6 l -2.4,2.4 -3.6,1.2 -2.4,3.6 -1.2,2.4 -1.2,3.6 v 7.2 l 1.2,3.6 1.2,2.4 2.4,2.4 3.6,2.4 2.4,1.2 3.6,1.2 z" style="fill:none;stroke:#000;stroke-width:7.5;stroke-linecap:round;stroke-linejoin:round;stroke-miterlimit:10;stroke-dasharray:none;stroke-opacity:1" id="path5514"/><path d="m 2098.8,360 h 3.6 l 3.6,-1.2 2.4,-1.2 3.6,-2.4 1.2,-2.4 2.4,-2.4 2.4,-3.6 v -7.2 l -2.4,-3.6 -2.4,-2.4 -1.2,-3.6 -3.6,-1.2 -2.4,-2.4 h -3.6 l -3.6,-2.4 -3.6,2.4 h -3.6 l -2.4,2.4 -3.6,1.2 -2.4,3.6 -1.2,2.4 -1.2,3.6 v 7.2 l 1.2,3.6 1.2,2.4 2.4,2.4 3.6,2.4 2.4,1.2 3.6,1.2 h 3.6" style="fill:#000;fill-opacity:1;fill-rule:evenodd;stroke:none" id="path5516"/><path d="m 2098.8,360 h 3.6 l 3.6,-1.2 2.4,-1.2 3.6,-2.4 1.2,-2.4 2.4,-2.4 1.2,-3.6 v -7.2 l -1.2,-3.6 -2.4,-2.4 -1.2,-3.6 -3.6,-1.2 -2.4,-2.4 h -3.6 l -3.6,-1.2 -3.6,1.2 h -3.6 l -2.4,2.4 -3.6,1.2 -2.4,3.6 -1.2,2.4 -1.2,3.6 v 7.2 l 1.2,3.6 1.2,2.4 2.4,2.4 3.6,2.4 2.4,1.2 3.6,1.2 z" style="fill:none;stroke:#000;stroke-width:7.5;stroke-linecap:round;stroke-linejoin:round;stroke-miterlimit:10;stroke-dasharray:none;stroke-opacity:1" id="path5518"/><path d="m 2098.8,360 h 3.6 l 3.6,-1.2 2.4,-1.2 3.6,-2.4 1.2,-2.4 2.4,-2.4 1.2,-3.6 v -7.2 l -1.2,-3.6 -2.4,-2.4 -1.2,-3.6 -3.6,-1.2 -2.4,-2.4 h -3.6 l -3.6,-1.2 -3.6,1.2 h -3.6 l -2.4,2.4 -3.6,1.2 -2.4,3.6 -1.2,2.4 -1.2,3.6 v 7.2 l 1.2,3.6 1.2,2.4 2.4,2.4 3.6,2.4 2.4,1.2 3.6,1.2 z" style="fill:none;stroke:#000;stroke-width:7.5;stroke-linecap:round;stroke-linejoin:round;stroke-miterlimit:10;stroke-dasharray:none;stroke-opacity:1" id="path5520"/><path d="m 598.8,660 h 3.6 l 3.6,-1.2 2.4,-1.2 3.6,-2.4 1.2,-2.4 2.4,-2.4 2.4,-3.6 v -7.2 l -2.4,-3.6 -2.4,-2.4 -1.2,-2.4 -3.6,-2.4 -2.4,-2.4 h -3.6 l -3.6,-2.4 -3.6,2.4 h -3.6 l -2.4,2.4 -3.6,2.4 -2.4,2.4 -1.2,2.4 -1.2,3.6 v 7.2 l 1.2,3.6 1.2,2.4 2.4,2.4 3.6,2.4 2.4,1.2 3.6,1.2 h 3.6" style="fill:#000;fill-opacity:1;fill-rule:evenodd;stroke:none" id="path5522"/><path d="m 598.8,660 h 3.6 l 3.6,-1.2 2.4,-1.2 3.6,-2.4 1.2,-2.4 2.4,-2.4 1.2,-3.6 v -7.2 l -1.2,-3.6 -2.4,-2.4 -1.2,-2.4 -3.6,-2.4 -2.4,-2.4 h -3.6 l -3.6,-1.2 -3.6,1.2 h -3.6 l -2.4,2.4 -3.6,2.4 -2.4,2.4 -1.2,2.4 -1.2,3.6 v 7.2 l 1.2,3.6 1.2,2.4 2.4,2.4 3.6,2.4 2.4,1.2 3.6,1.2 z" style="fill:none;stroke:#000;stroke-width:7.5;stroke-linecap:round;stroke-linejoin:round;stroke-miterlimit:10;stroke-dasharray:none;stroke-opacity:1" id="path5524"/><path d="m 598.8,660 h 3.6 l 3.6,-1.2 2.4,-1.2 3.6,-2.4 1.2,-2.4 2.4,-2.4 1.2,-3.6 v -7.2 l -1.2,-3.6 -2.4,-2.4 -1.2,-2.4 -3.6,-2.4 -2.4,-2.4 h -3.6 l -3.6,-1.2 -3.6,1.2 h -3.6 l -2.4,2.4 -3.6,2.4 -2.4,2.4 -1.2,2.4 -1.2,3.6 v 7.2 l 1.2,3.6 1.2,2.4 2.4,2.4 3.6,2.4 2.4,1.2 3.6,1.2 z" style="fill:none;stroke:#000;stroke-width:7.5;stroke-linecap:round;stroke-linejoin:round;stroke-miterlimit:10;stroke-dasharray:none;stroke-opacity:1" id="path5526"/><path d="m 898.8,660 h 3.6 l 3.6,-1.2 2.4,-1.2 3.6,-2.4 1.2,-2.4 2.4,-2.4 2.4,-3.6 v -7.2 l -2.4,-3.6 -2.4,-2.4 -1.2,-2.4 -3.6,-2.4 -2.4,-2.4 h -3.6 l -3.6,-2.4 -3.6,2.4 h -3.6 l -2.4,2.4 -3.6,2.4 -2.4,2.4 -1.2,2.4 -1.2,3.6 v 7.2 l 1.2,3.6 1.2,2.4 2.4,2.4 3.6,2.4 2.4,1.2 3.6,1.2 h 3.6" style="fill:#000;fill-opacity:1;fill-rule:evenodd;stroke:none" id="path5528"/><path d="m 898.8,660 h 3.6 l 3.6,-1.2 2.4,-1.2 3.6,-2.4 1.2,-2.4 2.4,-2.4 1.2,-3.6 v -7.2 l -1.2,-3.6 -2.4,-2.4 -1.2,-2.4 -3.6,-2.4 -2.4,-2.4 h -3.6 l -3.6,-1.2 -3.6,1.2 h -3.6 l -2.4,2.4 -3.6,2.4 -2.4,2.4 -1.2,2.4 -1.2,3.6 v 7.2 l 1.2,3.6 1.2,2.4 2.4,2.4 3.6,2.4 2.4,1.2 3.6,1.2 z" style="fill:none;stroke:#000;stroke-width:7.5;stroke-linecap:round;stroke-linejoin:round;stroke-miterlimit:10;stroke-dasharray:none;stroke-opacity:1" id="path5530"/><path d="m 898.8,660 h 3.6 l 3.6,-1.2 2.4,-1.2 3.6,-2.4 1.2,-2.4 2.4,-2.4 1.2,-3.6 v -7.2 l -1.2,-3.6 -2.4,-2.4 -1.2,-2.4 -3.6,-2.4 -2.4,-2.4 h -3.6 l -3.6,-1.2 -3.6,1.2 h -3.6 l -2.4,2.4 -3.6,2.4 -2.4,2.4 -1.2,2.4 -1.2,3.6 v 7.2 l 1.2,3.6 1.2,2.4 2.4,2.4 3.6,2.4 2.4,1.2 3.6,1.2 z" style="fill:none;stroke:#000;stroke-width:7.5;stroke-linecap:round;stroke-linejoin:round;stroke-miterlimit:10;stroke-dasharray:none;stroke-opacity:1" id="path5532"/><path d="m 1498.8,660 h 3.6 l 3.6,-1.2 2.4,-1.2 3.6,-2.4 1.2,-2.4 2.4,-2.4 2.4,-3.6 v -7.2 l -2.4,-3.6 -2.4,-2.4 -1.2,-2.4 -3.6,-2.4 -2.4,-2.4 h -3.6 l -3.6,-2.4 -3.6,2.4 h -3.6 l -2.4,2.4 -3.6,2.4 -2.4,2.4 -1.2,2.4 -1.2,3.6 v 7.2 l 1.2,3.6 1.2,2.4 2.4,2.4 3.6,2.4 2.4,1.2 3.6,1.2 h 3.6" style="fill:#000;fill-opacity:1;fill-rule:evenodd;stroke:none" id="path5534"/><path d="m 1498.8,660 h 3.6 l 3.6,-1.2 2.4,-1.2 3.6,-2.4 1.2,-2.4 2.4,-2.4 1.2,-3.6 v -7.2 l -1.2,-3.6 -2.4,-2.4 -1.2,-2.4 -3.6,-2.4 -2.4,-2.4 h -3.6 l -3.6,-1.2 -3.6,1.2 h -3.6 l -2.4,2.4 -3.6,2.4 -2.4,2.4 -1.2,2.4 -1.2,3.6 v 7.2 l 1.2,3.6 1.2,2.4 2.4,2.4 3.6,2.4 2.4,1.2 3.6,1.2 z" style="fill:none;stroke:#000;stroke-width:7.5;stroke-linecap:round;stroke-linejoin:round;stroke-miterlimit:10;stroke-dasharray:none;stroke-opacity:1" id="path5536"/><path d="m 1498.8,660 h 3.6 l 3.6,-1.2 2.4,-1.2 3.6,-2.4 1.2,-2.4 2.4,-2.4 1.2,-3.6 v -7.2 l -1.2,-3.6 -2.4,-2.4 -1.2,-2.4 -3.6,-2.4 -2.4,-2.4 h -3.6 l -3.6,-1.2 -3.6,1.2 h -3.6 l -2.4,2.4 -3.6,2.4 -2.4,2.4 -1.2,2.4 -1.2,3.6 v 7.2 l 1.2,3.6 1.2,2.4 2.4,2.4 3.6,2.4 2.4,1.2 3.6,1.2 z" style="fill:none;stroke:#000;stroke-width:7.5;stroke-linecap:round;stroke-linejoin:round;stroke-miterlimit:10;stroke-dasharray:none;stroke-opacity:1" id="path5538"/><path d="m 1798.8,660 h 3.6 l 3.6,-1.2 2.4,-1.2 3.6,-2.4 1.2,-2.4 2.4,-2.4 2.4,-3.6 v -7.2 l -2.4,-3.6 -2.4,-2.4 -1.2,-2.4 -3.6,-2.4 -2.4,-2.4 h -3.6 l -3.6,-2.4 -3.6,2.4 h -3.6 l -2.4,2.4 -3.6,2.4 -2.4,2.4 -1.2,2.4 -1.2,3.6 v 7.2 l 1.2,3.6 1.2,2.4 2.4,2.4 3.6,2.4 2.4,1.2 3.6,1.2 h 3.6" style="fill:#000;fill-opacity:1;fill-rule:evenodd;stroke:none" id="path5540"/><path d="m 1798.8,660 h 3.6 l 3.6,-1.2 2.4,-1.2 3.6,-2.4 1.2,-2.4 2.4,-2.4 1.2,-3.6 v -7.2 l -1.2,-3.6 -2.4,-2.4 -1.2,-2.4 -3.6,-2.4 -2.4,-2.4 h -3.6 l -3.6,-1.2 -3.6,1.2 h -3.6 l -2.4,2.4 -3.6,2.4 -2.4,2.4 -1.2,2.4 -1.2,3.6 v 7.2 l 1.2,3.6 1.2,2.4 2.4,2.4 3.6,2.4 2.4,1.2 3.6,1.2 z" style="fill:none;stroke:#000;stroke-width:7.5;stroke-linecap:round;stroke-linejoin:round;stroke-miterlimit:10;stroke-dasharray:none;stroke-opacity:1" id="path5542"/><path d="m 1798.8,660 h 3.6 l 3.6,-1.2 2.4,-1.2 3.6,-2.4 1.2,-2.4 2.4,-2.4 1.2,-3.6 v -7.2 l -1.2,-3.6 -2.4,-2.4 -1.2,-2.4 -3.6,-2.4 -2.4,-2.4 h -3.6 l -3.6,-1.2 -3.6,1.2 h -3.6 l -2.4,2.4 -3.6,2.4 -2.4,2.4 -1.2,2.4 -1.2,3.6 v 7.2 l 1.2,3.6 1.2,2.4 2.4,2.4 3.6,2.4 2.4,1.2 3.6,1.2 z" style="fill:none;stroke:#000;stroke-width:7.5;stroke-linecap:round;stroke-linejoin:round;stroke-miterlimit:10;stroke-dasharray:none;stroke-opacity:1" id="path5544"/><path d="m 1198.8,660 h 3.6 l 3.6,-1.2 2.4,-1.2 3.6,-2.4 1.2,-2.4 2.4,-2.4 2.4,-3.6 v -7.2 l -2.4,-3.6 -2.4,-2.4 -1.2,-2.4 -3.6,-2.4 -2.4,-2.4 h -3.6 l -3.6,-2.4 -3.6,2.4 h -3.6 l -2.4,2.4 -3.6,2.4 -2.4,2.4 -1.2,2.4 -1.2,3.6 v 7.2 l 1.2,3.6 1.2,2.4 2.4,2.4 3.6,2.4 2.4,1.2 3.6,1.2 h 3.6" style="fill:#000;fill-opacity:1;fill-rule:evenodd;stroke:none" id="path5546"/><path d="m 1198.8,660 h 3.6 l 3.6,-1.2 2.4,-1.2 3.6,-2.4 1.2,-2.4 2.4,-2.4 1.2,-3.6 v -7.2 l -1.2,-3.6 -2.4,-2.4 -1.2,-2.4 -3.6,-2.4 -2.4,-2.4 h -3.6 l -3.6,-1.2 -3.6,1.2 h -3.6 l -2.4,2.4 -3.6,2.4 -2.4,2.4 -1.2,2.4 -1.2,3.6 v 7.2 l 1.2,3.6 1.2,2.4 2.4,2.4 3.6,2.4 2.4,1.2 3.6,1.2 z" style="fill:none;stroke:#000;stroke-width:7.5;stroke-linecap:round;stroke-linejoin:round;stroke-miterlimit:10;stroke-dasharray:none;stroke-opacity:1" id="path5548"/><path d="m 1198.8,660 h 3.6 l 3.6,-1.2 2.4,-1.2 3.6,-2.4 1.2,-2.4 2.4,-2.4 1.2,-3.6 v -7.2 l -1.2,-3.6 -2.4,-2.4 -1.2,-2.4 -3.6,-2.4 -2.4,-2.4 h -3.6 l -3.6,-1.2 -3.6,1.2 h -3.6 l -2.4,2.4 -3.6,2.4 -2.4,2.4 -1.2,2.4 -1.2,3.6 v 7.2 l 1.2,3.6 1.2,2.4 2.4,2.4 3.6,2.4 2.4,1.2 3.6,1.2 z" style="fill:none;stroke:#000;stroke-width:7.5;stroke-linecap:round;stroke-linejoin:round;stroke-miterlimit:10;stroke-dasharray:none;stroke-opacity:1" id="path5550"/><path d="m 2098.8,660 h 3.6 l 3.6,-1.2 2.4,-1.2 3.6,-2.4 1.2,-2.4 2.4,-2.4 2.4,-3.6 v -7.2 l -2.4,-3.6 -2.4,-2.4 -1.2,-3.6 -3.6,-1.2 -2.4,-2.4 h -3.6 l -3.6,-2.4 -3.6,2.4 h -3.6 l -2.4,2.4 -3.6,1.2 -2.4,3.6 -1.2,2.4 -1.2,3.6 v 7.2 l 1.2,3.6 1.2,2.4 2.4,2.4 3.6,2.4 2.4,1.2 3.6,1.2 h 3.6" style="fill:#000;fill-opacity:1;fill-rule:evenodd;stroke:none" id="path5552"/><path d="m 2098.8,660 h 3.6 l 3.6,-1.2 2.4,-1.2 3.6,-2.4 1.2,-2.4 2.4,-2.4 1.2,-3.6 v -7.2 l -1.2,-3.6 -2.4,-2.4 -1.2,-3.6 -3.6,-1.2 -2.4,-2.4 h -3.6 l -3.6,-1.2 -3.6,1.2 h -3.6 l -2.4,2.4 -3.6,1.2 -2.4,3.6 -1.2,2.4 -1.2,3.6 v 7.2 l 1.2,3.6 1.2,2.4 2.4,2.4 3.6,2.4 2.4,1.2 3.6,1.2 z" style="fill:none;stroke:#000;stroke-width:7.5;stroke-linecap:round;stroke-linejoin:round;stroke-miterlimit:10;stroke-dasharray:none;stroke-opacity:1" id="path5554"/><path d="m 2098.8,660 h 3.6 l 3.6,-1.2 2.4,-1.2 3.6,-2.4 1.2,-2.4 2.4,-2.4 1.2,-3.6 v -7.2 l -1.2,-3.6 -2.4,-2.4 -1.2,-3.6 -3.6,-1.2 -2.4,-2.4 h -3.6 l -3.6,-1.2 -3.6,1.2 h -3.6 l -2.4,2.4 -3.6,1.2 -2.4,3.6 -1.2,2.4 -1.2,3.6 v 7.2 l 1.2,3.6 1.2,2.4 2.4,2.4 3.6,2.4 2.4,1.2 3.6,1.2 z" style="fill:none;stroke:#000;stroke-width:7.5;stroke-linecap:round;stroke-linejoin:round;stroke-miterlimit:10;stroke-dasharray:none;stroke-opacity:1" id="path5556"/><path d="m 1498.8,958.8 h 3.6 l 3.6,-1.2 2.4,-1.2 3.6,-2.4 1.2,-2.4 2.4,-2.4 2.4,-3.6 v -7.2 l -2.4,-3.6 -2.4,-2.4 -1.2,-2.4 -3.6,-2.4 -2.4,-2.4 h -3.6 l -3.6,-2.4 -3.6,2.4 h -3.6 l -2.4,2.4 -3.6,2.4 -2.4,2.4 -1.2,2.4 -1.2,3.6 v 7.2 l 1.2,3.6 1.2,2.4 2.4,2.4 3.6,2.4 2.4,1.2 3.6,1.2 h 3.6" style="fill:#000;fill-opacity:1;fill-rule:evenodd;stroke:none" id="path5558"/><path d="m 1498.8,958.8 h 3.6 l 3.6,-1.2 2.4,-1.2 3.6,-2.4 1.2,-2.4 2.4,-2.4 1.2,-3.6 v -7.2 l -1.2,-3.6 -2.4,-2.4 -1.2,-2.4 -3.6,-2.4 -2.4,-2.4 h -3.6 l -3.6,-1.2 -3.6,1.2 h -3.6 l -2.4,2.4 -3.6,2.4 -2.4,2.4 -1.2,2.4 -1.2,3.6 v 7.2 l 1.2,3.6 1.2,2.4 2.4,2.4 3.6,2.4 2.4,1.2 3.6,1.2 z" style="fill:none;stroke:#000;stroke-width:7.5;stroke-linecap:round;stroke-linejoin:round;stroke-miterlimit:10;stroke-dasharray:none;stroke-opacity:1" id="path5560"/><path d="m 1498.8,958.8 h 3.6 l 3.6,-1.2 2.4,-1.2 3.6,-2.4 1.2,-2.4 2.4,-2.4 1.2,-3.6 v -7.2 l -1.2,-3.6 -2.4,-2.4 -1.2,-2.4 -3.6,-2.4 -2.4,-2.4 h -3.6 l -3.6,-1.2 -3.6,1.2 h -3.6 l -2.4,2.4 -3.6,2.4 -2.4,2.4 -1.2,2.4 -1.2,3.6 v 7.2 l 1.2,3.6 1.2,2.4 2.4,2.4 3.6,2.4 2.4,1.2 3.6,1.2 z" style="fill:none;stroke:#000;stroke-width:7.5;stroke-linecap:round;stroke-linejoin:round;stroke-miterlimit:10;stroke-dasharray:none;stroke-opacity:1" id="path5562"/><path d="m 1798.8,958.8 h 3.6 l 3.6,-1.2 2.4,-1.2 3.6,-2.4 1.2,-2.4 2.4,-2.4 2.4,-3.6 v -7.2 l -2.4,-3.6 -2.4,-2.4 -1.2,-2.4 -3.6,-2.4 -2.4,-2.4 h -3.6 l -3.6,-2.4 -3.6,2.4 h -3.6 l -2.4,2.4 -3.6,2.4 -2.4,2.4 -1.2,2.4 -1.2,3.6 v 7.2 l 1.2,3.6 1.2,2.4 2.4,2.4 3.6,2.4 2.4,1.2 3.6,1.2 h 3.6" style="fill:#000;fill-opacity:1;fill-rule:evenodd;stroke:none" id="path5564"/><path d="m 1798.8,958.8 h 3.6 l 3.6,-1.2 2.4,-1.2 3.6,-2.4 1.2,-2.4 2.4,-2.4 1.2,-3.6 v -7.2 l -1.2,-3.6 -2.4,-2.4 -1.2,-2.4 -3.6,-2.4 -2.4,-2.4 h -3.6 l -3.6,-1.2 -3.6,1.2 h -3.6 l -2.4,2.4 -3.6,2.4 -2.4,2.4 -1.2,2.4 -1.2,3.6 v 7.2 l 1.2,3.6 1.2,2.4 2.4,2.4 3.6,2.4 2.4,1.2 3.6,1.2 z" style="fill:none;stroke:#000;stroke-width:7.5;stroke-linecap:round;stroke-linejoin:round;stroke-miterlimit:10;stroke-dasharray:none;stroke-opacity:1" id="path5566"/><path d="m 1798.8,958.8 h 3.6 l 3.6,-1.2 2.4,-1.2 3.6,-2.4 1.2,-2.4 2.4,-2.4 1.2,-3.6 v -7.2 l -1.2,-3.6 -2.4,-2.4 -1.2,-2.4 -3.6,-2.4 -2.4,-2.4 h -3.6 l -3.6,-1.2 -3.6,1.2 h -3.6 l -2.4,2.4 -3.6,2.4 -2.4,2.4 -1.2,2.4 -1.2,3.6 v 7.2 l 1.2,3.6 1.2,2.4 2.4,2.4 3.6,2.4 2.4,1.2 3.6,1.2 z" style="fill:none;stroke:#000;stroke-width:7.5;stroke-linecap:round;stroke-linejoin:round;stroke-miterlimit:10;stroke-dasharray:none;stroke-opacity:1" id="path5568"/><path d="m 2098.8,958.8 h 3.6 l 3.6,-1.2 2.4,-1.2 3.6,-2.4 1.2,-2.4 2.4,-2.4 2.4,-3.6 v -7.2 l -2.4,-3.6 -2.4,-2.4 -1.2,-3.6 -3.6,-1.2 -2.4,-2.4 h -3.6 l -3.6,-2.4 -3.6,2.4 h -3.6 l -2.4,2.4 -3.6,1.2 -2.4,3.6 -1.2,2.4 -1.2,3.6 v 7.2 l 1.2,3.6 1.2,2.4 2.4,2.4 3.6,2.4 2.4,1.2 3.6,1.2 h 3.6" style="fill:#000;fill-opacity:1;fill-rule:evenodd;stroke:none" id="path5570"/><path d="m 2098.8,958.8 h 3.6 l 3.6,-1.2 2.4,-1.2 3.6,-2.4 1.2,-2.4 2.4,-2.4 1.2,-3.6 v -7.2 l -1.2,-3.6 -2.4,-2.4 -1.2,-3.6 -3.6,-1.2 -2.4,-2.4 h -3.6 l -3.6,-1.2 -3.6,1.2 h -3.6 l -2.4,2.4 -3.6,1.2 -2.4,3.6 -1.2,2.4 -1.2,3.6 v 7.2 l 1.2,3.6 1.2,2.4 2.4,2.4 3.6,2.4 2.4,1.2 3.6,1.2 z" style="fill:none;stroke:#000;stroke-width:7.5;stroke-linecap:round;stroke-linejoin:round;stroke-miterlimit:10;stroke-dasharray:none;stroke-opacity:1" id="path5572"/><path d="m 2098.8,958.8 h 3.6 l 3.6,-1.2 2.4,-1.2 3.6,-2.4 1.2,-2.4 2.4,-2.4 1.2,-3.6 v -7.2 l -1.2,-3.6 -2.4,-2.4 -1.2,-3.6 -3.6,-1.2 -2.4,-2.4 h -3.6 l -3.6,-1.2 -3.6,1.2 h -3.6 l -2.4,2.4 -3.6,1.2 -2.4,3.6 -1.2,2.4 -1.2,3.6 v 7.2 l 1.2,3.6 1.2,2.4 2.4,2.4 3.6,2.4 2.4,1.2 3.6,1.2 z" style="fill:none;stroke:#000;stroke-width:7.5;stroke-linecap:round;stroke-linejoin:round;stroke-miterlimit:10;stroke-dasharray:none;stroke-opacity:1" id="path5574"/><path d="m 1498.8,1258.8 h 3.6 l 3.6,-1.2 2.4,-1.2 3.6,-2.4 1.2,-2.4 2.4,-2.4 2.4,-3.6 v -7.2 l -2.4,-3.6 -2.4,-2.4 -1.2,-2.4 -3.6,-2.4 -2.4,-2.4 h -3.6 l -3.6,-2.4 -3.6,2.4 h -3.6 l -2.4,2.4 -3.6,2.4 -2.4,2.4 -1.2,2.4 -1.2,3.6 v 7.2 l 1.2,3.6 1.2,2.4 2.4,2.4 3.6,2.4 2.4,1.2 3.6,1.2 h 3.6" style="fill:#000;fill-opacity:1;fill-rule:evenodd;stroke:none" id="path5576"/><path d="m 1498.8,1258.8 h 3.6 l 3.6,-1.2 2.4,-1.2 3.6,-2.4 1.2,-2.4 2.4,-2.4 1.2,-3.6 v -7.2 l -1.2,-3.6 -2.4,-2.4 -1.2,-2.4 -3.6,-2.4 -2.4,-2.4 h -3.6 l -3.6,-1.2 -3.6,1.2 h -3.6 l -2.4,2.4 -3.6,2.4 -2.4,2.4 -1.2,2.4 -1.2,3.6 v 7.2 l 1.2,3.6 1.2,2.4 2.4,2.4 3.6,2.4 2.4,1.2 3.6,1.2 z" style="fill:none;stroke:#000;stroke-width:7.5;stroke-linecap:round;stroke-linejoin:round;stroke-miterlimit:10;stroke-dasharray:none;stroke-opacity:1" id="path5578"/><path d="m 1498.8,1258.8 h 3.6 l 3.6,-1.2 2.4,-1.2 3.6,-2.4 1.2,-2.4 2.4,-2.4 1.2,-3.6 v -7.2 l -1.2,-3.6 -2.4,-2.4 -1.2,-2.4 -3.6,-2.4 -2.4,-2.4 h -3.6 l -3.6,-1.2 -3.6,1.2 h -3.6 l -2.4,2.4 -3.6,2.4 -2.4,2.4 -1.2,2.4 -1.2,3.6 v 7.2 l 1.2,3.6 1.2,2.4 2.4,2.4 3.6,2.4 2.4,1.2 3.6,1.2 z" style="fill:none;stroke:#000;stroke-width:7.5;stroke-linecap:round;stroke-linejoin:round;stroke-miterlimit:10;stroke-dasharray:none;stroke-opacity:1" id="path5580"/><path d="m 1798.8,1258.8 h 3.6 l 3.6,-1.2 2.4,-1.2 3.6,-2.4 1.2,-2.4 2.4,-2.4 2.4,-3.6 v -7.2 l -2.4,-3.6 -2.4,-2.4 -1.2,-2.4 -3.6,-2.4 -2.4,-2.4 h -3.6 l -3.6,-2.4 -3.6,2.4 h -3.6 l -2.4,2.4 -3.6,2.4 -2.4,2.4 -1.2,2.4 -1.2,3.6 v 7.2 l 1.2,3.6 1.2,2.4 2.4,2.4 3.6,2.4 2.4,1.2 3.6,1.2 h 3.6" style="fill:#000;fill-opacity:1;fill-rule:evenodd;stroke:none" id="path5582"/><path d="m 1798.8,1258.8 h 3.6 l 3.6,-1.2 2.4,-1.2 3.6,-2.4 1.2,-2.4 2.4,-2.4 1.2,-3.6 v -7.2 l -1.2,-3.6 -2.4,-2.4 -1.2,-2.4 -3.6,-2.4 -2.4,-2.4 h -3.6 l -3.6,-1.2 -3.6,1.2 h -3.6 l -2.4,2.4 -3.6,2.4 -2.4,2.4 -1.2,2.4 -1.2,3.6 v 7.2 l 1.2,3.6 1.2,2.4 2.4,2.4 3.6,2.4 2.4,1.2 3.6,1.2 z" style="fill:none;stroke:#000;stroke-width:7.5;stroke-linecap:round;stroke-linejoin:round;stroke-miterlimit:10;stroke-dasharray:none;stroke-opacity:1" id="path5584"/><path d="m 1798.8,1258.8 h 3.6 l 3.6,-1.2 2.4,-1.2 3.6,-2.4 1.2,-2.4 2.4,-2.4 1.2,-3.6 v -7.2 l -1.2,-3.6 -2.4,-2.4 -1.2,-2.4 -3.6,-2.4 -2.4,-2.4 h -3.6 l -3.6,-1.2 -3.6,1.2 h -3.6 l -2.4,2.4 -3.6,2.4 -2.4,2.4 -1.2,2.4 -1.2,3.6 v 7.2 l 1.2,3.6 1.2,2.4 2.4,2.4 3.6,2.4 2.4,1.2 3.6,1.2 z" style="fill:none;stroke:#000;stroke-width:7.5;stroke-linecap:round;stroke-linejoin:round;stroke-miterlimit:10;stroke-dasharray:none;stroke-opacity:1" id="path5586"/><path d="m 2098.8,1258.8 h 3.6 l 3.6,-1.2 2.4,-1.2 3.6,-2.4 1.2,-2.4 2.4,-2.4 2.4,-3.6 v -7.2 l -2.4,-3.6 -2.4,-2.4 -1.2,-3.6 -3.6,-1.2 -2.4,-2.4 h -3.6 l -3.6,-2.4 -3.6,2.4 h -3.6 l -2.4,2.4 -3.6,1.2 -2.4,3.6 -1.2,2.4 -1.2,3.6 v 7.2 l 1.2,3.6 1.2,2.4 2.4,2.4 3.6,2.4 2.4,1.2 3.6,1.2 h 3.6" style="fill:#000;fill-opacity:1;fill-rule:evenodd;stroke:none" id="path5588"/><path d="m 2098.8,1258.8 h 3.6 l 3.6,-1.2 2.4,-1.2 3.6,-2.4 1.2,-2.4 2.4,-2.4 1.2,-3.6 v -7.2 l -1.2,-3.6 -2.4,-2.4 -1.2,-3.6 -3.6,-1.2 -2.4,-2.4 h -3.6 l -3.6,-1.2 -3.6,1.2 h -3.6 l -2.4,2.4 -3.6,1.2 -2.4,3.6 -1.2,2.4 -1.2,3.6 v 7.2 l 1.2,3.6 1.2,2.4 2.4,2.4 3.6,2.4 2.4,1.2 3.6,1.2 z" style="fill:none;stroke:#000;stroke-width:7.5;stroke-linecap:round;stroke-linejoin:round;stroke-miterlimit:10;stroke-dasharray:none;stroke-opacity:1" id="path5590"/><path d="m 2098.8,1258.8 h 3.6 l 3.6,-1.2 2.4,-1.2 3.6,-2.4 1.2,-2.4 2.4,-2.4 1.2,-3.6 v -7.2 l -1.2,-3.6 -2.4,-2.4 -1.2,-3.6 -3.6,-1.2 -2.4,-2.4 h -3.6 l -3.6,-1.2 -3.6,1.2 h -3.6 l -2.4,2.4 -3.6,1.2 -2.4,3.6 -1.2,2.4 -1.2,3.6 v 7.2 l 1.2,3.6 1.2,2.4 2.4,2.4 3.6,2.4 2.4,1.2 3.6,1.2 z" style="fill:none;stroke:#000;stroke-width:7.5;stroke-linecap:round;stroke-linejoin:round;stroke-miterlimit:10;stroke-dasharray:none;stroke-opacity:1" id="path5592"/><path d="M 460.8,778.8 V 180" style="fill:none;stroke:#000;stroke-width:22.5;stroke-linecap:round;stroke-linejoin:round;stroke-miterlimit:10;stroke-dasharray:none;stroke-opacity:1" id="path5594"/><path d="m 460.8,783.6 h 897.6" style="fill:none;stroke:#000;stroke-width:22.5;stroke-linecap:round;stroke-linejoin:round;stroke-miterlimit:10;stroke-dasharray:none;stroke-opacity:1" id="path5596"/><path d="M 1358.4,1363.2 V 783.6" style="fill:none;stroke:#000;stroke-width:22.5;stroke-linecap:round;stroke-linejoin:round;stroke-miterlimit:10;stroke-dasharray:none;stroke-opacity:1" id="path5598"/><path d="m 460.8,180 h 900" style="fill:none;stroke:#000;stroke-width:22.5;stroke-linecap:round;stroke-linejoin:round;stroke-miterlimit:10;stroke-dasharray:none;stroke-opacity:1" id="path5600"/><path d="M 1360.8,1378.8 H 3465.6" style="fill:none;stroke:#000;stroke-width:22.5;stroke-linecap:round;stroke-linejoin:round;stroke-miterlimit:10;stroke-dasharray:none;stroke-opacity:1" id="path5602"/><path d="M 2563.2,1380 V 181.2" style="fill:none;stroke:#000;stroke-width:7.5;stroke-linecap:round;stroke-linejoin:round;stroke-miterlimit:10;stroke-dasharray:none;stroke-opacity:1" id="path5604"/><path d="M 2863.2,1380 V 181.2" style="fill:none;stroke:#000;stroke-width:7.5;stroke-linecap:round;stroke-linejoin:round;stroke-miterlimit:10;stroke-dasharray:none;stroke-opacity:1" id="path5606"/><path d="M 3163.2,1380 V 181.2" style="fill:none;stroke:#000;stroke-width:7.5;stroke-linecap:round;stroke-linejoin:round;stroke-miterlimit:10;stroke-dasharray:none;stroke-opacity:1" id="path5608"/><path d="M 3465.6,1380 V 181.2" style="fill:none;stroke:#000;stroke-width:22.5;stroke-linecap:round;stroke-linejoin:round;stroke-miterlimit:10;stroke-dasharray:none;stroke-opacity:1" id="path5610"/><path d="M 2258.4,1663.2 V 35.9998" style="fill:none;stroke:#000;stroke-width:7.5;stroke-linecap:round;stroke-linejoin:round;stroke-miterlimit:10;stroke-dasharray:10,20;stroke-dashoffset:0;stroke-opacity:1" id="path5612"/><path d="m 2415.6,358.8 h 3.6 l 3.6,-1.2 2.4,-1.2 3.6,-2.4 1.2,-2.4 2.4,-2.4 2.4,-3.6 v -7.2 l -2.4,-3.6 -2.4,-2.4 -1.2,-3.6 -3.6,-1.2 -2.4,-2.4 h -3.6 l -3.6,-2.4 -3.6,2.4 h -3.6 l -2.4,2.4 -3.6,1.2 -2.4,3.6 -1.2,2.4 -1.2,3.6 v 7.2 l 1.2,3.6 1.2,2.4 2.4,2.4 3.6,2.4 2.4,1.2 3.6,1.2 h 3.6" style="fill:#000;fill-opacity:1;fill-rule:evenodd;stroke:none" id="path5614"/><path d="m 2415.6,358.8 h 3.6 l 3.6,-1.2 2.4,-1.2 3.6,-2.4 1.2,-2.4 2.4,-2.4 1.2,-3.6 v -7.2 l -1.2,-3.6 -2.4,-2.4 -1.2,-3.6 -3.6,-1.2 -2.4,-2.4 h -3.6 l -3.6,-1.2 -3.6,1.2 h -3.6 l -2.4,2.4 -3.6,1.2 -2.4,3.6 -1.2,2.4 -1.2,3.6 v 7.2 l 1.2,3.6 1.2,2.4 2.4,2.4 3.6,2.4 2.4,1.2 3.6,1.2 z" style="fill:none;stroke:#000;stroke-width:7.5;stroke-linecap:round;stroke-linejoin:round;stroke-miterlimit:10;stroke-dasharray:none;stroke-opacity:1" id="path5616"/><path d="m 2415.6,358.8 h -3.6 l -3.6,-1.2 -2.4,-1.2 -3.6,-2.4 -2.4,-2.4 -1.2,-2.4 -1.2,-3.6 v -7.2 l 1.2,-3.6 1.2,-2.4 2.4,-3.6 3.6,-1.2 2.4,-2.4 h 3.6 l 3.6,-1.2 3.6,1.2 h 3.6 l 2.4,2.4 3.6,1.2 1.2,3.6 2.4,2.4 1.2,3.6 v 7.2 l -1.2,3.6 -2.4,2.4 -1.2,2.4" style="fill:none;stroke:#000;stroke-width:7.5;stroke-linecap:round;stroke-linejoin:round;stroke-miterlimit:10;stroke-dasharray:none;stroke-opacity:1" id="path5618"/><path d="m 2715.6,358.8 h 3.6 l 3.6,-1.2 2.4,-1.2 3.6,-2.4 1.2,-2.4 2.4,-2.4 2.4,-3.6 v -7.2 l -2.4,-3.6 -2.4,-2.4 -1.2,-3.6 -3.6,-1.2 -2.4,-2.4 h -3.6 l -3.6,-2.4 -3.6,2.4 h -3.6 l -2.4,2.4 -3.6,1.2 -2.4,3.6 -1.2,2.4 -1.2,3.6 v 7.2 l 1.2,3.6 1.2,2.4 2.4,2.4 3.6,2.4 2.4,1.2 3.6,1.2 h 3.6" style="fill:#000;fill-opacity:1;fill-rule:evenodd;stroke:none" id="path5620"/><path d="m 2715.6,358.8 h 3.6 l 3.6,-1.2 2.4,-1.2 3.6,-2.4 1.2,-2.4 2.4,-2.4 1.2,-3.6 v -7.2 l -1.2,-3.6 -2.4,-2.4 -1.2,-3.6 -3.6,-1.2 -2.4,-2.4 h -3.6 l -3.6,-1.2 -3.6,1.2 h -3.6 l -2.4,2.4 -3.6,1.2 -2.4,3.6 -1.2,2.4 -1.2,3.6 v 7.2 l 1.2,3.6 1.2,2.4 2.4,2.4 3.6,2.4 2.4,1.2 3.6,1.2 z" style="fill:none;stroke:#000;stroke-width:7.5;stroke-linecap:round;stroke-linejoin:round;stroke-miterlimit:10;stroke-dasharray:none;stroke-opacity:1" id="path5622"/><path d="m 2715.6,358.8 h 3.6 l 3.6,-1.2 2.4,-1.2 3.6,-2.4 1.2,-2.4 2.4,-2.4 1.2,-3.6 v -7.2 l -1.2,-3.6 -2.4,-2.4 -1.2,-3.6 -3.6,-1.2 -2.4,-2.4 h -3.6 l -3.6,-1.2 -3.6,1.2 h -3.6 l -2.4,2.4 -3.6,1.2 -2.4,3.6 -1.2,2.4 -1.2,3.6 v 7.2 l 1.2,3.6 1.2,2.4 2.4,2.4 3.6,2.4 2.4,1.2 3.6,1.2 z" style="fill:none;stroke:#000;stroke-width:7.5;stroke-linecap:round;stroke-linejoin:round;stroke-miterlimit:10;stroke-dasharray:none;stroke-opacity:1" id="path5624"/><path d="m 3015.6,358.8 h 3.6 l 3.6,-1.2 2.4,-1.2 3.6,-2.4 1.2,-2.4 2.4,-2.4 2.4,-3.6 v -7.2 l -2.4,-3.6 -2.4,-2.4 -1.2,-3.6 -3.6,-1.2 -2.4,-2.4 h -3.6 l -3.6,-2.4 -3.6,2.4 h -3.6 l -2.4,2.4 -3.6,1.2 -2.4,3.6 -1.2,2.4 -1.2,3.6 v 7.2 l 1.2,3.6 1.2,2.4 2.4,2.4 3.6,2.4 2.4,1.2 3.6,1.2 h 3.6" style="fill:#000;fill-opacity:1;fill-rule:evenodd;stroke:none" id="path5626"/><path d="m 3015.6,358.8 h 3.6 l 3.6,-1.2 2.4,-1.2 3.6,-2.4 1.2,-2.4 2.4,-2.4 1.2,-3.6 v -7.2 l -1.2,-3.6 -2.4,-2.4 -1.2,-3.6 -3.6,-1.2 -2.4,-2.4 h -3.6 l -3.6,-1.2 -3.6,1.2 h -3.6 l -2.4,2.4 -3.6,1.2 -2.4,3.6 -1.2,2.4 -1.2,3.6 v 7.2 l 1.2,3.6 1.2,2.4 2.4,2.4 3.6,2.4 2.4,1.2 3.6,1.2 z" style="fill:none;stroke:#000;stroke-width:7.5;stroke-linecap:round;stroke-linejoin:round;stroke-miterlimit:10;stroke-dasharray:none;stroke-opacity:1" id="path5628"/><path d="m 3015.6,358.8 h -3.6 l -3.6,-1.2 -2.4,-1.2 -3.6,-2.4 -2.4,-2.4 -1.2,-2.4 -1.2,-3.6 v -7.2 l 1.2,-3.6 1.2,-2.4 2.4,-3.6 3.6,-1.2 2.4,-2.4 h 3.6 l 3.6,-1.2 3.6,1.2 h 3.6 l 2.4,2.4 3.6,1.2" style="fill:none;stroke:#000;stroke-width:7.5;stroke-linecap:round;stroke-linejoin:round;stroke-miterlimit:10;stroke-dasharray:none;stroke-opacity:1" id="path5630"/><path d="m 2415.6,658.8 h 3.6 l 3.6,-1.2 2.4,-1.2 3.6,-2.4 1.2,-2.4 2.4,-2.4 2.4,-3.6 v -7.2 l -2.4,-3.6 -2.4,-2.4 -1.2,-2.4 -3.6,-2.4 -2.4,-2.4 h -3.6 l -3.6,-2.4 -3.6,2.4 h -3.6 l -2.4,2.4 -3.6,2.4 -2.4,2.4 -1.2,2.4 -1.2,3.6 v 7.2 l 1.2,3.6 1.2,2.4 2.4,2.4 3.6,2.4 2.4,1.2 3.6,1.2 h 3.6" style="fill:#000;fill-opacity:1;fill-rule:evenodd;stroke:none" id="path5632"/><path d="m 2415.6,658.8 h 3.6 l 3.6,-1.2 2.4,-1.2 3.6,-2.4 1.2,-2.4 2.4,-2.4 1.2,-3.6 v -7.2 l -1.2,-3.6 -2.4,-2.4 -1.2,-2.4 -3.6,-2.4 -2.4,-2.4 h -3.6 l -3.6,-1.2 -3.6,1.2 h -3.6 l -2.4,2.4 -3.6,2.4 -2.4,2.4 -1.2,2.4 -1.2,3.6 v 7.2 l 1.2,3.6 1.2,2.4 2.4,2.4 3.6,2.4 2.4,1.2 3.6,1.2 z" style="fill:none;stroke:#000;stroke-width:7.5;stroke-linecap:round;stroke-linejoin:round;stroke-miterlimit:10;stroke-dasharray:none;stroke-opacity:1" id="path5634"/><path d="m 2415.6,658.8 h 3.6 l 3.6,-1.2 2.4,-1.2 3.6,-2.4 1.2,-2.4 2.4,-2.4 1.2,-3.6 v -7.2 l -1.2,-3.6 -2.4,-2.4 -1.2,-2.4 -3.6,-2.4 -2.4,-2.4 h -3.6 l -3.6,-1.2 -3.6,1.2 h -3.6 l -2.4,2.4 -3.6,2.4 -2.4,2.4 -1.2,2.4 -1.2,3.6 v 7.2 l 1.2,3.6 1.2,2.4 2.4,2.4 3.6,2.4 2.4,1.2 3.6,1.2 z" style="fill:none;stroke:#000;stroke-width:7.5;stroke-linecap:round;stroke-linejoin:round;stroke-miterlimit:10;stroke-dasharray:none;stroke-opacity:1" id="path5636"/><path d="m 2715.6,658.8 h 3.6 l 3.6,-1.2 2.4,-1.2 3.6,-2.4 1.2,-2.4 2.4,-2.4 2.4,-3.6 v -7.2 l -2.4,-3.6 -2.4,-2.4 -1.2,-2.4 -3.6,-2.4 -2.4,-2.4 h -3.6 l -3.6,-2.4 -3.6,2.4 h -3.6 l -2.4,2.4 -3.6,2.4 -2.4,2.4 -1.2,2.4 -1.2,3.6 v 7.2 l 1.2,3.6 1.2,2.4 2.4,2.4 3.6,2.4 2.4,1.2 3.6,1.2 h 3.6" style="fill:#000;fill-opacity:1;fill-rule:evenodd;stroke:none" id="path5638"/><path d="m 2715.6,658.8 h 3.6 l 3.6,-1.2 2.4,-1.2 3.6,-2.4 1.2,-2.4 2.4,-2.4 1.2,-3.6 v -7.2 l -1.2,-3.6 -2.4,-2.4 -1.2,-2.4 -3.6,-2.4 -2.4,-2.4 h -3.6 l -3.6,-1.2 -3.6,1.2 h -3.6 l -2.4,2.4 -3.6,2.4 -2.4,2.4 -1.2,2.4 -1.2,3.6 v 7.2 l 1.2,3.6 1.2,2.4 2.4,2.4 3.6,2.4 2.4,1.2 3.6,1.2 z" style="fill:none;stroke:#000;stroke-width:7.5;stroke-linecap:round;stroke-linejoin:round;stroke-miterlimit:10;stroke-dasharray:none;stroke-opacity:1" id="path5640"/><path d="m 2715.6,658.8 h 3.6 l 3.6,-1.2 2.4,-1.2 3.6,-2.4 1.2,-2.4 2.4,-2.4 1.2,-3.6 v -7.2 l -1.2,-3.6 -2.4,-2.4 -1.2,-2.4 -3.6,-2.4 -2.4,-2.4 h -3.6 l -3.6,-1.2 -3.6,1.2 h -3.6 l -2.4,2.4 -3.6,2.4 -2.4,2.4 -1.2,2.4 -1.2,3.6 v 7.2 l 1.2,3.6 1.2,2.4 2.4,2.4 3.6,2.4 2.4,1.2 3.6,1.2 z" style="fill:none;stroke:#000;stroke-width:7.5;stroke-linecap:round;stroke-linejoin:round;stroke-miterlimit:10;stroke-dasharray:none;stroke-opacity:1" id="path5642"/><path d="m 3015.6,658.8 h 3.6 l 3.6,-1.2 2.4,-1.2 3.6,-2.4 1.2,-2.4 2.4,-2.4 2.4,-3.6 v -7.2 l -2.4,-3.6 -2.4,-2.4 -1.2,-3.6 -3.6,-1.2 -2.4,-2.4 h -3.6 l -3.6,-2.4 -3.6,2.4 h -3.6 l -2.4,2.4 -3.6,1.2 -2.4,3.6 -1.2,2.4 -1.2,3.6 v 7.2 l 1.2,3.6 1.2,2.4 2.4,2.4 3.6,2.4 2.4,1.2 3.6,1.2 h 3.6" style="fill:#000;fill-opacity:1;fill-rule:evenodd;stroke:none" id="path5644"/><path d="m 3015.6,658.8 h 3.6 l 3.6,-1.2 2.4,-1.2 3.6,-2.4 1.2,-2.4 2.4,-2.4 1.2,-3.6 v -7.2 l -1.2,-3.6 -2.4,-2.4 -1.2,-3.6 -3.6,-1.2 -2.4,-2.4 h -3.6 l -3.6,-1.2 -3.6,1.2 h -3.6 l -2.4,2.4 -3.6,1.2 -2.4,3.6 -1.2,2.4 -1.2,3.6 v 7.2 l 1.2,3.6 1.2,2.4 2.4,2.4 3.6,2.4 2.4,1.2 3.6,1.2 z" style="fill:none;stroke:#000;stroke-width:7.5;stroke-linecap:round;stroke-linejoin:round;stroke-miterlimit:10;stroke-dasharray:none;stroke-opacity:1" id="path5646"/><path d="m 3015.6,658.8 h 3.6 l 3.6,-1.2 2.4,-1.2 3.6,-2.4 1.2,-2.4 2.4,-2.4 1.2,-3.6 v -7.2 l -1.2,-3.6 -2.4,-2.4 -1.2,-3.6 -3.6,-1.2 -2.4,-2.4 h -3.6 l -3.6,-1.2 -3.6,1.2 h -3.6 l -2.4,2.4 -3.6,1.2 -2.4,3.6 -1.2,2.4 -1.2,3.6 v 7.2 l 1.2,3.6 1.2,2.4 2.4,2.4 3.6,2.4 2.4,1.2 3.6,1.2 z" style="fill:none;stroke:#000;stroke-width:7.5;stroke-linecap:round;stroke-linejoin:round;stroke-miterlimit:10;stroke-dasharray:none;stroke-opacity:1" id="path5648"/><path d="m 2415.6,957.6 h 3.6 l 3.6,-1.2 2.4,-1.2 3.6,-2.4 1.2,-2.4 2.4,-2.4 2.4,-3.6 v -7.2 l -2.4,-3.6 -2.4,-2.4 -1.2,-2.4 -3.6,-2.4 -2.4,-2.4 h -3.6 l -3.6,-2.4 -3.6,2.4 h -3.6 l -2.4,2.4 -3.6,2.4 -2.4,2.4 -1.2,2.4 -1.2,3.6 v 7.2 l 1.2,3.6 1.2,2.4 2.4,2.4 3.6,2.4 2.4,1.2 3.6,1.2 h 3.6" style="fill:#000;fill-opacity:1;fill-rule:evenodd;stroke:none" id="path5650"/><path d="m 2415.6,957.6 h 3.6 l 3.6,-1.2 2.4,-1.2 3.6,-2.4 1.2,-2.4 2.4,-2.4 1.2,-3.6 v -7.2 l -1.2,-3.6 -2.4,-2.4 -1.2,-2.4 -3.6,-2.4 -2.4,-2.4 h -3.6 l -3.6,-1.2 -3.6,1.2 h -3.6 l -2.4,2.4 -3.6,2.4 -2.4,2.4 -1.2,2.4 -1.2,3.6 v 7.2 l 1.2,3.6 1.2,2.4 2.4,2.4 3.6,2.4 2.4,1.2 3.6,1.2 z" style="fill:none;stroke:#000;stroke-width:7.5;stroke-linecap:round;stroke-linejoin:round;stroke-miterlimit:10;stroke-dasharray:none;stroke-opacity:1" id="path5652"/><path d="m 2415.6,957.6 h 3.6 l 3.6,-1.2 2.4,-1.2 3.6,-2.4 1.2,-2.4 2.4,-2.4 1.2,-3.6 v -7.2 l -1.2,-3.6 -2.4,-2.4 -1.2,-2.4 -3.6,-2.4 -2.4,-2.4 h -3.6 l -3.6,-1.2 -3.6,1.2 h -3.6 l -2.4,2.4 -3.6,2.4 -2.4,2.4 -1.2,2.4 -1.2,3.6 v 7.2 l 1.2,3.6 1.2,2.4 2.4,2.4 3.6,2.4 2.4,1.2 3.6,1.2 z" style="fill:none;stroke:#000;stroke-width:7.5;stroke-linecap:round;stroke-linejoin:round;stroke-miterlimit:10;stroke-dasharray:none;stroke-opacity:1" id="path5654"/><path d="m 2715.6,957.6 h 3.6 l 3.6,-1.2 2.4,-1.2 3.6,-2.4 1.2,-2.4 2.4,-2.4 2.4,-3.6 v -7.2 l -2.4,-3.6 -2.4,-2.4 -1.2,-2.4 -3.6,-2.4 -2.4,-2.4 h -3.6 l -3.6,-2.4 -3.6,2.4 h -3.6 l -2.4,2.4 -3.6,2.4 -2.4,2.4 -1.2,2.4 -1.2,3.6 v 7.2 l 1.2,3.6 1.2,2.4 2.4,2.4 3.6,2.4 2.4,1.2 3.6,1.2 h 3.6" style="fill:#000;fill-opacity:1;fill-rule:evenodd;stroke:none" id="path5656"/><path d="m 2715.6,957.6 h 3.6 l 3.6,-1.2 2.4,-1.2 3.6,-2.4 1.2,-2.4 2.4,-2.4 1.2,-3.6 v -7.2 l -1.2,-3.6 -2.4,-2.4 -1.2,-2.4 -3.6,-2.4 -2.4,-2.4 h -3.6 l -3.6,-1.2 -3.6,1.2 h -3.6 l -2.4,2.4 -3.6,2.4 -2.4,2.4 -1.2,2.4 -1.2,3.6 v 7.2 l 1.2,3.6 1.2,2.4 2.4,2.4 3.6,2.4 2.4,1.2 3.6,1.2 z" style="fill:none;stroke:#000;stroke-width:7.5;stroke-linecap:round;stroke-linejoin:round;stroke-miterlimit:10;stroke-dasharray:none;stroke-opacity:1" id="path5658"/><path d="m 2715.6,957.6 h 3.6 l 3.6,-1.2 2.4,-1.2 3.6,-2.4 1.2,-2.4 2.4,-2.4 1.2,-3.6 v -7.2 l -1.2,-3.6 -2.4,-2.4 -1.2,-2.4 -3.6,-2.4 -2.4,-2.4 h -3.6 l -3.6,-1.2 -3.6,1.2 h -3.6 l -2.4,2.4 -3.6,2.4 -2.4,2.4 -1.2,2.4 -1.2,3.6 v 7.2 l 1.2,3.6 1.2,2.4 2.4,2.4 3.6,2.4 2.4,1.2 3.6,1.2 z" style="fill:none;stroke:#000;stroke-width:7.5;stroke-linecap:round;stroke-linejoin:round;stroke-miterlimit:10;stroke-dasharray:none;stroke-opacity:1" id="path5660"/><path d="m 3015.6,957.6 h 3.6 l 3.6,-1.2 2.4,-1.2 3.6,-2.4 1.2,-2.4 2.4,-2.4 2.4,-3.6 v -7.2 l -2.4,-3.6 -2.4,-2.4 -1.2,-3.6 -3.6,-1.2 -2.4,-2.4 h -3.6 l -3.6,-2.4 -3.6,2.4 h -3.6 l -2.4,2.4 -3.6,1.2 -2.4,3.6 -1.2,2.4 -1.2,3.6 v 7.2 l 1.2,3.6 1.2,2.4 2.4,2.4 3.6,2.4 2.4,1.2 3.6,1.2 h 3.6" style="fill:#000;fill-opacity:1;fill-rule:evenodd;stroke:none" id="path5662"/><path d="m 3015.6,957.6 h 3.6 l 3.6,-1.2 2.4,-1.2 3.6,-2.4 1.2,-2.4 2.4,-2.4 1.2,-3.6 v -7.2 l -1.2,-3.6 -2.4,-2.4 -1.2,-3.6 -3.6,-1.2 -2.4,-2.4 h -3.6 l -3.6,-1.2 -3.6,1.2 h -3.6 l -2.4,2.4 -3.6,1.2 -2.4,3.6 -1.2,2.4 -1.2,3.6 v 7.2 l 1.2,3.6 1.2,2.4 2.4,2.4 3.6,2.4 2.4,1.2 3.6,1.2 z" style="fill:none;stroke:#000;stroke-width:7.5;stroke-linecap:round;stroke-linejoin:round;stroke-miterlimit:10;stroke-dasharray:none;stroke-opacity:1" id="path5664"/><path d="m 3015.6,957.6 h 3.6 l 3.6,-1.2 2.4,-1.2 3.6,-2.4 1.2,-2.4 2.4,-2.4 1.2,-3.6 v -7.2 l -1.2,-3.6 -2.4,-2.4 -1.2,-3.6 -3.6,-1.2 -2.4,-2.4 h -3.6 l -3.6,-1.2 -3.6,1.2 h -3.6 l -2.4,2.4 -3.6,1.2 -2.4,3.6 -1.2,2.4 -1.2,3.6 v 7.2 l 1.2,3.6 1.2,2.4 2.4,2.4 3.6,2.4 2.4,1.2 3.6,1.2 z" style="fill:none;stroke:#000;stroke-width:7.5;stroke-linecap:round;stroke-linejoin:round;stroke-miterlimit:10;stroke-dasharray:none;stroke-opacity:1" id="path5666"/><path d="m 2415.6,1257.6 h 3.6 l 3.6,-1.2 2.4,-1.2 3.6,-2.4 1.2,-2.4 2.4,-2.4 2.4,-3.6 v -7.2 l -2.4,-3.6 -2.4,-2.4 -1.2,-2.4 -3.6,-2.4 -2.4,-2.4 h -3.6 l -3.6,-2.4 -3.6,2.4 h -3.6 l -2.4,2.4 -3.6,2.4 -2.4,2.4 -1.2,2.4 -1.2,3.6 v 7.2 l 1.2,3.6 1.2,2.4 2.4,2.4 3.6,2.4 2.4,1.2 3.6,1.2 h 3.6" style="fill:#000;fill-opacity:1;fill-rule:evenodd;stroke:none" id="path5668"/><path d="m 2415.6,1257.6 h 3.6 l 3.6,-1.2 2.4,-1.2 3.6,-2.4 1.2,-2.4 2.4,-2.4 1.2,-3.6 v -7.2 l -1.2,-3.6 -2.4,-2.4 -1.2,-2.4 -3.6,-2.4 -2.4,-2.4 h -3.6 l -3.6,-1.2 -3.6,1.2 h -3.6 l -2.4,2.4 -3.6,2.4 -2.4,2.4 -1.2,2.4 -1.2,3.6 v 7.2 l 1.2,3.6 1.2,2.4 2.4,2.4 3.6,2.4 2.4,1.2 3.6,1.2 z" style="fill:none;stroke:#000;stroke-width:7.5;stroke-linecap:round;stroke-linejoin:round;stroke-miterlimit:10;stroke-dasharray:none;stroke-opacity:1" id="path5670"/><path d="m 2415.6,1257.6 h 3.6 l 3.6,-1.2 2.4,-1.2 3.6,-2.4 1.2,-2.4 2.4,-2.4 1.2,-3.6 v -7.2 l -1.2,-3.6 -2.4,-2.4 -1.2,-2.4 -3.6,-2.4 -2.4,-2.4 h -3.6 l -3.6,-1.2 -3.6,1.2 h -3.6 l -2.4,2.4 -3.6,2.4 -2.4,2.4 -1.2,2.4 -1.2,3.6 v 7.2 l 1.2,3.6 1.2,2.4 2.4,2.4 3.6,2.4 2.4,1.2 3.6,1.2 z" style="fill:none;stroke:#000;stroke-width:7.5;stroke-linecap:round;stroke-linejoin:round;stroke-miterlimit:10;stroke-dasharray:none;stroke-opacity:1" id="path5672"/><path d="m 2715.6,1257.6 h 3.6 l 3.6,-1.2 2.4,-1.2 3.6,-2.4 1.2,-2.4 2.4,-2.4 2.4,-3.6 v -7.2 l -2.4,-3.6 -2.4,-2.4 -1.2,-2.4 -3.6,-2.4 -2.4,-2.4 h -3.6 l -3.6,-2.4 -3.6,2.4 h -3.6 l -2.4,2.4 -3.6,2.4 -2.4,2.4 -1.2,2.4 -1.2,3.6 v 7.2 l 1.2,3.6 1.2,2.4 2.4,2.4 3.6,2.4 2.4,1.2 3.6,1.2 h 3.6" style="fill:#000;fill-opacity:1;fill-rule:evenodd;stroke:none" id="path5674"/><path d="m 2715.6,1257.6 h 3.6 l 3.6,-1.2 2.4,-1.2 3.6,-2.4 1.2,-2.4 2.4,-2.4 1.2,-3.6 v -7.2 l -1.2,-3.6 -2.4,-2.4 -1.2,-2.4 -3.6,-2.4 -2.4,-2.4 h -3.6 l -3.6,-1.2 -3.6,1.2 h -3.6 l -2.4,2.4 -3.6,2.4 -2.4,2.4 -1.2,2.4 -1.2,3.6 v 7.2 l 1.2,3.6 1.2,2.4 2.4,2.4 3.6,2.4 2.4,1.2 3.6,1.2 z" style="fill:none;stroke:#000;stroke-width:7.5;stroke-linecap:round;stroke-linejoin:round;stroke-miterlimit:10;stroke-dasharray:none;stroke-opacity:1" id="path5676"/><path d="m 2715.6,1257.6 h 3.6 l 3.6,-1.2 2.4,-1.2 3.6,-2.4 1.2,-2.4 2.4,-2.4 1.2,-3.6 v -7.2 l -1.2,-3.6 -2.4,-2.4 -1.2,-2.4 -3.6,-2.4 -2.4,-2.4 h -3.6 l -3.6,-1.2 -3.6,1.2 h -3.6 l -2.4,2.4 -3.6,2.4 -2.4,2.4 -1.2,2.4 -1.2,3.6 v 7.2 l 1.2,3.6 1.2,2.4 2.4,2.4 3.6,2.4 2.4,1.2 3.6,1.2 z" style="fill:none;stroke:#000;stroke-width:7.5;stroke-linecap:round;stroke-linejoin:round;stroke-miterlimit:10;stroke-dasharray:none;stroke-opacity:1" id="path5678"/><path d="m 3015.6,1257.6 h 3.6 l 3.6,-1.2 2.4,-1.2 3.6,-2.4 1.2,-2.4 2.4,-2.4 2.4,-3.6 v -7.2 l -2.4,-3.6 -2.4,-2.4 -1.2,-3.6 -3.6,-1.2 -2.4,-2.4 h -3.6 l -3.6,-2.4 -3.6,2.4 h -3.6 l -2.4,2.4 -3.6,1.2 -2.4,3.6 -1.2,2.4 -1.2,3.6 v 7.2 l 1.2,3.6 1.2,2.4 2.4,2.4 3.6,2.4 2.4,1.2 3.6,1.2 h 3.6" style="fill:#000;fill-opacity:1;fill-rule:evenodd;stroke:none" id="path5680"/><path d="m 3015.6,1257.6 h 3.6 l 3.6,-1.2 2.4,-1.2 3.6,-2.4 1.2,-2.4 2.4,-2.4 1.2,-3.6 v -7.2 l -1.2,-3.6 -2.4,-2.4 -1.2,-3.6 -3.6,-1.2 -2.4,-2.4 h -3.6 l -3.6,-1.2 -3.6,1.2 h -3.6 l -2.4,2.4 -3.6,1.2 -2.4,3.6 -1.2,2.4 -1.2,3.6 v 7.2 l 1.2,3.6 1.2,2.4 2.4,2.4 3.6,2.4 2.4,1.2 3.6,1.2 z" style="fill:none;stroke:#000;stroke-width:7.5;stroke-linecap:round;stroke-linejoin:round;stroke-miterlimit:10;stroke-dasharray:none;stroke-opacity:1" id="path5682"/><path d="m 3015.6,1257.6 h 3.6 l 3.6,-1.2 2.4,-1.2 3.6,-2.4 1.2,-2.4 2.4,-2.4 1.2,-3.6 v -7.2 l -1.2,-3.6 -2.4,-2.4 -1.2,-3.6 -3.6,-1.2 -2.4,-2.4 h -3.6 l -3.6,-1.2 -3.6,1.2 h -3.6 l -2.4,2.4 -3.6,1.2 -2.4,3.6 -1.2,2.4 -1.2,3.6 v 7.2 l 1.2,3.6 1.2,2.4 2.4,2.4 3.6,2.4 2.4,1.2 3.6,1.2 z" style="fill:none;stroke:#000;stroke-width:7.5;stroke-linecap:round;stroke-linejoin:round;stroke-miterlimit:10;stroke-dasharray:none;stroke-opacity:1" id="path5684"/><path d="m 2415.6,358.8 h 3.6 l 3.6,-1.2 2.4,-1.2 3.6,-2.4 1.2,-2.4 2.4,-2.4 2.4,-3.6 v -7.2 l -2.4,-3.6 -2.4,-2.4 -1.2,-3.6 -3.6,-1.2 -2.4,-2.4 h -3.6 l -3.6,-2.4 -3.6,2.4 h -3.6 l -2.4,2.4 -3.6,1.2 -2.4,3.6 -1.2,2.4 -1.2,3.6 v 7.2 l 1.2,3.6 1.2,2.4 2.4,2.4 3.6,2.4 2.4,1.2 3.6,1.2 h 3.6" style="fill:#000;fill-opacity:1;fill-rule:evenodd;stroke:none" id="path5686"/><path d="m 2415.6,358.8 h 3.6 l 3.6,-1.2 2.4,-1.2 3.6,-2.4 1.2,-2.4 2.4,-2.4 1.2,-3.6 v -7.2 l -1.2,-3.6 -2.4,-2.4 -1.2,-3.6 -3.6,-1.2 -2.4,-2.4 h -3.6 l -3.6,-1.2 -3.6,1.2 h -3.6 l -2.4,2.4 -3.6,1.2 -2.4,3.6 -1.2,2.4 -1.2,3.6 v 7.2 l 1.2,3.6 1.2,2.4 2.4,2.4 3.6,2.4 2.4,1.2 3.6,1.2 z" style="fill:none;stroke:#000;stroke-width:7.5;stroke-linecap:round;stroke-linejoin:round;stroke-miterlimit:10;stroke-dasharray:none;stroke-opacity:1" id="path5688"/><path d="m 2415.6,358.8 h 3.6 l 3.6,-1.2 2.4,-1.2 3.6,-2.4 1.2,-2.4 2.4,-2.4 1.2,-3.6 v -7.2 l -1.2,-3.6 -2.4,-2.4 -1.2,-3.6 -3.6,-1.2 -2.4,-2.4 h -3.6 l -3.6,-1.2 -3.6,1.2 h -3.6 l -2.4,2.4 -3.6,1.2 -2.4,3.6 -1.2,2.4 -1.2,3.6 v 7.2 l 1.2,3.6 1.2,2.4 2.4,2.4 3.6,2.4 2.4,1.2 3.6,1.2 z" style="fill:none;stroke:#000;stroke-width:7.5;stroke-linecap:round;stroke-linejoin:round;stroke-miterlimit:10;stroke-dasharray:none;stroke-opacity:1" id="path5690"/><path d="m 2715.6,358.8 h 3.6 l 3.6,-1.2 2.4,-1.2 3.6,-2.4 1.2,-2.4 2.4,-2.4 2.4,-3.6 v -7.2 l -2.4,-3.6 -2.4,-2.4 -1.2,-3.6 -3.6,-1.2 -2.4,-2.4 h -3.6 l -3.6,-2.4 -3.6,2.4 h -3.6 l -2.4,2.4 -3.6,1.2 -2.4,3.6 -1.2,2.4 -1.2,3.6 v 7.2 l 1.2,3.6 1.2,2.4 2.4,2.4 3.6,2.4 2.4,1.2 3.6,1.2 h 3.6" style="fill:#000;fill-opacity:1;fill-rule:evenodd;stroke:none" id="path5692"/><path d="m 2715.6,358.8 h 3.6 l 3.6,-1.2 2.4,-1.2 3.6,-2.4 1.2,-2.4 2.4,-2.4 1.2,-3.6 v -7.2 l -1.2,-3.6 -2.4,-2.4 -1.2,-3.6 -3.6,-1.2 -2.4,-2.4 h -3.6 l -3.6,-1.2 -3.6,1.2 h -3.6 l -2.4,2.4 -3.6,1.2 -2.4,3.6 -1.2,2.4 -1.2,3.6 v 7.2 l 1.2,3.6 1.2,2.4 2.4,2.4 3.6,2.4 2.4,1.2 3.6,1.2 z" style="fill:none;stroke:#000;stroke-width:7.5;stroke-linecap:round;stroke-linejoin:round;stroke-miterlimit:10;stroke-dasharray:none;stroke-opacity:1" id="path5694"/><path d="m 2715.6,358.8 h 3.6 l 3.6,-1.2 2.4,-1.2 3.6,-2.4 1.2,-2.4 2.4,-2.4 1.2,-3.6 v -7.2 l -1.2,-3.6 -2.4,-2.4 -1.2,-3.6 -3.6,-1.2 -2.4,-2.4 h -3.6 l -3.6,-1.2 -3.6,1.2 h -3.6 l -2.4,2.4 -3.6,1.2 -2.4,3.6 -1.2,2.4 -1.2,3.6 v 7.2 l 1.2,3.6 1.2,2.4 2.4,2.4 3.6,2.4 2.4,1.2 3.6,1.2 z" style="fill:none;stroke:#000;stroke-width:7.5;stroke-linecap:round;stroke-linejoin:round;stroke-miterlimit:10;stroke-dasharray:none;stroke-opacity:1" id="path5696"/><path d="m 3015.6,358.8 h 3.6 l 3.6,-1.2 2.4,-1.2 3.6,-2.4 1.2,-2.4 2.4,-2.4 2.4,-3.6 v -7.2 l -2.4,-3.6 -2.4,-2.4 -1.2,-3.6 -3.6,-1.2 -2.4,-2.4 h -3.6 l -3.6,-2.4 -3.6,2.4 h -3.6 l -2.4,2.4 -3.6,1.2 -2.4,3.6 -1.2,2.4 -1.2,3.6 v 7.2 l 1.2,3.6 1.2,2.4 2.4,2.4 3.6,2.4 2.4,1.2 3.6,1.2 h 3.6" style="fill:#000;fill-opacity:1;fill-rule:evenodd;stroke:none" id="path5698"/><path d="m 3015.6,358.8 h 3.6 l 3.6,-1.2 2.4,-1.2 3.6,-2.4 1.2,-2.4 2.4,-2.4 1.2,-3.6 v -7.2 l -1.2,-3.6 -2.4,-2.4 -1.2,-3.6 -3.6,-1.2 -2.4,-2.4 h -3.6 l -3.6,-1.2 -3.6,1.2 h -3.6 l -2.4,2.4 -3.6,1.2 -2.4,3.6 -1.2,2.4 -1.2,3.6 v 7.2 l 1.2,3.6 1.2,2.4 2.4,2.4 3.6,2.4 2.4,1.2 3.6,1.2 z" style="fill:none;stroke:#000;stroke-width:7.5;stroke-linecap:round;stroke-linejoin:round;stroke-miterlimit:10;stroke-dasharray:none;stroke-opacity:1" id="path5700"/><path d="m 3015.6,358.8 h 3.6 l 3.6,-1.2 2.4,-1.2 3.6,-2.4 1.2,-2.4 2.4,-2.4 1.2,-3.6 v -7.2 l -1.2,-3.6 -2.4,-2.4 -1.2,-3.6 -3.6,-1.2 -2.4,-2.4 h -3.6 l -3.6,-1.2 -3.6,1.2 h -3.6 l -2.4,2.4 -3.6,1.2 -2.4,3.6 -1.2,2.4 -1.2,3.6 v 7.2 l 1.2,3.6 1.2,2.4 2.4,2.4 3.6,2.4 2.4,1.2 3.6,1.2 z" style="fill:none;stroke:#000;stroke-width:7.5;stroke-linecap:round;stroke-linejoin:round;stroke-miterlimit:10;stroke-dasharray:none;stroke-opacity:1" id="path5702"/><path d="m 2415.6,658.8 h 3.6 l 3.6,-1.2 2.4,-1.2 3.6,-2.4 1.2,-2.4 2.4,-2.4 2.4,-3.6 v -7.2 l -2.4,-3.6 -2.4,-2.4 -1.2,-2.4 -3.6,-2.4 -2.4,-2.4 h -3.6 l -3.6,-2.4 -3.6,2.4 h -3.6 l -2.4,2.4 -3.6,2.4 -2.4,2.4 -1.2,2.4 -1.2,3.6 v 7.2 l 1.2,3.6 1.2,2.4 2.4,2.4 3.6,2.4 2.4,1.2 3.6,1.2 h 3.6" style="fill:#000;fill-opacity:1;fill-rule:evenodd;stroke:none" id="path5704"/><path d="m 2415.6,658.8 h 3.6 l 3.6,-1.2 2.4,-1.2 3.6,-2.4 1.2,-2.4 2.4,-2.4 1.2,-3.6 v -7.2 l -1.2,-3.6 -2.4,-2.4 -1.2,-2.4 -3.6,-2.4 -2.4,-2.4 h -3.6 l -3.6,-1.2 -3.6,1.2 h -3.6 l -2.4,2.4 -3.6,2.4 -2.4,2.4 -1.2,2.4 -1.2,3.6 v 7.2 l 1.2,3.6 1.2,2.4 2.4,2.4 3.6,2.4 2.4,1.2 3.6,1.2 z" style="fill:none;stroke:#000;stroke-width:7.5;stroke-linecap:round;stroke-linejoin:round;stroke-miterlimit:10;stroke-dasharray:none;stroke-opacity:1" id="path5706"/><path d="m 2415.6,658.8 h 3.6 l 3.6,-1.2 2.4,-1.2 3.6,-2.4 1.2,-2.4 2.4,-2.4 1.2,-3.6 v -7.2 l -1.2,-3.6 -2.4,-2.4 -1.2,-2.4 -3.6,-2.4 -2.4,-2.4 h -3.6 l -3.6,-1.2 -3.6,1.2 h -3.6 l -2.4,2.4 -3.6,2.4 -2.4,2.4 -1.2,2.4 -1.2,3.6 v 7.2 l 1.2,3.6 1.2,2.4 2.4,2.4 3.6,2.4 2.4,1.2 3.6,1.2 z" style="fill:none;stroke:#000;stroke-width:7.5;stroke-linecap:round;stroke-linejoin:round;stroke-miterlimit:10;stroke-dasharray:none;stroke-opacity:1" id="path5708"/><path d="m 2715.6,658.8 h 3.6 l 3.6,-1.2 2.4,-1.2 3.6,-2.4 1.2,-2.4 2.4,-2.4 2.4,-3.6 v -7.2 l -2.4,-3.6 -2.4,-2.4 -1.2,-2.4 -3.6,-2.4 -2.4,-2.4 h -3.6 l -3.6,-2.4 -3.6,2.4 h -3.6 l -2.4,2.4 -3.6,2.4 -2.4,2.4 -1.2,2.4 -1.2,3.6 v 7.2 l 1.2,3.6 1.2,2.4 2.4,2.4 3.6,2.4 2.4,1.2 3.6,1.2 h 3.6" style="fill:#000;fill-opacity:1;fill-rule:evenodd;stroke:none" id="path5710"/><path d="m 2715.6,658.8 h 3.6 l 3.6,-1.2 2.4,-1.2 3.6,-2.4 1.2,-2.4 2.4,-2.4 1.2,-3.6 v -7.2 l -1.2,-3.6 -2.4,-2.4 -1.2,-2.4 -3.6,-2.4 -2.4,-2.4 h -3.6 l -3.6,-1.2 -3.6,1.2 h -3.6 l -2.4,2.4 -3.6,2.4 -2.4,2.4 -1.2,2.4 -1.2,3.6 v 7.2 l 1.2,3.6 1.2,2.4 2.4,2.4 3.6,2.4 2.4,1.2 3.6,1.2 z" style="fill:none;stroke:#000;stroke-width:7.5;stroke-linecap:round;stroke-linejoin:round;stroke-miterlimit:10;stroke-dasharray:none;stroke-opacity:1" id="path5712"/><path d="m 2715.6,658.8 h 3.6 l 3.6,-1.2 2.4,-1.2 3.6,-2.4 1.2,-2.4 2.4,-2.4 1.2,-3.6 v -7.2 l -1.2,-3.6 -2.4,-2.4 -1.2,-2.4 -3.6,-2.4 -2.4,-2.4 h -3.6 l -3.6,-1.2 -3.6,1.2 h -3.6 l -2.4,2.4 -3.6,2.4 -2.4,2.4 -1.2,2.4 -1.2,3.6 v 7.2 l 1.2,3.6 1.2,2.4 2.4,2.4 3.6,2.4 2.4,1.2 3.6,1.2 z" style="fill:none;stroke:#000;stroke-width:7.5;stroke-linecap:round;stroke-linejoin:round;stroke-miterlimit:10;stroke-dasharray:none;stroke-opacity:1" id="path5714"/><path d="m 3015.6,658.8 h 3.6 l 3.6,-1.2 2.4,-1.2 3.6,-2.4 1.2,-2.4 2.4,-2.4 2.4,-3.6 v -7.2 l -2.4,-3.6 -2.4,-2.4 -1.2,-3.6 -3.6,-1.2 -2.4,-2.4 h -3.6 l -3.6,-2.4 -3.6,2.4 h -3.6 l -2.4,2.4 -3.6,1.2 -2.4,3.6 -1.2,2.4 -1.2,3.6 v 7.2 l 1.2,3.6 1.2,2.4 2.4,2.4 3.6,2.4 2.4,1.2 3.6,1.2 h 3.6" style="fill:#000;fill-opacity:1;fill-rule:evenodd;stroke:none" id="path5716"/><path d="m 3015.6,658.8 h 3.6 l 3.6,-1.2 2.4,-1.2 3.6,-2.4 1.2,-2.4 2.4,-2.4 1.2,-3.6 v -7.2 l -1.2,-3.6 -2.4,-2.4 -1.2,-3.6 -3.6,-1.2 -2.4,-2.4 h -3.6 l -3.6,-1.2 -3.6,1.2 h -3.6 l -2.4,2.4 -3.6,1.2 -2.4,3.6 -1.2,2.4 -1.2,3.6 v 7.2 l 1.2,3.6 1.2,2.4 2.4,2.4 3.6,2.4 2.4,1.2 3.6,1.2 z" style="fill:none;stroke:#000;stroke-width:7.5;stroke-linecap:round;stroke-linejoin:round;stroke-miterlimit:10;stroke-dasharray:none;stroke-opacity:1" id="path5718"/><path d="m 3015.6,658.8 h 3.6 l 3.6,-1.2 2.4,-1.2 3.6,-2.4 1.2,-2.4 2.4,-2.4 1.2,-3.6 v -7.2 l -1.2,-3.6 -2.4,-2.4 -1.2,-3.6 -3.6,-1.2 -2.4,-2.4 h -3.6 l -3.6,-1.2 -3.6,1.2 h -3.6 l -2.4,2.4 -3.6,1.2 -2.4,3.6 -1.2,2.4 -1.2,3.6 v 7.2 l 1.2,3.6 1.2,2.4 2.4,2.4 3.6,2.4 2.4,1.2 3.6,1.2 z" style="fill:none;stroke:#000;stroke-width:7.5;stroke-linecap:round;stroke-linejoin:round;stroke-miterlimit:10;stroke-dasharray:none;stroke-opacity:1" id="path5720"/><path d="m 2415.6,957.6 h 3.6 l 3.6,-1.2 2.4,-1.2 3.6,-2.4 1.2,-2.4 2.4,-2.4 2.4,-3.6 v -7.2 l -2.4,-3.6 -2.4,-2.4 -1.2,-2.4 -3.6,-2.4 -2.4,-2.4 h -3.6 l -3.6,-2.4 -3.6,2.4 h -3.6 l -2.4,2.4 -3.6,2.4 -2.4,2.4 -1.2,2.4 -1.2,3.6 v 7.2 l 1.2,3.6 1.2,2.4 2.4,2.4 3.6,2.4 2.4,1.2 3.6,1.2 h 3.6" style="fill:#000;fill-opacity:1;fill-rule:evenodd;stroke:none" id="path5722"/><path d="m 2415.6,957.6 h 3.6 l 3.6,-1.2 2.4,-1.2 3.6,-2.4 1.2,-2.4 2.4,-2.4 1.2,-3.6 v -7.2 l -1.2,-3.6 -2.4,-2.4 -1.2,-2.4 -3.6,-2.4 -2.4,-2.4 h -3.6 l -3.6,-1.2 -3.6,1.2 h -3.6 l -2.4,2.4 -3.6,2.4 -2.4,2.4 -1.2,2.4 -1.2,3.6 v 7.2 l 1.2,3.6 1.2,2.4 2.4,2.4 3.6,2.4 2.4,1.2 3.6,1.2 z" style="fill:none;stroke:#000;stroke-width:7.5;stroke-linecap:round;stroke-linejoin:round;stroke-miterlimit:10;stroke-dasharray:none;stroke-opacity:1" id="path5724"/><path d="m 2415.6,957.6 h 3.6 l 3.6,-1.2 2.4,-1.2 3.6,-2.4 1.2,-2.4 2.4,-2.4 1.2,-3.6 v -7.2 l -1.2,-3.6 -2.4,-2.4 -1.2,-2.4 -3.6,-2.4 -2.4,-2.4 h -3.6 l -3.6,-1.2 -3.6,1.2 h -3.6 l -2.4,2.4 -3.6,2.4 -2.4,2.4 -1.2,2.4 -1.2,3.6 v 7.2 l 1.2,3.6 1.2,2.4 2.4,2.4 3.6,2.4 2.4,1.2 3.6,1.2 z" style="fill:none;stroke:#000;stroke-width:7.5;stroke-linecap:round;stroke-linejoin:round;stroke-miterlimit:10;stroke-dasharray:none;stroke-opacity:1" id="path5726"/><path d="m 2715.6,957.6 h 3.6 l 3.6,-1.2 2.4,-1.2 3.6,-2.4 1.2,-2.4 2.4,-2.4 2.4,-3.6 v -7.2 l -2.4,-3.6 -2.4,-2.4 -1.2,-2.4 -3.6,-2.4 -2.4,-2.4 h -3.6 l -3.6,-2.4 -3.6,2.4 h -3.6 l -2.4,2.4 -3.6,2.4 -2.4,2.4 -1.2,2.4 -1.2,3.6 v 7.2 l 1.2,3.6 1.2,2.4 2.4,2.4 3.6,2.4 2.4,1.2 3.6,1.2 h 3.6" style="fill:#000;fill-opacity:1;fill-rule:evenodd;stroke:none" id="path5728"/><path d="m 2715.6,957.6 h 3.6 l 3.6,-1.2 2.4,-1.2 3.6,-2.4 1.2,-2.4 2.4,-2.4 1.2,-3.6 v -7.2 l -1.2,-3.6 -2.4,-2.4 -1.2,-2.4 -3.6,-2.4 -2.4,-2.4 h -3.6 l -3.6,-1.2 -3.6,1.2 h -3.6 l -2.4,2.4 -3.6,2.4 -2.4,2.4 -1.2,2.4 -1.2,3.6 v 7.2 l 1.2,3.6 1.2,2.4 2.4,2.4 3.6,2.4 2.4,1.2 3.6,1.2 z" style="fill:none;stroke:#000;stroke-width:7.5;stroke-linecap:round;stroke-linejoin:round;stroke-miterlimit:10;stroke-dasharray:none;stroke-opacity:1" id="path5730"/><path d="m 2715.6,957.6 h 3.6 l 3.6,-1.2 2.4,-1.2 3.6,-2.4 1.2,-2.4 2.4,-2.4 1.2,-3.6 v -7.2 l -1.2,-3.6 -2.4,-2.4 -1.2,-2.4 -3.6,-2.4 -2.4,-2.4 h -3.6 l -3.6,-1.2 -3.6,1.2 h -3.6 l -2.4,2.4 -3.6,2.4 -2.4,2.4 -1.2,2.4 -1.2,3.6 v 7.2 l 1.2,3.6 1.2,2.4 2.4,2.4 3.6,2.4 2.4,1.2 3.6,1.2 z" style="fill:none;stroke:#000;stroke-width:7.5;stroke-linecap:round;stroke-linejoin:round;stroke-miterlimit:10;stroke-dasharray:none;stroke-opacity:1" id="path5732"/><path d="m 3015.6,957.6 h 3.6 l 3.6,-1.2 2.4,-1.2 3.6,-2.4 1.2,-2.4 2.4,-2.4 2.4,-3.6 v -7.2 l -2.4,-3.6 -2.4,-2.4 -1.2,-3.6 -3.6,-1.2 -2.4,-2.4 h -3.6 l -3.6,-2.4 -3.6,2.4 h -3.6 l -2.4,2.4 -3.6,1.2 -2.4,3.6 -1.2,2.4 -1.2,3.6 v 7.2 l 1.2,3.6 1.2,2.4 2.4,2.4 3.6,2.4 2.4,1.2 3.6,1.2 h 3.6" style="fill:#000;fill-opacity:1;fill-rule:evenodd;stroke:none" id="path5734"/><path d="m 3015.6,957.6 h 3.6 l 3.6,-1.2 2.4,-1.2 3.6,-2.4 1.2,-2.4 2.4,-2.4 1.2,-3.6 v -7.2 l -1.2,-3.6 -2.4,-2.4 -1.2,-3.6 -3.6,-1.2 -2.4,-2.4 h -3.6 l -3.6,-1.2 -3.6,1.2 h -3.6 l -2.4,2.4 -3.6,1.2 -2.4,3.6 -1.2,2.4 -1.2,3.6 v 7.2 l 1.2,3.6 1.2,2.4 2.4,2.4 3.6,2.4 2.4,1.2 3.6,1.2 z" style="fill:none;stroke:#000;stroke-width:7.5;stroke-linecap:round;stroke-linejoin:round;stroke-miterlimit:10;stroke-dasharray:none;stroke-opacity:1" id="path5736"/><path d="m 3015.6,957.6 h 3.6 l 3.6,-1.2 2.4,-1.2 3.6,-2.4 1.2,-2.4 2.4,-2.4 1.2,-3.6 v -7.2 l -1.2,-3.6 -2.4,-2.4 -1.2,-3.6 -3.6,-1.2 -2.4,-2.4 h -3.6 l -3.6,-1.2 -3.6,1.2 h -3.6 l -2.4,2.4 -3.6,1.2 -2.4,3.6 -1.2,2.4 -1.2,3.6 v 7.2 l 1.2,3.6 1.2,2.4 2.4,2.4 3.6,2.4 2.4,1.2 3.6,1.2 z" style="fill:none;stroke:#000;stroke-width:7.5;stroke-linecap:round;stroke-linejoin:round;stroke-miterlimit:10;stroke-dasharray:none;stroke-opacity:1" id="path5738"/><path d="m 2415.6,1257.6 h 3.6 l 3.6,-1.2 2.4,-1.2 3.6,-2.4 1.2,-2.4 2.4,-2.4 2.4,-3.6 v -7.2 l -2.4,-3.6 -2.4,-2.4 -1.2,-2.4 -3.6,-2.4 -2.4,-2.4 h -3.6 l -3.6,-2.4 -3.6,2.4 h -3.6 l -2.4,2.4 -3.6,2.4 -2.4,2.4 -1.2,2.4 -1.2,3.6 v 7.2 l 1.2,3.6 1.2,2.4 2.4,2.4 3.6,2.4 2.4,1.2 3.6,1.2 h 3.6" style="fill:#000;fill-opacity:1;fill-rule:evenodd;stroke:none" id="path5740"/><path d="m 2415.6,1257.6 h 3.6 l 3.6,-1.2 2.4,-1.2 3.6,-2.4 1.2,-2.4 2.4,-2.4 1.2,-3.6 v -7.2 l -1.2,-3.6 -2.4,-2.4 -1.2,-2.4 -3.6,-2.4 -2.4,-2.4 h -3.6 l -3.6,-1.2 -3.6,1.2 h -3.6 l -2.4,2.4 -3.6,2.4 -2.4,2.4 -1.2,2.4 -1.2,3.6 v 7.2 l 1.2,3.6 1.2,2.4 2.4,2.4 3.6,2.4 2.4,1.2 3.6,1.2 z" style="fill:none;stroke:#000;stroke-width:7.5;stroke-linecap:round;stroke-linejoin:round;stroke-miterlimit:10;stroke-dasharray:none;stroke-opacity:1" id="path5742"/><path d="m 2415.6,1257.6 h 3.6 l 3.6,-1.2 2.4,-1.2 3.6,-2.4 1.2,-2.4 2.4,-2.4 1.2,-3.6 v -7.2 l -1.2,-3.6 -2.4,-2.4 -1.2,-2.4 -3.6,-2.4 -2.4,-2.4 h -3.6 l -3.6,-1.2 -3.6,1.2 h -3.6 l -2.4,2.4 -3.6,2.4 -2.4,2.4 -1.2,2.4 -1.2,3.6 v 7.2 l 1.2,3.6 1.2,2.4 2.4,2.4 3.6,2.4 2.4,1.2 3.6,1.2 z" style="fill:none;stroke:#000;stroke-width:7.5;stroke-linecap:round;stroke-linejoin:round;stroke-miterlimit:10;stroke-dasharray:none;stroke-opacity:1" id="path5744"/><path d="m 2715.6,1257.6 h 3.6 l 3.6,-1.2 2.4,-1.2 3.6,-2.4 1.2,-2.4 2.4,-2.4 2.4,-3.6 v -7.2 l -2.4,-3.6 -2.4,-2.4 -1.2,-2.4 -3.6,-2.4 -2.4,-2.4 h -3.6 l -3.6,-2.4 -3.6,2.4 h -3.6 l -2.4,2.4 -3.6,2.4 -2.4,2.4 -1.2,2.4 -1.2,3.6 v 7.2 l 1.2,3.6 1.2,2.4 2.4,2.4 3.6,2.4 2.4,1.2 3.6,1.2 h 3.6" style="fill:#000;fill-opacity:1;fill-rule:evenodd;stroke:none" id="path5746"/><path d="m 2715.6,1257.6 h 3.6 l 3.6,-1.2 2.4,-1.2 3.6,-2.4 1.2,-2.4 2.4,-2.4 1.2,-3.6 v -7.2 l -1.2,-3.6 -2.4,-2.4 -1.2,-2.4 -3.6,-2.4 -2.4,-2.4 h -3.6 l -3.6,-1.2 -3.6,1.2 h -3.6 l -2.4,2.4 -3.6,2.4 -2.4,2.4 -1.2,2.4 -1.2,3.6 v 7.2 l 1.2,3.6 1.2,2.4 2.4,2.4 3.6,2.4 2.4,1.2 3.6,1.2 z" style="fill:none;stroke:#000;stroke-width:7.5;stroke-linecap:round;stroke-linejoin:round;stroke-miterlimit:10;stroke-dasharray:none;stroke-opacity:1" id="path5748"/><path d="m 2715.6,1257.6 h 3.6 l 3.6,-1.2 2.4,-1.2 3.6,-2.4 1.2,-2.4 2.4,-2.4 1.2,-3.6 v -7.2 l -1.2,-3.6 -2.4,-2.4 -1.2,-2.4 -3.6,-2.4 -2.4,-2.4 h -3.6 l -3.6,-1.2 -3.6,1.2 h -3.6 l -2.4,2.4 -3.6,2.4 -2.4,2.4 -1.2,2.4 -1.2,3.6 v 7.2 l 1.2,3.6 1.2,2.4 2.4,2.4 3.6,2.4 2.4,1.2 3.6,1.2 z" style="fill:none;stroke:#000;stroke-width:7.5;stroke-linecap:round;stroke-linejoin:round;stroke-miterlimit:10;stroke-dasharray:none;stroke-opacity:1" id="path5750"/><path d="m 3015.6,1257.6 h 3.6 l 3.6,-1.2 2.4,-1.2 3.6,-2.4 1.2,-2.4 2.4,-2.4 2.4,-3.6 v -7.2 l -2.4,-3.6 -2.4,-2.4 -1.2,-3.6 -3.6,-1.2 -2.4,-2.4 h -3.6 l -3.6,-2.4 -3.6,2.4 h -3.6 l -2.4,2.4 -3.6,1.2 -2.4,3.6 -1.2,2.4 -1.2,3.6 v 7.2 l 1.2,3.6 1.2,2.4 2.4,2.4 3.6,2.4 2.4,1.2 3.6,1.2 h 3.6" style="fill:#000;fill-opacity:1;fill-rule:evenodd;stroke:none" id="path5752"/><path d="m 3015.6,1257.6 h 3.6 l 3.6,-1.2 2.4,-1.2 3.6,-2.4 1.2,-2.4 2.4,-2.4 1.2,-3.6 v -7.2 l -1.2,-3.6 -2.4,-2.4 -1.2,-3.6 -3.6,-1.2 -2.4,-2.4 h -3.6 l -3.6,-1.2 -3.6,1.2 h -3.6 l -2.4,2.4 -3.6,1.2 -2.4,3.6 -1.2,2.4 -1.2,3.6 v 7.2 l 1.2,3.6 1.2,2.4 2.4,2.4 3.6,2.4 2.4,1.2 3.6,1.2 z" style="fill:none;stroke:#000;stroke-width:7.5;stroke-linecap:round;stroke-linejoin:round;stroke-miterlimit:10;stroke-dasharray:none;stroke-opacity:1" id="path5754"/><path d="m 3015.6,1257.6 h 3.6 l 3.6,-1.2 2.4,-1.2 3.6,-2.4 1.2,-2.4 2.4,-2.4 1.2,-3.6 v -7.2 l -1.2,-3.6 -2.4,-2.4 -1.2,-3.6 -3.6,-1.2 -2.4,-2.4 h -3.6 l -3.6,-1.2 -3.6,1.2 h -3.6 l -2.4,2.4 -3.6,1.2 -2.4,3.6 -1.2,2.4 -1.2,3.6 v 7.2 l 1.2,3.6 1.2,2.4 2.4,2.4 3.6,2.4 2.4,1.2 3.6,1.2 z" style="fill:none;stroke:#000;stroke-width:7.5;stroke-linecap:round;stroke-linejoin:round;stroke-miterlimit:10;stroke-dasharray:none;stroke-opacity:1" id="path5756"/><path d="m 3315.6,356.4 h 3.6 l 3.6,-1.2 2.4,-1.2 3.6,-2.4 1.2,-2.4 2.4,-2.4 2.4,-3.6 V 336 l -2.4,-3.6 -2.4,-2.4 -1.2,-3.6 -3.6,-1.2 -2.4,-2.4 h -3.6 l -3.6,-2.4 -3.6,2.4 h -3.6 l -2.4,2.4 -3.6,1.2 -2.4,3.6 -1.2,2.4 -1.2,3.6 v 7.2 l 1.2,3.6 1.2,2.4 2.4,2.4 3.6,2.4 2.4,1.2 3.6,1.2 h 3.6" style="fill:#000;fill-opacity:1;fill-rule:evenodd;stroke:none" id="path5758"/><path d="m 3315.6,356.4 h 3.6 l 3.6,-1.2 2.4,-1.2 3.6,-2.4 1.2,-2.4 2.4,-2.4 1.2,-3.6 V 336 l -1.2,-3.6 -2.4,-2.4 -1.2,-3.6 -3.6,-1.2 -2.4,-2.4 h -3.6 l -3.6,-1.2 -3.6,1.2 h -3.6 l -2.4,2.4 -3.6,1.2 -2.4,3.6 -1.2,2.4 -1.2,3.6 v 7.2 l 1.2,3.6 1.2,2.4 2.4,2.4 3.6,2.4 2.4,1.2 3.6,1.2 z" style="fill:none;stroke:#000;stroke-width:7.5;stroke-linecap:round;stroke-linejoin:round;stroke-miterlimit:10;stroke-dasharray:none;stroke-opacity:1" id="path5760"/><path d="m 3315.6,356.4 h -3.6 l -3.6,-1.2 -2.4,-1.2 -3.6,-2.4 -2.4,-2.4 -1.2,-2.4 -1.2,-3.6 V 336 l 1.2,-3.6 1.2,-2.4 2.4,-3.6 3.6,-1.2 2.4,-2.4 h 3.6 l 3.6,-1.2 3.6,1.2 h 3.6 l 2.4,2.4 3.6,1.2" style="fill:none;stroke:#000;stroke-width:7.5;stroke-linecap:round;stroke-linejoin:round;stroke-miterlimit:10;stroke-dasharray:none;stroke-opacity:1" id="path5762"/><path d="m 3315.6,656.4 h 3.6 l 3.6,-1.2 2.4,-1.2 3.6,-2.4 1.2,-2.4 2.4,-2.4 2.4,-3.6 V 636 l -2.4,-3.6 -2.4,-2.4 -1.2,-3.6 -3.6,-1.2 -2.4,-2.4 h -3.6 l -3.6,-2.4 -3.6,2.4 h -3.6 l -2.4,2.4 -3.6,1.2 -2.4,3.6 -1.2,2.4 -1.2,3.6 v 7.2 l 1.2,3.6 1.2,2.4 2.4,2.4 3.6,2.4 2.4,1.2 3.6,1.2 h 3.6" style="fill:#000;fill-opacity:1;fill-rule:evenodd;stroke:none" id="path5764"/><path d="m 3315.6,656.4 h 3.6 l 3.6,-1.2 2.4,-1.2 3.6,-2.4 1.2,-2.4 2.4,-2.4 1.2,-3.6 V 636 l -1.2,-3.6 -2.4,-2.4 -1.2,-3.6 -3.6,-1.2 -2.4,-2.4 h -3.6 l -3.6,-1.2 -3.6,1.2 h -3.6 l -2.4,2.4 -3.6,1.2 -2.4,3.6 -1.2,2.4 -1.2,3.6 v 7.2 l 1.2,3.6 1.2,2.4 2.4,2.4 3.6,2.4 2.4,1.2 3.6,1.2 z" style="fill:none;stroke:#000;stroke-width:7.5;stroke-linecap:round;stroke-linejoin:round;stroke-miterlimit:10;stroke-dasharray:none;stroke-opacity:1" id="path5766"/><path d="m 3315.6,656.4 h 3.6 l 3.6,-1.2 2.4,-1.2 3.6,-2.4 1.2,-2.4 2.4,-2.4 1.2,-3.6 V 636 l -1.2,-3.6 -2.4,-2.4 -1.2,-3.6 -3.6,-1.2 -2.4,-2.4 h -3.6 l -3.6,-1.2 -3.6,1.2 h -3.6 l -2.4,2.4 -3.6,1.2 -2.4,3.6 -1.2,2.4 -1.2,3.6 v 7.2 l 1.2,3.6 1.2,2.4 2.4,2.4 3.6,2.4 2.4,1.2 3.6,1.2 z" style="fill:none;stroke:#000;stroke-width:7.5;stroke-linecap:round;stroke-linejoin:round;stroke-miterlimit:10;stroke-dasharray:none;stroke-opacity:1" id="path5768"/><path d="m 3315.6,955.2 h 3.6 l 3.6,-1.2 2.4,-1.2 3.6,-2.4 1.2,-2.4 2.4,-2.4 2.4,-3.6 v -7.2 l -2.4,-3.6 -2.4,-2.4 -1.2,-3.6 -3.6,-1.2 -2.4,-2.4 h -3.6 l -3.6,-2.4 -3.6,2.4 h -3.6 l -2.4,2.4 -3.6,1.2 -2.4,3.6 -1.2,2.4 -1.2,3.6 v 7.2 l 1.2,3.6 1.2,2.4 2.4,2.4 3.6,2.4 2.4,1.2 3.6,1.2 h 3.6" style="fill:#000;fill-opacity:1;fill-rule:evenodd;stroke:none" id="path5770"/><path d="m 3315.6,955.2 h 3.6 l 3.6,-1.2 2.4,-1.2 3.6,-2.4 1.2,-2.4 2.4,-2.4 1.2,-3.6 v -7.2 l -1.2,-3.6 -2.4,-2.4 -1.2,-3.6 -3.6,-1.2 -2.4,-2.4 h -3.6 l -3.6,-1.2 -3.6,1.2 h -3.6 l -2.4,2.4 -3.6,1.2 -2.4,3.6 -1.2,2.4 -1.2,3.6 v 7.2 l 1.2,3.6 1.2,2.4 2.4,2.4 3.6,2.4 2.4,1.2 3.6,1.2 z" style="fill:none;stroke:#000;stroke-width:7.5;stroke-linecap:round;stroke-linejoin:round;stroke-miterlimit:10;stroke-dasharray:none;stroke-opacity:1" id="path5772"/><path d="m 3315.6,955.2 h 3.6 l 3.6,-1.2 2.4,-1.2 3.6,-2.4 1.2,-2.4 2.4,-2.4 1.2,-3.6 v -7.2 l -1.2,-3.6 -2.4,-2.4 -1.2,-3.6 -3.6,-1.2 -2.4,-2.4 h -3.6 l -3.6,-1.2 -3.6,1.2 h -3.6 l -2.4,2.4 -3.6,1.2 -2.4,3.6 -1.2,2.4 -1.2,3.6 v 7.2 l 1.2,3.6 1.2,2.4 2.4,2.4 3.6,2.4 2.4,1.2 3.6,1.2 z" style="fill:none;stroke:#000;stroke-width:7.5;stroke-linecap:round;stroke-linejoin:round;stroke-miterlimit:10;stroke-dasharray:none;stroke-opacity:1" id="path5774"/><path d="m 3315.6,356.4 h 3.6 l 3.6,-1.2 2.4,-1.2 3.6,-2.4 1.2,-2.4 2.4,-2.4 2.4,-3.6 V 336 l -2.4,-3.6 -2.4,-2.4 -1.2,-3.6 -3.6,-1.2 -2.4,-2.4 h -3.6 l -3.6,-2.4 -3.6,2.4 h -3.6 l -2.4,2.4 -3.6,1.2 -2.4,3.6 -1.2,2.4 -1.2,3.6 v 7.2 l 1.2,3.6 1.2,2.4 2.4,2.4 3.6,2.4 2.4,1.2 3.6,1.2 h 3.6" style="fill:#000;fill-opacity:1;fill-rule:evenodd;stroke:none" id="path5776"/><path d="m 3315.6,356.4 h 3.6 l 3.6,-1.2 2.4,-1.2 3.6,-2.4 1.2,-2.4 2.4,-2.4 1.2,-3.6 V 336 l -1.2,-3.6 -2.4,-2.4 -1.2,-3.6 -3.6,-1.2 -2.4,-2.4 h -3.6 l -3.6,-1.2 -3.6,1.2 h -3.6 l -2.4,2.4 -3.6,1.2 -2.4,3.6 -1.2,2.4 -1.2,3.6 v 7.2 l 1.2,3.6 1.2,2.4 2.4,2.4 3.6,2.4 2.4,1.2 3.6,1.2 z" style="fill:none;stroke:#000;stroke-width:7.5;stroke-linecap:round;stroke-linejoin:round;stroke-miterlimit:10;stroke-dasharray:none;stroke-opacity:1" id="path5778"/><path d="m 3315.6,356.4 h 3.6 l 3.6,-1.2 2.4,-1.2 3.6,-2.4 1.2,-2.4 2.4,-2.4 1.2,-3.6 V 336 l -1.2,-3.6 -2.4,-2.4 -1.2,-3.6 -3.6,-1.2 -2.4,-2.4 h -3.6 l -3.6,-1.2 -3.6,1.2 h -3.6 l -2.4,2.4 -3.6,1.2 -2.4,3.6 -1.2,2.4 -1.2,3.6 v 7.2 l 1.2,3.6 1.2,2.4 2.4,2.4 3.6,2.4 2.4,1.2 3.6,1.2 z" style="fill:none;stroke:#000;stroke-width:7.5;stroke-linecap:round;stroke-linejoin:round;stroke-miterlimit:10;stroke-dasharray:none;stroke-opacity:1" id="path5780"/><path d="m 3315.6,656.4 h 3.6 l 3.6,-1.2 2.4,-1.2 3.6,-2.4 1.2,-2.4 2.4,-2.4 2.4,-3.6 V 636 l -2.4,-3.6 -2.4,-2.4 -1.2,-3.6 -3.6,-1.2 -2.4,-2.4 h -3.6 l -3.6,-2.4 -3.6,2.4 h -3.6 l -2.4,2.4 -3.6,1.2 -2.4,3.6 -1.2,2.4 -1.2,3.6 v 7.2 l 1.2,3.6 1.2,2.4 2.4,2.4 3.6,2.4 2.4,1.2 3.6,1.2 h 3.6" style="fill:#000;fill-opacity:1;fill-rule:evenodd;stroke:none" id="path5782"/><path d="m 3315.6,656.4 h 3.6 l 3.6,-1.2 2.4,-1.2 3.6,-2.4 1.2,-2.4 2.4,-2.4 1.2,-3.6 V 636 l -1.2,-3.6 -2.4,-2.4 -1.2,-3.6 -3.6,-1.2 -2.4,-2.4 h -3.6 l -3.6,-1.2 -3.6,1.2 h -3.6 l -2.4,2.4 -3.6,1.2 -2.4,3.6 -1.2,2.4 -1.2,3.6 v 7.2 l 1.2,3.6 1.2,2.4 2.4,2.4 3.6,2.4 2.4,1.2 3.6,1.2 z" style="fill:none;stroke:#000;stroke-width:7.5;stroke-linecap:round;stroke-linejoin:round;stroke-miterlimit:10;stroke-dasharray:none;stroke-opacity:1" id="path5784"/><path d="m 3315.6,656.4 h 3.6 l 3.6,-1.2 2.4,-1.2 3.6,-2.4 1.2,-2.4 2.4,-2.4 1.2,-3.6 V 636 l -1.2,-3.6 -2.4,-2.4 -1.2,-3.6 -3.6,-1.2 -2.4,-2.4 h -3.6 l -3.6,-1.2 -3.6,1.2 h -3.6 l -2.4,2.4 -3.6,1.2 -2.4,3.6 -1.2,2.4 -1.2,3.6 v 7.2 l 1.2,3.6 1.2,2.4 2.4,2.4 3.6,2.4 2.4,1.2 3.6,1.2 z" style="fill:none;stroke:#000;stroke-width:7.5;stroke-linecap:round;stroke-linejoin:round;stroke-miterlimit:10;stroke-dasharray:none;stroke-opacity:1" id="path5786"/><path d="m 3315.6,955.2 h 3.6 l 3.6,-1.2 2.4,-1.2 3.6,-2.4 1.2,-2.4 2.4,-2.4 2.4,-3.6 v -7.2 l -2.4,-3.6 -2.4,-2.4 -1.2,-3.6 -3.6,-1.2 -2.4,-2.4 h -3.6 l -3.6,-2.4 -3.6,2.4 h -3.6 l -2.4,2.4 -3.6,1.2 -2.4,3.6 -1.2,2.4 -1.2,3.6 v 7.2 l 1.2,3.6 1.2,2.4 2.4,2.4 3.6,2.4 2.4,1.2 3.6,1.2 h 3.6" style="fill:#000;fill-opacity:1;fill-rule:evenodd;stroke:none" id="path5788"/><path d="m 3315.6,955.2 h 3.6 l 3.6,-1.2 2.4,-1.2 3.6,-2.4 1.2,-2.4 2.4,-2.4 1.2,-3.6 v -7.2 l -1.2,-3.6 -2.4,-2.4 -1.2,-3.6 -3.6,-1.2 -2.4,-2.4 h -3.6 l -3.6,-1.2 -3.6,1.2 h -3.6 l -2.4,2.4 -3.6,1.2 -2.4,3.6 -1.2,2.4 -1.2,3.6 v 7.2 l 1.2,3.6 1.2,2.4 2.4,2.4 3.6,2.4 2.4,1.2 3.6,1.2 z" style="fill:none;stroke:#000;stroke-width:7.5;stroke-linecap:round;stroke-linejoin:round;stroke-miterlimit:10;stroke-dasharray:none;stroke-opacity:1" id="path5790"/><path d="m 3315.6,955.2 h 3.6 l 3.6,-1.2 2.4,-1.2 3.6,-2.4 1.2,-2.4 2.4,-2.4 1.2,-3.6 v -7.2 l -1.2,-3.6 -2.4,-2.4 -1.2,-3.6 -3.6,-1.2 -2.4,-2.4 h -3.6 l -3.6,-1.2 -3.6,1.2 h -3.6 l -2.4,2.4 -3.6,1.2 -2.4,3.6 -1.2,2.4 -1.2,3.6 v 7.2 l 1.2,3.6 1.2,2.4 2.4,2.4 3.6,2.4 2.4,1.2 3.6,1.2 z" style="fill:none;stroke:#000;stroke-width:7.5;stroke-linecap:round;stroke-linejoin:round;stroke-miterlimit:10;stroke-dasharray:none;stroke-opacity:1" id="path5792"/><path d="m 3315.6,1260 h 3.6 l 3.6,-1.2 2.4,-1.2 3.6,-2.4 1.2,-2.4 2.4,-2.4 2.4,-3.6 v -7.2 l -2.4,-3.6 -2.4,-2.4 -1.2,-3.6 -3.6,-1.2 -2.4,-2.4 h -3.6 l -3.6,-2.4 -3.6,2.4 h -3.6 l -2.4,2.4 -3.6,1.2 -2.4,3.6 -1.2,2.4 -1.2,3.6 v 7.2 l 1.2,3.6 1.2,2.4 2.4,2.4 3.6,2.4 2.4,1.2 3.6,1.2 h 3.6" style="fill:#000;fill-opacity:1;fill-rule:evenodd;stroke:none" id="path5794"/><path d="m 3315.6,1260 h 3.6 l 3.6,-1.2 2.4,-1.2 3.6,-2.4 1.2,-2.4 2.4,-2.4 1.2,-3.6 v -7.2 l -1.2,-3.6 -2.4,-2.4 -1.2,-3.6 -3.6,-1.2 -2.4,-2.4 h -3.6 l -3.6,-1.2 -3.6,1.2 h -3.6 l -2.4,2.4 -3.6,1.2 -2.4,3.6 -1.2,2.4 -1.2,3.6 v 7.2 l 1.2,3.6 1.2,2.4 2.4,2.4 3.6,2.4 2.4,1.2 3.6,1.2 z" style="fill:none;stroke:#000;stroke-width:7.5;stroke-linecap:round;stroke-linejoin:round;stroke-miterlimit:10;stroke-dasharray:none;stroke-opacity:1" id="path5796"/><path d="m 3315.6,1260 h 3.6 l 3.6,-1.2 2.4,-1.2 3.6,-2.4 1.2,-2.4 2.4,-2.4 1.2,-3.6 v -7.2 l -1.2,-3.6 -2.4,-2.4 -1.2,-3.6 -3.6,-1.2 -2.4,-2.4 h -3.6 l -3.6,-1.2 -3.6,1.2 h -3.6 l -2.4,2.4 -3.6,1.2 -2.4,3.6 -1.2,2.4 -1.2,3.6 v 7.2 l 1.2,3.6 1.2,2.4 2.4,2.4 3.6,2.4 2.4,1.2 3.6,1.2 z" style="fill:none;stroke:#000;stroke-width:7.5;stroke-linecap:round;stroke-linejoin:round;stroke-miterlimit:10;stroke-dasharray:none;stroke-opacity:1" id="path5798"/><path d="m 3315.6,1260 h 3.6 l 3.6,-1.2 2.4,-1.2 3.6,-2.4 1.2,-2.4 2.4,-2.4 2.4,-3.6 v -7.2 l -2.4,-3.6 -2.4,-2.4 -1.2,-3.6 -3.6,-1.2 -2.4,-2.4 h -3.6 l -3.6,-2.4 -3.6,2.4 h -3.6 l -2.4,2.4 -3.6,1.2 -2.4,3.6 -1.2,2.4 -1.2,3.6 v 7.2 l 1.2,3.6 1.2,2.4 2.4,2.4 3.6,2.4 2.4,1.2 3.6,1.2 h 3.6" style="fill:#000;fill-opacity:1;fill-rule:evenodd;stroke:none" id="path5800"/><path d="m 3315.6,1260 h 3.6 l 3.6,-1.2 2.4,-1.2 3.6,-2.4 1.2,-2.4 2.4,-2.4 1.2,-3.6 v -7.2 l -1.2,-3.6 -2.4,-2.4 -1.2,-3.6 -3.6,-1.2 -2.4,-2.4 h -3.6 l -3.6,-1.2 -3.6,1.2 h -3.6 l -2.4,2.4 -3.6,1.2 -2.4,3.6 -1.2,2.4 -1.2,3.6 v 7.2 l 1.2,3.6 1.2,2.4 2.4,2.4 3.6,2.4 2.4,1.2 3.6,1.2 z" style="fill:none;stroke:#000;stroke-width:7.5;stroke-linecap:round;stroke-linejoin:round;stroke-miterlimit:10;stroke-dasharray:none;stroke-opacity:1" id="path5802"/><path d="m 3315.6,1260 h 3.6 l 3.6,-1.2 2.4,-1.2 3.6,-2.4 1.2,-2.4 2.4,-2.4 1.2,-3.6 v -7.2 l -1.2,-3.6 -2.4,-2.4 -1.2,-3.6 -3.6,-1.2 -2.4,-2.4 h -3.6 l -3.6,-1.2 -3.6,1.2 h -3.6 l -2.4,2.4 -3.6,1.2 -2.4,3.6 -1.2,2.4 -1.2,3.6 v 7.2 l 1.2,3.6 1.2,2.4 2.4,2.4 3.6,2.4 2.4,1.2 3.6,1.2 z" style="fill:none;stroke:#000;stroke-width:7.5;stroke-linecap:round;stroke-linejoin:round;stroke-miterlimit:10;stroke-dasharray:none;stroke-opacity:1" id="path5804"/><path d="m 3384,1240.8 h 170.4" style="fill:none;stroke:#000;stroke-width:15;stroke-linecap:round;stroke-linejoin:round;stroke-miterlimit:10;stroke-dasharray:none;stroke-opacity:1" id="path5806"/><path d="m 3362.4,1240.8 57.6,27.6 -25.2,-27.6 25.2,-28.8 -57.6,28.8" style="fill:#000;fill-opacity:1;fill-rule:evenodd;stroke:none" id="path5808"/><path d="m 3362.4,1240.8 57.6,27.6 -25.2,-27.6 25.2,-28.8 -57.6,28.8" style="fill:none;stroke:#000;stroke-width:7.5;stroke-linecap:round;stroke-linejoin:round;stroke-miterlimit:10;stroke-dasharray:none;stroke-opacity:1" id="path5810"/><path d="M 357.6,340.8 H 528" style="fill:none;stroke:#000;stroke-width:15;stroke-linecap:round;stroke-linejoin:round;stroke-miterlimit:10;stroke-dasharray:none;stroke-opacity:1" id="path5812"/><path d="M 549.6,340.8 492,313.2 517.2,340.8 492,369.6 549.6,340.8" style="fill:#000;fill-opacity:1;fill-rule:evenodd;stroke:none" id="path5814"/><path d="M 549.6,340.8 492,313.2 517.2,340.8 492,369.6 549.6,340.8" style="fill:none;stroke:#000;stroke-width:7.5;stroke-linecap:round;stroke-linejoin:round;stroke-miterlimit:10;stroke-dasharray:none;stroke-opacity:1" id="path5816"/><g id="g5818" transform="scale(10)"><text transform="matrix(0.861111,0,0,-1,101.04,152.04)" style="font-style:italic;font-variant:normal;font-weight:700;font-size:18px;font-family:'Times New Roman';-inkscape-font-specification:Times-BoldItalic;writing-mode:lr-tb;fill:#000;fill-opacity:1;fill-rule:nonzero;stroke:none" id="text5824"><tspan id="tspan5820" x="0 9 16.002 25.002 32.994 40.986 47.988 54.99 59.49 68.49" y="0">process 0</tspan><tspan id="tspan5822" x="179.628 188.628 195.63 204.63 212.622 220.614 227.616 234.618 239.118 248.118" y="-.12">process 1</tspan></text></g></g></g></g></svg>