<svg xmlns="http://www.w3.org/2000/svg" xmlns:svg="http://www.w3.org/2000/svg" id="svg2236" width="419.424" height="215.904" version="1.1" viewBox="0 0 419.424 215.904" xml:space="preserve"><metadata id="metadata2242"/><defs id="defs2240"><clipPath id="clipPath2360" clipPathUnits="userSpaceOnUse"><path id="path2358" d="M 0,0 H 720 V 540 H 0 Z"/></clipPath><clipPath id="clipPath2376" clipPathUnits="userSpaceOnUse"><path id="path2374" d="M 0,0 H 720 V 540 H 0 Z"/></clipPath><clipPath id="clipPath2392" clipPathUnits="userSpaceOnUse"><path id="path2390" d="M 0,0 H 720 V 540 H 0 Z"/></clipPath><clipPath id="clipPath2408" clipPathUnits="userSpaceOnUse"><path id="path2406" d="M 0,0 H 720 V 540 H 0 Z"/></clipPath></defs><g id="g2244" transform="matrix(1.3333333,0,0,-1.3333333,-218.592,386.496)"><g id="g2246" transform="translate(387.2999,154.2346)"><path d="M 0,0 10.2,106.2" style="fill:none;stroke:#000;stroke-width:.5;stroke-linecap:butt;stroke-linejoin:round;stroke-miterlimit:10;stroke-dasharray:2,1.5;stroke-dashoffset:0;stroke-opacity:1" id="path2248"/></g><g id="g2250" transform="translate(459.5999,195.9346)"><path d="M 0,0 -45.6,74.1" style="fill:none;stroke:#000;stroke-width:.5;stroke-linecap:butt;stroke-linejoin:round;stroke-miterlimit:10;stroke-dasharray:2,1.5;stroke-dashoffset:0;stroke-opacity:1" id="path2252"/></g><g id="g2254" transform="translate(411.8998,195.9346)"><path d="M 0,0 -9.3,74.1" style="fill:none;stroke:#000;stroke-width:.5;stroke-linecap:butt;stroke-linejoin:round;stroke-miterlimit:10;stroke-dasharray:2,1.5;stroke-dashoffset:0;stroke-opacity:1" id="path2256"/></g><g id="g2258" transform="translate(434.64,155.31461)"><path d="M 0,0 -26.64,105.12" style="fill:none;stroke:#000;stroke-width:.5;stroke-linecap:butt;stroke-linejoin:round;stroke-miterlimit:10;stroke-dasharray:2,1.5;stroke-dashoffset:0;stroke-opacity:1" id="path2260"/></g><g id="g2262" transform="translate(258.72121,187.2346)"><path d="M 0,0 H 108" style="fill:none;stroke:#000;stroke-width:2.5;stroke-linecap:butt;stroke-linejoin:round;stroke-miterlimit:10;stroke-dasharray:none;stroke-opacity:1" id="path2264"/></g><g id="g2266" transform="translate(366.72121,187.2346)"><path d="M 0,0 54,93.531" style="fill:none;stroke:#000;stroke-width:2.5;stroke-linecap:butt;stroke-linejoin:round;stroke-miterlimit:10;stroke-dasharray:none;stroke-opacity:1" id="path2268"/></g><g id="g2270" transform="translate(258.72121,187.2346)"><path d="M 0,0 54,93.531" style="fill:none;stroke:#000;stroke-width:2.5;stroke-linecap:butt;stroke-linejoin:round;stroke-miterlimit:10;stroke-dasharray:none;stroke-opacity:1" id="path2272"/></g><g id="g2274" transform="translate(312.72121,280.2547)"><path d="M 0,0 H 108" style="fill:none;stroke:#000;stroke-width:2.5;stroke-linecap:butt;stroke-linejoin:round;stroke-miterlimit:10;stroke-dasharray:none;stroke-opacity:1" id="path2276"/></g><g id="g2278" transform="translate(264.72121,197.4194)"><path d="M 0,0 H 18" style="fill:none;stroke:#000;stroke-width:.75;stroke-linecap:butt;stroke-linejoin:round;stroke-miterlimit:10;stroke-dasharray:none;stroke-opacity:1" id="path2280"/></g><g id="g2282" transform="translate(270.72121,187.23441)"><path d="M 0,0 9,15.588" style="fill:none;stroke:#000;stroke-width:.75;stroke-linecap:butt;stroke-linejoin:round;stroke-miterlimit:10;stroke-dasharray:none;stroke-opacity:1" id="path2284"/></g><g id="g2286" transform="translate(282.72121,187.2346)"><path d="M 0,0 3.6,6.235" style="fill:none;stroke:#000;stroke-width:.75;stroke-linecap:butt;stroke-linejoin:round;stroke-miterlimit:10;stroke-dasharray:none;stroke-opacity:1" id="path2288"/></g><g id="g2290" transform="translate(270.72121,207.60429)"><path d="M 0,0 H 7.2" style="fill:none;stroke:#000;stroke-width:.75;stroke-linecap:butt;stroke-linejoin:round;stroke-miterlimit:10;stroke-dasharray:none;stroke-opacity:1" id="path2292"/></g><g id="g2294" transform="translate(414.72121,270.01939)"><path d="M 0,0 H -18" style="fill:none;stroke:#000;stroke-width:.75;stroke-linecap:butt;stroke-linejoin:round;stroke-miterlimit:10;stroke-dasharray:none;stroke-opacity:1" id="path2296"/></g><g id="g2298" transform="translate(408.72121,280.2045)"><path d="M 0,0 -9,-15.588" style="fill:none;stroke:#000;stroke-width:.75;stroke-linecap:butt;stroke-linejoin:round;stroke-miterlimit:10;stroke-dasharray:none;stroke-opacity:1" id="path2300"/></g><g id="g2302" transform="translate(396.72121,280.2043)"><path d="M 0,0 -3.6,-6.235" style="fill:none;stroke:#000;stroke-width:.75;stroke-linecap:butt;stroke-linejoin:round;stroke-miterlimit:10;stroke-dasharray:none;stroke-opacity:1" id="path2304"/></g><g id="g2306" transform="translate(408.72121,259.83459)"><path d="M 0,0 H -7.2" style="fill:none;stroke:#000;stroke-width:.75;stroke-linecap:butt;stroke-linejoin:round;stroke-miterlimit:10;stroke-dasharray:none;stroke-opacity:1" id="path2308"/></g><text transform="matrix(1,0,0,-1,312.6158,227.9146)" style="font-style:italic;font-variant:normal;font-weight:700;font-stretch:normal;font-size:20.04000092px;font-family:'Times New Roman';-inkscape-font-specification:TimesNewRomanPS-BoldItalicMT;writing-mode:lr-tb;fill:#000;fill-opacity:1;fill-rule:nonzero;stroke:none" id="text2312"><tspan id="tspan2310" x="0 10.08 20.16 27.956 33.467 38.156" y="0">part 0</tspan></text><text transform="matrix(1,0,0,-1,439.4749,275.1744)" style="font-style:italic;font-variant:normal;font-weight:400;font-stretch:normal;font-size:12px;font-family:'Times New Roman';-inkscape-font-specification:TimesNewRomanPS-ItalicMT;writing-mode:lr-tb;fill:#000;fill-opacity:1;fill-rule:nonzero;stroke:none" id="text2316"><tspan id="tspan2314" x="0 3.84 9.84 12.84 18.84" y="0">(9,9)</tspan></text><g id="g2318" transform="translate(437.51109,279.6512)"><path d="M 0,0 -25.421,-4.406" style="fill:none;stroke:#000;stroke-width:1;stroke-linecap:butt;stroke-linejoin:round;stroke-miterlimit:10;stroke-dasharray:none;stroke-opacity:1" id="path2320"/></g><g id="g2322" transform="translate(413.5876,272.46069)"><path d="m 0,0 -4.454,2.273 3.429,3.639 z" style="fill:#000;fill-opacity:1;fill-rule:evenodd;stroke:none" id="path2324"/></g><text transform="matrix(1,0,0,-1,296.7354,193.6045)" style="font-style:italic;font-variant:normal;font-weight:400;font-stretch:normal;font-size:12px;font-family:'Times New Roman';-inkscape-font-specification:TimesNewRomanPS-ItalicMT;writing-mode:lr-tb;fill:#000;fill-opacity:1;fill-rule:nonzero;stroke:none" id="text2328"><tspan id="tspan2326" x="0 3.84 9.84 12.84 18.84" y="0">(1,1)</tspan></text><g id="g2330" transform="translate(295.3262,197.76019)"><path d="M 0,0 -25.421,-4.406" style="fill:none;stroke:#000;stroke-width:1;stroke-linecap:butt;stroke-linejoin:round;stroke-miterlimit:10;stroke-dasharray:none;stroke-opacity:1" id="path2332"/></g><g id="g2334" transform="translate(271.40269,190.56979)"><path d="m 0,0 -4.454,2.273 3.429,3.639 z" style="fill:#000;fill-opacity:1;fill-rule:evenodd;stroke:none" id="path2336"/></g><g id="g2338" transform="translate(387.3,154.0192)"><path d="M 0,0 H 48" style="fill:none;stroke:#000;stroke-width:.75;stroke-linecap:butt;stroke-linejoin:round;stroke-miterlimit:10;stroke-dasharray:none;stroke-opacity:1" id="path2340"/></g><g id="g2342" transform="translate(435.3,154.45)"><path d="M 0,0 24,41.569" style="fill:none;stroke:#000;stroke-width:.75;stroke-linecap:butt;stroke-linejoin:round;stroke-miterlimit:10;stroke-dasharray:none;stroke-opacity:1" id="path2344"/></g><g id="g2346" transform="translate(387.3,154.45)"><path d="M 0,0 24,41.569" style="fill:none;stroke:#000;stroke-width:.75;stroke-linecap:butt;stroke-linejoin:round;stroke-miterlimit:10;stroke-dasharray:none;stroke-opacity:1" id="path2348"/></g><g id="g2350" transform="translate(411.3,196.0192)"><path d="M 0,0 H 48" style="fill:none;stroke:#000;stroke-width:.75;stroke-linecap:butt;stroke-linejoin:round;stroke-miterlimit:10;stroke-dasharray:none;stroke-opacity:1" id="path2352"/></g><g id="g2354"><g id="g2356" clip-path="url(#clipPath2360)"><g id="g2362" transform="translate(408.8,196.08411)"><path d="M 0,0 C 0,1.455 1.161,2.635 2.594,2.635 4.027,2.635 5.188,1.455 5.188,0 5.188,-1.455 4.027,-2.635 2.594,-2.635 1.161,-2.635 0,-1.455 0,0" style="fill:#000;fill-opacity:1;fill-rule:evenodd;stroke:none" id="path2364"/></g><g id="g2366" transform="translate(408.8,196.08411)"><path d="M 0,0 C 0,1.455 1.161,2.635 2.594,2.635 4.027,2.635 5.188,1.455 5.188,0 5.188,-1.455 4.027,-2.635 2.594,-2.635 1.161,-2.635 0,-1.455 0,0 Z" style="fill:none;stroke:#000;stroke-width:.75;stroke-linecap:butt;stroke-linejoin:round;stroke-miterlimit:10;stroke-dasharray:none;stroke-opacity:1" id="path2368"/></g></g></g><g id="g2370"><g id="g2372" clip-path="url(#clipPath2376)"><g id="g2378" transform="translate(456.81219,196.08411)"><path d="M 0,0 C 0,1.455 1.161,2.635 2.594,2.635 4.027,2.635 5.188,1.455 5.188,0 5.188,-1.455 4.027,-2.635 2.594,-2.635 1.161,-2.635 0,-1.455 0,0" style="fill:#000;fill-opacity:1;fill-rule:evenodd;stroke:none" id="path2380"/></g><g id="g2382" transform="translate(456.81219,196.08411)"><path d="M 0,0 C 0,1.455 1.161,2.635 2.594,2.635 4.027,2.635 5.188,1.455 5.188,0 5.188,-1.455 4.027,-2.635 2.594,-2.635 1.161,-2.635 0,-1.455 0,0 Z" style="fill:none;stroke:#000;stroke-width:.75;stroke-linecap:butt;stroke-linejoin:round;stroke-miterlimit:10;stroke-dasharray:none;stroke-opacity:1" id="path2384"/></g></g></g><g id="g2386"><g id="g2388" clip-path="url(#clipPath2392)"><g id="g2394" transform="translate(384.3,154.08411)"><path d="M 0,0 C 0,1.455 1.161,2.635 2.594,2.635 4.027,2.635 5.188,1.455 5.188,0 5.188,-1.455 4.027,-2.635 2.594,-2.635 1.161,-2.635 0,-1.455 0,0" style="fill:#000;fill-opacity:1;fill-rule:evenodd;stroke:none" id="path2396"/></g><g id="g2398" transform="translate(384.3,154.08411)"><path d="M 0,0 C 0,1.455 1.161,2.635 2.594,2.635 4.027,2.635 5.188,1.455 5.188,0 5.188,-1.455 4.027,-2.635 2.594,-2.635 1.161,-2.635 0,-1.455 0,0 Z" style="fill:none;stroke:#000;stroke-width:.75;stroke-linecap:butt;stroke-linejoin:round;stroke-miterlimit:10;stroke-dasharray:none;stroke-opacity:1" id="path2400"/></g></g></g><g id="g2402"><g id="g2404" clip-path="url(#clipPath2408)"><g id="g2410" transform="translate(432.31219,154.08411)"><path d="M 0,0 C 0,1.455 1.161,2.635 2.594,2.635 4.027,2.635 5.188,1.455 5.188,0 5.188,-1.455 4.027,-2.635 2.594,-2.635 1.161,-2.635 0,-1.455 0,0" style="fill:#000;fill-opacity:1;fill-rule:evenodd;stroke:none" id="path2412"/></g><g id="g2414" transform="translate(432.31219,154.08411)"><path d="M 0,0 C 0,1.455 1.161,2.635 2.594,2.635 4.027,2.635 5.188,1.455 5.188,0 5.188,-1.455 4.027,-2.635 2.594,-2.635 1.161,-2.635 0,-1.455 0,0 Z" style="fill:none;stroke:#000;stroke-width:.75;stroke-linecap:butt;stroke-linejoin:round;stroke-miterlimit:10;stroke-dasharray:none;stroke-opacity:1" id="path2416"/></g></g></g><text transform="matrix(1,0,0,-1,389.5245,139.8289)" style="font-style:italic;font-variant:normal;font-weight:400;font-stretch:normal;font-size:12px;font-family:'Times New Roman';-inkscape-font-specification:TimesNewRomanPS-ItalicMT;writing-mode:lr-tb;fill:#a50021;fill-opacity:1;fill-rule:nonzero;stroke:none" id="text2426"><tspan id="tspan2418" x="0" y="0">0</tspan><tspan id="tspan2420" x="48" y=".12">1</tspan><tspan id="tspan2422" x="72.6" y="-41.88">2</tspan><tspan id="tspan2424" x="24.6" y="-42">3</tspan></text></g></svg>