<svg xmlns="http://www.w3.org/2000/svg" xmlns:svg="http://www.w3.org/2000/svg" id="svg4950" width="176.7" height="224.8" version="1.1" viewBox="0 0 176.7 224.8" xml:space="preserve"><metadata id="metadata4956"/><g id="g4958" transform="matrix(1.3333333,0,0,-1.3333333,-5.9835415,229.43997)"><g id="g4960" transform="scale(0.1)"><g id="g4962"><path d="M 698.4,34.7998 H 1182 v 1686 H 698.4 Z" style="fill:#e0e0e0;fill-opacity:1;fill-rule:evenodd;stroke:none" id="path4964"/><path d="m 216,34.7998 h 182.4 v 1686 H 216 Z" style="fill:#e0e0e0;fill-opacity:1;fill-rule:evenodd;stroke:none" id="path4966"/><g id="g4968" transform="scale(10)"><text transform="matrix(0.893617,0,0,-1,28.8,155.88)" style="font-style:italic;font-variant:normal;font-weight:700;font-size:12px;font-family:'Times New Roman';-inkscape-font-specification:Times-BoldItalic;writing-mode:lr-tb;fill:#000;fill-opacity:1;fill-rule:nonzero;stroke:none" id="text4972"><tspan id="tspan4970" x="0 6" y="0">0</tspan></text></g><path d="M 478.8,1598.4 H 621.6" style="fill:none;stroke:#000;stroke-width:5;stroke-linecap:round;stroke-linejoin:round;stroke-miterlimit:10;stroke-dasharray:none;stroke-opacity:1" id="path4974"/><path d="m 460.8,1599.6 52.8,-21.6 -24,21.6 24,19.2 -52.8,-19.2" style="fill:#000;fill-opacity:1;fill-rule:evenodd;stroke:none" id="path4976"/><path d="m 642,1599.6 -54,19.2 24,-19.2 -24,-21.6 54,21.6" style="fill:#000;fill-opacity:1;fill-rule:evenodd;stroke:none" id="path4978"/><g id="g4980" transform="scale(10)"><text transform="matrix(0.893617,0,0,-1,28.8,137.88)" style="font-style:italic;font-variant:normal;font-weight:700;font-size:12px;font-family:'Times New Roman';-inkscape-font-specification:Times-BoldItalic;writing-mode:lr-tb;fill:#000;fill-opacity:1;fill-rule:nonzero;stroke:none" id="text4984"><tspan id="tspan4982" x="0 6" y="0">1</tspan></text></g><path d="M 478.8,1418.4 H 621.6" style="fill:none;stroke:#000;stroke-width:5;stroke-linecap:round;stroke-linejoin:round;stroke-miterlimit:10;stroke-dasharray:none;stroke-opacity:1" id="path4986"/><path d="m 460.8,1419.6 52.8,-21.6 -24,21.6 24,19.2 -52.8,-19.2" style="fill:#000;fill-opacity:1;fill-rule:evenodd;stroke:none" id="path4988"/><path d="m 642,1419.6 -54,19.2 24,-19.2 -24,-21.6 54,21.6" style="fill:#000;fill-opacity:1;fill-rule:evenodd;stroke:none" id="path4990"/><g id="g4992" transform="scale(10)"><text transform="matrix(0.893617,0,0,-1,28.8,119.88)" style="font-style:italic;font-variant:normal;font-weight:700;font-size:12px;font-family:'Times New Roman';-inkscape-font-specification:Times-BoldItalic;writing-mode:lr-tb;fill:#000;fill-opacity:1;fill-rule:nonzero;stroke:none" id="text4996"><tspan id="tspan4994" x="0 6" y="0">2</tspan></text></g><path d="M 478.8,1238.4 H 621.6" style="fill:none;stroke:#000;stroke-width:5;stroke-linecap:round;stroke-linejoin:round;stroke-miterlimit:10;stroke-dasharray:none;stroke-opacity:1" id="path4998"/><path d="m 460.8,1239.6 52.8,-21.6 -24,21.6 24,19.2 -52.8,-19.2" style="fill:#000;fill-opacity:1;fill-rule:evenodd;stroke:none" id="path5000"/><path d="m 642,1239.6 -54,19.2 24,-19.2 -24,-21.6 54,21.6" style="fill:#000;fill-opacity:1;fill-rule:evenodd;stroke:none" id="path5002"/><g id="g5004" transform="scale(10)"><text transform="matrix(0.893617,0,0,-1,28.8,101.88)" style="font-style:italic;font-variant:normal;font-weight:700;font-size:12px;font-family:'Times New Roman';-inkscape-font-specification:Times-BoldItalic;writing-mode:lr-tb;fill:#000;fill-opacity:1;fill-rule:nonzero;stroke:none" id="text5008"><tspan id="tspan5006" x="0 6" y="0">3</tspan></text></g><path d="M 478.8,1058.4 H 621.6" style="fill:none;stroke:#000;stroke-width:5;stroke-linecap:round;stroke-linejoin:round;stroke-miterlimit:10;stroke-dasharray:none;stroke-opacity:1" id="path5010"/><path d="m 460.8,1059.6 52.8,-21.6 -24,21.6 24,19.2 -52.8,-19.2" style="fill:#000;fill-opacity:1;fill-rule:evenodd;stroke:none" id="path5012"/><path d="m 642,1059.6 -54,19.2 24,-19.2 -24,-21.6 54,21.6" style="fill:#000;fill-opacity:1;fill-rule:evenodd;stroke:none" id="path5014"/><g id="g5016" transform="scale(10)"><text transform="matrix(0.893617,0,0,-1,28.8,83.88)" style="font-style:italic;font-variant:normal;font-weight:700;font-size:12px;font-family:'Times New Roman';-inkscape-font-specification:Times-BoldItalic;writing-mode:lr-tb;fill:#000;fill-opacity:1;fill-rule:nonzero;stroke:none" id="text5020"><tspan id="tspan5018" x="0 6" y="0">4</tspan></text></g><path d="M 478.8,878.4 H 621.6" style="fill:none;stroke:#000;stroke-width:5;stroke-linecap:round;stroke-linejoin:round;stroke-miterlimit:10;stroke-dasharray:none;stroke-opacity:1" id="path5022"/><path d="m 460.8,879.6 52.8,-21.6 -24,21.6 24,19.2 -52.8,-19.2" style="fill:#000;fill-opacity:1;fill-rule:evenodd;stroke:none" id="path5024"/><path d="m 642,879.6 -54,19.2 24,-19.2 -24,-21.6 54,21.6" style="fill:#000;fill-opacity:1;fill-rule:evenodd;stroke:none" id="path5026"/><g id="g5028" transform="scale(10)"><text transform="matrix(0.893617,0,0,-1,28.8,65.88)" style="font-style:italic;font-variant:normal;font-weight:700;font-size:12px;font-family:'Times New Roman';-inkscape-font-specification:Times-BoldItalic;writing-mode:lr-tb;fill:#000;fill-opacity:1;fill-rule:nonzero;stroke:none" id="text5032"><tspan id="tspan5030" x="0 6" y="0">5</tspan></text></g><path d="M 478.8,698.4 H 621.6" style="fill:none;stroke:#000;stroke-width:5;stroke-linecap:round;stroke-linejoin:round;stroke-miterlimit:10;stroke-dasharray:none;stroke-opacity:1" id="path5034"/><path d="m 460.8,699.6 52.8,-21.6 -24,21.6 24,19.2 -52.8,-19.2" style="fill:#000;fill-opacity:1;fill-rule:evenodd;stroke:none" id="path5036"/><path d="m 642,699.6 -54,19.2 24,-19.2 -24,-21.6 54,21.6" style="fill:#000;fill-opacity:1;fill-rule:evenodd;stroke:none" id="path5038"/><g id="g5040" transform="scale(10)"><text transform="matrix(0.893617,0,0,-1,28.8,47.88)" style="font-style:italic;font-variant:normal;font-weight:700;font-size:12px;font-family:'Times New Roman';-inkscape-font-specification:Times-BoldItalic;writing-mode:lr-tb;fill:#000;fill-opacity:1;fill-rule:nonzero;stroke:none" id="text5044"><tspan id="tspan5042" x="0 6" y="0">6</tspan></text></g><path d="M 478.8,518.4 H 621.6" style="fill:none;stroke:#000;stroke-width:5;stroke-linecap:round;stroke-linejoin:round;stroke-miterlimit:10;stroke-dasharray:none;stroke-opacity:1" id="path5046"/><path d="m 460.8,519.6 52.8,-21.6 -24,21.6 24,19.2 -52.8,-19.2" style="fill:#000;fill-opacity:1;fill-rule:evenodd;stroke:none" id="path5048"/><path d="m 642,519.6 -54,19.2 24,-19.2 -24,-21.6 54,21.6" style="fill:#000;fill-opacity:1;fill-rule:evenodd;stroke:none" id="path5050"/><g id="g5052" transform="scale(10)"><text transform="matrix(0.893617,0,0,-1,28.8,29.88)" style="font-style:italic;font-variant:normal;font-weight:700;font-size:12px;font-family:'Times New Roman';-inkscape-font-specification:Times-BoldItalic;writing-mode:lr-tb;fill:#000;fill-opacity:1;fill-rule:nonzero;stroke:none" id="text5056"><tspan id="tspan5054" x="0 6" y="0">7</tspan></text></g><path d="M 478.8,338.4 H 621.6" style="fill:none;stroke:#000;stroke-width:5;stroke-linecap:round;stroke-linejoin:round;stroke-miterlimit:10;stroke-dasharray:none;stroke-opacity:1" id="path5058"/><path d="m 460.8,338.4 52.8,-21.6 -24,21.6 24,20.4 -52.8,-20.4" style="fill:#000;fill-opacity:1;fill-rule:evenodd;stroke:none" id="path5060"/><path d="m 642,338.4 -54,20.4 24,-20.4 -24,-21.6 54,21.6" style="fill:#000;fill-opacity:1;fill-rule:evenodd;stroke:none" id="path5062"/><g id="g5064" transform="scale(10)"><text transform="matrix(0.893617,0,0,-1,28.8,11.88)" style="font-style:italic;font-variant:normal;font-weight:700;font-size:12px;font-family:'Times New Roman';-inkscape-font-specification:Times-BoldItalic;writing-mode:lr-tb;fill:#000;fill-opacity:1;fill-rule:nonzero;stroke:none" id="text5068"><tspan id="tspan5066" x="0 6" y="0">8</tspan></text></g><path d="M 478.8,158.4 H 621.6" style="fill:none;stroke:#000;stroke-width:5;stroke-linecap:round;stroke-linejoin:round;stroke-miterlimit:10;stroke-dasharray:none;stroke-opacity:1" id="path5070"/><path d="m 460.8,158.4 52.8,-21.6 -24,21.6 24,20.4 -52.8,-20.4" style="fill:#000;fill-opacity:1;fill-rule:evenodd;stroke:none" id="path5072"/><path d="m 642,158.4 -54,20.4 24,-20.4 -24,-21.6 54,21.6" style="fill:#000;fill-opacity:1;fill-rule:evenodd;stroke:none" id="path5074"/><g id="g5076" transform="scale(10)"><text transform="matrix(0.87234,0,0,-1,75.6,155.28)" style="font-style:italic;font-variant:normal;font-size:12px;font-family:'Times New Roman';-inkscape-font-specification:Times-Italic;writing-mode:lr-tb;fill:#000;fill-opacity:1;fill-rule:nonzero;stroke:none" id="text5080"><tspan id="tspan5078" x="0 3.996 9.996 12.996 18.996 22.992 26.988" y="0">(0,0);</tspan></text><text transform="matrix(0.837209,0,0,-1,75,138.36)" style="font-style:italic;font-variant:normal;font-size:11px;font-family:'Times New Roman';-inkscape-font-specification:Times-Italic;writing-mode:lr-tb;fill:#000;fill-opacity:1;fill-rule:nonzero;stroke:none" id="text5084"><tspan id="tspan5082" x="0 3.663 9.163 11.913 12.9 16.563 18.777 24.277 27.94 31.603" y="0">(0,-1);</tspan></text><text transform="matrix(0.87234,0,0,-1,75.6,119.28)" style="font-style:italic;font-variant:normal;font-size:12px;font-family:'Times New Roman';-inkscape-font-specification:Times-Italic;writing-mode:lr-tb;fill:#000;fill-opacity:1;fill-rule:nonzero;stroke:none" id="text5092"><tspan id="tspan5086" x="0 3.996 9.996 12.996 18.996 22.992 26.988" y="0">(0,1);</tspan><tspan id="tspan5088" x="0 3.996 9.996 12.996 18.996 22.992 26.988" y="18">(0,0);</tspan><tspan id="tspan5090" x="0 3.996 9.996 12.996 18.996 22.992 26.988" y="36">(0,1);</tspan></text><text transform="matrix(0.837209,0,0,-1,73.92,66.36)" style="font-style:italic;font-variant:normal;font-size:11px;font-family:'Times New Roman';-inkscape-font-specification:Times-Italic;writing-mode:lr-tb;fill:#000;fill-opacity:1;fill-rule:nonzero;stroke:none" id="text5096"><tspan id="tspan5094" x="0 3.663 4.3 7.963 9.747 15.247 17.997 23.497 27.16 30.823" y="0">(-1,0);</tspan></text><text transform="matrix(0.87234,0,0,-1,75.6,47.28)" style="font-style:italic;font-variant:normal;font-size:12px;font-family:'Times New Roman';-inkscape-font-specification:Times-Italic;writing-mode:lr-tb;fill:#000;fill-opacity:1;fill-rule:nonzero;stroke:none" id="text5100"><tspan id="tspan5098" x="0 3.996 9.996 12.996 18.996 22.992 26.988" y="0">(0,0);</tspan></text><text transform="matrix(0.837209,0,0,-1,73.92,30.36)" style="font-style:italic;font-variant:normal;font-size:11px;font-family:'Times New Roman';-inkscape-font-specification:Times-Italic;writing-mode:lr-tb;fill:#000;fill-opacity:1;fill-rule:nonzero;stroke:none" id="text5104"><tspan id="tspan5102" x="0 3.663 4.3 7.963 9.747 15.247 17.997 23.497 27.16 30.823" y="0">(-1,1);</tspan></text><text transform="matrix(0.87234,0,0,-1,75.6,11.28)" style="font-style:italic;font-variant:normal;font-size:12px;font-family:'Times New Roman';-inkscape-font-specification:Times-Italic;writing-mode:lr-tb;fill:#000;fill-opacity:1;fill-rule:nonzero;stroke:none" id="text5108"><tspan id="tspan5106" x="0 3.996 9.996 12.996 18.996 22.992 26.988" y="0">(0,1);</tspan></text></g><path d="m 1101.6,1092 h 3.6 l 4.8,-1.2 3.6,-1.2 3.6,-1.2 3.6,-1.2 2.4,-2.4 6,-4.8 4.8,-6 2.4,-2.4 1.2,-3.6 1.2,-3.6 1.2,-3.6 2.4,-4.8 v -7.2 l -2.4,-4.8 -1.2,-3.6 -1.2,-3.6 -1.2,-3.6 -2.4,-2.4 -4.8,-6 -6,-4.8 -2.4,-2.4 -3.6,-1.2 -3.6,-1.2 -3.6,-1.2 -4.8,-2.4 h -7.2 l -4.8,2.4 -3.6,1.2 -3.6,1.2 -3.6,1.2 -2.4,2.4 -6,4.8 -4.8,6 -2.4,2.4 -1.2,3.6 -1.2,3.6 -1.2,3.6 -1.2,4.8 v 7.2 l 1.2,4.8 1.2,3.6 1.2,3.6 1.2,3.6 2.4,2.4 4.8,6 6,4.8 2.4,2.4 3.6,1.2 3.6,1.2 3.6,1.2 4.8,1.2 h 3.6" style="fill:#000;fill-opacity:1;fill-rule:evenodd;stroke:none" id="path5110"/><path d="m 1101.6,1092 h 3.6 l 4.8,-1.2 3.6,-1.2 3.6,-1.2 3.6,-1.2 2.4,-2.4 6,-4.8 4.8,-6 2.4,-2.4 1.2,-3.6 1.2,-3.6 1.2,-3.6 1.2,-4.8 v -7.2 l -1.2,-4.8 -1.2,-3.6 -1.2,-3.6 -1.2,-3.6 -2.4,-2.4 -4.8,-6 -6,-4.8 -2.4,-2.4 -3.6,-1.2 -3.6,-1.2 -3.6,-1.2 -4.8,-1.2 h -7.2 l -4.8,1.2 -3.6,1.2 -3.6,1.2 -3.6,1.2 -2.4,2.4 -6,4.8 -4.8,6 -2.4,2.4 -1.2,3.6 -1.2,3.6 -1.2,3.6 -1.2,4.8 v 7.2 l 1.2,4.8 1.2,3.6 1.2,3.6 1.2,3.6 2.4,2.4 4.8,6 6,4.8 2.4,2.4 3.6,1.2 3.6,1.2 3.6,1.2 4.8,1.2 z" style="fill:none;stroke:#000;stroke-width:5;stroke-linecap:round;stroke-linejoin:round;stroke-miterlimit:10;stroke-dasharray:none;stroke-opacity:1" id="path5112"/><path d="m 1101.6,1092 h 3.6 l 4.8,-1.2 3.6,-1.2 3.6,-1.2 3.6,-1.2 2.4,-2.4 6,-4.8 4.8,-6 2.4,-2.4 1.2,-3.6 1.2,-3.6 1.2,-3.6 1.2,-4.8 v -7.2 l -1.2,-4.8 -1.2,-3.6 -1.2,-3.6 -1.2,-3.6 -2.4,-2.4 -4.8,-6 -6,-4.8 -2.4,-2.4 -3.6,-1.2 -3.6,-1.2 -3.6,-1.2 -4.8,-1.2 h -7.2 l -4.8,1.2 -3.6,1.2 -3.6,1.2 -3.6,1.2 -2.4,2.4 -6,4.8 -4.8,6 -2.4,2.4 -1.2,3.6 -1.2,3.6 -1.2,3.6 -1.2,4.8 v 7.2 l 1.2,4.8 1.2,3.6 1.2,3.6 1.2,3.6 2.4,2.4 4.8,6 6,4.8 2.4,2.4 3.6,1.2 3.6,1.2 3.6,1.2 4.8,1.2 z" style="fill:none;stroke:#000;stroke-width:5;stroke-linecap:round;stroke-linejoin:round;stroke-miterlimit:10;stroke-dasharray:none;stroke-opacity:1" id="path5114"/><path d="m 1101.6,912 h 3.6 l 4.8,-1.2 3.6,-1.2 3.6,-1.2 3.6,-1.2 2.4,-2.4 6,-4.8 4.8,-6 2.4,-2.4 1.2,-3.6 1.2,-3.6 1.2,-3.6 2.4,-4.8 v -7.2 l -2.4,-4.8 -1.2,-3.6 -1.2,-3.6 -1.2,-3.6 -2.4,-2.4 -4.8,-6 -6,-4.8 -2.4,-2.4 -3.6,-1.2 -3.6,-1.2 -3.6,-1.2 -4.8,-2.4 h -7.2 l -4.8,2.4 -3.6,1.2 -3.6,1.2 -3.6,1.2 -2.4,2.4 -6,4.8 -4.8,6 -2.4,2.4 -1.2,3.6 -1.2,3.6 -1.2,3.6 -1.2,4.8 v 7.2 l 1.2,4.8 1.2,3.6 1.2,3.6 1.2,3.6 2.4,2.4 4.8,6 6,4.8 2.4,2.4 3.6,1.2 3.6,1.2 3.6,1.2 4.8,1.2 h 3.6" style="fill:#000;fill-opacity:1;fill-rule:evenodd;stroke:none" id="path5116"/><path d="m 1101.6,912 h 3.6 l 4.8,-1.2 3.6,-1.2 3.6,-1.2 3.6,-1.2 2.4,-2.4 6,-4.8 4.8,-6 2.4,-2.4 1.2,-3.6 1.2,-3.6 1.2,-3.6 1.2,-4.8 v -7.2 l -1.2,-4.8 -1.2,-3.6 -1.2,-3.6 -1.2,-3.6 -2.4,-2.4 -4.8,-6 -6,-4.8 -2.4,-2.4 -3.6,-1.2 -3.6,-1.2 -3.6,-1.2 -4.8,-1.2 h -7.2 l -4.8,1.2 -3.6,1.2 -3.6,1.2 -3.6,1.2 -2.4,2.4 -6,4.8 -4.8,6 -2.4,2.4 -1.2,3.6 -1.2,3.6 -1.2,3.6 -1.2,4.8 v 7.2 l 1.2,4.8 1.2,3.6 1.2,3.6 1.2,3.6 2.4,2.4 4.8,6 6,4.8 2.4,2.4 3.6,1.2 3.6,1.2 3.6,1.2 4.8,1.2 z" style="fill:none;stroke:#000;stroke-width:5;stroke-linecap:round;stroke-linejoin:round;stroke-miterlimit:10;stroke-dasharray:none;stroke-opacity:1" id="path5118"/><path d="m 1101.6,912 h 3.6 l 4.8,-1.2 3.6,-1.2 3.6,-1.2 3.6,-1.2 2.4,-2.4 6,-4.8 4.8,-6 2.4,-2.4 1.2,-3.6 1.2,-3.6 1.2,-3.6 1.2,-4.8 v -7.2 l -1.2,-4.8 -1.2,-3.6 -1.2,-3.6 -1.2,-3.6 -2.4,-2.4 -4.8,-6 -6,-4.8 -2.4,-2.4 -3.6,-1.2 -3.6,-1.2 -3.6,-1.2 -4.8,-1.2 h -7.2 l -4.8,1.2 -3.6,1.2 -3.6,1.2 -3.6,1.2 -2.4,2.4 -6,4.8 -4.8,6 -2.4,2.4 -1.2,3.6 -1.2,3.6 -1.2,3.6 -1.2,4.8 v 7.2 l 1.2,4.8 1.2,3.6 1.2,3.6 1.2,3.6 2.4,2.4 4.8,6 6,4.8 2.4,2.4 3.6,1.2 3.6,1.2 3.6,1.2 4.8,1.2 z" style="fill:none;stroke:#000;stroke-width:5;stroke-linecap:round;stroke-linejoin:round;stroke-miterlimit:10;stroke-dasharray:none;stroke-opacity:1" id="path5120"/><path d="m 1093.2,1645.2 -45.6,-92.4 h 92.4 l -46.8,92.4" style="fill:#000;fill-opacity:1;fill-rule:evenodd;stroke:none" id="path5122"/><path d="m 1093.2,1465.2 -45.6,-92.4 h 92.4 l -46.8,92.4" style="fill:#000;fill-opacity:1;fill-rule:evenodd;stroke:none" id="path5124"/><path d="m 1093.2,1285.2 -45.6,-92.4 h 92.4 l -46.8,92.4" style="fill:#000;fill-opacity:1;fill-rule:evenodd;stroke:none" id="path5126"/><path d="m 1054.8,650.4 94.8,48 -94.8,46.8 v -94.8" style="fill:#000;fill-opacity:1;fill-rule:evenodd;stroke:none" id="path5128"/><path d="m 1054.8,290.4 94.8,48 -94.8,46.8 v -94.8" style="fill:#000;fill-opacity:1;fill-rule:evenodd;stroke:none" id="path5130"/><path d="m 1054.8,470.4 94.8,48 -94.8,46.8 v -94.8" style="fill:#000;fill-opacity:1;fill-rule:evenodd;stroke:none" id="path5132"/><path d="m 1054.8,110.4 94.8,48 -94.8,46.8 v -94.8" style="fill:#000;fill-opacity:1;fill-rule:evenodd;stroke:none" id="path5134"/><g id="g5136" transform="scale(10)"><text transform="matrix(0,0.95745,1,0,13.0775,49.56)" style="font-style:italic;font-variant:normal;font-size:12px;font-family:Helvetica;-inkscape-font-specification:Helvetica-Oblique;writing-mode:lr-tb;fill:#000;fill-opacity:1;fill-rule:nonzero;stroke:none" id="text5140"><tspan id="tspan5138" x="0 6 9.336 16.008 22.68 28.68 31.344 34.008 37.344 44.016 50.688 54.024 58.02 60.684 67.356 73.356" y="0">stencil entries</tspan></text><text transform="matrix(-7.6595728e-4,-0.95744972,-0.99999971,7.9999977e-4,128.282,104.88)" style="font-style:italic;font-variant:normal;font-size:12.00000381px;font-family:Helvetica;-inkscape-font-specification:Helvetica-Oblique;writing-mode:lr-tb;fill:#000;fill-opacity:1;fill-rule:nonzero;stroke:none" id="text5144"><tspan id="tspan5142" x="0 6.672 10.008 13.344 19.344 26.016 29.352 35.352" y="0">offsets</tspan></text></g></g></g></g></svg>